<?xml version="1.0" encoding="utf-8" standalone="no"?>
<!DOCTYPE svg PUBLIC "-//W3C//DTD SVG 1.1//EN"
  "http://www.w3.org/Graphics/SVG/1.1/DTD/svg11.dtd">
<!-- Created with matplotlib (https://matplotlib.org/) -->
<svg height="432pt" version="1.1" viewBox="0 0 1296 432" width="1296pt" xmlns="http://www.w3.org/2000/svg" xmlns:xlink="http://www.w3.org/1999/xlink">
 <defs>
  <style type="text/css">
*{stroke-linecap:butt;stroke-linejoin:round;}
  </style>
 </defs>
 <g id="figure_1">
  <g id="patch_1">
   <path d="M 0 432 
L 1296 432 
L 1296 0 
L 0 0 
z
" style="fill:#ffffff;"/>
  </g>
  <g id="axes_1">
   <g id="patch_2">
    <path d="M 59.927 374.948 
L 280.7896 374.948 
L 280.7896 32.552 
L 59.927 32.552 
z
" style="fill:#eaeaf2;"/>
   </g>
   <g id="matplotlib.axis_1">
    <g id="xtick_1">
     <g id="text_1">
      <!-- base -->
      <defs>
       <path d="M 48.6875 27.296875 
Q 48.6875 37.203125 44.609375 42.84375 
Q 40.53125 48.484375 33.40625 48.484375 
Q 26.265625 48.484375 22.1875 42.84375 
Q 18.109375 37.203125 18.109375 27.296875 
Q 18.109375 17.390625 22.1875 11.75 
Q 26.265625 6.109375 33.40625 6.109375 
Q 40.53125 6.109375 44.609375 11.75 
Q 48.6875 17.390625 48.6875 27.296875 
z
M 18.109375 46.390625 
Q 20.953125 51.265625 25.265625 53.625 
Q 29.59375 56 35.59375 56 
Q 45.5625 56 51.78125 48.09375 
Q 58.015625 40.1875 58.015625 27.296875 
Q 58.015625 14.40625 51.78125 6.484375 
Q 45.5625 -1.421875 35.59375 -1.421875 
Q 29.59375 -1.421875 25.265625 0.953125 
Q 20.953125 3.328125 18.109375 8.203125 
L 18.109375 0 
L 9.078125 0 
L 9.078125 75.984375 
L 18.109375 75.984375 
z
" id="DejaVuSans-98"/>
       <path d="M 34.28125 27.484375 
Q 23.390625 27.484375 19.1875 25 
Q 14.984375 22.515625 14.984375 16.5 
Q 14.984375 11.71875 18.140625 8.90625 
Q 21.296875 6.109375 26.703125 6.109375 
Q 34.1875 6.109375 38.703125 11.40625 
Q 43.21875 16.703125 43.21875 25.484375 
L 43.21875 27.484375 
z
M 52.203125 31.203125 
L 52.203125 0 
L 43.21875 0 
L 43.21875 8.296875 
Q 40.140625 3.328125 35.546875 0.953125 
Q 30.953125 -1.421875 24.3125 -1.421875 
Q 15.921875 -1.421875 10.953125 3.296875 
Q 6 8.015625 6 15.921875 
Q 6 25.140625 12.171875 29.828125 
Q 18.359375 34.515625 30.609375 34.515625 
L 43.21875 34.515625 
L 43.21875 35.40625 
Q 43.21875 41.609375 39.140625 45 
Q 35.0625 48.390625 27.6875 48.390625 
Q 23 48.390625 18.546875 47.265625 
Q 14.109375 46.140625 10.015625 43.890625 
L 10.015625 52.203125 
Q 14.9375 54.109375 19.578125 55.046875 
Q 24.21875 56 28.609375 56 
Q 40.484375 56 46.34375 49.84375 
Q 52.203125 43.703125 52.203125 31.203125 
z
" id="DejaVuSans-97"/>
       <path d="M 44.28125 53.078125 
L 44.28125 44.578125 
Q 40.484375 46.53125 36.375 47.5 
Q 32.28125 48.484375 27.875 48.484375 
Q 21.1875 48.484375 17.84375 46.4375 
Q 14.5 44.390625 14.5 40.28125 
Q 14.5 37.15625 16.890625 35.375 
Q 19.28125 33.59375 26.515625 31.984375 
L 29.59375 31.296875 
Q 39.15625 29.25 43.1875 25.515625 
Q 47.21875 21.78125 47.21875 15.09375 
Q 47.21875 7.46875 41.1875 3.015625 
Q 35.15625 -1.421875 24.609375 -1.421875 
Q 20.21875 -1.421875 15.453125 -0.5625 
Q 10.6875 0.296875 5.421875 2 
L 5.421875 11.28125 
Q 10.40625 8.6875 15.234375 7.390625 
Q 20.0625 6.109375 24.8125 6.109375 
Q 31.15625 6.109375 34.5625 8.28125 
Q 37.984375 10.453125 37.984375 14.40625 
Q 37.984375 18.0625 35.515625 20.015625 
Q 33.0625 21.96875 24.703125 23.78125 
L 21.578125 24.515625 
Q 13.234375 26.265625 9.515625 29.90625 
Q 5.8125 33.546875 5.8125 39.890625 
Q 5.8125 47.609375 11.28125 51.796875 
Q 16.75 56 26.8125 56 
Q 31.78125 56 36.171875 55.265625 
Q 40.578125 54.546875 44.28125 53.078125 
z
" id="DejaVuSans-115"/>
       <path d="M 56.203125 29.59375 
L 56.203125 25.203125 
L 14.890625 25.203125 
Q 15.484375 15.921875 20.484375 11.0625 
Q 25.484375 6.203125 34.421875 6.203125 
Q 39.59375 6.203125 44.453125 7.46875 
Q 49.3125 8.734375 54.109375 11.28125 
L 54.109375 2.78125 
Q 49.265625 0.734375 44.1875 -0.34375 
Q 39.109375 -1.421875 33.890625 -1.421875 
Q 20.796875 -1.421875 13.15625 6.1875 
Q 5.515625 13.8125 5.515625 26.8125 
Q 5.515625 40.234375 12.765625 48.109375 
Q 20.015625 56 32.328125 56 
Q 43.359375 56 49.78125 48.890625 
Q 56.203125 41.796875 56.203125 29.59375 
z
M 47.21875 32.234375 
Q 47.125 39.59375 43.09375 43.984375 
Q 39.0625 48.390625 32.421875 48.390625 
Q 24.90625 48.390625 20.390625 44.140625 
Q 15.875 39.890625 15.1875 32.171875 
z
" id="DejaVuSans-101"/>
      </defs>
      <g style="fill:#262626;" transform="translate(66.279479 394.477937)scale(0.132 -0.132)">
       <use xlink:href="#DejaVuSans-98"/>
       <use x="63.476562" xlink:href="#DejaVuSans-97"/>
       <use x="124.755859" xlink:href="#DejaVuSans-115"/>
       <use x="176.855469" xlink:href="#DejaVuSans-101"/>
      </g>
     </g>
    </g>
    <g id="xtick_2">
     <g id="text_2">
      <!-- metis -->
      <defs>
       <path d="M 52 44.1875 
Q 55.375 50.25 60.0625 53.125 
Q 64.75 56 71.09375 56 
Q 79.640625 56 84.28125 50.015625 
Q 88.921875 44.046875 88.921875 33.015625 
L 88.921875 0 
L 79.890625 0 
L 79.890625 32.71875 
Q 79.890625 40.578125 77.09375 44.375 
Q 74.3125 48.1875 68.609375 48.1875 
Q 61.625 48.1875 57.5625 43.546875 
Q 53.515625 38.921875 53.515625 30.90625 
L 53.515625 0 
L 44.484375 0 
L 44.484375 32.71875 
Q 44.484375 40.625 41.703125 44.40625 
Q 38.921875 48.1875 33.109375 48.1875 
Q 26.21875 48.1875 22.15625 43.53125 
Q 18.109375 38.875 18.109375 30.90625 
L 18.109375 0 
L 9.078125 0 
L 9.078125 54.6875 
L 18.109375 54.6875 
L 18.109375 46.1875 
Q 21.1875 51.21875 25.484375 53.609375 
Q 29.78125 56 35.6875 56 
Q 41.65625 56 45.828125 52.96875 
Q 50 49.953125 52 44.1875 
z
" id="DejaVuSans-109"/>
       <path d="M 18.3125 70.21875 
L 18.3125 54.6875 
L 36.8125 54.6875 
L 36.8125 47.703125 
L 18.3125 47.703125 
L 18.3125 18.015625 
Q 18.3125 11.328125 20.140625 9.421875 
Q 21.96875 7.515625 27.59375 7.515625 
L 36.8125 7.515625 
L 36.8125 0 
L 27.59375 0 
Q 17.1875 0 13.234375 3.875 
Q 9.28125 7.765625 9.28125 18.015625 
L 9.28125 47.703125 
L 2.6875 47.703125 
L 2.6875 54.6875 
L 9.28125 54.6875 
L 9.28125 70.21875 
z
" id="DejaVuSans-116"/>
       <path d="M 9.421875 54.6875 
L 18.40625 54.6875 
L 18.40625 0 
L 9.421875 0 
z
M 9.421875 75.984375 
L 18.40625 75.984375 
L 18.40625 64.59375 
L 9.421875 64.59375 
z
" id="DejaVuSans-105"/>
      </defs>
      <g style="fill:#262626;" transform="translate(107.836749 394.477937)scale(0.132 -0.132)">
       <use xlink:href="#DejaVuSans-109"/>
       <use x="97.412109" xlink:href="#DejaVuSans-101"/>
       <use x="158.935547" xlink:href="#DejaVuSans-116"/>
       <use x="198.144531" xlink:href="#DejaVuSans-105"/>
       <use x="225.927734" xlink:href="#DejaVuSans-115"/>
      </g>
     </g>
    </g>
    <g id="xtick_3">
     <g id="text_3">
      <!-- merged -->
      <defs>
       <path d="M 41.109375 46.296875 
Q 39.59375 47.171875 37.8125 47.578125 
Q 36.03125 48 33.890625 48 
Q 26.265625 48 22.1875 43.046875 
Q 18.109375 38.09375 18.109375 28.8125 
L 18.109375 0 
L 9.078125 0 
L 9.078125 54.6875 
L 18.109375 54.6875 
L 18.109375 46.1875 
Q 20.953125 51.171875 25.484375 53.578125 
Q 30.03125 56 36.53125 56 
Q 37.453125 56 38.578125 55.875 
Q 39.703125 55.765625 41.0625 55.515625 
z
" id="DejaVuSans-114"/>
       <path d="M 45.40625 27.984375 
Q 45.40625 37.75 41.375 43.109375 
Q 37.359375 48.484375 30.078125 48.484375 
Q 22.859375 48.484375 18.828125 43.109375 
Q 14.796875 37.75 14.796875 27.984375 
Q 14.796875 18.265625 18.828125 12.890625 
Q 22.859375 7.515625 30.078125 7.515625 
Q 37.359375 7.515625 41.375 12.890625 
Q 45.40625 18.265625 45.40625 27.984375 
z
M 54.390625 6.78125 
Q 54.390625 -7.171875 48.1875 -13.984375 
Q 42 -20.796875 29.203125 -20.796875 
Q 24.46875 -20.796875 20.265625 -20.09375 
Q 16.0625 -19.390625 12.109375 -17.921875 
L 12.109375 -9.1875 
Q 16.0625 -11.328125 19.921875 -12.34375 
Q 23.78125 -13.375 27.78125 -13.375 
Q 36.625 -13.375 41.015625 -8.765625 
Q 45.40625 -4.15625 45.40625 5.171875 
L 45.40625 9.625 
Q 42.625 4.78125 38.28125 2.390625 
Q 33.9375 0 27.875 0 
Q 17.828125 0 11.671875 7.65625 
Q 5.515625 15.328125 5.515625 27.984375 
Q 5.515625 40.671875 11.671875 48.328125 
Q 17.828125 56 27.875 56 
Q 33.9375 56 38.28125 53.609375 
Q 42.625 51.21875 45.40625 46.390625 
L 45.40625 54.6875 
L 54.390625 54.6875 
z
" id="DejaVuSans-103"/>
       <path d="M 45.40625 46.390625 
L 45.40625 75.984375 
L 54.390625 75.984375 
L 54.390625 0 
L 45.40625 0 
L 45.40625 8.203125 
Q 42.578125 3.328125 38.25 0.953125 
Q 33.9375 -1.421875 27.875 -1.421875 
Q 17.96875 -1.421875 11.734375 6.484375 
Q 5.515625 14.40625 5.515625 27.296875 
Q 5.515625 40.1875 11.734375 48.09375 
Q 17.96875 56 27.875 56 
Q 33.9375 56 38.25 53.625 
Q 42.578125 51.265625 45.40625 46.390625 
z
M 14.796875 27.296875 
Q 14.796875 17.390625 18.875 11.75 
Q 22.953125 6.109375 30.078125 6.109375 
Q 37.203125 6.109375 41.296875 11.75 
Q 45.40625 17.390625 45.40625 27.296875 
Q 45.40625 37.203125 41.296875 42.84375 
Q 37.203125 48.484375 30.078125 48.484375 
Q 22.953125 48.484375 18.875 42.84375 
Q 14.796875 37.203125 14.796875 27.296875 
z
" id="DejaVuSans-100"/>
      </defs>
      <g style="fill:#262626;" transform="translate(144.715237 394.477937)scale(0.132 -0.132)">
       <use xlink:href="#DejaVuSans-109"/>
       <use x="97.412109" xlink:href="#DejaVuSans-101"/>
       <use x="158.935547" xlink:href="#DejaVuSans-114"/>
       <use x="200.033203" xlink:href="#DejaVuSans-103"/>
       <use x="263.509766" xlink:href="#DejaVuSans-101"/>
       <use x="325.033203" xlink:href="#DejaVuSans-100"/>
      </g>
     </g>
    </g>
    <g id="xtick_4">
     <g id="text_4">
      <!-- prio -->
      <defs>
       <path d="M 18.109375 8.203125 
L 18.109375 -20.796875 
L 9.078125 -20.796875 
L 9.078125 54.6875 
L 18.109375 54.6875 
L 18.109375 46.390625 
Q 20.953125 51.265625 25.265625 53.625 
Q 29.59375 56 35.59375 56 
Q 45.5625 56 51.78125 48.09375 
Q 58.015625 40.1875 58.015625 27.296875 
Q 58.015625 14.40625 51.78125 6.484375 
Q 45.5625 -1.421875 35.59375 -1.421875 
Q 29.59375 -1.421875 25.265625 0.953125 
Q 20.953125 3.328125 18.109375 8.203125 
z
M 48.6875 27.296875 
Q 48.6875 37.203125 44.609375 42.84375 
Q 40.53125 48.484375 33.40625 48.484375 
Q 26.265625 48.484375 22.1875 42.84375 
Q 18.109375 37.203125 18.109375 27.296875 
Q 18.109375 17.390625 22.1875 11.75 
Q 26.265625 6.109375 33.40625 6.109375 
Q 40.53125 6.109375 44.609375 11.75 
Q 48.6875 17.390625 48.6875 27.296875 
z
" id="DejaVuSans-112"/>
       <path d="M 30.609375 48.390625 
Q 23.390625 48.390625 19.1875 42.75 
Q 14.984375 37.109375 14.984375 27.296875 
Q 14.984375 17.484375 19.15625 11.84375 
Q 23.34375 6.203125 30.609375 6.203125 
Q 37.796875 6.203125 41.984375 11.859375 
Q 46.1875 17.53125 46.1875 27.296875 
Q 46.1875 37.015625 41.984375 42.703125 
Q 37.796875 48.390625 30.609375 48.390625 
z
M 30.609375 56 
Q 42.328125 56 49.015625 48.375 
Q 55.71875 40.765625 55.71875 27.296875 
Q 55.71875 13.875 49.015625 6.21875 
Q 42.328125 -1.421875 30.609375 -1.421875 
Q 18.84375 -1.421875 12.171875 6.21875 
Q 5.515625 13.875 5.515625 27.296875 
Q 5.515625 40.765625 12.171875 48.375 
Q 18.84375 56 30.609375 56 
z
" id="DejaVuSans-111"/>
      </defs>
      <g style="fill:#262626;" transform="translate(201.755695 394.477937)scale(0.132 -0.132)">
       <use xlink:href="#DejaVuSans-112"/>
       <use x="63.476562" xlink:href="#DejaVuSans-114"/>
       <use x="104.589844" xlink:href="#DejaVuSans-105"/>
       <use x="132.373047" xlink:href="#DejaVuSans-111"/>
      </g>
     </g>
    </g>
    <g id="xtick_5">
     <g id="text_5">
      <!-- kmeans -->
      <defs>
       <path d="M 9.078125 75.984375 
L 18.109375 75.984375 
L 18.109375 31.109375 
L 44.921875 54.6875 
L 56.390625 54.6875 
L 27.390625 29.109375 
L 57.625 0 
L 45.90625 0 
L 18.109375 26.703125 
L 18.109375 0 
L 9.078125 0 
z
" id="DejaVuSans-107"/>
       <path d="M 54.890625 33.015625 
L 54.890625 0 
L 45.90625 0 
L 45.90625 32.71875 
Q 45.90625 40.484375 42.875 44.328125 
Q 39.84375 48.1875 33.796875 48.1875 
Q 26.515625 48.1875 22.3125 43.546875 
Q 18.109375 38.921875 18.109375 30.90625 
L 18.109375 0 
L 9.078125 0 
L 9.078125 54.6875 
L 18.109375 54.6875 
L 18.109375 46.1875 
Q 21.34375 51.125 25.703125 53.5625 
Q 30.078125 56 35.796875 56 
Q 45.21875 56 50.046875 50.171875 
Q 54.890625 44.34375 54.890625 33.015625 
z
" id="DejaVuSans-110"/>
      </defs>
      <g style="fill:#262626;" transform="translate(232.726152 394.477937)scale(0.132 -0.132)">
       <use xlink:href="#DejaVuSans-107"/>
       <use x="57.910156" xlink:href="#DejaVuSans-109"/>
       <use x="155.322266" xlink:href="#DejaVuSans-101"/>
       <use x="216.845703" xlink:href="#DejaVuSans-97"/>
       <use x="278.125" xlink:href="#DejaVuSans-110"/>
       <use x="341.503906" xlink:href="#DejaVuSans-115"/>
      </g>
     </g>
    </g>
    <g id="text_6">
     <!-- method -->
     <defs>
      <path d="M 54.890625 33.015625 
L 54.890625 0 
L 45.90625 0 
L 45.90625 32.71875 
Q 45.90625 40.484375 42.875 44.328125 
Q 39.84375 48.1875 33.796875 48.1875 
Q 26.515625 48.1875 22.3125 43.546875 
Q 18.109375 38.921875 18.109375 30.90625 
L 18.109375 0 
L 9.078125 0 
L 9.078125 75.984375 
L 18.109375 75.984375 
L 18.109375 46.1875 
Q 21.34375 51.125 25.703125 53.5625 
Q 30.078125 56 35.796875 56 
Q 45.21875 56 50.046875 50.171875 
Q 54.890625 44.34375 54.890625 33.015625 
z
" id="DejaVuSans-104"/>
     </defs>
     <g style="fill:#262626;" transform="translate(142.5528 412.164875)scale(0.144 -0.144)">
      <use xlink:href="#DejaVuSans-109"/>
      <use x="97.412109" xlink:href="#DejaVuSans-101"/>
      <use x="158.935547" xlink:href="#DejaVuSans-116"/>
      <use x="198.144531" xlink:href="#DejaVuSans-104"/>
      <use x="261.523438" xlink:href="#DejaVuSans-111"/>
      <use x="322.705078" xlink:href="#DejaVuSans-100"/>
     </g>
    </g>
   </g>
   <g id="matplotlib.axis_2">
    <g id="ytick_1">
     <g id="line2d_1">
      <path clip-path="url(#p9009b7ae28)" d="M 59.927 323.265585 
L 280.7896 323.265585 
" style="fill:none;stroke:#ffffff;stroke-linecap:round;"/>
     </g>
     <g id="text_7">
      <!-- 20 -->
      <defs>
       <path d="M 19.1875 8.296875 
L 53.609375 8.296875 
L 53.609375 0 
L 7.328125 0 
L 7.328125 8.296875 
Q 12.9375 14.109375 22.625 23.890625 
Q 32.328125 33.6875 34.8125 36.53125 
Q 39.546875 41.84375 41.421875 45.53125 
Q 43.3125 49.21875 43.3125 52.78125 
Q 43.3125 58.59375 39.234375 62.25 
Q 35.15625 65.921875 28.609375 65.921875 
Q 23.96875 65.921875 18.8125 64.3125 
Q 13.671875 62.703125 7.8125 59.421875 
L 7.8125 69.390625 
Q 13.765625 71.78125 18.9375 73 
Q 24.125 74.21875 28.421875 74.21875 
Q 39.75 74.21875 46.484375 68.546875 
Q 53.21875 62.890625 53.21875 53.421875 
Q 53.21875 48.921875 51.53125 44.890625 
Q 49.859375 40.875 45.40625 35.40625 
Q 44.1875 33.984375 37.640625 27.21875 
Q 31.109375 20.453125 19.1875 8.296875 
z
" id="DejaVuSans-50"/>
       <path d="M 31.78125 66.40625 
Q 24.171875 66.40625 20.328125 58.90625 
Q 16.5 51.421875 16.5 36.375 
Q 16.5 21.390625 20.328125 13.890625 
Q 24.171875 6.390625 31.78125 6.390625 
Q 39.453125 6.390625 43.28125 13.890625 
Q 47.125 21.390625 47.125 36.375 
Q 47.125 51.421875 43.28125 58.90625 
Q 39.453125 66.40625 31.78125 66.40625 
z
M 31.78125 74.21875 
Q 44.046875 74.21875 50.515625 64.515625 
Q 56.984375 54.828125 56.984375 36.375 
Q 56.984375 17.96875 50.515625 8.265625 
Q 44.046875 -1.421875 31.78125 -1.421875 
Q 19.53125 -1.421875 13.0625 8.265625 
Q 6.59375 17.96875 6.59375 36.375 
Q 6.59375 54.828125 13.0625 64.515625 
Q 19.53125 74.21875 31.78125 74.21875 
z
" id="DejaVuSans-48"/>
      </defs>
      <g style="fill:#262626;" transform="translate(33.63 328.280554)scale(0.132 -0.132)">
       <use xlink:href="#DejaVuSans-50"/>
       <use x="63.623047" xlink:href="#DejaVuSans-48"/>
      </g>
     </g>
    </g>
    <g id="ytick_2">
     <g id="line2d_2">
      <path clip-path="url(#p9009b7ae28)" d="M 59.927 258.662566 
L 280.7896 258.662566 
" style="fill:none;stroke:#ffffff;stroke-linecap:round;"/>
     </g>
     <g id="text_8">
      <!-- 30 -->
      <defs>
       <path d="M 40.578125 39.3125 
Q 47.65625 37.796875 51.625 33 
Q 55.609375 28.21875 55.609375 21.1875 
Q 55.609375 10.40625 48.1875 4.484375 
Q 40.765625 -1.421875 27.09375 -1.421875 
Q 22.515625 -1.421875 17.65625 -0.515625 
Q 12.796875 0.390625 7.625 2.203125 
L 7.625 11.71875 
Q 11.71875 9.328125 16.59375 8.109375 
Q 21.484375 6.890625 26.8125 6.890625 
Q 36.078125 6.890625 40.9375 10.546875 
Q 45.796875 14.203125 45.796875 21.1875 
Q 45.796875 27.640625 41.28125 31.265625 
Q 36.765625 34.90625 28.71875 34.90625 
L 20.21875 34.90625 
L 20.21875 43.015625 
L 29.109375 43.015625 
Q 36.375 43.015625 40.234375 45.921875 
Q 44.09375 48.828125 44.09375 54.296875 
Q 44.09375 59.90625 40.109375 62.90625 
Q 36.140625 65.921875 28.71875 65.921875 
Q 24.65625 65.921875 20.015625 65.03125 
Q 15.375 64.15625 9.8125 62.3125 
L 9.8125 71.09375 
Q 15.4375 72.65625 20.34375 73.4375 
Q 25.25 74.21875 29.59375 74.21875 
Q 40.828125 74.21875 47.359375 69.109375 
Q 53.90625 64.015625 53.90625 55.328125 
Q 53.90625 49.265625 50.4375 45.09375 
Q 46.96875 40.921875 40.578125 39.3125 
z
" id="DejaVuSans-51"/>
      </defs>
      <g style="fill:#262626;" transform="translate(33.63 263.677535)scale(0.132 -0.132)">
       <use xlink:href="#DejaVuSans-51"/>
       <use x="63.623047" xlink:href="#DejaVuSans-48"/>
      </g>
     </g>
    </g>
    <g id="ytick_3">
     <g id="line2d_3">
      <path clip-path="url(#p9009b7ae28)" d="M 59.927 194.059547 
L 280.7896 194.059547 
" style="fill:none;stroke:#ffffff;stroke-linecap:round;"/>
     </g>
     <g id="text_9">
      <!-- 40 -->
      <defs>
       <path d="M 37.796875 64.3125 
L 12.890625 25.390625 
L 37.796875 25.390625 
z
M 35.203125 72.90625 
L 47.609375 72.90625 
L 47.609375 25.390625 
L 58.015625 25.390625 
L 58.015625 17.1875 
L 47.609375 17.1875 
L 47.609375 0 
L 37.796875 0 
L 37.796875 17.1875 
L 4.890625 17.1875 
L 4.890625 26.703125 
z
" id="DejaVuSans-52"/>
      </defs>
      <g style="fill:#262626;" transform="translate(33.63 199.074516)scale(0.132 -0.132)">
       <use xlink:href="#DejaVuSans-52"/>
       <use x="63.623047" xlink:href="#DejaVuSans-48"/>
      </g>
     </g>
    </g>
    <g id="ytick_4">
     <g id="line2d_4">
      <path clip-path="url(#p9009b7ae28)" d="M 59.927 129.456528 
L 280.7896 129.456528 
" style="fill:none;stroke:#ffffff;stroke-linecap:round;"/>
     </g>
     <g id="text_10">
      <!-- 50 -->
      <defs>
       <path d="M 10.796875 72.90625 
L 49.515625 72.90625 
L 49.515625 64.59375 
L 19.828125 64.59375 
L 19.828125 46.734375 
Q 21.96875 47.46875 24.109375 47.828125 
Q 26.265625 48.1875 28.421875 48.1875 
Q 40.625 48.1875 47.75 41.5 
Q 54.890625 34.8125 54.890625 23.390625 
Q 54.890625 11.625 47.5625 5.09375 
Q 40.234375 -1.421875 26.90625 -1.421875 
Q 22.3125 -1.421875 17.546875 -0.640625 
Q 12.796875 0.140625 7.71875 1.703125 
L 7.71875 11.625 
Q 12.109375 9.234375 16.796875 8.0625 
Q 21.484375 6.890625 26.703125 6.890625 
Q 35.15625 6.890625 40.078125 11.328125 
Q 45.015625 15.765625 45.015625 23.390625 
Q 45.015625 31 40.078125 35.4375 
Q 35.15625 39.890625 26.703125 39.890625 
Q 22.75 39.890625 18.8125 39.015625 
Q 14.890625 38.140625 10.796875 36.28125 
z
" id="DejaVuSans-53"/>
      </defs>
      <g style="fill:#262626;" transform="translate(33.63 134.471497)scale(0.132 -0.132)">
       <use xlink:href="#DejaVuSans-53"/>
       <use x="63.623047" xlink:href="#DejaVuSans-48"/>
      </g>
     </g>
    </g>
    <g id="ytick_5">
     <g id="line2d_5">
      <path clip-path="url(#p9009b7ae28)" d="M 59.927 64.853509 
L 280.7896 64.853509 
" style="fill:none;stroke:#ffffff;stroke-linecap:round;"/>
     </g>
     <g id="text_11">
      <!-- 60 -->
      <defs>
       <path d="M 33.015625 40.375 
Q 26.375 40.375 22.484375 35.828125 
Q 18.609375 31.296875 18.609375 23.390625 
Q 18.609375 15.53125 22.484375 10.953125 
Q 26.375 6.390625 33.015625 6.390625 
Q 39.65625 6.390625 43.53125 10.953125 
Q 47.40625 15.53125 47.40625 23.390625 
Q 47.40625 31.296875 43.53125 35.828125 
Q 39.65625 40.375 33.015625 40.375 
z
M 52.59375 71.296875 
L 52.59375 62.3125 
Q 48.875 64.0625 45.09375 64.984375 
Q 41.3125 65.921875 37.59375 65.921875 
Q 27.828125 65.921875 22.671875 59.328125 
Q 17.53125 52.734375 16.796875 39.40625 
Q 19.671875 43.65625 24.015625 45.921875 
Q 28.375 48.1875 33.59375 48.1875 
Q 44.578125 48.1875 50.953125 41.515625 
Q 57.328125 34.859375 57.328125 23.390625 
Q 57.328125 12.15625 50.6875 5.359375 
Q 44.046875 -1.421875 33.015625 -1.421875 
Q 20.359375 -1.421875 13.671875 8.265625 
Q 6.984375 17.96875 6.984375 36.375 
Q 6.984375 53.65625 15.1875 63.9375 
Q 23.390625 74.21875 37.203125 74.21875 
Q 40.921875 74.21875 44.703125 73.484375 
Q 48.484375 72.75 52.59375 71.296875 
z
" id="DejaVuSans-54"/>
      </defs>
      <g style="fill:#262626;" transform="translate(33.63 69.868478)scale(0.132 -0.132)">
       <use xlink:href="#DejaVuSans-54"/>
       <use x="63.623047" xlink:href="#DejaVuSans-48"/>
      </g>
     </g>
    </g>
    <g id="text_12">
     <!-- hitrate -->
     <g style="fill:#262626;" transform="translate(26.63525 227.760875)rotate(-90)scale(0.144 -0.144)">
      <use xlink:href="#DejaVuSans-104"/>
      <use x="63.378906" xlink:href="#DejaVuSans-105"/>
      <use x="91.162109" xlink:href="#DejaVuSans-116"/>
      <use x="130.371094" xlink:href="#DejaVuSans-114"/>
      <use x="171.484375" xlink:href="#DejaVuSans-97"/>
      <use x="232.763672" xlink:href="#DejaVuSans-116"/>
      <use x="271.972656" xlink:href="#DejaVuSans-101"/>
     </g>
    </g>
   </g>
   <g id="PathCollection_1">
    <defs>
     <path d="M -0 4.242641 
L 2.545584 0 
L 0 -4.242641 
L -2.545584 -0 
z
" id="m177de168e1" style="stroke:#5875a4;"/>
    </defs>
    <g clip-path="url(#p9009b7ae28)">
     <use style="fill:#5875a4;stroke:#5875a4;" x="82.01326" xlink:href="#m177de168e1" y="174.678642"/>
     <use style="fill:#5875a4;stroke:#5875a4;" x="82.01326" xlink:href="#m177de168e1" y="181.138943"/>
    </g>
   </g>
   <g id="PatchCollection_1">
    <path clip-path="url(#p9009b7ae28)" d="M 81.94424 355.567094 
L 82.08228 355.567094 
L 82.08228 200.519849 
L 81.94424 200.519849 
z
" style="fill:#ffffff;stroke:#ffffff;"/>
    <path clip-path="url(#p9009b7ae28)" d="M 81.875221 349.106792 
L 82.151299 349.106792 
L 82.151299 200.519849 
L 81.875221 200.519849 
z
" style="fill:#eaeef4;stroke:#ffffff;"/>
    <path clip-path="url(#p9009b7ae28)" d="M 81.737182 342.646491 
L 82.289338 342.646491 
L 82.289338 211.598257 
L 81.737182 211.598257 
z
" style="fill:#d5dce8;stroke:#ffffff;"/>
    <path clip-path="url(#p9009b7ae28)" d="M 81.461104 336.186189 
L 82.565416 336.186189 
L 82.565416 226.361057 
L 81.461104 226.361057 
z
" style="fill:#c0cbdd;stroke:#ffffff;"/>
    <path clip-path="url(#p9009b7ae28)" d="M 80.908947 329.725887 
L 83.117573 329.725887 
L 83.117573 232.821358 
L 80.908947 232.821358 
z
" style="fill:#abbad1;stroke:#ffffff;"/>
    <path clip-path="url(#p9009b7ae28)" d="M 79.804634 323.265585 
L 84.221886 323.265585 
L 84.221886 239.28166 
L 79.804634 239.28166 
z
" style="fill:#97a8c6;stroke:#ffffff;"/>
    <path clip-path="url(#p9009b7ae28)" d="M 77.596008 316.805283 
L 86.430512 316.805283 
L 86.430512 252.202264 
L 77.596008 252.202264 
z
" style="fill:#8297ba;stroke:#ffffff;"/>
    <path clip-path="url(#p9009b7ae28)" d="M 73.178756 310.344981 
L 90.847764 310.344981 
L 90.847764 258.662566 
L 73.178756 258.662566 
z
" style="fill:#6d86af;stroke:#ffffff;"/>
    <path clip-path="url(#p9009b7ae28)" d="M 64.344252 297.424377 
L 99.682268 297.424377 
L 99.682268 271.58317 
L 64.344252 271.58317 
z
" style="fill:#5875a4;stroke:#ffffff;"/>
   </g>
   <g id="line2d_6">
    <path clip-path="url(#p9009b7ae28)" d="M 64.344252 284.503774 
L 99.682268 284.503774 
" style="fill:none;stroke:#262626;stroke-linecap:round;stroke-opacity:0.45;stroke-width:1.5;"/>
   </g>
   <g id="patch_3">
    <path d="M 59.927 374.948 
L 59.927 32.552 
" style="fill:none;stroke:#ffffff;stroke-linecap:square;stroke-linejoin:miter;stroke-width:1.25;"/>
   </g>
   <g id="patch_4">
    <path d="M 59.927 374.948 
L 280.7896 374.948 
" style="fill:none;stroke:#ffffff;stroke-linecap:square;stroke-linejoin:miter;stroke-width:1.25;"/>
   </g>
   <g id="text_13">
    <!-- clusters = 1 -->
    <defs>
     <path d="M 48.78125 52.59375 
L 48.78125 44.1875 
Q 44.96875 46.296875 41.140625 47.34375 
Q 37.3125 48.390625 33.40625 48.390625 
Q 24.65625 48.390625 19.8125 42.84375 
Q 14.984375 37.3125 14.984375 27.296875 
Q 14.984375 17.28125 19.8125 11.734375 
Q 24.65625 6.203125 33.40625 6.203125 
Q 37.3125 6.203125 41.140625 7.25 
Q 44.96875 8.296875 48.78125 10.40625 
L 48.78125 2.09375 
Q 45.015625 0.34375 40.984375 -0.53125 
Q 36.96875 -1.421875 32.421875 -1.421875 
Q 20.0625 -1.421875 12.78125 6.34375 
Q 5.515625 14.109375 5.515625 27.296875 
Q 5.515625 40.671875 12.859375 48.328125 
Q 20.21875 56 33.015625 56 
Q 37.15625 56 41.109375 55.140625 
Q 45.0625 54.296875 48.78125 52.59375 
z
" id="DejaVuSans-99"/>
     <path d="M 9.421875 75.984375 
L 18.40625 75.984375 
L 18.40625 0 
L 9.421875 0 
z
" id="DejaVuSans-108"/>
     <path d="M 8.5 21.578125 
L 8.5 54.6875 
L 17.484375 54.6875 
L 17.484375 21.921875 
Q 17.484375 14.15625 20.5 10.265625 
Q 23.53125 6.390625 29.59375 6.390625 
Q 36.859375 6.390625 41.078125 11.03125 
Q 45.3125 15.671875 45.3125 23.6875 
L 45.3125 54.6875 
L 54.296875 54.6875 
L 54.296875 0 
L 45.3125 0 
L 45.3125 8.40625 
Q 42.046875 3.421875 37.71875 1 
Q 33.40625 -1.421875 27.6875 -1.421875 
Q 18.265625 -1.421875 13.375 4.4375 
Q 8.5 10.296875 8.5 21.578125 
z
M 31.109375 56 
z
" id="DejaVuSans-117"/>
     <path id="DejaVuSans-32"/>
     <path d="M 10.59375 45.40625 
L 73.1875 45.40625 
L 73.1875 37.203125 
L 10.59375 37.203125 
z
M 10.59375 25.484375 
L 73.1875 25.484375 
L 73.1875 17.1875 
L 10.59375 17.1875 
z
" id="DejaVuSans-61"/>
     <path d="M 12.40625 8.296875 
L 28.515625 8.296875 
L 28.515625 63.921875 
L 10.984375 60.40625 
L 10.984375 69.390625 
L 28.421875 72.90625 
L 38.28125 72.90625 
L 38.28125 8.296875 
L 54.390625 8.296875 
L 54.390625 0 
L 12.40625 0 
z
" id="DejaVuSans-49"/>
    </defs>
    <g style="fill:#262626;" transform="translate(126.93105 26.552)scale(0.144 -0.144)">
     <use xlink:href="#DejaVuSans-99"/>
     <use x="54.980469" xlink:href="#DejaVuSans-108"/>
     <use x="82.763672" xlink:href="#DejaVuSans-117"/>
     <use x="146.142578" xlink:href="#DejaVuSans-115"/>
     <use x="198.242188" xlink:href="#DejaVuSans-116"/>
     <use x="237.451172" xlink:href="#DejaVuSans-101"/>
     <use x="298.974609" xlink:href="#DejaVuSans-114"/>
     <use x="340.087891" xlink:href="#DejaVuSans-115"/>
     <use x="392.1875" xlink:href="#DejaVuSans-32"/>
     <use x="423.974609" xlink:href="#DejaVuSans-61"/>
     <use x="507.763672" xlink:href="#DejaVuSans-32"/>
     <use x="539.550781" xlink:href="#DejaVuSans-49"/>
    </g>
   </g>
  </g>
  <g id="axes_2">
   <g id="patch_5">
    <path d="M 308.3416 374.948 
L 529.2042 374.948 
L 529.2042 32.552 
L 308.3416 32.552 
z
" style="fill:#eaeaf2;"/>
   </g>
   <g id="matplotlib.axis_3">
    <g id="xtick_6">
     <g id="text_14">
      <!-- base -->
      <g style="fill:#262626;" transform="translate(314.694079 394.477937)scale(0.132 -0.132)">
       <use xlink:href="#DejaVuSans-98"/>
       <use x="63.476562" xlink:href="#DejaVuSans-97"/>
       <use x="124.755859" xlink:href="#DejaVuSans-115"/>
       <use x="176.855469" xlink:href="#DejaVuSans-101"/>
      </g>
     </g>
    </g>
    <g id="xtick_7">
     <g id="text_15">
      <!-- metis -->
      <g style="fill:#262626;" transform="translate(356.251349 394.477937)scale(0.132 -0.132)">
       <use xlink:href="#DejaVuSans-109"/>
       <use x="97.412109" xlink:href="#DejaVuSans-101"/>
       <use x="158.935547" xlink:href="#DejaVuSans-116"/>
       <use x="198.144531" xlink:href="#DejaVuSans-105"/>
       <use x="225.927734" xlink:href="#DejaVuSans-115"/>
      </g>
     </g>
    </g>
    <g id="xtick_8">
     <g id="text_16">
      <!-- merged -->
      <g style="fill:#262626;" transform="translate(393.129838 394.477937)scale(0.132 -0.132)">
       <use xlink:href="#DejaVuSans-109"/>
       <use x="97.412109" xlink:href="#DejaVuSans-101"/>
       <use x="158.935547" xlink:href="#DejaVuSans-114"/>
       <use x="200.033203" xlink:href="#DejaVuSans-103"/>
       <use x="263.509766" xlink:href="#DejaVuSans-101"/>
       <use x="325.033203" xlink:href="#DejaVuSans-100"/>
      </g>
     </g>
    </g>
    <g id="xtick_9">
     <g id="text_17">
      <!-- prio -->
      <g style="fill:#262626;" transform="translate(450.170295 394.477937)scale(0.132 -0.132)">
       <use xlink:href="#DejaVuSans-112"/>
       <use x="63.476562" xlink:href="#DejaVuSans-114"/>
       <use x="104.589844" xlink:href="#DejaVuSans-105"/>
       <use x="132.373047" xlink:href="#DejaVuSans-111"/>
      </g>
     </g>
    </g>
    <g id="xtick_10">
     <g id="text_18">
      <!-- kmeans -->
      <g style="fill:#262626;" transform="translate(481.140752 394.477937)scale(0.132 -0.132)">
       <use xlink:href="#DejaVuSans-107"/>
       <use x="57.910156" xlink:href="#DejaVuSans-109"/>
       <use x="155.322266" xlink:href="#DejaVuSans-101"/>
       <use x="216.845703" xlink:href="#DejaVuSans-97"/>
       <use x="278.125" xlink:href="#DejaVuSans-110"/>
       <use x="341.503906" xlink:href="#DejaVuSans-115"/>
      </g>
     </g>
    </g>
    <g id="text_19">
     <!-- method -->
     <g style="fill:#262626;" transform="translate(390.9674 412.164875)scale(0.144 -0.144)">
      <use xlink:href="#DejaVuSans-109"/>
      <use x="97.412109" xlink:href="#DejaVuSans-101"/>
      <use x="158.935547" xlink:href="#DejaVuSans-116"/>
      <use x="198.144531" xlink:href="#DejaVuSans-104"/>
      <use x="261.523438" xlink:href="#DejaVuSans-111"/>
      <use x="322.705078" xlink:href="#DejaVuSans-100"/>
     </g>
    </g>
   </g>
   <g id="matplotlib.axis_4">
    <g id="ytick_6">
     <g id="line2d_7">
      <path clip-path="url(#p1058591bee)" d="M 308.3416 323.265585 
L 529.2042 323.265585 
" style="fill:none;stroke:#ffffff;stroke-linecap:round;"/>
     </g>
    </g>
    <g id="ytick_7">
     <g id="line2d_8">
      <path clip-path="url(#p1058591bee)" d="M 308.3416 258.662566 
L 529.2042 258.662566 
" style="fill:none;stroke:#ffffff;stroke-linecap:round;"/>
     </g>
    </g>
    <g id="ytick_8">
     <g id="line2d_9">
      <path clip-path="url(#p1058591bee)" d="M 308.3416 194.059547 
L 529.2042 194.059547 
" style="fill:none;stroke:#ffffff;stroke-linecap:round;"/>
     </g>
    </g>
    <g id="ytick_9">
     <g id="line2d_10">
      <path clip-path="url(#p1058591bee)" d="M 308.3416 129.456528 
L 529.2042 129.456528 
" style="fill:none;stroke:#ffffff;stroke-linecap:round;"/>
     </g>
    </g>
    <g id="ytick_10">
     <g id="line2d_11">
      <path clip-path="url(#p1058591bee)" d="M 308.3416 64.853509 
L 529.2042 64.853509 
" style="fill:none;stroke:#ffffff;stroke-linecap:round;"/>
     </g>
    </g>
   </g>
   <g id="PathCollection_2">
    <defs>
     <path d="M -0 4.242641 
L 2.545584 0 
L 0 -4.242641 
L -2.545584 -0 
z
" id="me1f6edb10d" style="stroke:#cc8963;"/>
    </defs>
    <g clip-path="url(#p1058591bee)">
     <use style="fill:#cc8963;stroke:#cc8963;" x="374.60038" xlink:href="#me1f6edb10d" y="349.106792"/>
     <use style="fill:#cc8963;stroke:#cc8963;" x="374.60038" xlink:href="#me1f6edb10d" y="349.106792"/>
     <use style="fill:#cc8963;stroke:#cc8963;" x="374.60038" xlink:href="#me1f6edb10d" y="349.106792"/>
     <use style="fill:#cc8963;stroke:#cc8963;" x="374.60038" xlink:href="#me1f6edb10d" y="174.678642"/>
     <use style="fill:#cc8963;stroke:#cc8963;" x="374.60038" xlink:href="#me1f6edb10d" y="161.758038"/>
     <use style="fill:#cc8963;stroke:#cc8963;" x="374.60038" xlink:href="#me1f6edb10d" y="174.678642"/>
    </g>
   </g>
   <g id="PatchCollection_2">
    <path clip-path="url(#p1058591bee)" d="M 374.53136 342.791595 
L 374.6694 342.791595 
L 374.6694 180.993839 
L 374.53136 180.993839 
z
" style="fill:#ffffff;stroke:#ffffff;"/>
    <path clip-path="url(#p1058591bee)" d="M 374.462341 336.476398 
L 374.738419 336.476398 
L 374.738419 181.138943 
L 374.462341 181.138943 
z
" style="fill:#f9f0eb;stroke:#ffffff;"/>
    <path clip-path="url(#p1058591bee)" d="M 374.324302 329.725887 
L 374.876458 329.725887 
L 374.876458 193.479129 
L 374.324302 193.479129 
z
" style="fill:#f2e1d8;stroke:#ffffff;"/>
    <path clip-path="url(#p1058591bee)" d="M 374.048224 323.265585 
L 375.152536 323.265585 
L 375.152536 200.519849 
L 374.048224 200.519849 
z
" style="fill:#ecd3c4;stroke:#ffffff;"/>
    <path clip-path="url(#p1058591bee)" d="M 373.496067 310.344981 
L 375.704693 310.344981 
L 375.704693 206.980151 
L 373.496067 206.980151 
z
" style="fill:#e5c4b1;stroke:#ffffff;"/>
    <path clip-path="url(#p1058591bee)" d="M 372.391754 303.884679 
L 376.809006 303.884679 
L 376.809006 213.440453 
L 372.391754 213.440453 
z
" style="fill:#dfb59d;stroke:#ffffff;"/>
    <path clip-path="url(#p1058591bee)" d="M 370.183128 297.424377 
L 379.017632 297.424377 
L 379.017632 226.361057 
L 370.183128 226.361057 
z
" style="fill:#d8a68a;stroke:#ffffff;"/>
    <path clip-path="url(#p1058591bee)" d="M 365.765876 284.503774 
L 383.434884 284.503774 
L 383.434884 239.28166 
L 365.765876 239.28166 
z
" style="fill:#d29776;stroke:#ffffff;"/>
    <path clip-path="url(#p1058591bee)" d="M 356.931372 278.043472 
L 392.269388 278.043472 
L 392.269388 252.202264 
L 356.931372 252.202264 
z
" style="fill:#cc8963;stroke:#ffffff;"/>
   </g>
   <g id="PathCollection_3">
    <defs>
     <path d="M -0 4.242641 
L 2.545584 0 
L 0 -4.242641 
L -2.545584 -0 
z
" id="m6aded9d154" style="stroke:#5f9e6e;"/>
    </defs>
    <g clip-path="url(#p1058591bee)">
     <use style="fill:#5f9e6e;stroke:#5f9e6e;" x="418.7729" xlink:href="#m6aded9d154" y="342.646491"/>
     <use style="fill:#5f9e6e;stroke:#5f9e6e;" x="418.7729" xlink:href="#m6aded9d154" y="342.646491"/>
     <use style="fill:#5f9e6e;stroke:#5f9e6e;" x="418.7729" xlink:href="#m6aded9d154" y="155.297736"/>
     <use style="fill:#5f9e6e;stroke:#5f9e6e;" x="418.7729" xlink:href="#m6aded9d154" y="161.758038"/>
    </g>
   </g>
   <g id="PatchCollection_3">
    <path clip-path="url(#p1058591bee)" d="M 418.70388 336.186189 
L 418.84192 336.186189 
L 418.84192 174.678642 
L 418.70388 174.678642 
z
" style="fill:#ffffff;stroke:#ffffff;"/>
    <path clip-path="url(#p1058591bee)" d="M 418.634861 330.646985 
L 418.910939 330.646985 
L 418.910939 187.599245 
L 418.634861 187.599245 
z
" style="fill:#ebf3ed;stroke:#ffffff;"/>
    <path clip-path="url(#p1058591bee)" d="M 418.496822 329.725887 
L 419.048978 329.725887 
L 419.048978 187.599245 
L 418.496822 187.599245 
z
" style="fill:#d7e7db;stroke:#ffffff;"/>
    <path clip-path="url(#p1058591bee)" d="M 418.220744 323.265585 
L 419.325057 323.265585 
L 419.325057 200.519849 
L 418.220744 200.519849 
z
" style="fill:#c3dac8;stroke:#ffffff;"/>
    <path clip-path="url(#p1058591bee)" d="M 417.668587 316.805283 
L 419.877213 316.805283 
L 419.877213 206.980151 
L 417.668587 206.980151 
z
" style="fill:#afceb6;stroke:#ffffff;"/>
    <path clip-path="url(#p1058591bee)" d="M 416.564274 303.884679 
L 420.981526 303.884679 
L 420.981526 219.900755 
L 416.564274 219.900755 
z
" style="fill:#9bc2a4;stroke:#ffffff;"/>
    <path clip-path="url(#p1058591bee)" d="M 414.355648 297.424377 
L 423.190152 297.424377 
L 423.190152 226.361057 
L 414.355648 226.361057 
z
" style="fill:#87b692;stroke:#ffffff;"/>
    <path clip-path="url(#p1058591bee)" d="M 409.938396 284.503774 
L 427.607404 284.503774 
L 427.607404 239.28166 
L 409.938396 239.28166 
z
" style="fill:#73a97f;stroke:#ffffff;"/>
    <path clip-path="url(#p1058591bee)" d="M 401.103892 278.043472 
L 436.441908 278.043472 
L 436.441908 245.741962 
L 401.103892 245.741962 
z
" style="fill:#5f9e6e;stroke:#ffffff;"/>
   </g>
   <g id="PathCollection_4">
    <defs>
     <path d="M -0 4.242641 
L 2.545584 0 
L 0 -4.242641 
L -2.545584 -0 
z
" id="mdfae3874f8" style="stroke:#b55d60;"/>
    </defs>
    <g clip-path="url(#p1058591bee)">
     <use style="fill:#b55d60;stroke:#b55d60;" x="462.94542" xlink:href="#mdfae3874f8" y="342.646491"/>
     <use style="fill:#b55d60;stroke:#b55d60;" x="462.94542" xlink:href="#mdfae3874f8" y="349.106792"/>
     <use style="fill:#b55d60;stroke:#b55d60;" x="462.94542" xlink:href="#mdfae3874f8" y="349.106792"/>
     <use style="fill:#b55d60;stroke:#b55d60;" x="462.94542" xlink:href="#mdfae3874f8" y="355.567094"/>
     <use style="fill:#b55d60;stroke:#b55d60;" x="462.94542" xlink:href="#mdfae3874f8" y="135.91683"/>
     <use style="fill:#b55d60;stroke:#b55d60;" x="462.94542" xlink:href="#mdfae3874f8" y="155.297736"/>
     <use style="fill:#b55d60;stroke:#b55d60;" x="462.94542" xlink:href="#mdfae3874f8" y="155.297736"/>
     <use style="fill:#b55d60;stroke:#b55d60;" x="462.94542" xlink:href="#mdfae3874f8" y="155.297736"/>
    </g>
   </g>
   <g id="PatchCollection_4">
    <path clip-path="url(#p1058591bee)" d="M 462.8764 339.637151 
L 463.01444 339.637151 
L 463.01444 158.307076 
L 462.8764 158.307076 
z
" style="fill:#ffffff;stroke:#ffffff;"/>
    <path clip-path="url(#p1058591bee)" d="M 462.807381 329.725887 
L 463.083459 329.725887 
L 463.083459 174.678642 
L 462.807381 174.678642 
z
" style="fill:#f6ebeb;stroke:#ffffff;"/>
    <path clip-path="url(#p1058591bee)" d="M 462.669342 323.265585 
L 463.221498 323.265585 
L 463.221498 186.716001 
L 462.669342 186.716001 
z
" style="fill:#ecd6d7;stroke:#ffffff;"/>
    <path clip-path="url(#p1058591bee)" d="M 462.393263 316.805283 
L 463.497576 316.805283 
L 463.497576 194.059547 
L 462.393263 194.059547 
z
" style="fill:#e3c2c3;stroke:#ffffff;"/>
    <path clip-path="url(#p1058591bee)" d="M 461.841107 310.344981 
L 464.049733 310.344981 
L 464.049733 206.980151 
L 461.841107 206.980151 
z
" style="fill:#daaeaf;stroke:#ffffff;"/>
    <path clip-path="url(#p1058591bee)" d="M 460.736794 297.424377 
L 465.154046 297.424377 
L 465.154046 213.440453 
L 460.736794 213.440453 
z
" style="fill:#d1999b;stroke:#ffffff;"/>
    <path clip-path="url(#p1058591bee)" d="M 458.528168 290.964075 
L 467.362672 290.964075 
L 467.362672 226.361057 
L 458.528168 226.361057 
z
" style="fill:#c78587;stroke:#ffffff;"/>
    <path clip-path="url(#p1058591bee)" d="M 454.110916 284.503774 
L 471.779924 284.503774 
L 471.779924 232.821358 
L 454.110916 232.821358 
z
" style="fill:#be7073;stroke:#ffffff;"/>
    <path clip-path="url(#p1058591bee)" d="M 445.276412 271.58317 
L 480.614428 271.58317 
L 480.614428 245.741962 
L 445.276412 245.741962 
z
" style="fill:#b55d60;stroke:#ffffff;"/>
   </g>
   <g id="PathCollection_5">
    <defs>
     <path d="M -0 4.242641 
L 2.545584 0 
L 0 -4.242641 
L -2.545584 -0 
z
" id="m99675183e4" style="stroke:#857aab;"/>
    </defs>
    <g clip-path="url(#p1058591bee)">
     <use style="fill:#857aab;stroke:#857aab;" x="507.11794" xlink:href="#m99675183e4" y="349.106792"/>
     <use style="fill:#857aab;stroke:#857aab;" x="507.11794" xlink:href="#m99675183e4" y="349.106792"/>
     <use style="fill:#857aab;stroke:#857aab;" x="507.11794" xlink:href="#m99675183e4" y="187.599245"/>
     <use style="fill:#857aab;stroke:#857aab;" x="507.11794" xlink:href="#m99675183e4" y="168.21834"/>
    </g>
   </g>
   <g id="PatchCollection_5">
    <path clip-path="url(#p1058591bee)" d="M 507.04892 342.646491 
L 507.18696 342.646491 
L 507.18696 194.059547 
L 507.04892 194.059547 
z
" style="fill:#ffffff;stroke:#ffffff;"/>
    <path clip-path="url(#p1058591bee)" d="M 506.979901 342.646491 
L 507.255979 342.646491 
L 507.255979 199.598751 
L 506.979901 199.598751 
z
" style="fill:#f0eef4;stroke:#ffffff;"/>
    <path clip-path="url(#p1058591bee)" d="M 506.841862 336.186189 
L 507.394018 336.186189 
L 507.394018 200.519849 
L 506.841862 200.519849 
z
" style="fill:#e0deea;stroke:#ffffff;"/>
    <path clip-path="url(#p1058591bee)" d="M 506.565783 329.725887 
L 507.670096 329.725887 
L 507.670096 206.980151 
L 506.565783 206.980151 
z
" style="fill:#d1cddf;stroke:#ffffff;"/>
    <path clip-path="url(#p1058591bee)" d="M 506.013627 323.265585 
L 508.222253 323.265585 
L 508.222253 219.900755 
L 506.013627 219.900755 
z
" style="fill:#c2bcd5;stroke:#ffffff;"/>
    <path clip-path="url(#p1058591bee)" d="M 504.909314 310.344981 
L 509.326566 310.344981 
L 509.326566 226.361057 
L 504.909314 226.361057 
z
" style="fill:#b3acca;stroke:#ffffff;"/>
    <path clip-path="url(#p1058591bee)" d="M 502.700688 303.884679 
L 511.535192 303.884679 
L 511.535192 239.28166 
L 502.700688 239.28166 
z
" style="fill:#a39bc0;stroke:#ffffff;"/>
    <path clip-path="url(#p1058591bee)" d="M 498.283436 297.424377 
L 515.952444 297.424377 
L 515.952444 245.741962 
L 498.283436 245.741962 
z
" style="fill:#948ab5;stroke:#ffffff;"/>
    <path clip-path="url(#p1058591bee)" d="M 489.448932 284.503774 
L 524.786948 284.503774 
L 524.786948 258.662566 
L 489.448932 258.662566 
z
" style="fill:#857aab;stroke:#ffffff;"/>
   </g>
   <g id="line2d_12">
    <path clip-path="url(#p1058591bee)" d="M 356.931372 265.122868 
L 392.269388 265.122868 
" style="fill:none;stroke:#262626;stroke-linecap:round;stroke-opacity:0.45;stroke-width:1.5;"/>
   </g>
   <g id="line2d_13">
    <path clip-path="url(#p1058591bee)" d="M 401.103892 265.122868 
L 436.441908 265.122868 
" style="fill:none;stroke:#262626;stroke-linecap:round;stroke-opacity:0.45;stroke-width:1.5;"/>
   </g>
   <g id="line2d_14">
    <path clip-path="url(#p1058591bee)" d="M 445.276412 258.662566 
L 480.614428 258.662566 
" style="fill:none;stroke:#262626;stroke-linecap:round;stroke-opacity:0.45;stroke-width:1.5;"/>
   </g>
   <g id="line2d_15">
    <path clip-path="url(#p1058591bee)" d="M 489.448932 271.58317 
L 524.786948 271.58317 
" style="fill:none;stroke:#262626;stroke-linecap:round;stroke-opacity:0.45;stroke-width:1.5;"/>
   </g>
   <g id="patch_6">
    <path d="M 308.3416 374.948 
L 308.3416 32.552 
" style="fill:none;stroke:#ffffff;stroke-linecap:square;stroke-linejoin:miter;stroke-width:1.25;"/>
   </g>
   <g id="patch_7">
    <path d="M 308.3416 374.948 
L 529.2042 374.948 
" style="fill:none;stroke:#ffffff;stroke-linecap:square;stroke-linejoin:miter;stroke-width:1.25;"/>
   </g>
   <g id="text_20">
    <!-- clusters = 4 -->
    <g style="fill:#262626;" transform="translate(375.34565 26.552)scale(0.144 -0.144)">
     <use xlink:href="#DejaVuSans-99"/>
     <use x="54.980469" xlink:href="#DejaVuSans-108"/>
     <use x="82.763672" xlink:href="#DejaVuSans-117"/>
     <use x="146.142578" xlink:href="#DejaVuSans-115"/>
     <use x="198.242188" xlink:href="#DejaVuSans-116"/>
     <use x="237.451172" xlink:href="#DejaVuSans-101"/>
     <use x="298.974609" xlink:href="#DejaVuSans-114"/>
     <use x="340.087891" xlink:href="#DejaVuSans-115"/>
     <use x="392.1875" xlink:href="#DejaVuSans-32"/>
     <use x="423.974609" xlink:href="#DejaVuSans-61"/>
     <use x="507.763672" xlink:href="#DejaVuSans-32"/>
     <use x="539.550781" xlink:href="#DejaVuSans-52"/>
    </g>
   </g>
  </g>
  <g id="axes_3">
   <g id="patch_8">
    <path d="M 556.7562 374.948 
L 777.6188 374.948 
L 777.6188 32.552 
L 556.7562 32.552 
z
" style="fill:#eaeaf2;"/>
   </g>
   <g id="matplotlib.axis_5">
    <g id="xtick_11">
     <g id="text_21">
      <!-- base -->
      <g style="fill:#262626;" transform="translate(563.108679 394.477937)scale(0.132 -0.132)">
       <use xlink:href="#DejaVuSans-98"/>
       <use x="63.476562" xlink:href="#DejaVuSans-97"/>
       <use x="124.755859" xlink:href="#DejaVuSans-115"/>
       <use x="176.855469" xlink:href="#DejaVuSans-101"/>
      </g>
     </g>
    </g>
    <g id="xtick_12">
     <g id="text_22">
      <!-- metis -->
      <g style="fill:#262626;" transform="translate(604.665949 394.477937)scale(0.132 -0.132)">
       <use xlink:href="#DejaVuSans-109"/>
       <use x="97.412109" xlink:href="#DejaVuSans-101"/>
       <use x="158.935547" xlink:href="#DejaVuSans-116"/>
       <use x="198.144531" xlink:href="#DejaVuSans-105"/>
       <use x="225.927734" xlink:href="#DejaVuSans-115"/>
      </g>
     </g>
    </g>
    <g id="xtick_13">
     <g id="text_23">
      <!-- merged -->
      <g style="fill:#262626;" transform="translate(641.544437 394.477937)scale(0.132 -0.132)">
       <use xlink:href="#DejaVuSans-109"/>
       <use x="97.412109" xlink:href="#DejaVuSans-101"/>
       <use x="158.935547" xlink:href="#DejaVuSans-114"/>
       <use x="200.033203" xlink:href="#DejaVuSans-103"/>
       <use x="263.509766" xlink:href="#DejaVuSans-101"/>
       <use x="325.033203" xlink:href="#DejaVuSans-100"/>
      </g>
     </g>
    </g>
    <g id="xtick_14">
     <g id="text_24">
      <!-- prio -->
      <g style="fill:#262626;" transform="translate(698.584895 394.477937)scale(0.132 -0.132)">
       <use xlink:href="#DejaVuSans-112"/>
       <use x="63.476562" xlink:href="#DejaVuSans-114"/>
       <use x="104.589844" xlink:href="#DejaVuSans-105"/>
       <use x="132.373047" xlink:href="#DejaVuSans-111"/>
      </g>
     </g>
    </g>
    <g id="xtick_15">
     <g id="text_25">
      <!-- kmeans -->
      <g style="fill:#262626;" transform="translate(729.555352 394.477937)scale(0.132 -0.132)">
       <use xlink:href="#DejaVuSans-107"/>
       <use x="57.910156" xlink:href="#DejaVuSans-109"/>
       <use x="155.322266" xlink:href="#DejaVuSans-101"/>
       <use x="216.845703" xlink:href="#DejaVuSans-97"/>
       <use x="278.125" xlink:href="#DejaVuSans-110"/>
       <use x="341.503906" xlink:href="#DejaVuSans-115"/>
      </g>
     </g>
    </g>
    <g id="text_26">
     <!-- method -->
     <g style="fill:#262626;" transform="translate(639.382 412.164875)scale(0.144 -0.144)">
      <use xlink:href="#DejaVuSans-109"/>
      <use x="97.412109" xlink:href="#DejaVuSans-101"/>
      <use x="158.935547" xlink:href="#DejaVuSans-116"/>
      <use x="198.144531" xlink:href="#DejaVuSans-104"/>
      <use x="261.523438" xlink:href="#DejaVuSans-111"/>
      <use x="322.705078" xlink:href="#DejaVuSans-100"/>
     </g>
    </g>
   </g>
   <g id="matplotlib.axis_6">
    <g id="ytick_11">
     <g id="line2d_16">
      <path clip-path="url(#p72428f806e)" d="M 556.7562 323.265585 
L 777.6188 323.265585 
" style="fill:none;stroke:#ffffff;stroke-linecap:round;"/>
     </g>
    </g>
    <g id="ytick_12">
     <g id="line2d_17">
      <path clip-path="url(#p72428f806e)" d="M 556.7562 258.662566 
L 777.6188 258.662566 
" style="fill:none;stroke:#ffffff;stroke-linecap:round;"/>
     </g>
    </g>
    <g id="ytick_13">
     <g id="line2d_18">
      <path clip-path="url(#p72428f806e)" d="M 556.7562 194.059547 
L 777.6188 194.059547 
" style="fill:none;stroke:#ffffff;stroke-linecap:round;"/>
     </g>
    </g>
    <g id="ytick_14">
     <g id="line2d_19">
      <path clip-path="url(#p72428f806e)" d="M 556.7562 129.456528 
L 777.6188 129.456528 
" style="fill:none;stroke:#ffffff;stroke-linecap:round;"/>
     </g>
    </g>
    <g id="ytick_15">
     <g id="line2d_20">
      <path clip-path="url(#p72428f806e)" d="M 556.7562 64.853509 
L 777.6188 64.853509 
" style="fill:none;stroke:#ffffff;stroke-linecap:round;"/>
     </g>
    </g>
   </g>
   <g id="PathCollection_6">
    <g clip-path="url(#p72428f806e)">
     <use style="fill:#cc8963;stroke:#cc8963;" x="623.01498" xlink:href="#me1f6edb10d" y="342.646491"/>
     <use style="fill:#cc8963;stroke:#cc8963;" x="623.01498" xlink:href="#me1f6edb10d" y="336.186189"/>
     <use style="fill:#cc8963;stroke:#cc8963;" x="623.01498" xlink:href="#me1f6edb10d" y="336.186189"/>
     <use style="fill:#cc8963;stroke:#cc8963;" x="623.01498" xlink:href="#me1f6edb10d" y="148.837434"/>
     <use style="fill:#cc8963;stroke:#cc8963;" x="623.01498" xlink:href="#me1f6edb10d" y="148.837434"/>
    </g>
   </g>
   <g id="PatchCollection_6">
    <path clip-path="url(#p72428f806e)" d="M 622.94596 329.870991 
L 623.084 329.870991 
L 623.084 155.297736 
L 622.94596 155.297736 
z
" style="fill:#ffffff;stroke:#ffffff;"/>
    <path clip-path="url(#p72428f806e)" d="M 622.876941 317.095492 
L 623.153019 317.095492 
L 623.153019 161.467829 
L 622.876941 161.467829 
z
" style="fill:#f9f0eb;stroke:#ffffff;"/>
    <path clip-path="url(#p72428f806e)" d="M 622.738902 310.925399 
L 623.291058 310.925399 
L 623.291058 168.21834 
L 622.738902 168.21834 
z
" style="fill:#f2e1d8;stroke:#ffffff;"/>
    <path clip-path="url(#p72428f806e)" d="M 622.462824 310.344981 
L 623.567137 310.344981 
L 623.567137 181.138943 
L 622.462824 181.138943 
z
" style="fill:#ecd3c4;stroke:#ffffff;"/>
    <path clip-path="url(#p72428f806e)" d="M 621.910667 297.424377 
L 624.119293 297.424377 
L 624.119293 187.599245 
L 621.910667 187.599245 
z
" style="fill:#e5c4b1;stroke:#ffffff;"/>
    <path clip-path="url(#p72428f806e)" d="M 620.806354 290.964075 
L 625.223606 290.964075 
L 625.223606 195.876507 
L 620.806354 195.876507 
z
" style="fill:#dfb59d;stroke:#ffffff;"/>
    <path clip-path="url(#p72428f806e)" d="M 618.597728 278.043472 
L 627.432232 278.043472 
L 627.432232 206.980151 
L 618.597728 206.980151 
z
" style="fill:#d8a68a;stroke:#ffffff;"/>
    <path clip-path="url(#p72428f806e)" d="M 614.180476 271.58317 
L 631.849484 271.58317 
L 631.849484 219.900755 
L 614.180476 219.900755 
z
" style="fill:#d29776;stroke:#ffffff;"/>
    <path clip-path="url(#p72428f806e)" d="M 605.345972 258.662566 
L 640.683988 258.662566 
L 640.683988 232.821358 
L 605.345972 232.821358 
z
" style="fill:#cc8963;stroke:#ffffff;"/>
   </g>
   <g id="PathCollection_7">
    <g clip-path="url(#p72428f806e)">
     <use style="fill:#5f9e6e;stroke:#5f9e6e;" x="667.1875" xlink:href="#m6aded9d154" y="355.567094"/>
     <use style="fill:#5f9e6e;stroke:#5f9e6e;" x="667.1875" xlink:href="#m6aded9d154" y="129.456528"/>
    </g>
   </g>
   <g id="PatchCollection_7">
    <path clip-path="url(#p72428f806e)" d="M 667.11848 323.265585 
L 667.25652 323.265585 
L 667.25652 135.91683 
L 667.11848 135.91683 
z
" style="fill:#ffffff;stroke:#ffffff;"/>
    <path clip-path="url(#p72428f806e)" d="M 667.049461 311.266079 
L 667.325539 311.266079 
L 667.325539 142.377132 
L 667.049461 142.377132 
z
" style="fill:#ebf3ed;stroke:#ffffff;"/>
    <path clip-path="url(#p72428f806e)" d="M 666.911422 297.424377 
L 667.463578 297.424377 
L 667.463578 148.837434 
L 666.911422 148.837434 
z
" style="fill:#d7e7db;stroke:#ffffff;"/>
    <path clip-path="url(#p72428f806e)" d="M 666.635343 297.424377 
L 667.739657 297.424377 
L 667.739657 161.758038 
L 666.635343 161.758038 
z
" style="fill:#c3dac8;stroke:#ffffff;"/>
    <path clip-path="url(#p72428f806e)" d="M 666.083187 285.412254 
L 668.291813 285.412254 
L 668.291813 174.678642 
L 666.083187 174.678642 
z
" style="fill:#afceb6;stroke:#ffffff;"/>
    <path clip-path="url(#p72428f806e)" d="M 664.978874 278.043472 
L 669.396126 278.043472 
L 669.396126 181.138943 
L 664.978874 181.138943 
z
" style="fill:#9bc2a4;stroke:#ffffff;"/>
    <path clip-path="url(#p72428f806e)" d="M 662.770248 271.58317 
L 671.604752 271.58317 
L 671.604752 194.059547 
L 662.770248 194.059547 
z
" style="fill:#87b692;stroke:#ffffff;"/>
    <path clip-path="url(#p72428f806e)" d="M 658.352996 258.662566 
L 676.022004 258.662566 
L 676.022004 206.980151 
L 658.352996 206.980151 
z
" style="fill:#73a97f;stroke:#ffffff;"/>
    <path clip-path="url(#p72428f806e)" d="M 649.518492 245.741962 
L 684.856508 245.741962 
L 684.856508 219.900755 
L 649.518492 219.900755 
z
" style="fill:#5f9e6e;stroke:#ffffff;"/>
   </g>
   <g id="PathCollection_8">
    <g clip-path="url(#p72428f806e)">
     <use style="fill:#b55d60;stroke:#b55d60;" x="711.36002" xlink:href="#mdfae3874f8" y="342.646491"/>
     <use style="fill:#b55d60;stroke:#b55d60;" x="711.36002" xlink:href="#mdfae3874f8" y="342.646491"/>
     <use style="fill:#b55d60;stroke:#b55d60;" x="711.36002" xlink:href="#mdfae3874f8" y="323.265585"/>
     <use style="fill:#b55d60;stroke:#b55d60;" x="711.36002" xlink:href="#mdfae3874f8" y="148.837434"/>
     <use style="fill:#b55d60;stroke:#b55d60;" x="711.36002" xlink:href="#mdfae3874f8" y="135.91683"/>
     <use style="fill:#b55d60;stroke:#b55d60;" x="711.36002" xlink:href="#mdfae3874f8" y="142.377132"/>
    </g>
   </g>
   <g id="PatchCollection_8">
    <path clip-path="url(#p72428f806e)" d="M 711.291 316.950387 
L 711.42904 316.950387 
L 711.42904 155.152631 
L 711.291 155.152631 
z
" style="fill:#ffffff;stroke:#ffffff;"/>
    <path clip-path="url(#p72428f806e)" d="M 711.221981 310.344981 
L 711.498059 310.344981 
L 711.498059 168.21834 
L 711.221981 168.21834 
z
" style="fill:#f6ebeb;stroke:#ffffff;"/>
    <path clip-path="url(#p72428f806e)" d="M 711.083942 303.884679 
L 711.636098 303.884679 
L 711.636098 168.21834 
L 711.083942 168.21834 
z
" style="fill:#ecd6d7;stroke:#ffffff;"/>
    <path clip-path="url(#p72428f806e)" d="M 710.807863 303.884679 
L 711.912176 303.884679 
L 711.912176 174.678642 
L 710.807863 174.678642 
z
" style="fill:#e3c2c3;stroke:#ffffff;"/>
    <path clip-path="url(#p72428f806e)" d="M 710.255707 290.964075 
L 712.464333 290.964075 
L 712.464333 185.277574 
L 710.255707 185.277574 
z
" style="fill:#daaeaf;stroke:#ffffff;"/>
    <path clip-path="url(#p72428f806e)" d="M 709.151394 284.503774 
L 713.568646 284.503774 
L 713.568646 194.059547 
L 709.151394 194.059547 
z
" style="fill:#d1999b;stroke:#ffffff;"/>
    <path clip-path="url(#p72428f806e)" d="M 706.942768 271.58317 
L 715.777272 271.58317 
L 715.777272 200.519849 
L 706.942768 200.519849 
z
" style="fill:#c78587;stroke:#ffffff;"/>
    <path clip-path="url(#p72428f806e)" d="M 702.525516 265.122868 
L 720.194524 265.122868 
L 720.194524 213.440453 
L 702.525516 213.440453 
z
" style="fill:#be7073;stroke:#ffffff;"/>
    <path clip-path="url(#p72428f806e)" d="M 693.691012 252.202264 
L 729.029028 252.202264 
L 729.029028 219.900755 
L 693.691012 219.900755 
z
" style="fill:#b55d60;stroke:#ffffff;"/>
   </g>
   <g id="PathCollection_9">
    <g clip-path="url(#p72428f806e)">
     <use style="fill:#857aab;stroke:#857aab;" x="755.53254" xlink:href="#m99675183e4" y="135.91683"/>
     <use style="fill:#857aab;stroke:#857aab;" x="755.53254" xlink:href="#m99675183e4" y="135.91683"/>
     <use style="fill:#857aab;stroke:#857aab;" x="755.53254" xlink:href="#m99675183e4" y="135.91683"/>
    </g>
   </g>
   <g id="PatchCollection_9">
    <path clip-path="url(#p72428f806e)" d="M 755.46352 323.265585 
L 755.60156 323.265585 
L 755.60156 141.916583 
L 755.46352 141.916583 
z
" style="fill:#ffffff;stroke:#ffffff;"/>
    <path clip-path="url(#p72428f806e)" d="M 755.394501 312.187177 
L 755.670579 312.187177 
L 755.670579 155.297736 
L 755.394501 155.297736 
z
" style="fill:#f0eef4;stroke:#ffffff;"/>
    <path clip-path="url(#p72428f806e)" d="M 755.256462 310.344981 
L 755.808618 310.344981 
L 755.808618 168.21834 
L 755.256462 168.21834 
z
" style="fill:#e0deea;stroke:#ffffff;"/>
    <path clip-path="url(#p72428f806e)" d="M 754.980383 297.424377 
L 756.084696 297.424377 
L 756.084696 174.678642 
L 754.980383 174.678642 
z
" style="fill:#d1cddf;stroke:#ffffff;"/>
    <path clip-path="url(#p72428f806e)" d="M 754.428227 297.424377 
L 756.636853 297.424377 
L 756.636853 187.599245 
L 754.428227 187.599245 
z
" style="fill:#c2bcd5;stroke:#ffffff;"/>
    <path clip-path="url(#p72428f806e)" d="M 753.323914 284.503774 
L 757.741166 284.503774 
L 757.741166 198.702889 
L 753.323914 198.702889 
z
" style="fill:#b3acca;stroke:#ffffff;"/>
    <path clip-path="url(#p72428f806e)" d="M 751.115288 278.043472 
L 759.949792 278.043472 
L 759.949792 206.980151 
L 751.115288 206.980151 
z
" style="fill:#a39bc0;stroke:#ffffff;"/>
    <path clip-path="url(#p72428f806e)" d="M 746.698036 271.58317 
L 764.367044 271.58317 
L 764.367044 213.440453 
L 746.698036 213.440453 
z
" style="fill:#948ab5;stroke:#ffffff;"/>
    <path clip-path="url(#p72428f806e)" d="M 737.863532 258.662566 
L 773.201548 258.662566 
L 773.201548 232.821358 
L 737.863532 232.821358 
z
" style="fill:#857aab;stroke:#ffffff;"/>
   </g>
   <g id="line2d_21">
    <path clip-path="url(#p72428f806e)" d="M 605.345972 245.741962 
L 640.683988 245.741962 
" style="fill:none;stroke:#262626;stroke-linecap:round;stroke-opacity:0.45;stroke-width:1.5;"/>
   </g>
   <g id="line2d_22">
    <path clip-path="url(#p72428f806e)" d="M 649.518492 232.821358 
L 684.856508 232.821358 
" style="fill:none;stroke:#262626;stroke-linecap:round;stroke-opacity:0.45;stroke-width:1.5;"/>
   </g>
   <g id="line2d_23">
    <path clip-path="url(#p72428f806e)" d="M 693.691012 239.28166 
L 729.029028 239.28166 
" style="fill:none;stroke:#262626;stroke-linecap:round;stroke-opacity:0.45;stroke-width:1.5;"/>
   </g>
   <g id="line2d_24">
    <path clip-path="url(#p72428f806e)" d="M 737.863532 245.741962 
L 773.201548 245.741962 
" style="fill:none;stroke:#262626;stroke-linecap:round;stroke-opacity:0.45;stroke-width:1.5;"/>
   </g>
   <g id="patch_9">
    <path d="M 556.7562 374.948 
L 556.7562 32.552 
" style="fill:none;stroke:#ffffff;stroke-linecap:square;stroke-linejoin:miter;stroke-width:1.25;"/>
   </g>
   <g id="patch_10">
    <path d="M 556.7562 374.948 
L 777.6188 374.948 
" style="fill:none;stroke:#ffffff;stroke-linecap:square;stroke-linejoin:miter;stroke-width:1.25;"/>
   </g>
   <g id="text_27">
    <!-- clusters = 8 -->
    <defs>
     <path d="M 31.78125 34.625 
Q 24.75 34.625 20.71875 30.859375 
Q 16.703125 27.09375 16.703125 20.515625 
Q 16.703125 13.921875 20.71875 10.15625 
Q 24.75 6.390625 31.78125 6.390625 
Q 38.8125 6.390625 42.859375 10.171875 
Q 46.921875 13.96875 46.921875 20.515625 
Q 46.921875 27.09375 42.890625 30.859375 
Q 38.875 34.625 31.78125 34.625 
z
M 21.921875 38.8125 
Q 15.578125 40.375 12.03125 44.71875 
Q 8.5 49.078125 8.5 55.328125 
Q 8.5 64.0625 14.71875 69.140625 
Q 20.953125 74.21875 31.78125 74.21875 
Q 42.671875 74.21875 48.875 69.140625 
Q 55.078125 64.0625 55.078125 55.328125 
Q 55.078125 49.078125 51.53125 44.71875 
Q 48 40.375 41.703125 38.8125 
Q 48.828125 37.15625 52.796875 32.3125 
Q 56.78125 27.484375 56.78125 20.515625 
Q 56.78125 9.90625 50.3125 4.234375 
Q 43.84375 -1.421875 31.78125 -1.421875 
Q 19.734375 -1.421875 13.25 4.234375 
Q 6.78125 9.90625 6.78125 20.515625 
Q 6.78125 27.484375 10.78125 32.3125 
Q 14.796875 37.15625 21.921875 38.8125 
z
M 18.3125 54.390625 
Q 18.3125 48.734375 21.84375 45.5625 
Q 25.390625 42.390625 31.78125 42.390625 
Q 38.140625 42.390625 41.71875 45.5625 
Q 45.3125 48.734375 45.3125 54.390625 
Q 45.3125 60.0625 41.71875 63.234375 
Q 38.140625 66.40625 31.78125 66.40625 
Q 25.390625 66.40625 21.84375 63.234375 
Q 18.3125 60.0625 18.3125 54.390625 
z
" id="DejaVuSans-56"/>
    </defs>
    <g style="fill:#262626;" transform="translate(623.76025 26.552)scale(0.144 -0.144)">
     <use xlink:href="#DejaVuSans-99"/>
     <use x="54.980469" xlink:href="#DejaVuSans-108"/>
     <use x="82.763672" xlink:href="#DejaVuSans-117"/>
     <use x="146.142578" xlink:href="#DejaVuSans-115"/>
     <use x="198.242188" xlink:href="#DejaVuSans-116"/>
     <use x="237.451172" xlink:href="#DejaVuSans-101"/>
     <use x="298.974609" xlink:href="#DejaVuSans-114"/>
     <use x="340.087891" xlink:href="#DejaVuSans-115"/>
     <use x="392.1875" xlink:href="#DejaVuSans-32"/>
     <use x="423.974609" xlink:href="#DejaVuSans-61"/>
     <use x="507.763672" xlink:href="#DejaVuSans-32"/>
     <use x="539.550781" xlink:href="#DejaVuSans-56"/>
    </g>
   </g>
  </g>
  <g id="axes_4">
   <g id="patch_11">
    <path d="M 805.1708 374.948 
L 1026.0334 374.948 
L 1026.0334 32.552 
L 805.1708 32.552 
z
" style="fill:#eaeaf2;"/>
   </g>
   <g id="matplotlib.axis_7">
    <g id="xtick_16">
     <g id="text_28">
      <!-- base -->
      <g style="fill:#262626;" transform="translate(811.523279 394.477937)scale(0.132 -0.132)">
       <use xlink:href="#DejaVuSans-98"/>
       <use x="63.476562" xlink:href="#DejaVuSans-97"/>
       <use x="124.755859" xlink:href="#DejaVuSans-115"/>
       <use x="176.855469" xlink:href="#DejaVuSans-101"/>
      </g>
     </g>
    </g>
    <g id="xtick_17">
     <g id="text_29">
      <!-- metis -->
      <g style="fill:#262626;" transform="translate(853.080549 394.477937)scale(0.132 -0.132)">
       <use xlink:href="#DejaVuSans-109"/>
       <use x="97.412109" xlink:href="#DejaVuSans-101"/>
       <use x="158.935547" xlink:href="#DejaVuSans-116"/>
       <use x="198.144531" xlink:href="#DejaVuSans-105"/>
       <use x="225.927734" xlink:href="#DejaVuSans-115"/>
      </g>
     </g>
    </g>
    <g id="xtick_18">
     <g id="text_30">
      <!-- merged -->
      <g style="fill:#262626;" transform="translate(889.959038 394.477937)scale(0.132 -0.132)">
       <use xlink:href="#DejaVuSans-109"/>
       <use x="97.412109" xlink:href="#DejaVuSans-101"/>
       <use x="158.935547" xlink:href="#DejaVuSans-114"/>
       <use x="200.033203" xlink:href="#DejaVuSans-103"/>
       <use x="263.509766" xlink:href="#DejaVuSans-101"/>
       <use x="325.033203" xlink:href="#DejaVuSans-100"/>
      </g>
     </g>
    </g>
    <g id="xtick_19">
     <g id="text_31">
      <!-- prio -->
      <g style="fill:#262626;" transform="translate(946.999495 394.477937)scale(0.132 -0.132)">
       <use xlink:href="#DejaVuSans-112"/>
       <use x="63.476562" xlink:href="#DejaVuSans-114"/>
       <use x="104.589844" xlink:href="#DejaVuSans-105"/>
       <use x="132.373047" xlink:href="#DejaVuSans-111"/>
      </g>
     </g>
    </g>
    <g id="xtick_20">
     <g id="text_32">
      <!-- kmeans -->
      <g style="fill:#262626;" transform="translate(977.969953 394.477937)scale(0.132 -0.132)">
       <use xlink:href="#DejaVuSans-107"/>
       <use x="57.910156" xlink:href="#DejaVuSans-109"/>
       <use x="155.322266" xlink:href="#DejaVuSans-101"/>
       <use x="216.845703" xlink:href="#DejaVuSans-97"/>
       <use x="278.125" xlink:href="#DejaVuSans-110"/>
       <use x="341.503906" xlink:href="#DejaVuSans-115"/>
      </g>
     </g>
    </g>
    <g id="text_33">
     <!-- method -->
     <g style="fill:#262626;" transform="translate(887.7966 412.164875)scale(0.144 -0.144)">
      <use xlink:href="#DejaVuSans-109"/>
      <use x="97.412109" xlink:href="#DejaVuSans-101"/>
      <use x="158.935547" xlink:href="#DejaVuSans-116"/>
      <use x="198.144531" xlink:href="#DejaVuSans-104"/>
      <use x="261.523438" xlink:href="#DejaVuSans-111"/>
      <use x="322.705078" xlink:href="#DejaVuSans-100"/>
     </g>
    </g>
   </g>
   <g id="matplotlib.axis_8">
    <g id="ytick_16">
     <g id="line2d_25">
      <path clip-path="url(#pdc6a5f9667)" d="M 805.1708 323.265585 
L 1026.0334 323.265585 
" style="fill:none;stroke:#ffffff;stroke-linecap:round;"/>
     </g>
    </g>
    <g id="ytick_17">
     <g id="line2d_26">
      <path clip-path="url(#pdc6a5f9667)" d="M 805.1708 258.662566 
L 1026.0334 258.662566 
" style="fill:none;stroke:#ffffff;stroke-linecap:round;"/>
     </g>
    </g>
    <g id="ytick_18">
     <g id="line2d_27">
      <path clip-path="url(#pdc6a5f9667)" d="M 805.1708 194.059547 
L 1026.0334 194.059547 
" style="fill:none;stroke:#ffffff;stroke-linecap:round;"/>
     </g>
    </g>
    <g id="ytick_19">
     <g id="line2d_28">
      <path clip-path="url(#pdc6a5f9667)" d="M 805.1708 129.456528 
L 1026.0334 129.456528 
" style="fill:none;stroke:#ffffff;stroke-linecap:round;"/>
     </g>
    </g>
    <g id="ytick_20">
     <g id="line2d_29">
      <path clip-path="url(#pdc6a5f9667)" d="M 805.1708 64.853509 
L 1026.0334 64.853509 
" style="fill:none;stroke:#ffffff;stroke-linecap:round;"/>
     </g>
    </g>
   </g>
   <g id="PathCollection_10">
    <g clip-path="url(#pdc6a5f9667)">
     <use style="fill:#cc8963;stroke:#cc8963;" x="871.42958" xlink:href="#me1f6edb10d" y="303.884679"/>
     <use style="fill:#cc8963;stroke:#cc8963;" x="871.42958" xlink:href="#me1f6edb10d" y="303.884679"/>
     <use style="fill:#cc8963;stroke:#cc8963;" x="871.42958" xlink:href="#me1f6edb10d" y="116.535925"/>
    </g>
   </g>
   <g id="PatchCollection_10">
    <path clip-path="url(#pdc6a5f9667)" d="M 871.36056 297.424377 
L 871.4986 297.424377 
L 871.4986 122.996226 
L 871.36056 122.996226 
z
" style="fill:#ffffff;stroke:#ffffff;"/>
    <path clip-path="url(#pdc6a5f9667)" d="M 871.291541 285.424871 
L 871.567619 285.424871 
L 871.567619 129.456528 
L 871.291541 129.456528 
z
" style="fill:#f9f0eb;stroke:#ffffff;"/>
    <path clip-path="url(#pdc6a5f9667)" d="M 871.153502 279.885667 
L 871.705658 279.885667 
L 871.705658 135.91683 
L 871.153502 135.91683 
z
" style="fill:#f2e1d8;stroke:#ffffff;"/>
    <path clip-path="url(#pdc6a5f9667)" d="M 870.877424 278.043472 
L 871.981737 278.043472 
L 871.981737 145.153043 
L 870.877424 145.153043 
z
" style="fill:#ecd3c4;stroke:#ffffff;"/>
    <path clip-path="url(#pdc6a5f9667)" d="M 870.325267 271.58317 
L 872.533893 271.58317 
L 872.533893 155.297736 
L 870.325267 155.297736 
z
" style="fill:#e5c4b1;stroke:#ffffff;"/>
    <path clip-path="url(#pdc6a5f9667)" d="M 869.220954 258.662566 
L 873.638206 258.662566 
L 873.638206 168.21834 
L 869.220954 168.21834 
z
" style="fill:#dfb59d;stroke:#ffffff;"/>
    <path clip-path="url(#pdc6a5f9667)" d="M 867.012328 252.202264 
L 875.846832 252.202264 
L 875.846832 174.678642 
L 867.012328 174.678642 
z
" style="fill:#d8a68a;stroke:#ffffff;"/>
    <path clip-path="url(#pdc6a5f9667)" d="M 862.595076 239.28166 
L 880.264084 239.28166 
L 880.264084 187.599245 
L 862.595076 187.599245 
z
" style="fill:#d29776;stroke:#ffffff;"/>
    <path clip-path="url(#pdc6a5f9667)" d="M 853.760572 232.821358 
L 889.098588 232.821358 
L 889.098588 200.519849 
L 853.760572 200.519849 
z
" style="fill:#cc8963;stroke:#ffffff;"/>
   </g>
   <g id="PathCollection_11">
    <g clip-path="url(#pdc6a5f9667)">
     <use style="fill:#5f9e6e;stroke:#5f9e6e;" x="915.6021" xlink:href="#m6aded9d154" y="329.725887"/>
     <use style="fill:#5f9e6e;stroke:#5f9e6e;" x="915.6021" xlink:href="#m6aded9d154" y="122.996226"/>
     <use style="fill:#5f9e6e;stroke:#5f9e6e;" x="915.6021" xlink:href="#m6aded9d154" y="110.075623"/>
     <use style="fill:#5f9e6e;stroke:#5f9e6e;" x="915.6021" xlink:href="#m6aded9d154" y="97.155019"/>
    </g>
   </g>
   <g id="PatchCollection_11">
    <path clip-path="url(#pdc6a5f9667)" d="M 915.53308 303.884679 
L 915.67112 303.884679 
L 915.67112 128.995979 
L 915.53308 128.995979 
z
" style="fill:#ffffff;stroke:#ffffff;"/>
    <path clip-path="url(#pdc6a5f9667)" d="M 915.464061 297.424377 
L 915.740139 297.424377 
L 915.740139 135.91683 
L 915.464061 135.91683 
z
" style="fill:#ebf3ed;stroke:#ffffff;"/>
    <path clip-path="url(#pdc6a5f9667)" d="M 915.326022 290.964075 
L 915.878178 290.964075 
L 915.878178 135.91683 
L 915.326022 135.91683 
z
" style="fill:#d7e7db;stroke:#ffffff;"/>
    <path clip-path="url(#pdc6a5f9667)" d="M 915.049944 278.043472 
L 916.154257 278.043472 
L 916.154257 148.837434 
L 915.049944 148.837434 
z
" style="fill:#c3dac8;stroke:#ffffff;"/>
    <path clip-path="url(#pdc6a5f9667)" d="M 914.497787 271.58317 
L 916.706413 271.58317 
L 916.706413 155.297736 
L 914.497787 155.297736 
z
" style="fill:#afceb6;stroke:#ffffff;"/>
    <path clip-path="url(#pdc6a5f9667)" d="M 913.393474 266.939828 
L 917.810726 266.939828 
L 917.810726 168.21834 
L 913.393474 168.21834 
z
" style="fill:#9bc2a4;stroke:#ffffff;"/>
    <path clip-path="url(#pdc6a5f9667)" d="M 911.184848 252.202264 
L 920.019352 252.202264 
L 920.019352 181.138943 
L 911.184848 181.138943 
z
" style="fill:#87b692;stroke:#ffffff;"/>
    <path clip-path="url(#pdc6a5f9667)" d="M 906.767596 245.741962 
L 924.436604 245.741962 
L 924.436604 194.059547 
L 906.767596 194.059547 
z
" style="fill:#73a97f;stroke:#ffffff;"/>
    <path clip-path="url(#pdc6a5f9667)" d="M 897.933092 232.821358 
L 933.271108 232.821358 
L 933.271108 206.980151 
L 897.933092 206.980151 
z
" style="fill:#5f9e6e;stroke:#ffffff;"/>
   </g>
   <g id="PathCollection_12">
    <g clip-path="url(#pdc6a5f9667)">
     <use style="fill:#b55d60;stroke:#b55d60;" x="959.77462" xlink:href="#mdfae3874f8" y="290.964075"/>
     <use style="fill:#b55d60;stroke:#b55d60;" x="959.77462" xlink:href="#mdfae3874f8" y="290.964075"/>
     <use style="fill:#b55d60;stroke:#b55d60;" x="959.77462" xlink:href="#mdfae3874f8" y="90.694717"/>
    </g>
   </g>
   <g id="PatchCollection_12">
    <path clip-path="url(#pdc6a5f9667)" d="M 959.7056 284.503774 
L 959.84364 284.503774 
L 959.84364 110.075623 
L 959.7056 110.075623 
z
" style="fill:#ffffff;stroke:#ffffff;"/>
    <path clip-path="url(#pdc6a5f9667)" d="M 959.636581 278.043472 
L 959.912659 278.043472 
L 959.912659 122.996226 
L 959.636581 122.996226 
z
" style="fill:#f6ebeb;stroke:#ffffff;"/>
    <path clip-path="url(#pdc6a5f9667)" d="M 959.498542 278.043472 
L 960.050698 278.043472 
L 960.050698 135.91683 
L 959.498542 135.91683 
z
" style="fill:#ecd6d7;stroke:#ffffff;"/>
    <path clip-path="url(#pdc6a5f9667)" d="M 959.222464 271.58317 
L 960.326777 271.58317 
L 960.326777 142.377132 
L 959.222464 142.377132 
z
" style="fill:#e3c2c3;stroke:#ffffff;"/>
    <path clip-path="url(#pdc6a5f9667)" d="M 958.670307 258.662566 
L 960.878933 258.662566 
L 960.878933 148.837434 
L 958.670307 148.837434 
z
" style="fill:#daaeaf;stroke:#ffffff;"/>
    <path clip-path="url(#pdc6a5f9667)" d="M 957.565994 252.202264 
L 961.983246 252.202264 
L 961.983246 161.758038 
L 957.565994 161.758038 
z
" style="fill:#d1999b;stroke:#ffffff;"/>
    <path clip-path="url(#pdc6a5f9667)" d="M 955.357368 245.741962 
L 964.191872 245.741962 
L 964.191872 174.678642 
L 955.357368 174.678642 
z
" style="fill:#c78587;stroke:#ffffff;"/>
    <path clip-path="url(#pdc6a5f9667)" d="M 950.940116 232.821358 
L 968.609124 232.821358 
L 968.609124 181.138943 
L 950.940116 181.138943 
z
" style="fill:#be7073;stroke:#ffffff;"/>
    <path clip-path="url(#pdc6a5f9667)" d="M 942.105612 226.361057 
L 977.443628 226.361057 
L 977.443628 194.059547 
L 942.105612 194.059547 
z
" style="fill:#b55d60;stroke:#ffffff;"/>
   </g>
   <g id="PathCollection_13">
    <g clip-path="url(#pdc6a5f9667)">
     <use style="fill:#857aab;stroke:#857aab;" x="1003.94714" xlink:href="#m99675183e4" y="323.265585"/>
     <use style="fill:#857aab;stroke:#857aab;" x="1003.94714" xlink:href="#m99675183e4" y="316.805283"/>
     <use style="fill:#857aab;stroke:#857aab;" x="1003.94714" xlink:href="#m99675183e4" y="316.805283"/>
     <use style="fill:#857aab;stroke:#857aab;" x="1003.94714" xlink:href="#m99675183e4" y="103.615321"/>
     <use style="fill:#857aab;stroke:#857aab;" x="1003.94714" xlink:href="#m99675183e4" y="135.91683"/>
    </g>
   </g>
   <g id="PatchCollection_13">
    <path clip-path="url(#pdc6a5f9667)" d="M 1003.87812 310.80553 
L 1004.01616 310.80553 
L 1004.01616 142.377132 
L 1003.87812 142.377132 
z
" style="fill:#ffffff;stroke:#ffffff;"/>
    <path clip-path="url(#pdc6a5f9667)" d="M 1003.809101 310.344981 
L 1004.085179 310.344981 
L 1004.085179 148.837434 
L 1003.809101 148.837434 
z
" style="fill:#f0eef4;stroke:#ffffff;"/>
    <path clip-path="url(#pdc6a5f9667)" d="M 1003.671062 303.884679 
L 1004.223218 303.884679 
L 1004.223218 161.758038 
L 1003.671062 161.758038 
z
" style="fill:#e0deea;stroke:#ffffff;"/>
    <path clip-path="url(#pdc6a5f9667)" d="M 1003.394984 290.964075 
L 1004.499297 290.964075 
L 1004.499297 168.21834 
L 1003.394984 168.21834 
z
" style="fill:#d1cddf;stroke:#ffffff;"/>
    <path clip-path="url(#pdc6a5f9667)" d="M 1002.842827 284.503774 
L 1005.051453 284.503774 
L 1005.051453 174.678642 
L 1002.842827 174.678642 
z
" style="fill:#c2bcd5;stroke:#ffffff;"/>
    <path clip-path="url(#pdc6a5f9667)" d="M 1001.738514 278.043472 
L 1006.155766 278.043472 
L 1006.155766 187.599245 
L 1001.738514 187.599245 
z
" style="fill:#b3acca;stroke:#ffffff;"/>
    <path clip-path="url(#pdc6a5f9667)" d="M 999.529888 271.58317 
L 1008.364392 271.58317 
L 1008.364392 194.059547 
L 999.529888 194.059547 
z
" style="fill:#a39bc0;stroke:#ffffff;"/>
    <path clip-path="url(#pdc6a5f9667)" d="M 995.112636 258.662566 
L 1012.781644 258.662566 
L 1012.781644 206.980151 
L 995.112636 206.980151 
z
" style="fill:#948ab5;stroke:#ffffff;"/>
    <path clip-path="url(#pdc6a5f9667)" d="M 986.278132 245.741962 
L 1021.616148 245.741962 
L 1021.616148 219.900755 
L 986.278132 219.900755 
z
" style="fill:#857aab;stroke:#ffffff;"/>
   </g>
   <g id="line2d_30">
    <path clip-path="url(#pdc6a5f9667)" d="M 853.760572 213.440453 
L 889.098588 213.440453 
" style="fill:none;stroke:#262626;stroke-linecap:round;stroke-opacity:0.45;stroke-width:1.5;"/>
   </g>
   <g id="line2d_31">
    <path clip-path="url(#pdc6a5f9667)" d="M 897.933092 219.900755 
L 933.271108 219.900755 
" style="fill:none;stroke:#262626;stroke-linecap:round;stroke-opacity:0.45;stroke-width:1.5;"/>
   </g>
   <g id="line2d_32">
    <path clip-path="url(#pdc6a5f9667)" d="M 942.105612 206.980151 
L 977.443628 206.980151 
" style="fill:none;stroke:#262626;stroke-linecap:round;stroke-opacity:0.45;stroke-width:1.5;"/>
   </g>
   <g id="line2d_33">
    <path clip-path="url(#pdc6a5f9667)" d="M 986.278132 232.821358 
L 1021.616148 232.821358 
" style="fill:none;stroke:#262626;stroke-linecap:round;stroke-opacity:0.45;stroke-width:1.5;"/>
   </g>
   <g id="patch_12">
    <path d="M 805.1708 374.948 
L 805.1708 32.552 
" style="fill:none;stroke:#ffffff;stroke-linecap:square;stroke-linejoin:miter;stroke-width:1.25;"/>
   </g>
   <g id="patch_13">
    <path d="M 805.1708 374.948 
L 1026.0334 374.948 
" style="fill:none;stroke:#ffffff;stroke-linecap:square;stroke-linejoin:miter;stroke-width:1.25;"/>
   </g>
   <g id="text_34">
    <!-- clusters = 16 -->
    <g style="fill:#262626;" transform="translate(867.59385 26.552)scale(0.144 -0.144)">
     <use xlink:href="#DejaVuSans-99"/>
     <use x="54.980469" xlink:href="#DejaVuSans-108"/>
     <use x="82.763672" xlink:href="#DejaVuSans-117"/>
     <use x="146.142578" xlink:href="#DejaVuSans-115"/>
     <use x="198.242188" xlink:href="#DejaVuSans-116"/>
     <use x="237.451172" xlink:href="#DejaVuSans-101"/>
     <use x="298.974609" xlink:href="#DejaVuSans-114"/>
     <use x="340.087891" xlink:href="#DejaVuSans-115"/>
     <use x="392.1875" xlink:href="#DejaVuSans-32"/>
     <use x="423.974609" xlink:href="#DejaVuSans-61"/>
     <use x="507.763672" xlink:href="#DejaVuSans-32"/>
     <use x="539.550781" xlink:href="#DejaVuSans-49"/>
     <use x="603.173828" xlink:href="#DejaVuSans-54"/>
    </g>
   </g>
  </g>
  <g id="axes_5">
   <g id="patch_14">
    <path d="M 1053.5854 374.948 
L 1274.448 374.948 
L 1274.448 32.552 
L 1053.5854 32.552 
z
" style="fill:#eaeaf2;"/>
   </g>
   <g id="matplotlib.axis_9">
    <g id="xtick_21">
     <g id="text_35">
      <!-- base -->
      <g style="fill:#262626;" transform="translate(1059.937879 394.477937)scale(0.132 -0.132)">
       <use xlink:href="#DejaVuSans-98"/>
       <use x="63.476562" xlink:href="#DejaVuSans-97"/>
       <use x="124.755859" xlink:href="#DejaVuSans-115"/>
       <use x="176.855469" xlink:href="#DejaVuSans-101"/>
      </g>
     </g>
    </g>
    <g id="xtick_22">
     <g id="text_36">
      <!-- metis -->
      <g style="fill:#262626;" transform="translate(1101.495149 394.477937)scale(0.132 -0.132)">
       <use xlink:href="#DejaVuSans-109"/>
       <use x="97.412109" xlink:href="#DejaVuSans-101"/>
       <use x="158.935547" xlink:href="#DejaVuSans-116"/>
       <use x="198.144531" xlink:href="#DejaVuSans-105"/>
       <use x="225.927734" xlink:href="#DejaVuSans-115"/>
      </g>
     </g>
    </g>
    <g id="xtick_23">
     <g id="text_37">
      <!-- merged -->
      <g style="fill:#262626;" transform="translate(1138.373638 394.477937)scale(0.132 -0.132)">
       <use xlink:href="#DejaVuSans-109"/>
       <use x="97.412109" xlink:href="#DejaVuSans-101"/>
       <use x="158.935547" xlink:href="#DejaVuSans-114"/>
       <use x="200.033203" xlink:href="#DejaVuSans-103"/>
       <use x="263.509766" xlink:href="#DejaVuSans-101"/>
       <use x="325.033203" xlink:href="#DejaVuSans-100"/>
      </g>
     </g>
    </g>
    <g id="xtick_24">
     <g id="text_38">
      <!-- prio -->
      <g style="fill:#262626;" transform="translate(1195.414095 394.477937)scale(0.132 -0.132)">
       <use xlink:href="#DejaVuSans-112"/>
       <use x="63.476562" xlink:href="#DejaVuSans-114"/>
       <use x="104.589844" xlink:href="#DejaVuSans-105"/>
       <use x="132.373047" xlink:href="#DejaVuSans-111"/>
      </g>
     </g>
    </g>
    <g id="xtick_25">
     <g id="text_39">
      <!-- kmeans -->
      <g style="fill:#262626;" transform="translate(1226.384553 394.477937)scale(0.132 -0.132)">
       <use xlink:href="#DejaVuSans-107"/>
       <use x="57.910156" xlink:href="#DejaVuSans-109"/>
       <use x="155.322266" xlink:href="#DejaVuSans-101"/>
       <use x="216.845703" xlink:href="#DejaVuSans-97"/>
       <use x="278.125" xlink:href="#DejaVuSans-110"/>
       <use x="341.503906" xlink:href="#DejaVuSans-115"/>
      </g>
     </g>
    </g>
    <g id="text_40">
     <!-- method -->
     <g style="fill:#262626;" transform="translate(1136.2112 412.164875)scale(0.144 -0.144)">
      <use xlink:href="#DejaVuSans-109"/>
      <use x="97.412109" xlink:href="#DejaVuSans-101"/>
      <use x="158.935547" xlink:href="#DejaVuSans-116"/>
      <use x="198.144531" xlink:href="#DejaVuSans-104"/>
      <use x="261.523438" xlink:href="#DejaVuSans-111"/>
      <use x="322.705078" xlink:href="#DejaVuSans-100"/>
     </g>
    </g>
   </g>
   <g id="matplotlib.axis_10">
    <g id="ytick_21">
     <g id="line2d_34">
      <path clip-path="url(#p846b245551)" d="M 1053.5854 323.265585 
L 1274.448 323.265585 
" style="fill:none;stroke:#ffffff;stroke-linecap:round;"/>
     </g>
    </g>
    <g id="ytick_22">
     <g id="line2d_35">
      <path clip-path="url(#p846b245551)" d="M 1053.5854 258.662566 
L 1274.448 258.662566 
" style="fill:none;stroke:#ffffff;stroke-linecap:round;"/>
     </g>
    </g>
    <g id="ytick_23">
     <g id="line2d_36">
      <path clip-path="url(#p846b245551)" d="M 1053.5854 194.059547 
L 1274.448 194.059547 
" style="fill:none;stroke:#ffffff;stroke-linecap:round;"/>
     </g>
    </g>
    <g id="ytick_24">
     <g id="line2d_37">
      <path clip-path="url(#p846b245551)" d="M 1053.5854 129.456528 
L 1274.448 129.456528 
" style="fill:none;stroke:#ffffff;stroke-linecap:round;"/>
     </g>
    </g>
    <g id="ytick_25">
     <g id="line2d_38">
      <path clip-path="url(#p846b245551)" d="M 1053.5854 64.853509 
L 1274.448 64.853509 
" style="fill:none;stroke:#ffffff;stroke-linecap:round;"/>
     </g>
    </g>
   </g>
   <g id="PathCollection_14">
    <g clip-path="url(#p846b245551)">
     <use style="fill:#cc8963;stroke:#cc8963;" x="1119.84418" xlink:href="#me1f6edb10d" y="290.964075"/>
     <use style="fill:#cc8963;stroke:#cc8963;" x="1119.84418" xlink:href="#me1f6edb10d" y="278.043472"/>
     <use style="fill:#cc8963;stroke:#cc8963;" x="1119.84418" xlink:href="#me1f6edb10d" y="284.503774"/>
     <use style="fill:#cc8963;stroke:#cc8963;" x="1119.84418" xlink:href="#me1f6edb10d" y="103.615321"/>
     <use style="fill:#cc8963;stroke:#cc8963;" x="1119.84418" xlink:href="#me1f6edb10d" y="64.853509"/>
     <use style="fill:#cc8963;stroke:#cc8963;" x="1119.84418" xlink:href="#me1f6edb10d" y="103.615321"/>
    </g>
   </g>
   <g id="PatchCollection_14">
    <path clip-path="url(#p846b245551)" d="M 1119.77516 271.728274 
L 1119.9132 271.728274 
L 1119.9132 109.930518 
L 1119.77516 109.930518 
z
" style="fill:#ffffff;stroke:#ffffff;"/>
    <path clip-path="url(#p846b245551)" d="M 1119.706141 271.58317 
L 1119.982219 271.58317 
L 1119.982219 116.245716 
L 1119.706141 116.245716 
z
" style="fill:#f9f0eb;stroke:#ffffff;"/>
    <path clip-path="url(#p846b245551)" d="M 1119.568102 271.58317 
L 1120.120258 271.58317 
L 1120.120258 122.996226 
L 1119.568102 122.996226 
z
" style="fill:#f2e1d8;stroke:#ffffff;"/>
    <path clip-path="url(#p846b245551)" d="M 1119.292024 252.202264 
L 1120.396337 252.202264 
L 1120.396337 128.295693 
L 1119.292024 128.295693 
z
" style="fill:#ecd3c4;stroke:#ffffff;"/>
    <path clip-path="url(#p846b245551)" d="M 1118.739867 245.741962 
L 1120.948493 245.741962 
L 1120.948493 135.91683 
L 1118.739867 135.91683 
z
" style="fill:#e5c4b1;stroke:#ffffff;"/>
    <path clip-path="url(#p846b245551)" d="M 1117.635554 232.821358 
L 1122.052806 232.821358 
L 1122.052806 142.377132 
L 1117.635554 142.377132 
z
" style="fill:#dfb59d;stroke:#ffffff;"/>
    <path clip-path="url(#p846b245551)" d="M 1115.426928 226.361057 
L 1124.261432 226.361057 
L 1124.261432 148.837434 
L 1115.426928 148.837434 
z
" style="fill:#d8a68a;stroke:#ffffff;"/>
    <path clip-path="url(#p846b245551)" d="M 1111.009676 213.440453 
L 1128.678684 213.440453 
L 1128.678684 161.758038 
L 1111.009676 161.758038 
z
" style="fill:#d29776;stroke:#ffffff;"/>
    <path clip-path="url(#p846b245551)" d="M 1102.175172 206.980151 
L 1137.513188 206.980151 
L 1137.513188 174.678642 
L 1102.175172 174.678642 
z
" style="fill:#cc8963;stroke:#ffffff;"/>
   </g>
   <g id="PathCollection_15">
    <g clip-path="url(#p846b245551)">
     <use style="fill:#5f9e6e;stroke:#5f9e6e;" x="1164.0167" xlink:href="#m6aded9d154" y="278.043472"/>
     <use style="fill:#5f9e6e;stroke:#5f9e6e;" x="1164.0167" xlink:href="#m6aded9d154" y="278.043472"/>
     <use style="fill:#5f9e6e;stroke:#5f9e6e;" x="1164.0167" xlink:href="#m6aded9d154" y="58.393208"/>
     <use style="fill:#5f9e6e;stroke:#5f9e6e;" x="1164.0167" xlink:href="#m6aded9d154" y="64.853509"/>
    </g>
   </g>
   <g id="PatchCollection_15">
    <path clip-path="url(#p846b245551)" d="M 1163.94768 271.58317 
L 1164.08572 271.58317 
L 1164.08572 71.313811 
L 1163.94768 71.313811 
z
" style="fill:#ffffff;stroke:#ffffff;"/>
    <path clip-path="url(#p846b245551)" d="M 1163.878661 258.952775 
L 1164.154739 258.952775 
L 1164.154739 84.234415 
L 1163.878661 84.234415 
z
" style="fill:#ebf3ed;stroke:#ffffff;"/>
    <path clip-path="url(#p846b245551)" d="M 1163.740622 245.741962 
L 1164.292778 245.741962 
L 1164.292778 97.155019 
L 1163.740622 97.155019 
z
" style="fill:#d7e7db;stroke:#ffffff;"/>
    <path clip-path="url(#p846b245551)" d="M 1163.464544 239.28166 
L 1164.568857 239.28166 
L 1164.568857 110.075623 
L 1163.464544 110.075623 
z
" style="fill:#c3dac8;stroke:#ffffff;"/>
    <path clip-path="url(#p846b245551)" d="M 1162.912387 232.821358 
L 1165.121013 232.821358 
L 1165.121013 116.535925 
L 1162.912387 116.535925 
z
" style="fill:#afceb6;stroke:#ffffff;"/>
    <path clip-path="url(#p846b245551)" d="M 1161.808074 219.900755 
L 1166.225326 219.900755 
L 1166.225326 129.456528 
L 1161.808074 129.456528 
z
" style="fill:#9bc2a4;stroke:#ffffff;"/>
    <path clip-path="url(#p846b245551)" d="M 1159.599448 213.440453 
L 1168.433952 213.440453 
L 1168.433952 142.377132 
L 1159.599448 142.377132 
z
" style="fill:#87b692;stroke:#ffffff;"/>
    <path clip-path="url(#p846b245551)" d="M 1155.182196 206.980151 
L 1172.851204 206.980151 
L 1172.851204 155.297736 
L 1155.182196 155.297736 
z
" style="fill:#73a97f;stroke:#ffffff;"/>
    <path clip-path="url(#p846b245551)" d="M 1146.347692 194.059547 
L 1181.685708 194.059547 
L 1181.685708 161.758038 
L 1146.347692 161.758038 
z
" style="fill:#5f9e6e;stroke:#ffffff;"/>
   </g>
   <g id="PathCollection_16">
    <g clip-path="url(#p846b245551)">
     <use style="fill:#b55d60;stroke:#b55d60;" x="1208.18922" xlink:href="#mdfae3874f8" y="271.58317"/>
     <use style="fill:#b55d60;stroke:#b55d60;" x="1208.18922" xlink:href="#mdfae3874f8" y="265.122868"/>
     <use style="fill:#b55d60;stroke:#b55d60;" x="1208.18922" xlink:href="#mdfae3874f8" y="278.043472"/>
     <use style="fill:#b55d60;stroke:#b55d60;" x="1208.18922" xlink:href="#mdfae3874f8" y="71.313811"/>
     <use style="fill:#b55d60;stroke:#b55d60;" x="1208.18922" xlink:href="#mdfae3874f8" y="51.932906"/>
    </g>
   </g>
   <g id="PatchCollection_16">
    <path clip-path="url(#p846b245551)" d="M 1208.1202 253.123362 
L 1208.25824 253.123362 
L 1208.25824 84.234415 
L 1208.1202 84.234415 
z
" style="fill:#ffffff;stroke:#ffffff;"/>
    <path clip-path="url(#p846b245551)" d="M 1208.051181 245.741962 
L 1208.327259 245.741962 
L 1208.327259 90.694717 
L 1208.051181 90.694717 
z
" style="fill:#f6ebeb;stroke:#ffffff;"/>
    <path clip-path="url(#p846b245551)" d="M 1207.913142 239.28166 
L 1208.465298 239.28166 
L 1208.465298 90.694717 
L 1207.913142 90.694717 
z
" style="fill:#ecd6d7;stroke:#ffffff;"/>
    <path clip-path="url(#p846b245551)" d="M 1207.637064 232.821358 
L 1208.741377 232.821358 
L 1208.741377 103.615321 
L 1207.637064 103.615321 
z
" style="fill:#e3c2c3;stroke:#ffffff;"/>
    <path clip-path="url(#p846b245551)" d="M 1207.084907 226.361057 
L 1209.293533 226.361057 
L 1209.293533 110.075623 
L 1207.084907 110.075623 
z
" style="fill:#daaeaf;stroke:#ffffff;"/>
    <path clip-path="url(#p846b245551)" d="M 1205.980594 219.900755 
L 1210.397846 219.900755 
L 1210.397846 122.996226 
L 1205.980594 122.996226 
z
" style="fill:#d1999b;stroke:#ffffff;"/>
    <path clip-path="url(#p846b245551)" d="M 1203.771968 206.980151 
L 1212.606472 206.980151 
L 1212.606472 135.91683 
L 1203.771968 135.91683 
z
" style="fill:#c78587;stroke:#ffffff;"/>
    <path clip-path="url(#p846b245551)" d="M 1199.354716 194.059547 
L 1217.023724 194.059547 
L 1217.023724 142.377132 
L 1199.354716 142.377132 
z
" style="fill:#be7073;stroke:#ffffff;"/>
    <path clip-path="url(#p846b245551)" d="M 1190.520212 187.599245 
L 1225.858228 187.599245 
L 1225.858228 155.297736 
L 1190.520212 155.297736 
z
" style="fill:#b55d60;stroke:#ffffff;"/>
   </g>
   <g id="PathCollection_17">
    <g clip-path="url(#p846b245551)">
     <use style="fill:#857aab;stroke:#857aab;" x="1252.36174" xlink:href="#m99675183e4" y="310.344981"/>
     <use style="fill:#857aab;stroke:#857aab;" x="1252.36174" xlink:href="#m99675183e4" y="135.91683"/>
     <use style="fill:#857aab;stroke:#857aab;" x="1252.36174" xlink:href="#m99675183e4" y="122.996226"/>
     <use style="fill:#857aab;stroke:#857aab;" x="1252.36174" xlink:href="#m99675183e4" y="110.075623"/>
    </g>
   </g>
   <g id="PatchCollection_17">
    <path clip-path="url(#p846b245551)" d="M 1252.29272 297.424377 
L 1252.43076 297.424377 
L 1252.43076 141.916583 
L 1252.29272 141.916583 
z
" style="fill:#ffffff;stroke:#ffffff;"/>
    <path clip-path="url(#p846b245551)" d="M 1252.223701 290.964075 
L 1252.499779 290.964075 
L 1252.499779 142.377132 
L 1252.223701 142.377132 
z
" style="fill:#f0eef4;stroke:#ffffff;"/>
    <path clip-path="url(#p846b245551)" d="M 1252.085662 284.503774 
L 1252.637818 284.503774 
L 1252.637818 148.837434 
L 1252.085662 148.837434 
z
" style="fill:#e0deea;stroke:#ffffff;"/>
    <path clip-path="url(#p846b245551)" d="M 1251.809584 275.267561 
L 1252.913897 275.267561 
L 1252.913897 148.837434 
L 1251.809584 148.837434 
z
" style="fill:#d1cddf;stroke:#ffffff;"/>
    <path clip-path="url(#p846b245551)" d="M 1251.257427 271.58317 
L 1253.466053 271.58317 
L 1253.466053 155.297736 
L 1251.257427 155.297736 
z
" style="fill:#c2bcd5;stroke:#ffffff;"/>
    <path clip-path="url(#p846b245551)" d="M 1250.153114 265.122868 
L 1254.570366 265.122868 
L 1254.570366 168.21834 
L 1250.153114 168.21834 
z
" style="fill:#b3acca;stroke:#ffffff;"/>
    <path clip-path="url(#p846b245551)" d="M 1247.944488 252.202264 
L 1256.778992 252.202264 
L 1256.778992 181.138943 
L 1247.944488 181.138943 
z
" style="fill:#a39bc0;stroke:#ffffff;"/>
    <path clip-path="url(#p846b245551)" d="M 1243.527236 245.741962 
L 1261.196244 245.741962 
L 1261.196244 187.599245 
L 1243.527236 187.599245 
z
" style="fill:#948ab5;stroke:#ffffff;"/>
    <path clip-path="url(#p846b245551)" d="M 1234.692732 232.821358 
L 1270.030748 232.821358 
L 1270.030748 200.519849 
L 1234.692732 200.519849 
z
" style="fill:#857aab;stroke:#ffffff;"/>
   </g>
   <g id="line2d_39">
    <path clip-path="url(#p846b245551)" d="M 1102.175172 187.599245 
L 1137.513188 187.599245 
" style="fill:none;stroke:#262626;stroke-linecap:round;stroke-opacity:0.45;stroke-width:1.5;"/>
   </g>
   <g id="line2d_40">
    <path clip-path="url(#p846b245551)" d="M 1146.347692 181.138943 
L 1181.685708 181.138943 
" style="fill:none;stroke:#262626;stroke-linecap:round;stroke-opacity:0.45;stroke-width:1.5;"/>
   </g>
   <g id="line2d_41">
    <path clip-path="url(#p846b245551)" d="M 1190.520212 168.21834 
L 1225.858228 168.21834 
" style="fill:none;stroke:#262626;stroke-linecap:round;stroke-opacity:0.45;stroke-width:1.5;"/>
   </g>
   <g id="line2d_42">
    <path clip-path="url(#p846b245551)" d="M 1234.692732 219.900755 
L 1270.030748 219.900755 
" style="fill:none;stroke:#262626;stroke-linecap:round;stroke-opacity:0.45;stroke-width:1.5;"/>
   </g>
   <g id="patch_15">
    <path d="M 1053.5854 374.948 
L 1053.5854 32.552 
" style="fill:none;stroke:#ffffff;stroke-linecap:square;stroke-linejoin:miter;stroke-width:1.25;"/>
   </g>
   <g id="patch_16">
    <path d="M 1053.5854 374.948 
L 1274.448 374.948 
" style="fill:none;stroke:#ffffff;stroke-linecap:square;stroke-linejoin:miter;stroke-width:1.25;"/>
   </g>
   <g id="text_41">
    <!-- clusters = 32 -->
    <g style="fill:#262626;" transform="translate(1116.00845 26.552)scale(0.144 -0.144)">
     <use xlink:href="#DejaVuSans-99"/>
     <use x="54.980469" xlink:href="#DejaVuSans-108"/>
     <use x="82.763672" xlink:href="#DejaVuSans-117"/>
     <use x="146.142578" xlink:href="#DejaVuSans-115"/>
     <use x="198.242188" xlink:href="#DejaVuSans-116"/>
     <use x="237.451172" xlink:href="#DejaVuSans-101"/>
     <use x="298.974609" xlink:href="#DejaVuSans-114"/>
     <use x="340.087891" xlink:href="#DejaVuSans-115"/>
     <use x="392.1875" xlink:href="#DejaVuSans-32"/>
     <use x="423.974609" xlink:href="#DejaVuSans-61"/>
     <use x="507.763672" xlink:href="#DejaVuSans-32"/>
     <use x="539.550781" xlink:href="#DejaVuSans-51"/>
     <use x="603.173828" xlink:href="#DejaVuSans-50"/>
    </g>
   </g>
  </g>
 </g>
 <defs>
  <clipPath id="p9009b7ae28">
   <rect height="342.396" width="220.8626" x="59.927" y="32.552"/>
  </clipPath>
  <clipPath id="p1058591bee">
   <rect height="342.396" width="220.8626" x="308.3416" y="32.552"/>
  </clipPath>
  <clipPath id="p72428f806e">
   <rect height="342.396" width="220.8626" x="556.7562" y="32.552"/>
  </clipPath>
  <clipPath id="pdc6a5f9667">
   <rect height="342.396" width="220.8626" x="805.1708" y="32.552"/>
  </clipPath>
  <clipPath id="p846b245551">
   <rect height="342.396" width="220.8626" x="1053.5854" y="32.552"/>
  </clipPath>
 </defs>
</svg>
