<?xml version="1.0" encoding="utf-8" standalone="no"?>
<!DOCTYPE svg PUBLIC "-//W3C//DTD SVG 1.1//EN"
  "http://www.w3.org/Graphics/SVG/1.1/DTD/svg11.dtd">
<!-- Created with matplotlib (https://matplotlib.org/) -->
<svg height="432pt" version="1.1" viewBox="0 0 864 432" width="864pt" xmlns="http://www.w3.org/2000/svg" xmlns:xlink="http://www.w3.org/1999/xlink">
 <defs>
  <style type="text/css">
*{stroke-linecap:butt;stroke-linejoin:round;}
  </style>
 </defs>
 <g id="figure_1">
  <g id="patch_1">
   <path d="M 0 432 
L 864 432 
L 864 0 
L 0 0 
z
" style="fill:#ffffff;"/>
  </g>
  <g id="axes_1">
   <g id="patch_2">
    <path d="M 64.756 377.244 
L 239.811 377.244 
L 239.811 43.2 
L 64.756 43.2 
z
" style="fill:#eaeaf2;"/>
   </g>
   <g id="matplotlib.axis_1">
    <g id="xtick_1">
     <g id="text_1">
      <!-- metis -->
      <defs>
       <path d="M 52 44.1875 
Q 55.375 50.25 60.0625 53.125 
Q 64.75 56 71.09375 56 
Q 79.640625 56 84.28125 50.015625 
Q 88.921875 44.046875 88.921875 33.015625 
L 88.921875 0 
L 79.890625 0 
L 79.890625 32.71875 
Q 79.890625 40.578125 77.09375 44.375 
Q 74.3125 48.1875 68.609375 48.1875 
Q 61.625 48.1875 57.5625 43.546875 
Q 53.515625 38.921875 53.515625 30.90625 
L 53.515625 0 
L 44.484375 0 
L 44.484375 32.71875 
Q 44.484375 40.625 41.703125 44.40625 
Q 38.921875 48.1875 33.109375 48.1875 
Q 26.21875 48.1875 22.15625 43.53125 
Q 18.109375 38.875 18.109375 30.90625 
L 18.109375 0 
L 9.078125 0 
L 9.078125 54.6875 
L 18.109375 54.6875 
L 18.109375 46.1875 
Q 21.1875 51.21875 25.484375 53.609375 
Q 29.78125 56 35.6875 56 
Q 41.65625 56 45.828125 52.96875 
Q 50 49.953125 52 44.1875 
z
" id="DejaVuSans-109"/>
       <path d="M 56.203125 29.59375 
L 56.203125 25.203125 
L 14.890625 25.203125 
Q 15.484375 15.921875 20.484375 11.0625 
Q 25.484375 6.203125 34.421875 6.203125 
Q 39.59375 6.203125 44.453125 7.46875 
Q 49.3125 8.734375 54.109375 11.28125 
L 54.109375 2.78125 
Q 49.265625 0.734375 44.1875 -0.34375 
Q 39.109375 -1.421875 33.890625 -1.421875 
Q 20.796875 -1.421875 13.15625 6.1875 
Q 5.515625 13.8125 5.515625 26.8125 
Q 5.515625 40.234375 12.765625 48.109375 
Q 20.015625 56 32.328125 56 
Q 43.359375 56 49.78125 48.890625 
Q 56.203125 41.796875 56.203125 29.59375 
z
M 47.21875 32.234375 
Q 47.125 39.59375 43.09375 43.984375 
Q 39.0625 48.390625 32.421875 48.390625 
Q 24.90625 48.390625 20.390625 44.140625 
Q 15.875 39.890625 15.1875 32.171875 
z
" id="DejaVuSans-101"/>
       <path d="M 18.3125 70.21875 
L 18.3125 54.6875 
L 36.8125 54.6875 
L 36.8125 47.703125 
L 18.3125 47.703125 
L 18.3125 18.015625 
Q 18.3125 11.328125 20.140625 9.421875 
Q 21.96875 7.515625 27.59375 7.515625 
L 36.8125 7.515625 
L 36.8125 0 
L 27.59375 0 
Q 17.1875 0 13.234375 3.875 
Q 9.28125 7.765625 9.28125 18.015625 
L 9.28125 47.703125 
L 2.6875 47.703125 
L 2.6875 54.6875 
L 9.28125 54.6875 
L 9.28125 70.21875 
z
" id="DejaVuSans-116"/>
       <path d="M 9.421875 54.6875 
L 18.40625 54.6875 
L 18.40625 0 
L 9.421875 0 
z
M 9.421875 75.984375 
L 18.40625 75.984375 
L 18.40625 64.59375 
L 9.421875 64.59375 
z
" id="DejaVuSans-105"/>
       <path d="M 44.28125 53.078125 
L 44.28125 44.578125 
Q 40.484375 46.53125 36.375 47.5 
Q 32.28125 48.484375 27.875 48.484375 
Q 21.1875 48.484375 17.84375 46.4375 
Q 14.5 44.390625 14.5 40.28125 
Q 14.5 37.15625 16.890625 35.375 
Q 19.28125 33.59375 26.515625 31.984375 
L 29.59375 31.296875 
Q 39.15625 29.25 43.1875 25.515625 
Q 47.21875 21.78125 47.21875 15.09375 
Q 47.21875 7.46875 41.1875 3.015625 
Q 35.15625 -1.421875 24.609375 -1.421875 
Q 20.21875 -1.421875 15.453125 -0.5625 
Q 10.6875 0.296875 5.421875 2 
L 5.421875 11.28125 
Q 10.40625 8.6875 15.234375 7.390625 
Q 20.0625 6.109375 24.8125 6.109375 
Q 31.15625 6.109375 34.5625 8.28125 
Q 37.984375 10.453125 37.984375 14.40625 
Q 37.984375 18.0625 35.515625 20.015625 
Q 33.0625 21.96875 24.703125 23.78125 
L 21.578125 24.515625 
Q 13.234375 26.265625 9.515625 29.90625 
Q 5.8125 33.546875 5.8125 39.890625 
Q 5.8125 47.609375 11.28125 51.796875 
Q 16.75 56 26.8125 56 
Q 31.78125 56 36.171875 55.265625 
Q 40.578125 54.546875 44.28125 53.078125 
z
" id="DejaVuSans-115"/>
      </defs>
      <g style="fill:#262626;" transform="translate(69.81793 395.938109)scale(0.121 -0.121)">
       <use xlink:href="#DejaVuSans-109"/>
       <use x="97.412109" xlink:href="#DejaVuSans-101"/>
       <use x="158.935547" xlink:href="#DejaVuSans-116"/>
       <use x="198.144531" xlink:href="#DejaVuSans-105"/>
       <use x="225.927734" xlink:href="#DejaVuSans-115"/>
      </g>
     </g>
    </g>
    <g id="xtick_2">
     <g id="text_2">
      <!-- merged -->
      <defs>
       <path d="M 41.109375 46.296875 
Q 39.59375 47.171875 37.8125 47.578125 
Q 36.03125 48 33.890625 48 
Q 26.265625 48 22.1875 43.046875 
Q 18.109375 38.09375 18.109375 28.8125 
L 18.109375 0 
L 9.078125 0 
L 9.078125 54.6875 
L 18.109375 54.6875 
L 18.109375 46.1875 
Q 20.953125 51.171875 25.484375 53.578125 
Q 30.03125 56 36.53125 56 
Q 37.453125 56 38.578125 55.875 
Q 39.703125 55.765625 41.0625 55.515625 
z
" id="DejaVuSans-114"/>
       <path d="M 45.40625 27.984375 
Q 45.40625 37.75 41.375 43.109375 
Q 37.359375 48.484375 30.078125 48.484375 
Q 22.859375 48.484375 18.828125 43.109375 
Q 14.796875 37.75 14.796875 27.984375 
Q 14.796875 18.265625 18.828125 12.890625 
Q 22.859375 7.515625 30.078125 7.515625 
Q 37.359375 7.515625 41.375 12.890625 
Q 45.40625 18.265625 45.40625 27.984375 
z
M 54.390625 6.78125 
Q 54.390625 -7.171875 48.1875 -13.984375 
Q 42 -20.796875 29.203125 -20.796875 
Q 24.46875 -20.796875 20.265625 -20.09375 
Q 16.0625 -19.390625 12.109375 -17.921875 
L 12.109375 -9.1875 
Q 16.0625 -11.328125 19.921875 -12.34375 
Q 23.78125 -13.375 27.78125 -13.375 
Q 36.625 -13.375 41.015625 -8.765625 
Q 45.40625 -4.15625 45.40625 5.171875 
L 45.40625 9.625 
Q 42.625 4.78125 38.28125 2.390625 
Q 33.9375 0 27.875 0 
Q 17.828125 0 11.671875 7.65625 
Q 5.515625 15.328125 5.515625 27.984375 
Q 5.515625 40.671875 11.671875 48.328125 
Q 17.828125 56 27.875 56 
Q 33.9375 56 38.28125 53.609375 
Q 42.625 51.21875 45.40625 46.390625 
L 45.40625 54.6875 
L 54.390625 54.6875 
z
" id="DejaVuSans-103"/>
       <path d="M 45.40625 46.390625 
L 45.40625 75.984375 
L 54.390625 75.984375 
L 54.390625 0 
L 45.40625 0 
L 45.40625 8.203125 
Q 42.578125 3.328125 38.25 0.953125 
Q 33.9375 -1.421875 27.875 -1.421875 
Q 17.96875 -1.421875 11.734375 6.484375 
Q 5.515625 14.40625 5.515625 27.296875 
Q 5.515625 40.1875 11.734375 48.09375 
Q 17.96875 56 27.875 56 
Q 33.9375 56 38.25 53.625 
Q 42.578125 51.265625 45.40625 46.390625 
z
M 14.796875 27.296875 
Q 14.796875 17.390625 18.875 11.75 
Q 22.953125 6.109375 30.078125 6.109375 
Q 37.203125 6.109375 41.296875 11.75 
Q 45.40625 17.390625 45.40625 27.296875 
Q 45.40625 37.203125 41.296875 42.84375 
Q 37.203125 48.484375 30.078125 48.484375 
Q 22.953125 48.484375 18.875 42.84375 
Q 14.796875 37.203125 14.796875 27.296875 
z
" id="DejaVuSans-100"/>
      </defs>
      <g style="fill:#262626;" transform="translate(106.895484 395.938109)scale(0.121 -0.121)">
       <use xlink:href="#DejaVuSans-109"/>
       <use x="97.412109" xlink:href="#DejaVuSans-101"/>
       <use x="158.935547" xlink:href="#DejaVuSans-114"/>
       <use x="200.033203" xlink:href="#DejaVuSans-103"/>
       <use x="263.509766" xlink:href="#DejaVuSans-101"/>
       <use x="325.033203" xlink:href="#DejaVuSans-100"/>
      </g>
     </g>
    </g>
    <g id="xtick_3">
     <g id="text_3">
      <!-- prio -->
      <defs>
       <path d="M 18.109375 8.203125 
L 18.109375 -20.796875 
L 9.078125 -20.796875 
L 9.078125 54.6875 
L 18.109375 54.6875 
L 18.109375 46.390625 
Q 20.953125 51.265625 25.265625 53.625 
Q 29.59375 56 35.59375 56 
Q 45.5625 56 51.78125 48.09375 
Q 58.015625 40.1875 58.015625 27.296875 
Q 58.015625 14.40625 51.78125 6.484375 
Q 45.5625 -1.421875 35.59375 -1.421875 
Q 29.59375 -1.421875 25.265625 0.953125 
Q 20.953125 3.328125 18.109375 8.203125 
z
M 48.6875 27.296875 
Q 48.6875 37.203125 44.609375 42.84375 
Q 40.53125 48.484375 33.40625 48.484375 
Q 26.265625 48.484375 22.1875 42.84375 
Q 18.109375 37.203125 18.109375 27.296875 
Q 18.109375 17.390625 22.1875 11.75 
Q 26.265625 6.109375 33.40625 6.109375 
Q 40.53125 6.109375 44.609375 11.75 
Q 48.6875 17.390625 48.6875 27.296875 
z
" id="DejaVuSans-112"/>
       <path d="M 30.609375 48.390625 
Q 23.390625 48.390625 19.1875 42.75 
Q 14.984375 37.109375 14.984375 27.296875 
Q 14.984375 17.484375 19.15625 11.84375 
Q 23.34375 6.203125 30.609375 6.203125 
Q 37.796875 6.203125 41.984375 11.859375 
Q 46.1875 17.53125 46.1875 27.296875 
Q 46.1875 37.015625 41.984375 42.703125 
Q 37.796875 48.390625 30.609375 48.390625 
z
M 30.609375 56 
Q 42.328125 56 49.015625 48.375 
Q 55.71875 40.765625 55.71875 27.296875 
Q 55.71875 13.875 49.015625 6.21875 
Q 42.328125 -1.421875 30.609375 -1.421875 
Q 18.84375 -1.421875 12.171875 6.21875 
Q 5.515625 13.875 5.515625 27.296875 
Q 5.515625 40.765625 12.171875 48.375 
Q 18.84375 56 30.609375 56 
z
" id="DejaVuSans-111"/>
      </defs>
      <g style="fill:#262626;" transform="translate(162.454844 395.938109)scale(0.121 -0.121)">
       <use xlink:href="#DejaVuSans-112"/>
       <use x="63.476562" xlink:href="#DejaVuSans-114"/>
       <use x="104.589844" xlink:href="#DejaVuSans-105"/>
       <use x="132.373047" xlink:href="#DejaVuSans-111"/>
      </g>
     </g>
    </g>
    <g id="xtick_4">
     <g id="text_4">
      <!-- kmeans -->
      <defs>
       <path d="M 9.078125 75.984375 
L 18.109375 75.984375 
L 18.109375 31.109375 
L 44.921875 54.6875 
L 56.390625 54.6875 
L 27.390625 29.109375 
L 57.625 0 
L 45.90625 0 
L 18.109375 26.703125 
L 18.109375 0 
L 9.078125 0 
z
" id="DejaVuSans-107"/>
       <path d="M 34.28125 27.484375 
Q 23.390625 27.484375 19.1875 25 
Q 14.984375 22.515625 14.984375 16.5 
Q 14.984375 11.71875 18.140625 8.90625 
Q 21.296875 6.109375 26.703125 6.109375 
Q 34.1875 6.109375 38.703125 11.40625 
Q 43.21875 16.703125 43.21875 25.484375 
L 43.21875 27.484375 
z
M 52.203125 31.203125 
L 52.203125 0 
L 43.21875 0 
L 43.21875 8.296875 
Q 40.140625 3.328125 35.546875 0.953125 
Q 30.953125 -1.421875 24.3125 -1.421875 
Q 15.921875 -1.421875 10.953125 3.296875 
Q 6 8.015625 6 15.921875 
Q 6 25.140625 12.171875 29.828125 
Q 18.359375 34.515625 30.609375 34.515625 
L 43.21875 34.515625 
L 43.21875 35.40625 
Q 43.21875 41.609375 39.140625 45 
Q 35.0625 48.390625 27.6875 48.390625 
Q 23 48.390625 18.546875 47.265625 
Q 14.109375 46.140625 10.015625 43.890625 
L 10.015625 52.203125 
Q 14.9375 54.109375 19.578125 55.046875 
Q 24.21875 56 28.609375 56 
Q 40.484375 56 46.34375 49.84375 
Q 52.203125 43.703125 52.203125 31.203125 
z
" id="DejaVuSans-97"/>
       <path d="M 54.890625 33.015625 
L 54.890625 0 
L 45.90625 0 
L 45.90625 32.71875 
Q 45.90625 40.484375 42.875 44.328125 
Q 39.84375 48.1875 33.796875 48.1875 
Q 26.515625 48.1875 22.3125 43.546875 
Q 18.109375 38.921875 18.109375 30.90625 
L 18.109375 0 
L 9.078125 0 
L 9.078125 54.6875 
L 18.109375 54.6875 
L 18.109375 46.1875 
Q 21.34375 51.125 25.703125 53.5625 
Q 30.078125 56 35.796875 56 
Q 45.21875 56 50.046875 50.171875 
Q 54.890625 44.34375 54.890625 33.015625 
z
" id="DejaVuSans-110"/>
      </defs>
      <g style="fill:#262626;" transform="translate(194.116703 395.938109)scale(0.121 -0.121)">
       <use xlink:href="#DejaVuSans-107"/>
       <use x="57.910156" xlink:href="#DejaVuSans-109"/>
       <use x="155.322266" xlink:href="#DejaVuSans-101"/>
       <use x="216.845703" xlink:href="#DejaVuSans-97"/>
       <use x="278.125" xlink:href="#DejaVuSans-110"/>
       <use x="341.503906" xlink:href="#DejaVuSans-115"/>
      </g>
     </g>
    </g>
    <g id="text_5">
     <!-- Method -->
     <defs>
      <path d="M 9.8125 72.90625 
L 24.515625 72.90625 
L 43.109375 23.296875 
L 61.8125 72.90625 
L 76.515625 72.90625 
L 76.515625 0 
L 66.890625 0 
L 66.890625 64.015625 
L 48.09375 14.015625 
L 38.1875 14.015625 
L 19.390625 64.015625 
L 19.390625 0 
L 9.8125 0 
z
" id="DejaVuSans-77"/>
      <path d="M 54.890625 33.015625 
L 54.890625 0 
L 45.90625 0 
L 45.90625 32.71875 
Q 45.90625 40.484375 42.875 44.328125 
Q 39.84375 48.1875 33.796875 48.1875 
Q 26.515625 48.1875 22.3125 43.546875 
Q 18.109375 38.921875 18.109375 30.90625 
L 18.109375 0 
L 9.078125 0 
L 9.078125 75.984375 
L 18.109375 75.984375 
L 18.109375 46.1875 
Q 21.34375 51.125 25.703125 53.5625 
Q 30.078125 56 35.796875 56 
Q 45.21875 56 50.046875 50.171875 
Q 54.890625 44.34375 54.890625 33.015625 
z
" id="DejaVuSans-104"/>
     </defs>
     <g style="fill:#262626;" transform="translate(127.529375 412.484469)scale(0.132 -0.132)">
      <use xlink:href="#DejaVuSans-77"/>
      <use x="86.279297" xlink:href="#DejaVuSans-101"/>
      <use x="147.802734" xlink:href="#DejaVuSans-116"/>
      <use x="187.011719" xlink:href="#DejaVuSans-104"/>
      <use x="250.390625" xlink:href="#DejaVuSans-111"/>
      <use x="311.572266" xlink:href="#DejaVuSans-100"/>
     </g>
    </g>
   </g>
   <g id="matplotlib.axis_2">
    <g id="ytick_1">
     <g id="line2d_1">
      <path clip-path="url(#p94e08247c0)" d="M 64.756 377.244 
L 239.811 377.244 
" style="fill:none;stroke:#ffffff;stroke-linecap:round;"/>
     </g>
     <g id="text_6">
      <!-- 0 -->
      <defs>
       <path d="M 31.78125 66.40625 
Q 24.171875 66.40625 20.328125 58.90625 
Q 16.5 51.421875 16.5 36.375 
Q 16.5 21.390625 20.328125 13.890625 
Q 24.171875 6.390625 31.78125 6.390625 
Q 39.453125 6.390625 43.28125 13.890625 
Q 47.125 21.390625 47.125 36.375 
Q 47.125 51.421875 43.28125 58.90625 
Q 39.453125 66.40625 31.78125 66.40625 
z
M 31.78125 74.21875 
Q 44.046875 74.21875 50.515625 64.515625 
Q 56.984375 54.828125 56.984375 36.375 
Q 56.984375 17.96875 50.515625 8.265625 
Q 44.046875 -1.421875 31.78125 -1.421875 
Q 19.53125 -1.421875 13.0625 8.265625 
Q 6.59375 17.96875 6.59375 36.375 
Q 6.59375 54.828125 13.0625 64.515625 
Q 19.53125 74.21875 31.78125 74.21875 
z
" id="DejaVuSans-48"/>
      </defs>
      <g style="fill:#262626;" transform="translate(47.557375 381.841055)scale(0.121 -0.121)">
       <use xlink:href="#DejaVuSans-48"/>
      </g>
     </g>
    </g>
    <g id="ytick_2">
     <g id="line2d_2">
      <path clip-path="url(#p94e08247c0)" d="M 64.756 310.4352 
L 239.811 310.4352 
" style="fill:none;stroke:#ffffff;stroke-linecap:round;"/>
     </g>
     <g id="text_7">
      <!-- 20 -->
      <defs>
       <path d="M 19.1875 8.296875 
L 53.609375 8.296875 
L 53.609375 0 
L 7.328125 0 
L 7.328125 8.296875 
Q 12.9375 14.109375 22.625 23.890625 
Q 32.328125 33.6875 34.8125 36.53125 
Q 39.546875 41.84375 41.421875 45.53125 
Q 43.3125 49.21875 43.3125 52.78125 
Q 43.3125 58.59375 39.234375 62.25 
Q 35.15625 65.921875 28.609375 65.921875 
Q 23.96875 65.921875 18.8125 64.3125 
Q 13.671875 62.703125 7.8125 59.421875 
L 7.8125 69.390625 
Q 13.765625 71.78125 18.9375 73 
Q 24.125 74.21875 28.421875 74.21875 
Q 39.75 74.21875 46.484375 68.546875 
Q 53.21875 62.890625 53.21875 53.421875 
Q 53.21875 48.921875 51.53125 44.890625 
Q 49.859375 40.875 45.40625 35.40625 
Q 44.1875 33.984375 37.640625 27.21875 
Q 31.109375 20.453125 19.1875 8.296875 
z
" id="DejaVuSans-50"/>
      </defs>
      <g style="fill:#262626;" transform="translate(39.85875 315.032255)scale(0.121 -0.121)">
       <use xlink:href="#DejaVuSans-50"/>
       <use x="63.623047" xlink:href="#DejaVuSans-48"/>
      </g>
     </g>
    </g>
    <g id="ytick_3">
     <g id="line2d_3">
      <path clip-path="url(#p94e08247c0)" d="M 64.756 243.6264 
L 239.811 243.6264 
" style="fill:none;stroke:#ffffff;stroke-linecap:round;"/>
     </g>
     <g id="text_8">
      <!-- 40 -->
      <defs>
       <path d="M 37.796875 64.3125 
L 12.890625 25.390625 
L 37.796875 25.390625 
z
M 35.203125 72.90625 
L 47.609375 72.90625 
L 47.609375 25.390625 
L 58.015625 25.390625 
L 58.015625 17.1875 
L 47.609375 17.1875 
L 47.609375 0 
L 37.796875 0 
L 37.796875 17.1875 
L 4.890625 17.1875 
L 4.890625 26.703125 
z
" id="DejaVuSans-52"/>
      </defs>
      <g style="fill:#262626;" transform="translate(39.85875 248.223455)scale(0.121 -0.121)">
       <use xlink:href="#DejaVuSans-52"/>
       <use x="63.623047" xlink:href="#DejaVuSans-48"/>
      </g>
     </g>
    </g>
    <g id="ytick_4">
     <g id="line2d_4">
      <path clip-path="url(#p94e08247c0)" d="M 64.756 176.8176 
L 239.811 176.8176 
" style="fill:none;stroke:#ffffff;stroke-linecap:round;"/>
     </g>
     <g id="text_9">
      <!-- 60 -->
      <defs>
       <path d="M 33.015625 40.375 
Q 26.375 40.375 22.484375 35.828125 
Q 18.609375 31.296875 18.609375 23.390625 
Q 18.609375 15.53125 22.484375 10.953125 
Q 26.375 6.390625 33.015625 6.390625 
Q 39.65625 6.390625 43.53125 10.953125 
Q 47.40625 15.53125 47.40625 23.390625 
Q 47.40625 31.296875 43.53125 35.828125 
Q 39.65625 40.375 33.015625 40.375 
z
M 52.59375 71.296875 
L 52.59375 62.3125 
Q 48.875 64.0625 45.09375 64.984375 
Q 41.3125 65.921875 37.59375 65.921875 
Q 27.828125 65.921875 22.671875 59.328125 
Q 17.53125 52.734375 16.796875 39.40625 
Q 19.671875 43.65625 24.015625 45.921875 
Q 28.375 48.1875 33.59375 48.1875 
Q 44.578125 48.1875 50.953125 41.515625 
Q 57.328125 34.859375 57.328125 23.390625 
Q 57.328125 12.15625 50.6875 5.359375 
Q 44.046875 -1.421875 33.015625 -1.421875 
Q 20.359375 -1.421875 13.671875 8.265625 
Q 6.984375 17.96875 6.984375 36.375 
Q 6.984375 53.65625 15.1875 63.9375 
Q 23.390625 74.21875 37.203125 74.21875 
Q 40.921875 74.21875 44.703125 73.484375 
Q 48.484375 72.75 52.59375 71.296875 
z
" id="DejaVuSans-54"/>
      </defs>
      <g style="fill:#262626;" transform="translate(39.85875 181.414655)scale(0.121 -0.121)">
       <use xlink:href="#DejaVuSans-54"/>
       <use x="63.623047" xlink:href="#DejaVuSans-48"/>
      </g>
     </g>
    </g>
    <g id="ytick_5">
     <g id="line2d_5">
      <path clip-path="url(#p94e08247c0)" d="M 64.756 110.0088 
L 239.811 110.0088 
" style="fill:none;stroke:#ffffff;stroke-linecap:round;"/>
     </g>
     <g id="text_10">
      <!-- 80 -->
      <defs>
       <path d="M 31.78125 34.625 
Q 24.75 34.625 20.71875 30.859375 
Q 16.703125 27.09375 16.703125 20.515625 
Q 16.703125 13.921875 20.71875 10.15625 
Q 24.75 6.390625 31.78125 6.390625 
Q 38.8125 6.390625 42.859375 10.171875 
Q 46.921875 13.96875 46.921875 20.515625 
Q 46.921875 27.09375 42.890625 30.859375 
Q 38.875 34.625 31.78125 34.625 
z
M 21.921875 38.8125 
Q 15.578125 40.375 12.03125 44.71875 
Q 8.5 49.078125 8.5 55.328125 
Q 8.5 64.0625 14.71875 69.140625 
Q 20.953125 74.21875 31.78125 74.21875 
Q 42.671875 74.21875 48.875 69.140625 
Q 55.078125 64.0625 55.078125 55.328125 
Q 55.078125 49.078125 51.53125 44.71875 
Q 48 40.375 41.703125 38.8125 
Q 48.828125 37.15625 52.796875 32.3125 
Q 56.78125 27.484375 56.78125 20.515625 
Q 56.78125 9.90625 50.3125 4.234375 
Q 43.84375 -1.421875 31.78125 -1.421875 
Q 19.734375 -1.421875 13.25 4.234375 
Q 6.78125 9.90625 6.78125 20.515625 
Q 6.78125 27.484375 10.78125 32.3125 
Q 14.796875 37.15625 21.921875 38.8125 
z
M 18.3125 54.390625 
Q 18.3125 48.734375 21.84375 45.5625 
Q 25.390625 42.390625 31.78125 42.390625 
Q 38.140625 42.390625 41.71875 45.5625 
Q 45.3125 48.734375 45.3125 54.390625 
Q 45.3125 60.0625 41.71875 63.234375 
Q 38.140625 66.40625 31.78125 66.40625 
Q 25.390625 66.40625 21.84375 63.234375 
Q 18.3125 60.0625 18.3125 54.390625 
z
" id="DejaVuSans-56"/>
      </defs>
      <g style="fill:#262626;" transform="translate(39.85875 114.605855)scale(0.121 -0.121)">
       <use xlink:href="#DejaVuSans-56"/>
       <use x="63.623047" xlink:href="#DejaVuSans-48"/>
      </g>
     </g>
    </g>
    <g id="ytick_6">
     <g id="line2d_6">
      <path clip-path="url(#p94e08247c0)" d="M 64.756 43.2 
L 239.811 43.2 
" style="fill:none;stroke:#ffffff;stroke-linecap:round;"/>
     </g>
     <g id="text_11">
      <!-- 100 -->
      <defs>
       <path d="M 12.40625 8.296875 
L 28.515625 8.296875 
L 28.515625 63.921875 
L 10.984375 60.40625 
L 10.984375 69.390625 
L 28.421875 72.90625 
L 38.28125 72.90625 
L 38.28125 8.296875 
L 54.390625 8.296875 
L 54.390625 0 
L 12.40625 0 
z
" id="DejaVuSans-49"/>
      </defs>
      <g style="fill:#262626;" transform="translate(32.160125 47.797055)scale(0.121 -0.121)">
       <use xlink:href="#DejaVuSans-49"/>
       <use x="63.623047" xlink:href="#DejaVuSans-48"/>
       <use x="127.246094" xlink:href="#DejaVuSans-48"/>
      </g>
     </g>
    </g>
    <g id="text_12">
     <!-- Relative downloaded data (%) -->
     <defs>
      <path d="M 44.390625 34.1875 
Q 47.5625 33.109375 50.5625 29.59375 
Q 53.5625 26.078125 56.59375 19.921875 
L 66.609375 0 
L 56 0 
L 46.6875 18.703125 
Q 43.0625 26.03125 39.671875 28.421875 
Q 36.28125 30.8125 30.421875 30.8125 
L 19.671875 30.8125 
L 19.671875 0 
L 9.8125 0 
L 9.8125 72.90625 
L 32.078125 72.90625 
Q 44.578125 72.90625 50.734375 67.671875 
Q 56.890625 62.453125 56.890625 51.90625 
Q 56.890625 45.015625 53.6875 40.46875 
Q 50.484375 35.9375 44.390625 34.1875 
z
M 19.671875 64.796875 
L 19.671875 38.921875 
L 32.078125 38.921875 
Q 39.203125 38.921875 42.84375 42.21875 
Q 46.484375 45.515625 46.484375 51.90625 
Q 46.484375 58.296875 42.84375 61.546875 
Q 39.203125 64.796875 32.078125 64.796875 
z
" id="DejaVuSans-82"/>
      <path d="M 9.421875 75.984375 
L 18.40625 75.984375 
L 18.40625 0 
L 9.421875 0 
z
" id="DejaVuSans-108"/>
      <path d="M 2.984375 54.6875 
L 12.5 54.6875 
L 29.59375 8.796875 
L 46.6875 54.6875 
L 56.203125 54.6875 
L 35.6875 0 
L 23.484375 0 
z
" id="DejaVuSans-118"/>
      <path id="DejaVuSans-32"/>
      <path d="M 4.203125 54.6875 
L 13.1875 54.6875 
L 24.421875 12.015625 
L 35.59375 54.6875 
L 46.1875 54.6875 
L 57.421875 12.015625 
L 68.609375 54.6875 
L 77.59375 54.6875 
L 63.28125 0 
L 52.6875 0 
L 40.921875 44.828125 
L 29.109375 0 
L 18.5 0 
z
" id="DejaVuSans-119"/>
      <path d="M 31 75.875 
Q 24.46875 64.65625 21.28125 53.65625 
Q 18.109375 42.671875 18.109375 31.390625 
Q 18.109375 20.125 21.3125 9.0625 
Q 24.515625 -2 31 -13.1875 
L 23.1875 -13.1875 
Q 15.875 -1.703125 12.234375 9.375 
Q 8.59375 20.453125 8.59375 31.390625 
Q 8.59375 42.28125 12.203125 53.3125 
Q 15.828125 64.359375 23.1875 75.875 
z
" id="DejaVuSans-40"/>
      <path d="M 72.703125 32.078125 
Q 68.453125 32.078125 66.03125 28.46875 
Q 63.625 24.859375 63.625 18.40625 
Q 63.625 12.0625 66.03125 8.421875 
Q 68.453125 4.78125 72.703125 4.78125 
Q 76.859375 4.78125 79.265625 8.421875 
Q 81.6875 12.0625 81.6875 18.40625 
Q 81.6875 24.8125 79.265625 28.4375 
Q 76.859375 32.078125 72.703125 32.078125 
z
M 72.703125 38.28125 
Q 80.421875 38.28125 84.953125 32.90625 
Q 89.5 27.546875 89.5 18.40625 
Q 89.5 9.28125 84.9375 3.921875 
Q 80.375 -1.421875 72.703125 -1.421875 
Q 64.890625 -1.421875 60.34375 3.921875 
Q 55.8125 9.28125 55.8125 18.40625 
Q 55.8125 27.59375 60.375 32.9375 
Q 64.9375 38.28125 72.703125 38.28125 
z
M 22.3125 68.015625 
Q 18.109375 68.015625 15.6875 64.375 
Q 13.28125 60.75 13.28125 54.390625 
Q 13.28125 47.953125 15.671875 44.328125 
Q 18.0625 40.71875 22.3125 40.71875 
Q 26.5625 40.71875 28.96875 44.328125 
Q 31.390625 47.953125 31.390625 54.390625 
Q 31.390625 60.6875 28.953125 64.34375 
Q 26.515625 68.015625 22.3125 68.015625 
z
M 66.40625 74.21875 
L 74.21875 74.21875 
L 28.609375 -1.421875 
L 20.796875 -1.421875 
z
M 22.3125 74.21875 
Q 30.03125 74.21875 34.609375 68.875 
Q 39.203125 63.53125 39.203125 54.390625 
Q 39.203125 45.171875 34.640625 39.84375 
Q 30.078125 34.515625 22.3125 34.515625 
Q 14.546875 34.515625 10.03125 39.859375 
Q 5.515625 45.21875 5.515625 54.390625 
Q 5.515625 63.484375 10.046875 68.84375 
Q 14.59375 74.21875 22.3125 74.21875 
z
" id="DejaVuSans-37"/>
      <path d="M 8.015625 75.875 
L 15.828125 75.875 
Q 23.140625 64.359375 26.78125 53.3125 
Q 30.421875 42.28125 30.421875 31.390625 
Q 30.421875 20.453125 26.78125 9.375 
Q 23.140625 -1.703125 15.828125 -13.1875 
L 8.015625 -13.1875 
Q 14.5 -2 17.703125 9.0625 
Q 20.90625 20.125 20.90625 31.390625 
Q 20.90625 42.671875 17.703125 53.65625 
Q 14.5 64.65625 8.015625 75.875 
z
" id="DejaVuSans-41"/>
     </defs>
     <g style="fill:#262626;" transform="translate(25.414937 309.877875)rotate(-90)scale(0.132 -0.132)">
      <use xlink:href="#DejaVuSans-82"/>
      <use x="69.419922" xlink:href="#DejaVuSans-101"/>
      <use x="130.943359" xlink:href="#DejaVuSans-108"/>
      <use x="158.726562" xlink:href="#DejaVuSans-97"/>
      <use x="220.005859" xlink:href="#DejaVuSans-116"/>
      <use x="259.214844" xlink:href="#DejaVuSans-105"/>
      <use x="286.998047" xlink:href="#DejaVuSans-118"/>
      <use x="346.177734" xlink:href="#DejaVuSans-101"/>
      <use x="407.701172" xlink:href="#DejaVuSans-32"/>
      <use x="439.488281" xlink:href="#DejaVuSans-100"/>
      <use x="502.964844" xlink:href="#DejaVuSans-111"/>
      <use x="564.146484" xlink:href="#DejaVuSans-119"/>
      <use x="645.933594" xlink:href="#DejaVuSans-110"/>
      <use x="709.3125" xlink:href="#DejaVuSans-108"/>
      <use x="737.095703" xlink:href="#DejaVuSans-111"/>
      <use x="798.277344" xlink:href="#DejaVuSans-97"/>
      <use x="859.556641" xlink:href="#DejaVuSans-100"/>
      <use x="923.033203" xlink:href="#DejaVuSans-101"/>
      <use x="984.556641" xlink:href="#DejaVuSans-100"/>
      <use x="1048.033203" xlink:href="#DejaVuSans-32"/>
      <use x="1079.820312" xlink:href="#DejaVuSans-100"/>
      <use x="1143.296875" xlink:href="#DejaVuSans-97"/>
      <use x="1204.576172" xlink:href="#DejaVuSans-116"/>
      <use x="1243.785156" xlink:href="#DejaVuSans-97"/>
      <use x="1305.064453" xlink:href="#DejaVuSans-32"/>
      <use x="1336.851562" xlink:href="#DejaVuSans-40"/>
      <use x="1375.865234" xlink:href="#DejaVuSans-37"/>
      <use x="1470.884766" xlink:href="#DejaVuSans-41"/>
     </g>
    </g>
   </g>
   <g id="PathCollection_1">
    <defs>
     <path d="M -0 4.242641 
L 2.545584 0 
L 0 -4.242641 
L -2.545584 -0 
z
" id="m5b11d0424d" style="stroke:#176d9c;"/>
    </defs>
    <g clip-path="url(#p94e08247c0)">
     <use style="fill:#176d9c;stroke:#176d9c;" x="86.637875" xlink:href="#m5b11d0424d" y="366.662811"/>
     <use style="fill:#176d9c;stroke:#176d9c;" x="86.637875" xlink:href="#m5b11d0424d" y="364.10144"/>
     <use style="fill:#176d9c;stroke:#176d9c;" x="86.637875" xlink:href="#m5b11d0424d" y="64.120663"/>
     <use style="fill:#176d9c;stroke:#176d9c;" x="86.637875" xlink:href="#m5b11d0424d" y="65.677958"/>
    </g>
   </g>
   <g id="PatchCollection_1">
    <path clip-path="url(#p94e08247c0)" d="M 86.569494 357.848114 
L 86.706256 357.848114 
L 86.706256 67.418299 
L 86.569494 67.418299 
z
" style="fill:#ffffff;stroke:#ffffff;"/>
    <path clip-path="url(#p94e08247c0)" d="M 86.501113 348.887567 
L 86.774637 348.887567 
L 86.774637 71.834457 
L 86.501113 71.834457 
z
" style="fill:#e2edf3;stroke:#ffffff;"/>
    <path clip-path="url(#p94e08247c0)" d="M 86.364352 344.902008 
L 86.911398 344.902008 
L 86.911398 86.252468 
L 86.364352 86.252468 
z
" style="fill:#c5dae6;stroke:#ffffff;"/>
    <path clip-path="url(#p94e08247c0)" d="M 86.090828 342.988646 
L 87.184922 342.988646 
L 87.184922 103.130694 
L 86.090828 103.130694 
z
" style="fill:#a8c8da;stroke:#ffffff;"/>
    <path clip-path="url(#p94e08247c0)" d="M 85.543781 341.12451 
L 87.731969 341.12451 
L 87.731969 112.640615 
L 85.543781 112.640615 
z
" style="fill:#8bb6cd;stroke:#ffffff;"/>
    <path clip-path="url(#p94e08247c0)" d="M 84.449687 339.367031 
L 88.826062 339.367031 
L 88.826062 123.084646 
L 84.449687 123.084646 
z
" style="fill:#6ea3c1;stroke:#ffffff;"/>
    <path clip-path="url(#p94e08247c0)" d="M 82.2615 336.008471 
L 91.01425 336.008471 
L 91.01425 134.193475 
L 82.2615 134.193475 
z
" style="fill:#5091b4;stroke:#ffffff;"/>
    <path clip-path="url(#p94e08247c0)" d="M 77.885125 305.436303 
L 95.390625 305.436303 
L 95.390625 152.065075 
L 77.885125 152.065075 
z
" style="fill:#337ea8;stroke:#ffffff;"/>
    <path clip-path="url(#p94e08247c0)" d="M 69.132375 272.860196 
L 104.143375 272.860196 
L 104.143375 179.550441 
L 69.132375 179.550441 
z
" style="fill:#176d9c;stroke:#ffffff;"/>
   </g>
   <g id="PathCollection_2">
    <defs>
     <path d="M -0 4.242641 
L 2.545584 0 
L 0 -4.242641 
L -2.545584 -0 
z
" id="m7a4abc47c9" style="stroke:#c38820;"/>
    </defs>
    <g clip-path="url(#p94e08247c0)">
     <use style="fill:#c38820;stroke:#c38820;" x="130.401625" xlink:href="#m7a4abc47c9" y="344.736751"/>
     <use style="fill:#c38820;stroke:#c38820;" x="130.401625" xlink:href="#m7a4abc47c9" y="348.689402"/>
     <use style="fill:#c38820;stroke:#c38820;" x="130.401625" xlink:href="#m7a4abc47c9" y="59.9022"/>
     <use style="fill:#c38820;stroke:#c38820;" x="130.401625" xlink:href="#m7a4abc47c9" y="69.127328"/>
    </g>
   </g>
   <g id="PatchCollection_2">
    <path clip-path="url(#p94e08247c0)" d="M 130.333244 344.356884 
L 130.470006 344.356884 
L 130.470006 73.133528 
L 130.333244 73.133528 
z
" style="fill:#ffffff;stroke:#ffffff;"/>
    <path clip-path="url(#p94e08247c0)" d="M 130.264863 343.529691 
L 130.538387 343.529691 
L 130.538387 95.252497 
L 130.264863 95.252497 
z
" style="fill:#f7f0e3;stroke:#ffffff;"/>
    <path clip-path="url(#p94e08247c0)" d="M 130.128102 343.248928 
L 130.675148 343.248928 
L 130.675148 109.518495 
L 130.128102 109.518495 
z
" style="fill:#f0e1c7;stroke:#ffffff;"/>
    <path clip-path="url(#p94e08247c0)" d="M 129.854578 341.736814 
L 130.948672 341.736814 
L 130.948672 113.428754 
L 129.854578 113.428754 
z
" style="fill:#e8d2ab;stroke:#ffffff;"/>
    <path clip-path="url(#p94e08247c0)" d="M 129.307531 340.542211 
L 131.495719 340.542211 
L 131.495719 116.102586 
L 129.307531 116.102586 
z
" style="fill:#e1c38f;stroke:#ffffff;"/>
    <path clip-path="url(#p94e08247c0)" d="M 128.213437 337.885247 
L 132.589812 337.885247 
L 132.589812 127.39088 
L 128.213437 127.39088 
z
" style="fill:#d9b473;stroke:#ffffff;"/>
    <path clip-path="url(#p94e08247c0)" d="M 126.02525 334.969576 
L 134.778 334.969576 
L 134.778 141.430886 
L 126.02525 141.430886 
z
" style="fill:#d2a557;stroke:#ffffff;"/>
    <path clip-path="url(#p94e08247c0)" d="M 121.648875 303.795058 
L 139.154375 303.795058 
L 139.154375 155.064676 
L 121.648875 155.064676 
z
" style="fill:#ca963b;stroke:#ffffff;"/>
    <path clip-path="url(#p94e08247c0)" d="M 112.896125 251.168742 
L 147.907125 251.168742 
L 147.907125 178.796828 
L 112.896125 178.796828 
z
" style="fill:#c38820;stroke:#ffffff;"/>
   </g>
   <g id="PathCollection_3">
    <defs>
     <path d="M -0 4.242641 
L 2.545584 0 
L 0 -4.242641 
L -2.545584 -0 
z
" id="m98210b784f" style="stroke:#158b6a;"/>
    </defs>
    <g clip-path="url(#p94e08247c0)">
     <use style="fill:#158b6a;stroke:#158b6a;" x="174.165375" xlink:href="#m98210b784f" y="347.288443"/>
     <use style="fill:#158b6a;stroke:#158b6a;" x="174.165375" xlink:href="#m98210b784f" y="348.247857"/>
     <use style="fill:#158b6a;stroke:#158b6a;" x="174.165375" xlink:href="#m98210b784f" y="64.009522"/>
     <use style="fill:#158b6a;stroke:#158b6a;" x="174.165375" xlink:href="#m98210b784f" y="69.538978"/>
    </g>
   </g>
   <g id="PatchCollection_3">
    <path clip-path="url(#p94e08247c0)" d="M 174.096994 346.012467 
L 174.233756 346.012467 
L 174.233756 70.150537 
L 174.096994 70.150537 
z
" style="fill:#ffffff;stroke:#ffffff;"/>
    <path clip-path="url(#p94e08247c0)" d="M 174.028613 342.834807 
L 174.302137 342.834807 
L 174.302137 78.975589 
L 174.028613 78.975589 
z
" style="fill:#e2f0ec;stroke:#ffffff;"/>
    <path clip-path="url(#p94e08247c0)" d="M 173.891852 342.0229 
L 174.438898 342.0229 
L 174.438898 100.3914 
L 173.891852 100.3914 
z
" style="fill:#c4e2da;stroke:#ffffff;"/>
    <path clip-path="url(#p94e08247c0)" d="M 173.618328 340.444681 
L 174.712422 340.444681 
L 174.712422 106.105682 
L 173.618328 106.105682 
z
" style="fill:#a7d3c7;stroke:#ffffff;"/>
    <path clip-path="url(#p94e08247c0)" d="M 173.071281 339.517422 
L 175.259469 339.517422 
L 175.259469 115.968222 
L 173.071281 115.968222 
z
" style="fill:#8ac5b4;stroke:#ffffff;"/>
    <path clip-path="url(#p94e08247c0)" d="M 171.977187 333.199596 
L 176.353562 333.199596 
L 176.353562 125.970942 
L 171.977187 125.970942 
z
" style="fill:#6cb6a2;stroke:#ffffff;"/>
    <path clip-path="url(#p94e08247c0)" d="M 169.789 321.036048 
L 178.54175 321.036048 
L 178.54175 141.792322 
L 169.789 141.792322 
z
" style="fill:#4fa78f;stroke:#ffffff;"/>
    <path clip-path="url(#p94e08247c0)" d="M 165.412625 315.001987 
L 182.918125 315.001987 
L 182.918125 158.298175 
L 165.412625 158.298175 
z
" style="fill:#32997c;stroke:#ffffff;"/>
    <path clip-path="url(#p94e08247c0)" d="M 156.659875 275.851066 
L 191.670875 275.851066 
L 191.670875 188.533985 
L 156.659875 188.533985 
z
" style="fill:#158b6a;stroke:#ffffff;"/>
   </g>
   <g id="PathCollection_4">
    <defs>
     <path d="M -0 4.242641 
L 2.545584 0 
L 0 -4.242641 
L -2.545584 -0 
z
" id="m0337fb44c9" style="stroke:#ba611b;"/>
    </defs>
    <g clip-path="url(#p94e08247c0)">
     <use style="fill:#ba611b;stroke:#ba611b;" x="217.929125" xlink:href="#m0337fb44c9" y="362.838257"/>
     <use style="fill:#ba611b;stroke:#ba611b;" x="217.929125" xlink:href="#m0337fb44c9" y="358.941967"/>
     <use style="fill:#ba611b;stroke:#ba611b;" x="217.929125" xlink:href="#m0337fb44c9" y="59.9022"/>
     <use style="fill:#ba611b;stroke:#ba611b;" x="217.929125" xlink:href="#m0337fb44c9" y="59.9022"/>
    </g>
   </g>
   <g id="PatchCollection_4">
    <path clip-path="url(#p94e08247c0)" d="M 217.860744 354.026739 
L 217.997506 354.026739 
L 217.997506 72.805861 
L 217.860744 72.805861 
z
" style="fill:#ffffff;stroke:#ffffff;"/>
    <path clip-path="url(#p94e08247c0)" d="M 217.792363 345.121724 
L 218.065887 345.121724 
L 218.065887 97.76585 
L 217.792363 97.76585 
z
" style="fill:#f6ebe2;stroke:#ffffff;"/>
    <path clip-path="url(#p94e08247c0)" d="M 217.655602 342.851433 
L 218.202648 342.851433 
L 218.202648 105.630247 
L 217.655602 105.630247 
z
" style="fill:#eed7c6;stroke:#ffffff;"/>
    <path clip-path="url(#p94e08247c0)" d="M 217.382078 340.815261 
L 218.476172 340.815261 
L 218.476172 109.469311 
L 217.382078 109.469311 
z
" style="fill:#e5c4a9;stroke:#ffffff;"/>
    <path clip-path="url(#p94e08247c0)" d="M 216.835031 338.806527 
L 219.023219 338.806527 
L 219.023219 115.986815 
L 216.835031 115.986815 
z
" style="fill:#ddb08c;stroke:#ffffff;"/>
    <path clip-path="url(#p94e08247c0)" d="M 215.740937 337.085283 
L 220.117312 337.085283 
L 220.117312 124.622839 
L 215.740937 124.622839 
z
" style="fill:#d49c70;stroke:#ffffff;"/>
    <path clip-path="url(#p94e08247c0)" d="M 213.55275 333.843992 
L 222.3055 333.843992 
L 222.3055 137.806112 
L 213.55275 137.806112 
z
" style="fill:#cb8853;stroke:#ffffff;"/>
    <path clip-path="url(#p94e08247c0)" d="M 209.176375 324.78176 
L 226.681875 324.78176 
L 226.681875 152.033474 
L 209.176375 152.033474 
z
" style="fill:#c37436;stroke:#ffffff;"/>
    <path clip-path="url(#p94e08247c0)" d="M 200.423625 303.710833 
L 235.434625 303.710833 
L 235.434625 174.20651 
L 200.423625 174.20651 
z
" style="fill:#ba611b;stroke:#ffffff;"/>
   </g>
   <g id="line2d_7">
    <path clip-path="url(#p94e08247c0)" d="M 69.132375 224.804648 
L 104.143375 224.804648 
" style="fill:none;stroke:#262626;stroke-linecap:round;stroke-opacity:0.45;stroke-width:1.5;"/>
   </g>
   <g id="line2d_8">
    <path clip-path="url(#p94e08247c0)" d="M 112.896125 227.712223 
L 147.907125 227.712223 
" style="fill:none;stroke:#262626;stroke-linecap:round;stroke-opacity:0.45;stroke-width:1.5;"/>
   </g>
   <g id="line2d_9">
    <path clip-path="url(#p94e08247c0)" d="M 156.659875 244.974434 
L 191.670875 244.974434 
" style="fill:none;stroke:#262626;stroke-linecap:round;stroke-opacity:0.45;stroke-width:1.5;"/>
   </g>
   <g id="line2d_10">
    <path clip-path="url(#p94e08247c0)" d="M 200.423625 227.307127 
L 235.434625 227.307127 
" style="fill:none;stroke:#262626;stroke-linecap:round;stroke-opacity:0.45;stroke-width:1.5;"/>
   </g>
   <g id="patch_3">
    <path d="M 64.756 377.244 
L 64.756 43.2 
" style="fill:none;stroke:#ffffff;stroke-linecap:square;stroke-linejoin:miter;stroke-width:1.25;"/>
   </g>
   <g id="patch_4">
    <path d="M 64.756 377.244 
L 239.811 377.244 
" style="fill:none;stroke:#ffffff;stroke-linecap:square;stroke-linejoin:miter;stroke-width:1.25;"/>
   </g>
   <g id="text_13">
    <!-- clusters = 4 -->
    <defs>
     <path d="M 48.78125 52.59375 
L 48.78125 44.1875 
Q 44.96875 46.296875 41.140625 47.34375 
Q 37.3125 48.390625 33.40625 48.390625 
Q 24.65625 48.390625 19.8125 42.84375 
Q 14.984375 37.3125 14.984375 27.296875 
Q 14.984375 17.28125 19.8125 11.734375 
Q 24.65625 6.203125 33.40625 6.203125 
Q 37.3125 6.203125 41.140625 7.25 
Q 44.96875 8.296875 48.78125 10.40625 
L 48.78125 2.09375 
Q 45.015625 0.34375 40.984375 -0.53125 
Q 36.96875 -1.421875 32.421875 -1.421875 
Q 20.0625 -1.421875 12.78125 6.34375 
Q 5.515625 14.109375 5.515625 27.296875 
Q 5.515625 40.671875 12.859375 48.328125 
Q 20.21875 56 33.015625 56 
Q 37.15625 56 41.109375 55.140625 
Q 45.0625 54.296875 48.78125 52.59375 
z
" id="DejaVuSans-99"/>
     <path d="M 8.5 21.578125 
L 8.5 54.6875 
L 17.484375 54.6875 
L 17.484375 21.921875 
Q 17.484375 14.15625 20.5 10.265625 
Q 23.53125 6.390625 29.59375 6.390625 
Q 36.859375 6.390625 41.078125 11.03125 
Q 45.3125 15.671875 45.3125 23.6875 
L 45.3125 54.6875 
L 54.296875 54.6875 
L 54.296875 0 
L 45.3125 0 
L 45.3125 8.40625 
Q 42.046875 3.421875 37.71875 1 
Q 33.40625 -1.421875 27.6875 -1.421875 
Q 18.265625 -1.421875 13.375 4.4375 
Q 8.5 10.296875 8.5 21.578125 
z
M 31.109375 56 
z
" id="DejaVuSans-117"/>
     <path d="M 10.59375 45.40625 
L 73.1875 45.40625 
L 73.1875 37.203125 
L 10.59375 37.203125 
z
M 10.59375 25.484375 
L 73.1875 25.484375 
L 73.1875 17.1875 
L 10.59375 17.1875 
z
" id="DejaVuSans-61"/>
    </defs>
    <g style="fill:#262626;" transform="translate(112.475188 37.2)scale(0.132 -0.132)">
     <use xlink:href="#DejaVuSans-99"/>
     <use x="54.980469" xlink:href="#DejaVuSans-108"/>
     <use x="82.763672" xlink:href="#DejaVuSans-117"/>
     <use x="146.142578" xlink:href="#DejaVuSans-115"/>
     <use x="198.242188" xlink:href="#DejaVuSans-116"/>
     <use x="237.451172" xlink:href="#DejaVuSans-101"/>
     <use x="298.974609" xlink:href="#DejaVuSans-114"/>
     <use x="340.087891" xlink:href="#DejaVuSans-115"/>
     <use x="392.1875" xlink:href="#DejaVuSans-32"/>
     <use x="423.974609" xlink:href="#DejaVuSans-61"/>
     <use x="507.763672" xlink:href="#DejaVuSans-32"/>
     <use x="539.550781" xlink:href="#DejaVuSans-52"/>
    </g>
   </g>
  </g>
  <g id="axes_2">
   <g id="patch_5">
    <path d="M 266.067 377.244 
L 441.122 377.244 
L 441.122 43.2 
L 266.067 43.2 
z
" style="fill:#eaeaf2;"/>
   </g>
   <g id="matplotlib.axis_3">
    <g id="xtick_5">
     <g id="text_14">
      <!-- metis -->
      <g style="fill:#262626;" transform="translate(271.12893 395.938109)scale(0.121 -0.121)">
       <use xlink:href="#DejaVuSans-109"/>
       <use x="97.412109" xlink:href="#DejaVuSans-101"/>
       <use x="158.935547" xlink:href="#DejaVuSans-116"/>
       <use x="198.144531" xlink:href="#DejaVuSans-105"/>
       <use x="225.927734" xlink:href="#DejaVuSans-115"/>
      </g>
     </g>
    </g>
    <g id="xtick_6">
     <g id="text_15">
      <!-- merged -->
      <g style="fill:#262626;" transform="translate(308.206484 395.938109)scale(0.121 -0.121)">
       <use xlink:href="#DejaVuSans-109"/>
       <use x="97.412109" xlink:href="#DejaVuSans-101"/>
       <use x="158.935547" xlink:href="#DejaVuSans-114"/>
       <use x="200.033203" xlink:href="#DejaVuSans-103"/>
       <use x="263.509766" xlink:href="#DejaVuSans-101"/>
       <use x="325.033203" xlink:href="#DejaVuSans-100"/>
      </g>
     </g>
    </g>
    <g id="xtick_7">
     <g id="text_16">
      <!-- prio -->
      <g style="fill:#262626;" transform="translate(363.765844 395.938109)scale(0.121 -0.121)">
       <use xlink:href="#DejaVuSans-112"/>
       <use x="63.476562" xlink:href="#DejaVuSans-114"/>
       <use x="104.589844" xlink:href="#DejaVuSans-105"/>
       <use x="132.373047" xlink:href="#DejaVuSans-111"/>
      </g>
     </g>
    </g>
    <g id="xtick_8">
     <g id="text_17">
      <!-- kmeans -->
      <g style="fill:#262626;" transform="translate(395.427703 395.938109)scale(0.121 -0.121)">
       <use xlink:href="#DejaVuSans-107"/>
       <use x="57.910156" xlink:href="#DejaVuSans-109"/>
       <use x="155.322266" xlink:href="#DejaVuSans-101"/>
       <use x="216.845703" xlink:href="#DejaVuSans-97"/>
       <use x="278.125" xlink:href="#DejaVuSans-110"/>
       <use x="341.503906" xlink:href="#DejaVuSans-115"/>
      </g>
     </g>
    </g>
    <g id="text_18">
     <!-- Method -->
     <g style="fill:#262626;" transform="translate(328.840375 412.484469)scale(0.132 -0.132)">
      <use xlink:href="#DejaVuSans-77"/>
      <use x="86.279297" xlink:href="#DejaVuSans-101"/>
      <use x="147.802734" xlink:href="#DejaVuSans-116"/>
      <use x="187.011719" xlink:href="#DejaVuSans-104"/>
      <use x="250.390625" xlink:href="#DejaVuSans-111"/>
      <use x="311.572266" xlink:href="#DejaVuSans-100"/>
     </g>
    </g>
   </g>
   <g id="matplotlib.axis_4">
    <g id="ytick_7">
     <g id="line2d_11">
      <path clip-path="url(#p7a3446ae33)" d="M 266.067 377.244 
L 441.122 377.244 
" style="fill:none;stroke:#ffffff;stroke-linecap:round;"/>
     </g>
    </g>
    <g id="ytick_8">
     <g id="line2d_12">
      <path clip-path="url(#p7a3446ae33)" d="M 266.067 310.4352 
L 441.122 310.4352 
" style="fill:none;stroke:#ffffff;stroke-linecap:round;"/>
     </g>
    </g>
    <g id="ytick_9">
     <g id="line2d_13">
      <path clip-path="url(#p7a3446ae33)" d="M 266.067 243.6264 
L 441.122 243.6264 
" style="fill:none;stroke:#ffffff;stroke-linecap:round;"/>
     </g>
    </g>
    <g id="ytick_10">
     <g id="line2d_14">
      <path clip-path="url(#p7a3446ae33)" d="M 266.067 176.8176 
L 441.122 176.8176 
" style="fill:none;stroke:#ffffff;stroke-linecap:round;"/>
     </g>
    </g>
    <g id="ytick_11">
     <g id="line2d_15">
      <path clip-path="url(#p7a3446ae33)" d="M 266.067 110.0088 
L 441.122 110.0088 
" style="fill:none;stroke:#ffffff;stroke-linecap:round;"/>
     </g>
    </g>
    <g id="ytick_12">
     <g id="line2d_16">
      <path clip-path="url(#p7a3446ae33)" d="M 266.067 43.2 
L 441.122 43.2 
" style="fill:none;stroke:#ffffff;stroke-linecap:round;"/>
     </g>
    </g>
   </g>
   <g id="PathCollection_5">
    <g clip-path="url(#p7a3446ae33)">
     <use style="fill:#176d9c;stroke:#176d9c;" x="287.948875" xlink:href="#m5b11d0424d" y="370.903745"/>
     <use style="fill:#176d9c;stroke:#176d9c;" x="287.948875" xlink:href="#m5b11d0424d" y="366.790422"/>
     <use style="fill:#176d9c;stroke:#176d9c;" x="287.948875" xlink:href="#m5b11d0424d" y="126.442259"/>
     <use style="fill:#176d9c;stroke:#176d9c;" x="287.948875" xlink:href="#m5b11d0424d" y="122.891189"/>
    </g>
   </g>
   <g id="PatchCollection_5">
    <path clip-path="url(#p7a3446ae33)" d="M 287.880494 366.433264 
L 288.017256 366.433264 
L 288.017256 129.655666 
L 287.880494 129.655666 
z
" style="fill:#ffffff;stroke:#ffffff;"/>
    <path clip-path="url(#p7a3446ae33)" d="M 287.812113 365.721217 
L 288.085637 365.721217 
L 288.085637 134.421171 
L 287.812113 134.421171 
z
" style="fill:#e2edf3;stroke:#ffffff;"/>
    <path clip-path="url(#p7a3446ae33)" d="M 287.675352 363.022447 
L 288.222398 363.022447 
L 288.222398 136.568414 
L 287.675352 136.568414 
z
" style="fill:#c5dae6;stroke:#ffffff;"/>
    <path clip-path="url(#p7a3446ae33)" d="M 287.401828 354.505533 
L 288.495922 354.505533 
L 288.495922 150.745595 
L 287.401828 150.745595 
z
" style="fill:#a8c8da;stroke:#ffffff;"/>
    <path clip-path="url(#p7a3446ae33)" d="M 286.854781 351.482716 
L 289.042969 351.482716 
L 289.042969 160.872258 
L 286.854781 160.872258 
z
" style="fill:#8bb6cd;stroke:#ffffff;"/>
    <path clip-path="url(#p7a3446ae33)" d="M 285.760688 349.491886 
L 290.137063 349.491886 
L 290.137063 172.755879 
L 285.760688 172.755879 
z
" style="fill:#6ea3c1;stroke:#ffffff;"/>
    <path clip-path="url(#p7a3446ae33)" d="M 283.5725 347.019723 
L 292.32525 347.019723 
L 292.32525 186.041954 
L 283.5725 186.041954 
z
" style="fill:#5091b4;stroke:#ffffff;"/>
    <path clip-path="url(#p7a3446ae33)" d="M 279.196125 337.398368 
L 296.701625 337.398368 
L 296.701625 210.627546 
L 279.196125 210.627546 
z
" style="fill:#337ea8;stroke:#ffffff;"/>
    <path clip-path="url(#p7a3446ae33)" d="M 270.443375 323.25342 
L 305.454375 323.25342 
L 305.454375 244.011713 
L 270.443375 244.011713 
z
" style="fill:#176d9c;stroke:#ffffff;"/>
   </g>
   <g id="PathCollection_6">
    <g clip-path="url(#p7a3446ae33)">
     <use style="fill:#c38820;stroke:#c38820;" x="331.712625" xlink:href="#m7a4abc47c9" y="367.427867"/>
     <use style="fill:#c38820;stroke:#c38820;" x="331.712625" xlink:href="#m7a4abc47c9" y="365.877722"/>
     <use style="fill:#c38820;stroke:#c38820;" x="331.712625" xlink:href="#m7a4abc47c9" y="59.9022"/>
     <use style="fill:#c38820;stroke:#c38820;" x="331.712625" xlink:href="#m7a4abc47c9" y="142.586579"/>
    </g>
   </g>
   <g id="PatchCollection_6">
    <path clip-path="url(#p7a3446ae33)" d="M 331.644244 360.536334 
L 331.781006 360.536334 
L 331.781006 143.042718 
L 331.644244 143.042718 
z
" style="fill:#ffffff;stroke:#ffffff;"/>
    <path clip-path="url(#p7a3446ae33)" d="M 331.575863 351.370146 
L 331.849387 351.370146 
L 331.849387 145.039295 
L 331.575863 145.039295 
z
" style="fill:#f7f0e3;stroke:#ffffff;"/>
    <path clip-path="url(#p7a3446ae33)" d="M 331.439102 349.789869 
L 331.986148 349.789869 
L 331.986148 148.441622 
L 331.439102 148.441622 
z
" style="fill:#f0e1c7;stroke:#ffffff;"/>
    <path clip-path="url(#p7a3446ae33)" d="M 331.165578 347.834658 
L 332.259672 347.834658 
L 332.259672 158.410336 
L 331.165578 158.410336 
z
" style="fill:#e8d2ab;stroke:#ffffff;"/>
    <path clip-path="url(#p7a3446ae33)" d="M 330.618531 346.060726 
L 332.806719 346.060726 
L 332.806719 168.398734 
L 330.618531 168.398734 
z
" style="fill:#e1c38f;stroke:#ffffff;"/>
    <path clip-path="url(#p7a3446ae33)" d="M 329.524438 344.421844 
L 333.900813 344.421844 
L 333.900813 179.950903 
L 329.524438 179.950903 
z
" style="fill:#d9b473;stroke:#ffffff;"/>
    <path clip-path="url(#p7a3446ae33)" d="M 327.33625 341.082387 
L 336.089 341.082387 
L 336.089 197.665442 
L 327.33625 197.665442 
z
" style="fill:#d2a557;stroke:#ffffff;"/>
    <path clip-path="url(#p7a3446ae33)" d="M 322.959875 337.236619 
L 340.465375 337.236619 
L 340.465375 219.686818 
L 322.959875 219.686818 
z
" style="fill:#ca963b;stroke:#ffffff;"/>
    <path clip-path="url(#p7a3446ae33)" d="M 314.207125 329.038418 
L 349.218125 329.038418 
L 349.218125 251.950947 
L 314.207125 251.950947 
z
" style="fill:#c38820;stroke:#ffffff;"/>
   </g>
   <g id="PathCollection_7">
    <g clip-path="url(#p7a3446ae33)">
     <use style="fill:#158b6a;stroke:#158b6a;" x="375.476375" xlink:href="#m98210b784f" y="370.078939"/>
     <use style="fill:#158b6a;stroke:#158b6a;" x="375.476375" xlink:href="#m98210b784f" y="370.757753"/>
     <use style="fill:#158b6a;stroke:#158b6a;" x="375.476375" xlink:href="#m98210b784f" y="136.064774"/>
     <use style="fill:#158b6a;stroke:#158b6a;" x="375.476375" xlink:href="#m98210b784f" y="140.242669"/>
    </g>
   </g>
   <g id="PatchCollection_7">
    <path clip-path="url(#p7a3446ae33)" d="M 375.407994 369.990461 
L 375.544756 369.990461 
L 375.544756 141.440616 
L 375.407994 141.440616 
z
" style="fill:#ffffff;stroke:#ffffff;"/>
    <path clip-path="url(#p7a3446ae33)" d="M 375.339613 369.796913 
L 375.613137 369.796913 
L 375.613137 143.495501 
L 375.339613 143.495501 
z
" style="fill:#e2f0ec;stroke:#ffffff;"/>
    <path clip-path="url(#p7a3446ae33)" d="M 375.202852 369.145405 
L 375.749898 369.145405 
L 375.749898 147.355384 
L 375.202852 147.355384 
z
" style="fill:#c4e2da;stroke:#ffffff;"/>
    <path clip-path="url(#p7a3446ae33)" d="M 374.929328 368.277897 
L 376.023422 368.277897 
L 376.023422 162.90505 
L 374.929328 162.90505 
z
" style="fill:#a7d3c7;stroke:#ffffff;"/>
    <path clip-path="url(#p7a3446ae33)" d="M 374.382281 357.919228 
L 376.570469 357.919228 
L 376.570469 168.859606 
L 374.382281 168.859606 
z
" style="fill:#8ac5b4;stroke:#ffffff;"/>
    <path clip-path="url(#p7a3446ae33)" d="M 373.288188 349.440428 
L 377.664562 349.440428 
L 377.664562 181.296906 
L 373.288188 181.296906 
z
" style="fill:#6cb6a2;stroke:#ffffff;"/>
    <path clip-path="url(#p7a3446ae33)" d="M 371.1 342.494953 
L 379.85275 342.494953 
L 379.85275 198.609817 
L 371.1 198.609817 
z
" style="fill:#4fa78f;stroke:#ffffff;"/>
    <path clip-path="url(#p7a3446ae33)" d="M 366.723625 337.179195 
L 384.229125 337.179195 
L 384.229125 218.278315 
L 366.723625 218.278315 
z
" style="fill:#32997c;stroke:#ffffff;"/>
    <path clip-path="url(#p7a3446ae33)" d="M 357.970875 329.26671 
L 392.981875 329.26671 
L 392.981875 249.79159 
L 357.970875 249.79159 
z
" style="fill:#158b6a;stroke:#ffffff;"/>
   </g>
   <g id="PathCollection_8">
    <g clip-path="url(#p7a3446ae33)">
     <use style="fill:#ba611b;stroke:#ba611b;" x="419.240125" xlink:href="#m0337fb44c9" y="370.406413"/>
     <use style="fill:#ba611b;stroke:#ba611b;" x="419.240125" xlink:href="#m0337fb44c9" y="370.688565"/>
     <use style="fill:#ba611b;stroke:#ba611b;" x="419.240125" xlink:href="#m0337fb44c9" y="140.479141"/>
     <use style="fill:#ba611b;stroke:#ba611b;" x="419.240125" xlink:href="#m0337fb44c9" y="149.083632"/>
    </g>
   </g>
   <g id="PatchCollection_8">
    <path clip-path="url(#p7a3446ae33)" d="M 419.171744 370.261785 
L 419.308506 370.261785 
L 419.308506 149.092962 
L 419.171744 149.092962 
z
" style="fill:#ffffff;stroke:#ffffff;"/>
    <path clip-path="url(#p7a3446ae33)" d="M 419.103363 369.826278 
L 419.376887 369.826278 
L 419.376887 149.398045 
L 419.103363 149.398045 
z
" style="fill:#f6ebe2;stroke:#ffffff;"/>
    <path clip-path="url(#p7a3446ae33)" d="M 418.966602 369.131114 
L 419.513648 369.131114 
L 419.513648 155.734993 
L 418.966602 155.734993 
z
" style="fill:#eed7c6;stroke:#ffffff;"/>
    <path clip-path="url(#p7a3446ae33)" d="M 418.693078 368.673006 
L 419.787172 368.673006 
L 419.787172 162.538634 
L 418.693078 162.538634 
z
" style="fill:#e5c4a9;stroke:#ffffff;"/>
    <path clip-path="url(#p7a3446ae33)" d="M 418.146031 358.699507 
L 420.334219 358.699507 
L 420.334219 175.193219 
L 418.146031 175.193219 
z
" style="fill:#ddb08c;stroke:#ffffff;"/>
    <path clip-path="url(#p7a3446ae33)" d="M 417.051938 353.415477 
L 421.428313 353.415477 
L 421.428313 187.419861 
L 417.051938 187.419861 
z
" style="fill:#d49c70;stroke:#ffffff;"/>
    <path clip-path="url(#p7a3446ae33)" d="M 414.86375 349.454493 
L 423.6165 349.454493 
L 423.6165 203.438177 
L 414.86375 203.438177 
z
" style="fill:#cb8853;stroke:#ffffff;"/>
    <path clip-path="url(#p7a3446ae33)" d="M 410.487375 339.850412 
L 427.992875 339.850412 
L 427.992875 222.606353 
L 410.487375 222.606353 
z
" style="fill:#c37436;stroke:#ffffff;"/>
    <path clip-path="url(#p7a3446ae33)" d="M 401.734625 331.330072 
L 436.745625 331.330072 
L 436.745625 253.033896 
L 401.734625 253.033896 
z
" style="fill:#ba611b;stroke:#ffffff;"/>
   </g>
   <g id="line2d_17">
    <path clip-path="url(#p7a3446ae33)" d="M 270.443375 293.546917 
L 305.454375 293.546917 
" style="fill:none;stroke:#262626;stroke-linecap:round;stroke-opacity:0.45;stroke-width:1.5;"/>
   </g>
   <g id="line2d_18">
    <path clip-path="url(#p7a3446ae33)" d="M 314.207125 299.136909 
L 349.218125 299.136909 
" style="fill:none;stroke:#262626;stroke-linecap:round;stroke-opacity:0.45;stroke-width:1.5;"/>
   </g>
   <g id="line2d_19">
    <path clip-path="url(#p7a3446ae33)" d="M 357.970875 298.948494 
L 392.981875 298.948494 
" style="fill:none;stroke:#262626;stroke-linecap:round;stroke-opacity:0.45;stroke-width:1.5;"/>
   </g>
   <g id="line2d_20">
    <path clip-path="url(#p7a3446ae33)" d="M 401.734625 303.422088 
L 436.745625 303.422088 
" style="fill:none;stroke:#262626;stroke-linecap:round;stroke-opacity:0.45;stroke-width:1.5;"/>
   </g>
   <g id="patch_6">
    <path d="M 266.067 377.244 
L 266.067 43.2 
" style="fill:none;stroke:#ffffff;stroke-linecap:square;stroke-linejoin:miter;stroke-width:1.25;"/>
   </g>
   <g id="patch_7">
    <path d="M 266.067 377.244 
L 441.122 377.244 
" style="fill:none;stroke:#ffffff;stroke-linecap:square;stroke-linejoin:miter;stroke-width:1.25;"/>
   </g>
   <g id="text_19">
    <!-- clusters = 8 -->
    <g style="fill:#262626;" transform="translate(313.786188 37.2)scale(0.132 -0.132)">
     <use xlink:href="#DejaVuSans-99"/>
     <use x="54.980469" xlink:href="#DejaVuSans-108"/>
     <use x="82.763672" xlink:href="#DejaVuSans-117"/>
     <use x="146.142578" xlink:href="#DejaVuSans-115"/>
     <use x="198.242188" xlink:href="#DejaVuSans-116"/>
     <use x="237.451172" xlink:href="#DejaVuSans-101"/>
     <use x="298.974609" xlink:href="#DejaVuSans-114"/>
     <use x="340.087891" xlink:href="#DejaVuSans-115"/>
     <use x="392.1875" xlink:href="#DejaVuSans-32"/>
     <use x="423.974609" xlink:href="#DejaVuSans-61"/>
     <use x="507.763672" xlink:href="#DejaVuSans-32"/>
     <use x="539.550781" xlink:href="#DejaVuSans-56"/>
    </g>
   </g>
  </g>
  <g id="axes_3">
   <g id="patch_8">
    <path d="M 467.378 377.244 
L 642.433 377.244 
L 642.433 43.2 
L 467.378 43.2 
z
" style="fill:#eaeaf2;"/>
   </g>
   <g id="matplotlib.axis_5">
    <g id="xtick_9">
     <g id="text_20">
      <!-- metis -->
      <g style="fill:#262626;" transform="translate(472.43993 395.938109)scale(0.121 -0.121)">
       <use xlink:href="#DejaVuSans-109"/>
       <use x="97.412109" xlink:href="#DejaVuSans-101"/>
       <use x="158.935547" xlink:href="#DejaVuSans-116"/>
       <use x="198.144531" xlink:href="#DejaVuSans-105"/>
       <use x="225.927734" xlink:href="#DejaVuSans-115"/>
      </g>
     </g>
    </g>
    <g id="xtick_10">
     <g id="text_21">
      <!-- merged -->
      <g style="fill:#262626;" transform="translate(509.517484 395.938109)scale(0.121 -0.121)">
       <use xlink:href="#DejaVuSans-109"/>
       <use x="97.412109" xlink:href="#DejaVuSans-101"/>
       <use x="158.935547" xlink:href="#DejaVuSans-114"/>
       <use x="200.033203" xlink:href="#DejaVuSans-103"/>
       <use x="263.509766" xlink:href="#DejaVuSans-101"/>
       <use x="325.033203" xlink:href="#DejaVuSans-100"/>
      </g>
     </g>
    </g>
    <g id="xtick_11">
     <g id="text_22">
      <!-- prio -->
      <g style="fill:#262626;" transform="translate(565.076844 395.938109)scale(0.121 -0.121)">
       <use xlink:href="#DejaVuSans-112"/>
       <use x="63.476562" xlink:href="#DejaVuSans-114"/>
       <use x="104.589844" xlink:href="#DejaVuSans-105"/>
       <use x="132.373047" xlink:href="#DejaVuSans-111"/>
      </g>
     </g>
    </g>
    <g id="xtick_12">
     <g id="text_23">
      <!-- kmeans -->
      <g style="fill:#262626;" transform="translate(596.738703 395.938109)scale(0.121 -0.121)">
       <use xlink:href="#DejaVuSans-107"/>
       <use x="57.910156" xlink:href="#DejaVuSans-109"/>
       <use x="155.322266" xlink:href="#DejaVuSans-101"/>
       <use x="216.845703" xlink:href="#DejaVuSans-97"/>
       <use x="278.125" xlink:href="#DejaVuSans-110"/>
       <use x="341.503906" xlink:href="#DejaVuSans-115"/>
      </g>
     </g>
    </g>
    <g id="text_24">
     <!-- Method -->
     <g style="fill:#262626;" transform="translate(530.151375 412.484469)scale(0.132 -0.132)">
      <use xlink:href="#DejaVuSans-77"/>
      <use x="86.279297" xlink:href="#DejaVuSans-101"/>
      <use x="147.802734" xlink:href="#DejaVuSans-116"/>
      <use x="187.011719" xlink:href="#DejaVuSans-104"/>
      <use x="250.390625" xlink:href="#DejaVuSans-111"/>
      <use x="311.572266" xlink:href="#DejaVuSans-100"/>
     </g>
    </g>
   </g>
   <g id="matplotlib.axis_6">
    <g id="ytick_13">
     <g id="line2d_21">
      <path clip-path="url(#p8079695441)" d="M 467.378 377.244 
L 642.433 377.244 
" style="fill:none;stroke:#ffffff;stroke-linecap:round;"/>
     </g>
    </g>
    <g id="ytick_14">
     <g id="line2d_22">
      <path clip-path="url(#p8079695441)" d="M 467.378 310.4352 
L 642.433 310.4352 
" style="fill:none;stroke:#ffffff;stroke-linecap:round;"/>
     </g>
    </g>
    <g id="ytick_15">
     <g id="line2d_23">
      <path clip-path="url(#p8079695441)" d="M 467.378 243.6264 
L 642.433 243.6264 
" style="fill:none;stroke:#ffffff;stroke-linecap:round;"/>
     </g>
    </g>
    <g id="ytick_16">
     <g id="line2d_24">
      <path clip-path="url(#p8079695441)" d="M 467.378 176.8176 
L 642.433 176.8176 
" style="fill:none;stroke:#ffffff;stroke-linecap:round;"/>
     </g>
    </g>
    <g id="ytick_17">
     <g id="line2d_25">
      <path clip-path="url(#p8079695441)" d="M 467.378 110.0088 
L 642.433 110.0088 
" style="fill:none;stroke:#ffffff;stroke-linecap:round;"/>
     </g>
    </g>
    <g id="ytick_18">
     <g id="line2d_26">
      <path clip-path="url(#p8079695441)" d="M 467.378 43.2 
L 642.433 43.2 
" style="fill:none;stroke:#ffffff;stroke-linecap:round;"/>
     </g>
    </g>
   </g>
   <g id="PathCollection_9">
    <g clip-path="url(#p8079695441)">
     <use style="fill:#176d9c;stroke:#176d9c;" x="489.259875" xlink:href="#m5b11d0424d" y="371.394958"/>
     <use style="fill:#176d9c;stroke:#176d9c;" x="489.259875" xlink:href="#m5b11d0424d" y="371.088822"/>
     <use style="fill:#176d9c;stroke:#176d9c;" x="489.259875" xlink:href="#m5b11d0424d" y="169.232221"/>
     <use style="fill:#176d9c;stroke:#176d9c;" x="489.259875" xlink:href="#m5b11d0424d" y="172.046433"/>
    </g>
   </g>
   <g id="PatchCollection_9">
    <path clip-path="url(#p8079695441)" d="M 489.191494 371.050809 
L 489.328256 371.050809 
L 489.328256 173.202574 
L 489.191494 173.202574 
z
" style="fill:#ffffff;stroke:#ffffff;"/>
    <path clip-path="url(#p8079695441)" d="M 489.123113 370.498101 
L 489.396637 370.498101 
L 489.396637 177.208074 
L 489.123113 177.208074 
z
" style="fill:#e2edf3;stroke:#ffffff;"/>
    <path clip-path="url(#p8079695441)" d="M 488.986352 370.214543 
L 489.533398 370.214543 
L 489.533398 185.92803 
L 488.986352 185.92803 
z
" style="fill:#c5dae6;stroke:#ffffff;"/>
    <path clip-path="url(#p8079695441)" d="M 488.712828 369.292356 
L 489.806922 369.292356 
L 489.806922 188.879677 
L 488.712828 188.879677 
z
" style="fill:#a8c8da;stroke:#ffffff;"/>
    <path clip-path="url(#p8079695441)" d="M 488.165781 368.083219 
L 490.353969 368.083219 
L 490.353969 197.804299 
L 488.165781 197.804299 
z
" style="fill:#8bb6cd;stroke:#ffffff;"/>
    <path clip-path="url(#p8079695441)" d="M 487.071688 364.876586 
L 491.448062 364.876586 
L 491.448062 213.657756 
L 487.071688 213.657756 
z
" style="fill:#6ea3c1;stroke:#ffffff;"/>
    <path clip-path="url(#p8079695441)" d="M 484.8835 361.596295 
L 493.63625 361.596295 
L 493.63625 231.330532 
L 484.8835 231.330532 
z
" style="fill:#5091b4;stroke:#ffffff;"/>
    <path clip-path="url(#p8079695441)" d="M 480.507125 356.450987 
L 498.012625 356.450987 
L 498.012625 254.966003 
L 480.507125 254.966003 
z
" style="fill:#337ea8;stroke:#ffffff;"/>
    <path clip-path="url(#p8079695441)" d="M 471.754375 347.580328 
L 506.765375 347.580328 
L 506.765375 284.544779 
L 471.754375 284.544779 
z
" style="fill:#176d9c;stroke:#ffffff;"/>
   </g>
   <g id="PathCollection_10">
    <g clip-path="url(#p8079695441)">
     <use style="fill:#c38820;stroke:#c38820;" x="533.023625" xlink:href="#m7a4abc47c9" y="369.420516"/>
     <use style="fill:#c38820;stroke:#c38820;" x="533.023625" xlink:href="#m7a4abc47c9" y="367.426234"/>
     <use style="fill:#c38820;stroke:#c38820;" x="533.023625" xlink:href="#m7a4abc47c9" y="73.608364"/>
     <use style="fill:#c38820;stroke:#c38820;" x="533.023625" xlink:href="#m7a4abc47c9" y="161.576354"/>
    </g>
   </g>
   <g id="PatchCollection_10">
    <path clip-path="url(#p8079695441)" d="M 532.955244 366.986522 
L 533.092006 366.986522 
L 533.092006 161.98748 
L 532.955244 161.98748 
z
" style="fill:#ffffff;stroke:#ffffff;"/>
    <path clip-path="url(#p8079695441)" d="M 532.886863 366.297901 
L 533.160387 366.297901 
L 533.160387 165.047159 
L 532.886863 165.047159 
z
" style="fill:#f7f0e3;stroke:#ffffff;"/>
    <path clip-path="url(#p8079695441)" d="M 532.750102 365.884533 
L 533.297148 365.884533 
L 533.297148 168.610406 
L 532.750102 168.610406 
z
" style="fill:#f0e1c7;stroke:#ffffff;"/>
    <path clip-path="url(#p8079695441)" d="M 532.476578 364.404657 
L 533.570672 364.404657 
L 533.570672 178.697676 
L 532.476578 178.697676 
z
" style="fill:#e8d2ab;stroke:#ffffff;"/>
    <path clip-path="url(#p8079695441)" d="M 531.929531 363.330229 
L 534.117719 363.330229 
L 534.117719 188.482786 
L 531.929531 188.482786 
z
" style="fill:#e1c38f;stroke:#ffffff;"/>
    <path clip-path="url(#p8079695441)" d="M 530.835438 360.1042 
L 535.211812 360.1042 
L 535.211812 199.510397 
L 530.835438 199.510397 
z
" style="fill:#d9b473;stroke:#ffffff;"/>
    <path clip-path="url(#p8079695441)" d="M 528.64725 355.977062 
L 537.4 355.977062 
L 537.4 219.380856 
L 528.64725 219.380856 
z
" style="fill:#d2a557;stroke:#ffffff;"/>
    <path clip-path="url(#p8079695441)" d="M 524.270875 348.522062 
L 541.776375 348.522062 
L 541.776375 242.43474 
L 524.270875 242.43474 
z
" style="fill:#ca963b;stroke:#ffffff;"/>
    <path clip-path="url(#p8079695441)" d="M 515.518125 338.165511 
L 550.529125 338.165511 
L 550.529125 277.077156 
L 515.518125 277.077156 
z
" style="fill:#c38820;stroke:#ffffff;"/>
   </g>
   <g id="PathCollection_11">
    <g clip-path="url(#p8079695441)">
     <use style="fill:#158b6a;stroke:#158b6a;" x="576.787375" xlink:href="#m98210b784f" y="371.371491"/>
     <use style="fill:#158b6a;stroke:#158b6a;" x="576.787375" xlink:href="#m98210b784f" y="371.293961"/>
     <use style="fill:#158b6a;stroke:#158b6a;" x="576.787375" xlink:href="#m98210b784f" y="180.417998"/>
     <use style="fill:#158b6a;stroke:#158b6a;" x="576.787375" xlink:href="#m98210b784f" y="177.532822"/>
    </g>
   </g>
   <g id="PatchCollection_11">
    <path clip-path="url(#p8079695441)" d="M 576.718994 371.003586 
L 576.855756 371.003586 
L 576.855756 180.458342 
L 576.718994 180.458342 
z
" style="fill:#ffffff;stroke:#ffffff;"/>
    <path clip-path="url(#p8079695441)" d="M 576.650613 370.568835 
L 576.924137 370.568835 
L 576.924137 180.72143 
L 576.650613 180.72143 
z
" style="fill:#e2f0ec;stroke:#ffffff;"/>
    <path clip-path="url(#p8079695441)" d="M 576.513852 370.191539 
L 577.060898 370.191539 
L 577.060898 190.094803 
L 576.513852 190.094803 
z
" style="fill:#c4e2da;stroke:#ffffff;"/>
    <path clip-path="url(#p8079695441)" d="M 576.240328 369.832279 
L 577.334422 369.832279 
L 577.334422 198.224993 
L 576.240328 198.224993 
z
" style="fill:#a7d3c7;stroke:#ffffff;"/>
    <path clip-path="url(#p8079695441)" d="M 575.693281 367.630797 
L 577.881469 367.630797 
L 577.881469 209.597207 
L 575.693281 209.597207 
z
" style="fill:#8ac5b4;stroke:#ffffff;"/>
    <path clip-path="url(#p8079695441)" d="M 574.599187 364.835021 
L 578.975562 364.835021 
L 578.975562 219.481428 
L 574.599187 219.481428 
z
" style="fill:#6cb6a2;stroke:#ffffff;"/>
    <path clip-path="url(#p8079695441)" d="M 572.411 361.639838 
L 581.16375 361.639838 
L 581.16375 238.601245 
L 572.411 238.601245 
z
" style="fill:#4fa78f;stroke:#ffffff;"/>
    <path clip-path="url(#p8079695441)" d="M 568.034625 356.841548 
L 585.540125 356.841548 
L 585.540125 260.37725 
L 568.034625 260.37725 
z
" style="fill:#32997c;stroke:#ffffff;"/>
    <path clip-path="url(#p8079695441)" d="M 559.281875 347.873609 
L 594.292875 347.873609 
L 594.292875 292.771326 
L 559.281875 292.771326 
z
" style="fill:#158b6a;stroke:#ffffff;"/>
   </g>
   <g id="PathCollection_12">
    <g clip-path="url(#p8079695441)">
     <use style="fill:#ba611b;stroke:#ba611b;" x="620.551125" xlink:href="#m0337fb44c9" y="374.956414"/>
     <use style="fill:#ba611b;stroke:#ba611b;" x="620.551125" xlink:href="#m0337fb44c9" y="373.968056"/>
     <use style="fill:#ba611b;stroke:#ba611b;" x="620.551125" xlink:href="#m0337fb44c9" y="170.391336"/>
     <use style="fill:#ba611b;stroke:#ba611b;" x="620.551125" xlink:href="#m0337fb44c9" y="171.427224"/>
    </g>
   </g>
   <g id="PatchCollection_12">
    <path clip-path="url(#p8079695441)" d="M 620.482744 373.87642 
L 620.619506 373.87642 
L 620.619506 172.326026 
L 620.482744 172.326026 
z
" style="fill:#ffffff;stroke:#ffffff;"/>
    <path clip-path="url(#p8079695441)" d="M 620.414363 373.295248 
L 620.687887 373.295248 
L 620.687887 174.819638 
L 620.414363 174.819638 
z
" style="fill:#f6ebe2;stroke:#ffffff;"/>
    <path clip-path="url(#p8079695441)" d="M 620.277602 372.972136 
L 620.824648 372.972136 
L 620.824648 179.852358 
L 620.277602 179.852358 
z
" style="fill:#eed7c6;stroke:#ffffff;"/>
    <path clip-path="url(#p8079695441)" d="M 620.004078 372.331778 
L 621.098172 372.331778 
L 621.098172 187.120735 
L 620.004078 187.120735 
z
" style="fill:#e5c4a9;stroke:#ffffff;"/>
    <path clip-path="url(#p8079695441)" d="M 619.457031 371.1653 
L 621.645219 371.1653 
L 621.645219 200.886517 
L 619.457031 200.886517 
z
" style="fill:#ddb08c;stroke:#ffffff;"/>
    <path clip-path="url(#p8079695441)" d="M 618.362937 368.465093 
L 622.739312 368.465093 
L 622.739312 212.811246 
L 618.362937 212.811246 
z
" style="fill:#d49c70;stroke:#ffffff;"/>
    <path clip-path="url(#p8079695441)" d="M 616.17475 365.735248 
L 624.9275 365.735248 
L 624.9275 228.14182 
L 616.17475 228.14182 
z
" style="fill:#cb8853;stroke:#ffffff;"/>
    <path clip-path="url(#p8079695441)" d="M 611.798375 360.546371 
L 629.303875 360.546371 
L 629.303875 245.288357 
L 611.798375 245.288357 
z
" style="fill:#c37436;stroke:#ffffff;"/>
    <path clip-path="url(#p8079695441)" d="M 603.045625 346.973391 
L 638.056625 346.973391 
L 638.056625 278.092454 
L 603.045625 278.092454 
z
" style="fill:#ba611b;stroke:#ffffff;"/>
   </g>
   <g id="line2d_27">
    <path clip-path="url(#p8079695441)" d="M 471.754375 325.974016 
L 506.765375 325.974016 
" style="fill:none;stroke:#262626;stroke-linecap:round;stroke-opacity:0.45;stroke-width:1.5;"/>
   </g>
   <g id="line2d_28">
    <path clip-path="url(#p8079695441)" d="M 515.518125 317.655984 
L 550.529125 317.655984 
" style="fill:none;stroke:#262626;stroke-linecap:round;stroke-opacity:0.45;stroke-width:1.5;"/>
   </g>
   <g id="line2d_29">
    <path clip-path="url(#p8079695441)" d="M 559.281875 328.603654 
L 594.292875 328.603654 
" style="fill:none;stroke:#262626;stroke-linecap:round;stroke-opacity:0.45;stroke-width:1.5;"/>
   </g>
   <g id="line2d_30">
    <path clip-path="url(#p8079695441)" d="M 603.045625 321.628611 
L 638.056625 321.628611 
" style="fill:none;stroke:#262626;stroke-linecap:round;stroke-opacity:0.45;stroke-width:1.5;"/>
   </g>
   <g id="patch_9">
    <path d="M 467.378 377.244 
L 467.378 43.2 
" style="fill:none;stroke:#ffffff;stroke-linecap:square;stroke-linejoin:miter;stroke-width:1.25;"/>
   </g>
   <g id="patch_10">
    <path d="M 467.378 377.244 
L 642.433 377.244 
" style="fill:none;stroke:#ffffff;stroke-linecap:square;stroke-linejoin:miter;stroke-width:1.25;"/>
   </g>
   <g id="text_25">
    <!-- clusters = 16 -->
    <g style="fill:#262626;" transform="translate(510.897937 37.2)scale(0.132 -0.132)">
     <use xlink:href="#DejaVuSans-99"/>
     <use x="54.980469" xlink:href="#DejaVuSans-108"/>
     <use x="82.763672" xlink:href="#DejaVuSans-117"/>
     <use x="146.142578" xlink:href="#DejaVuSans-115"/>
     <use x="198.242188" xlink:href="#DejaVuSans-116"/>
     <use x="237.451172" xlink:href="#DejaVuSans-101"/>
     <use x="298.974609" xlink:href="#DejaVuSans-114"/>
     <use x="340.087891" xlink:href="#DejaVuSans-115"/>
     <use x="392.1875" xlink:href="#DejaVuSans-32"/>
     <use x="423.974609" xlink:href="#DejaVuSans-61"/>
     <use x="507.763672" xlink:href="#DejaVuSans-32"/>
     <use x="539.550781" xlink:href="#DejaVuSans-49"/>
     <use x="603.173828" xlink:href="#DejaVuSans-54"/>
    </g>
   </g>
  </g>
  <g id="axes_4">
   <g id="patch_11">
    <path d="M 668.689 377.244 
L 843.744 377.244 
L 843.744 43.2 
L 668.689 43.2 
z
" style="fill:#eaeaf2;"/>
   </g>
   <g id="matplotlib.axis_7">
    <g id="xtick_13">
     <g id="text_26">
      <!-- metis -->
      <g style="fill:#262626;" transform="translate(673.75093 395.938109)scale(0.121 -0.121)">
       <use xlink:href="#DejaVuSans-109"/>
       <use x="97.412109" xlink:href="#DejaVuSans-101"/>
       <use x="158.935547" xlink:href="#DejaVuSans-116"/>
       <use x="198.144531" xlink:href="#DejaVuSans-105"/>
       <use x="225.927734" xlink:href="#DejaVuSans-115"/>
      </g>
     </g>
    </g>
    <g id="xtick_14">
     <g id="text_27">
      <!-- merged -->
      <g style="fill:#262626;" transform="translate(710.828484 395.938109)scale(0.121 -0.121)">
       <use xlink:href="#DejaVuSans-109"/>
       <use x="97.412109" xlink:href="#DejaVuSans-101"/>
       <use x="158.935547" xlink:href="#DejaVuSans-114"/>
       <use x="200.033203" xlink:href="#DejaVuSans-103"/>
       <use x="263.509766" xlink:href="#DejaVuSans-101"/>
       <use x="325.033203" xlink:href="#DejaVuSans-100"/>
      </g>
     </g>
    </g>
    <g id="xtick_15">
     <g id="text_28">
      <!-- prio -->
      <g style="fill:#262626;" transform="translate(766.387844 395.938109)scale(0.121 -0.121)">
       <use xlink:href="#DejaVuSans-112"/>
       <use x="63.476562" xlink:href="#DejaVuSans-114"/>
       <use x="104.589844" xlink:href="#DejaVuSans-105"/>
       <use x="132.373047" xlink:href="#DejaVuSans-111"/>
      </g>
     </g>
    </g>
    <g id="xtick_16">
     <g id="text_29">
      <!-- kmeans -->
      <g style="fill:#262626;" transform="translate(798.049703 395.938109)scale(0.121 -0.121)">
       <use xlink:href="#DejaVuSans-107"/>
       <use x="57.910156" xlink:href="#DejaVuSans-109"/>
       <use x="155.322266" xlink:href="#DejaVuSans-101"/>
       <use x="216.845703" xlink:href="#DejaVuSans-97"/>
       <use x="278.125" xlink:href="#DejaVuSans-110"/>
       <use x="341.503906" xlink:href="#DejaVuSans-115"/>
      </g>
     </g>
    </g>
    <g id="text_30">
     <!-- Method -->
     <g style="fill:#262626;" transform="translate(731.462375 412.484469)scale(0.132 -0.132)">
      <use xlink:href="#DejaVuSans-77"/>
      <use x="86.279297" xlink:href="#DejaVuSans-101"/>
      <use x="147.802734" xlink:href="#DejaVuSans-116"/>
      <use x="187.011719" xlink:href="#DejaVuSans-104"/>
      <use x="250.390625" xlink:href="#DejaVuSans-111"/>
      <use x="311.572266" xlink:href="#DejaVuSans-100"/>
     </g>
    </g>
   </g>
   <g id="matplotlib.axis_8">
    <g id="ytick_19">
     <g id="line2d_31">
      <path clip-path="url(#p404b1dfff2)" d="M 668.689 377.244 
L 843.744 377.244 
" style="fill:none;stroke:#ffffff;stroke-linecap:round;"/>
     </g>
    </g>
    <g id="ytick_20">
     <g id="line2d_32">
      <path clip-path="url(#p404b1dfff2)" d="M 668.689 310.4352 
L 843.744 310.4352 
" style="fill:none;stroke:#ffffff;stroke-linecap:round;"/>
     </g>
    </g>
    <g id="ytick_21">
     <g id="line2d_33">
      <path clip-path="url(#p404b1dfff2)" d="M 668.689 243.6264 
L 843.744 243.6264 
" style="fill:none;stroke:#ffffff;stroke-linecap:round;"/>
     </g>
    </g>
    <g id="ytick_22">
     <g id="line2d_34">
      <path clip-path="url(#p404b1dfff2)" d="M 668.689 176.8176 
L 843.744 176.8176 
" style="fill:none;stroke:#ffffff;stroke-linecap:round;"/>
     </g>
    </g>
    <g id="ytick_23">
     <g id="line2d_35">
      <path clip-path="url(#p404b1dfff2)" d="M 668.689 110.0088 
L 843.744 110.0088 
" style="fill:none;stroke:#ffffff;stroke-linecap:round;"/>
     </g>
    </g>
    <g id="ytick_24">
     <g id="line2d_36">
      <path clip-path="url(#p404b1dfff2)" d="M 668.689 43.2 
L 843.744 43.2 
" style="fill:none;stroke:#ffffff;stroke-linecap:round;"/>
     </g>
    </g>
   </g>
   <g id="PathCollection_13">
    <g clip-path="url(#p404b1dfff2)">
     <use style="fill:#176d9c;stroke:#176d9c;" x="690.570875" xlink:href="#m5b11d0424d" y="375.267991"/>
     <use style="fill:#176d9c;stroke:#176d9c;" x="690.570875" xlink:href="#m5b11d0424d" y="375.081399"/>
     <use style="fill:#176d9c;stroke:#176d9c;" x="690.570875" xlink:href="#m5b11d0424d" y="181.565289"/>
     <use style="fill:#176d9c;stroke:#176d9c;" x="690.570875" xlink:href="#m5b11d0424d" y="72.0903"/>
    </g>
   </g>
   <g id="PatchCollection_13">
    <path clip-path="url(#p404b1dfff2)" d="M 690.502494 374.829832 
L 690.639256 374.829832 
L 690.639256 189.037608 
L 690.502494 189.037608 
z
" style="fill:#ffffff;stroke:#ffffff;"/>
    <path clip-path="url(#p404b1dfff2)" d="M 690.434113 374.248494 
L 690.707637 374.248494 
L 690.707637 200.352574 
L 690.434113 200.352574 
z
" style="fill:#e2edf3;stroke:#ffffff;"/>
    <path clip-path="url(#p404b1dfff2)" d="M 690.297352 373.569085 
L 690.844398 373.569085 
L 690.844398 203.477515 
L 690.297352 203.477515 
z
" style="fill:#c5dae6;stroke:#ffffff;"/>
    <path clip-path="url(#p404b1dfff2)" d="M 690.023828 373.151097 
L 691.117922 373.151097 
L 691.117922 210.89915 
L 690.023828 210.89915 
z
" style="fill:#a8c8da;stroke:#ffffff;"/>
    <path clip-path="url(#p404b1dfff2)" d="M 689.476781 372.075974 
L 691.664969 372.075974 
L 691.664969 220.154051 
L 689.476781 220.154051 
z
" style="fill:#8bb6cd;stroke:#ffffff;"/>
    <path clip-path="url(#p404b1dfff2)" d="M 688.382687 370.588892 
L 692.759063 370.588892 
L 692.759063 235.020642 
L 688.382687 235.020642 
z
" style="fill:#6ea3c1;stroke:#ffffff;"/>
    <path clip-path="url(#p404b1dfff2)" d="M 686.1945 368.601617 
L 694.94725 368.601617 
L 694.94725 254.081264 
L 686.1945 254.081264 
z
" style="fill:#5091b4;stroke:#ffffff;"/>
    <path clip-path="url(#p404b1dfff2)" d="M 681.818125 364.727793 
L 699.323625 364.727793 
L 699.323625 275.19893 
L 681.818125 275.19893 
z
" style="fill:#337ea8;stroke:#ffffff;"/>
    <path clip-path="url(#p404b1dfff2)" d="M 673.065375 355.90233 
L 708.076375 355.90233 
L 708.076375 302.755829 
L 673.065375 302.755829 
z
" style="fill:#176d9c;stroke:#ffffff;"/>
   </g>
   <g id="PathCollection_14">
    <g clip-path="url(#p404b1dfff2)">
     <use style="fill:#c38820;stroke:#c38820;" x="734.334625" xlink:href="#m7a4abc47c9" y="371.585007"/>
     <use style="fill:#c38820;stroke:#c38820;" x="734.334625" xlink:href="#m7a4abc47c9" y="371.599229"/>
     <use style="fill:#c38820;stroke:#c38820;" x="734.334625" xlink:href="#m7a4abc47c9" y="174.677625"/>
     <use style="fill:#c38820;stroke:#c38820;" x="734.334625" xlink:href="#m7a4abc47c9" y="120.721139"/>
    </g>
   </g>
   <g id="PatchCollection_14">
    <path clip-path="url(#p404b1dfff2)" d="M 734.266244 371.327908 
L 734.403006 371.327908 
L 734.403006 180.424757 
L 734.266244 180.424757 
z
" style="fill:#ffffff;stroke:#ffffff;"/>
    <path clip-path="url(#p404b1dfff2)" d="M 734.197863 370.926243 
L 734.471387 370.926243 
L 734.471387 195.373881 
L 734.197863 195.373881 
z
" style="fill:#f7f0e3;stroke:#ffffff;"/>
    <path clip-path="url(#p404b1dfff2)" d="M 734.061102 370.459858 
L 734.608148 370.459858 
L 734.608148 198.269563 
L 734.061102 198.269563 
z
" style="fill:#f0e1c7;stroke:#ffffff;"/>
    <path clip-path="url(#p404b1dfff2)" d="M 733.787578 370.036088 
L 734.881672 370.036088 
L 734.881672 204.055234 
L 733.787578 204.055234 
z
" style="fill:#e8d2ab;stroke:#ffffff;"/>
    <path clip-path="url(#p404b1dfff2)" d="M 733.240531 369.422885 
L 735.428719 369.422885 
L 735.428719 215.302974 
L 733.240531 215.302974 
z
" style="fill:#e1c38f;stroke:#ffffff;"/>
    <path clip-path="url(#p404b1dfff2)" d="M 732.146438 367.445275 
L 736.522812 367.445275 
L 736.522812 228.830622 
L 732.146438 228.830622 
z
" style="fill:#d9b473;stroke:#ffffff;"/>
    <path clip-path="url(#p404b1dfff2)" d="M 729.95825 364.845554 
L 738.711 364.845554 
L 738.711 248.724185 
L 729.95825 248.724185 
z
" style="fill:#d2a557;stroke:#ffffff;"/>
    <path clip-path="url(#p404b1dfff2)" d="M 725.581875 361.818176 
L 743.087375 361.818176 
L 743.087375 271.822386 
L 725.581875 271.822386 
z
" style="fill:#ca963b;stroke:#ffffff;"/>
    <path clip-path="url(#p404b1dfff2)" d="M 716.829125 354.640753 
L 751.840125 354.640753 
L 751.840125 303.944796 
L 716.829125 303.944796 
z
" style="fill:#c38820;stroke:#ffffff;"/>
   </g>
   <g id="PathCollection_15">
    <g clip-path="url(#p404b1dfff2)">
     <use style="fill:#158b6a;stroke:#158b6a;" x="778.098375" xlink:href="#m98210b784f" y="374.983044"/>
     <use style="fill:#158b6a;stroke:#158b6a;" x="778.098375" xlink:href="#m98210b784f" y="374.378665"/>
     <use style="fill:#158b6a;stroke:#158b6a;" x="778.098375" xlink:href="#m98210b784f" y="106.054129"/>
     <use style="fill:#158b6a;stroke:#158b6a;" x="778.098375" xlink:href="#m98210b784f" y="199.980952"/>
    </g>
   </g>
   <g id="PatchCollection_15">
    <path clip-path="url(#p404b1dfff2)" d="M 778.029994 374.223493 
L 778.166756 374.223493 
L 778.166756 200.054068 
L 778.029994 200.054068 
z
" style="fill:#ffffff;stroke:#ffffff;"/>
    <path clip-path="url(#p404b1dfff2)" d="M 777.961613 373.437373 
L 778.235137 373.437373 
L 778.235137 200.283762 
L 777.961613 200.283762 
z
" style="fill:#e2f0ec;stroke:#ffffff;"/>
    <path clip-path="url(#p404b1dfff2)" d="M 777.824852 372.260051 
L 778.371898 372.260051 
L 778.371898 205.913852 
L 777.824852 205.913852 
z
" style="fill:#c4e2da;stroke:#ffffff;"/>
    <path clip-path="url(#p404b1dfff2)" d="M 777.551328 371.803966 
L 778.645422 371.803966 
L 778.645422 216.369075 
L 777.551328 216.369075 
z
" style="fill:#a7d3c7;stroke:#ffffff;"/>
    <path clip-path="url(#p404b1dfff2)" d="M 777.004281 371.161713 
L 779.192469 371.161713 
L 779.192469 223.627508 
L 777.004281 223.627508 
z
" style="fill:#8ac5b4;stroke:#ffffff;"/>
    <path clip-path="url(#p404b1dfff2)" d="M 775.910188 369.700194 
L 780.286562 369.700194 
L 780.286562 238.633982 
L 775.910188 238.633982 
z
" style="fill:#6cb6a2;stroke:#ffffff;"/>
    <path clip-path="url(#p404b1dfff2)" d="M 773.722 367.115293 
L 782.47475 367.115293 
L 782.47475 258.620916 
L 773.722 258.620916 
z
" style="fill:#4fa78f;stroke:#ffffff;"/>
    <path clip-path="url(#p404b1dfff2)" d="M 769.345625 363.07767 
L 786.851125 363.07767 
L 786.851125 281.112993 
L 769.345625 281.112993 
z
" style="fill:#32997c;stroke:#ffffff;"/>
    <path clip-path="url(#p404b1dfff2)" d="M 760.592875 356.08865 
L 795.603875 356.08865 
L 795.603875 311.350508 
L 760.592875 311.350508 
z
" style="fill:#158b6a;stroke:#ffffff;"/>
   </g>
   <g id="PathCollection_16">
    <g clip-path="url(#p404b1dfff2)">
     <use style="fill:#ba611b;stroke:#ba611b;" x="821.862125" xlink:href="#m0337fb44c9" y="375.932168"/>
     <use style="fill:#ba611b;stroke:#ba611b;" x="821.862125" xlink:href="#m0337fb44c9" y="375.999004"/>
     <use style="fill:#ba611b;stroke:#ba611b;" x="821.862125" xlink:href="#m0337fb44c9" y="70.246936"/>
     <use style="fill:#ba611b;stroke:#ba611b;" x="821.862125" xlink:href="#m0337fb44c9" y="193.929689"/>
    </g>
   </g>
   <g id="PatchCollection_16">
    <path clip-path="url(#p404b1dfff2)" d="M 821.793744 375.826037 
L 821.930506 375.826037 
L 821.930506 194.467849 
L 821.793744 194.467849 
z
" style="fill:#ffffff;stroke:#ffffff;"/>
    <path clip-path="url(#p404b1dfff2)" d="M 821.725363 375.582041 
L 821.998887 375.582041 
L 821.998887 195.977528 
L 821.725363 195.977528 
z
" style="fill:#f6ebe2;stroke:#ffffff;"/>
    <path clip-path="url(#p404b1dfff2)" d="M 821.588602 375.198717 
L 822.135648 375.198717 
L 822.135648 199.405492 
L 821.588602 199.405492 
z
" style="fill:#eed7c6;stroke:#ffffff;"/>
    <path clip-path="url(#p404b1dfff2)" d="M 821.315078 374.805016 
L 822.409172 374.805016 
L 822.409172 207.188922 
L 821.315078 207.188922 
z
" style="fill:#e5c4a9;stroke:#ffffff;"/>
    <path clip-path="url(#p404b1dfff2)" d="M 820.768031 374.304231 
L 822.956219 374.304231 
L 822.956219 215.281933 
L 820.768031 215.281933 
z
" style="fill:#ddb08c;stroke:#ffffff;"/>
    <path clip-path="url(#p404b1dfff2)" d="M 819.673937 373.069216 
L 824.050313 373.069216 
L 824.050313 232.256191 
L 819.673937 232.256191 
z
" style="fill:#d49c70;stroke:#ffffff;"/>
    <path clip-path="url(#p404b1dfff2)" d="M 817.48575 370.759025 
L 826.2385 370.759025 
L 826.2385 249.904281 
L 817.48575 249.904281 
z
" style="fill:#cb8853;stroke:#ffffff;"/>
    <path clip-path="url(#p404b1dfff2)" d="M 813.109375 366.108459 
L 830.614875 366.108459 
L 830.614875 272.506116 
L 813.109375 272.506116 
z
" style="fill:#c37436;stroke:#ffffff;"/>
    <path clip-path="url(#p404b1dfff2)" d="M 804.356625 357.178876 
L 839.367625 357.178876 
L 839.367625 302.798004 
L 804.356625 302.798004 
z
" style="fill:#ba611b;stroke:#ffffff;"/>
   </g>
   <g id="line2d_37">
    <path clip-path="url(#p404b1dfff2)" d="M 673.065375 336.119593 
L 708.076375 336.119593 
" style="fill:none;stroke:#262626;stroke-linecap:round;stroke-opacity:0.45;stroke-width:1.5;"/>
   </g>
   <g id="line2d_38">
    <path clip-path="url(#p404b1dfff2)" d="M 716.829125 336.194054 
L 751.840125 336.194054 
" style="fill:none;stroke:#262626;stroke-linecap:round;stroke-opacity:0.45;stroke-width:1.5;"/>
   </g>
   <g id="line2d_39">
    <path clip-path="url(#p404b1dfff2)" d="M 760.592875 341.845128 
L 795.603875 341.845128 
" style="fill:none;stroke:#262626;stroke-linecap:round;stroke-opacity:0.45;stroke-width:1.5;"/>
   </g>
   <g id="line2d_40">
    <path clip-path="url(#p404b1dfff2)" d="M 804.356625 337.269232 
L 839.367625 337.269232 
" style="fill:none;stroke:#262626;stroke-linecap:round;stroke-opacity:0.45;stroke-width:1.5;"/>
   </g>
   <g id="patch_12">
    <path d="M 668.689 377.244 
L 668.689 43.2 
" style="fill:none;stroke:#ffffff;stroke-linecap:square;stroke-linejoin:miter;stroke-width:1.25;"/>
   </g>
   <g id="patch_13">
    <path d="M 668.689 377.244 
L 843.744 377.244 
" style="fill:none;stroke:#ffffff;stroke-linecap:square;stroke-linejoin:miter;stroke-width:1.25;"/>
   </g>
   <g id="text_31">
    <!-- clusters = 32 -->
    <defs>
     <path d="M 40.578125 39.3125 
Q 47.65625 37.796875 51.625 33 
Q 55.609375 28.21875 55.609375 21.1875 
Q 55.609375 10.40625 48.1875 4.484375 
Q 40.765625 -1.421875 27.09375 -1.421875 
Q 22.515625 -1.421875 17.65625 -0.515625 
Q 12.796875 0.390625 7.625 2.203125 
L 7.625 11.71875 
Q 11.71875 9.328125 16.59375 8.109375 
Q 21.484375 6.890625 26.8125 6.890625 
Q 36.078125 6.890625 40.9375 10.546875 
Q 45.796875 14.203125 45.796875 21.1875 
Q 45.796875 27.640625 41.28125 31.265625 
Q 36.765625 34.90625 28.71875 34.90625 
L 20.21875 34.90625 
L 20.21875 43.015625 
L 29.109375 43.015625 
Q 36.375 43.015625 40.234375 45.921875 
Q 44.09375 48.828125 44.09375 54.296875 
Q 44.09375 59.90625 40.109375 62.90625 
Q 36.140625 65.921875 28.71875 65.921875 
Q 24.65625 65.921875 20.015625 65.03125 
Q 15.375 64.15625 9.8125 62.3125 
L 9.8125 71.09375 
Q 15.4375 72.65625 20.34375 73.4375 
Q 25.25 74.21875 29.59375 74.21875 
Q 40.828125 74.21875 47.359375 69.109375 
Q 53.90625 64.015625 53.90625 55.328125 
Q 53.90625 49.265625 50.4375 45.09375 
Q 46.96875 40.921875 40.578125 39.3125 
z
" id="DejaVuSans-51"/>
    </defs>
    <g style="fill:#262626;" transform="translate(712.208938 37.2)scale(0.132 -0.132)">
     <use xlink:href="#DejaVuSans-99"/>
     <use x="54.980469" xlink:href="#DejaVuSans-108"/>
     <use x="82.763672" xlink:href="#DejaVuSans-117"/>
     <use x="146.142578" xlink:href="#DejaVuSans-115"/>
     <use x="198.242188" xlink:href="#DejaVuSans-116"/>
     <use x="237.451172" xlink:href="#DejaVuSans-101"/>
     <use x="298.974609" xlink:href="#DejaVuSans-114"/>
     <use x="340.087891" xlink:href="#DejaVuSans-115"/>
     <use x="392.1875" xlink:href="#DejaVuSans-32"/>
     <use x="423.974609" xlink:href="#DejaVuSans-61"/>
     <use x="507.763672" xlink:href="#DejaVuSans-32"/>
     <use x="539.550781" xlink:href="#DejaVuSans-51"/>
     <use x="603.173828" xlink:href="#DejaVuSans-50"/>
    </g>
   </g>
  </g>
  <g id="text_32">
   <!-- Downloaded data relative to baseline (lower is better) -->
   <defs>
    <path d="M 19.671875 64.796875 
L 19.671875 8.109375 
L 31.59375 8.109375 
Q 46.6875 8.109375 53.6875 14.9375 
Q 60.6875 21.78125 60.6875 36.53125 
Q 60.6875 51.171875 53.6875 57.984375 
Q 46.6875 64.796875 31.59375 64.796875 
z
M 9.8125 72.90625 
L 30.078125 72.90625 
Q 51.265625 72.90625 61.171875 64.09375 
Q 71.09375 55.28125 71.09375 36.53125 
Q 71.09375 17.671875 61.125 8.828125 
Q 51.171875 0 30.078125 0 
L 9.8125 0 
z
" id="DejaVuSans-68"/>
    <path d="M 48.6875 27.296875 
Q 48.6875 37.203125 44.609375 42.84375 
Q 40.53125 48.484375 33.40625 48.484375 
Q 26.265625 48.484375 22.1875 42.84375 
Q 18.109375 37.203125 18.109375 27.296875 
Q 18.109375 17.390625 22.1875 11.75 
Q 26.265625 6.109375 33.40625 6.109375 
Q 40.53125 6.109375 44.609375 11.75 
Q 48.6875 17.390625 48.6875 27.296875 
z
M 18.109375 46.390625 
Q 20.953125 51.265625 25.265625 53.625 
Q 29.59375 56 35.59375 56 
Q 45.5625 56 51.78125 48.09375 
Q 58.015625 40.1875 58.015625 27.296875 
Q 58.015625 14.40625 51.78125 6.484375 
Q 45.5625 -1.421875 35.59375 -1.421875 
Q 29.59375 -1.421875 25.265625 0.953125 
Q 20.953125 3.328125 18.109375 8.203125 
L 18.109375 0 
L 9.078125 0 
L 9.078125 75.984375 
L 18.109375 75.984375 
z
" id="DejaVuSans-98"/>
   </defs>
   <g style="fill:#262626;" transform="translate(217.700888 20.675925)scale(0.1584 -0.1584)">
    <use xlink:href="#DejaVuSans-68"/>
    <use x="77.001953" xlink:href="#DejaVuSans-111"/>
    <use x="138.183594" xlink:href="#DejaVuSans-119"/>
    <use x="219.970703" xlink:href="#DejaVuSans-110"/>
    <use x="283.349609" xlink:href="#DejaVuSans-108"/>
    <use x="311.132812" xlink:href="#DejaVuSans-111"/>
    <use x="372.314453" xlink:href="#DejaVuSans-97"/>
    <use x="433.59375" xlink:href="#DejaVuSans-100"/>
    <use x="497.070312" xlink:href="#DejaVuSans-101"/>
    <use x="558.59375" xlink:href="#DejaVuSans-100"/>
    <use x="622.070312" xlink:href="#DejaVuSans-32"/>
    <use x="653.857422" xlink:href="#DejaVuSans-100"/>
    <use x="717.333984" xlink:href="#DejaVuSans-97"/>
    <use x="778.613281" xlink:href="#DejaVuSans-116"/>
    <use x="817.822266" xlink:href="#DejaVuSans-97"/>
    <use x="879.101562" xlink:href="#DejaVuSans-32"/>
    <use x="910.888672" xlink:href="#DejaVuSans-114"/>
    <use x="951.970703" xlink:href="#DejaVuSans-101"/>
    <use x="1013.494141" xlink:href="#DejaVuSans-108"/>
    <use x="1041.277344" xlink:href="#DejaVuSans-97"/>
    <use x="1102.556641" xlink:href="#DejaVuSans-116"/>
    <use x="1141.765625" xlink:href="#DejaVuSans-105"/>
    <use x="1169.548828" xlink:href="#DejaVuSans-118"/>
    <use x="1228.728516" xlink:href="#DejaVuSans-101"/>
    <use x="1290.251953" xlink:href="#DejaVuSans-32"/>
    <use x="1322.039062" xlink:href="#DejaVuSans-116"/>
    <use x="1361.248047" xlink:href="#DejaVuSans-111"/>
    <use x="1422.429688" xlink:href="#DejaVuSans-32"/>
    <use x="1454.216797" xlink:href="#DejaVuSans-98"/>
    <use x="1517.693359" xlink:href="#DejaVuSans-97"/>
    <use x="1578.972656" xlink:href="#DejaVuSans-115"/>
    <use x="1631.072266" xlink:href="#DejaVuSans-101"/>
    <use x="1692.595703" xlink:href="#DejaVuSans-108"/>
    <use x="1720.378906" xlink:href="#DejaVuSans-105"/>
    <use x="1748.162109" xlink:href="#DejaVuSans-110"/>
    <use x="1811.541016" xlink:href="#DejaVuSans-101"/>
    <use x="1873.064453" xlink:href="#DejaVuSans-32"/>
    <use x="1904.851562" xlink:href="#DejaVuSans-40"/>
    <use x="1943.865234" xlink:href="#DejaVuSans-108"/>
    <use x="1971.648438" xlink:href="#DejaVuSans-111"/>
    <use x="2032.830078" xlink:href="#DejaVuSans-119"/>
    <use x="2114.617188" xlink:href="#DejaVuSans-101"/>
    <use x="2176.140625" xlink:href="#DejaVuSans-114"/>
    <use x="2217.253906" xlink:href="#DejaVuSans-32"/>
    <use x="2249.041016" xlink:href="#DejaVuSans-105"/>
    <use x="2276.824219" xlink:href="#DejaVuSans-115"/>
    <use x="2328.923828" xlink:href="#DejaVuSans-32"/>
    <use x="2360.710938" xlink:href="#DejaVuSans-98"/>
    <use x="2424.1875" xlink:href="#DejaVuSans-101"/>
    <use x="2485.710938" xlink:href="#DejaVuSans-116"/>
    <use x="2524.919922" xlink:href="#DejaVuSans-116"/>
    <use x="2564.128906" xlink:href="#DejaVuSans-101"/>
    <use x="2625.652344" xlink:href="#DejaVuSans-114"/>
    <use x="2666.765625" xlink:href="#DejaVuSans-41"/>
   </g>
  </g>
 </g>
 <defs>
  <clipPath id="p94e08247c0">
   <rect height="334.044" width="175.055" x="64.756" y="43.2"/>
  </clipPath>
  <clipPath id="p7a3446ae33">
   <rect height="334.044" width="175.055" x="266.067" y="43.2"/>
  </clipPath>
  <clipPath id="p8079695441">
   <rect height="334.044" width="175.055" x="467.378" y="43.2"/>
  </clipPath>
  <clipPath id="p404b1dfff2">
   <rect height="334.044" width="175.055" x="668.689" y="43.2"/>
  </clipPath>
 </defs>
</svg>
