<?xml version="1.0" encoding="utf-8" standalone="no"?>
<!DOCTYPE svg PUBLIC "-//W3C//DTD SVG 1.1//EN"
  "http://www.w3.org/Graphics/SVG/1.1/DTD/svg11.dtd">
<!-- Created with matplotlib (https://matplotlib.org/) -->
<svg height="432pt" version="1.1" viewBox="0 0 864 432" width="864pt" xmlns="http://www.w3.org/2000/svg" xmlns:xlink="http://www.w3.org/1999/xlink">
 <defs>
  <style type="text/css">
*{stroke-linecap:butt;stroke-linejoin:round;}
  </style>
 </defs>
 <g id="figure_1">
  <g id="patch_1">
   <path d="M 0 432 
L 864 432 
L 864 0 
L 0 0 
z
" style="fill:#ffffff;"/>
  </g>
  <g id="axes_1">
   <g id="patch_2">
    <path d="M 69.144 311.981 
L 199.1712 311.981 
L 199.1712 38.144 
L 69.144 38.144 
z
" style="fill:#eaeaf2;"/>
   </g>
   <g id="matplotlib.axis_1">
    <g id="xtick_1">
     <g id="text_1">
      <!--    metis -->
      <defs>
       <path id="DejaVuSans-32"/>
       <path d="M 52 44.1875 
Q 55.375 50.25 60.0625 53.125 
Q 64.75 56 71.09375 56 
Q 79.640625 56 84.28125 50.015625 
Q 88.921875 44.046875 88.921875 33.015625 
L 88.921875 0 
L 79.890625 0 
L 79.890625 32.71875 
Q 79.890625 40.578125 77.09375 44.375 
Q 74.3125 48.1875 68.609375 48.1875 
Q 61.625 48.1875 57.5625 43.546875 
Q 53.515625 38.921875 53.515625 30.90625 
L 53.515625 0 
L 44.484375 0 
L 44.484375 32.71875 
Q 44.484375 40.625 41.703125 44.40625 
Q 38.921875 48.1875 33.109375 48.1875 
Q 26.21875 48.1875 22.15625 43.53125 
Q 18.109375 38.875 18.109375 30.90625 
L 18.109375 0 
L 9.078125 0 
L 9.078125 54.6875 
L 18.109375 54.6875 
L 18.109375 46.1875 
Q 21.1875 51.21875 25.484375 53.609375 
Q 29.78125 56 35.6875 56 
Q 41.65625 56 45.828125 52.96875 
Q 50 49.953125 52 44.1875 
z
" id="DejaVuSans-109"/>
       <path d="M 56.203125 29.59375 
L 56.203125 25.203125 
L 14.890625 25.203125 
Q 15.484375 15.921875 20.484375 11.0625 
Q 25.484375 6.203125 34.421875 6.203125 
Q 39.59375 6.203125 44.453125 7.46875 
Q 49.3125 8.734375 54.109375 11.28125 
L 54.109375 2.78125 
Q 49.265625 0.734375 44.1875 -0.34375 
Q 39.109375 -1.421875 33.890625 -1.421875 
Q 20.796875 -1.421875 13.15625 6.1875 
Q 5.515625 13.8125 5.515625 26.8125 
Q 5.515625 40.234375 12.765625 48.109375 
Q 20.015625 56 32.328125 56 
Q 43.359375 56 49.78125 48.890625 
Q 56.203125 41.796875 56.203125 29.59375 
z
M 47.21875 32.234375 
Q 47.125 39.59375 43.09375 43.984375 
Q 39.0625 48.390625 32.421875 48.390625 
Q 24.90625 48.390625 20.390625 44.140625 
Q 15.875 39.890625 15.1875 32.171875 
z
" id="DejaVuSans-101"/>
       <path d="M 18.3125 70.21875 
L 18.3125 54.6875 
L 36.8125 54.6875 
L 36.8125 47.703125 
L 18.3125 47.703125 
L 18.3125 18.015625 
Q 18.3125 11.328125 20.140625 9.421875 
Q 21.96875 7.515625 27.59375 7.515625 
L 36.8125 7.515625 
L 36.8125 0 
L 27.59375 0 
Q 17.1875 0 13.234375 3.875 
Q 9.28125 7.765625 9.28125 18.015625 
L 9.28125 47.703125 
L 2.6875 47.703125 
L 2.6875 54.6875 
L 9.28125 54.6875 
L 9.28125 70.21875 
z
" id="DejaVuSans-116"/>
       <path d="M 9.421875 54.6875 
L 18.40625 54.6875 
L 18.40625 0 
L 9.421875 0 
z
M 9.421875 75.984375 
L 18.40625 75.984375 
L 18.40625 64.59375 
L 9.421875 64.59375 
z
" id="DejaVuSans-105"/>
       <path d="M 44.28125 53.078125 
L 44.28125 44.578125 
Q 40.484375 46.53125 36.375 47.5 
Q 32.28125 48.484375 27.875 48.484375 
Q 21.1875 48.484375 17.84375 46.4375 
Q 14.5 44.390625 14.5 40.28125 
Q 14.5 37.15625 16.890625 35.375 
Q 19.28125 33.59375 26.515625 31.984375 
L 29.59375 31.296875 
Q 39.15625 29.25 43.1875 25.515625 
Q 47.21875 21.78125 47.21875 15.09375 
Q 47.21875 7.46875 41.1875 3.015625 
Q 35.15625 -1.421875 24.609375 -1.421875 
Q 20.21875 -1.421875 15.453125 -0.5625 
Q 10.6875 0.296875 5.421875 2 
L 5.421875 11.28125 
Q 10.40625 8.6875 15.234375 7.390625 
Q 20.0625 6.109375 24.8125 6.109375 
Q 31.15625 6.109375 34.5625 8.28125 
Q 37.984375 10.453125 37.984375 14.40625 
Q 37.984375 18.0625 35.515625 20.015625 
Q 33.0625 21.96875 24.703125 23.78125 
L 21.578125 24.515625 
Q 13.234375 26.265625 9.515625 29.90625 
Q 5.8125 33.546875 5.8125 39.890625 
Q 5.8125 47.609375 11.28125 51.796875 
Q 16.75 56 26.8125 56 
Q 31.78125 56 36.171875 55.265625 
Q 40.578125 54.546875 44.28125 53.078125 
z
" id="DejaVuSans-115"/>
      </defs>
      <g style="fill:#262626;" transform="translate(86.396157 378.978344)rotate(-90)scale(0.154 -0.154)">
       <use xlink:href="#DejaVuSans-32"/>
       <use x="31.787109" xlink:href="#DejaVuSans-32"/>
       <use x="63.574219" xlink:href="#DejaVuSans-32"/>
       <use x="95.361328" xlink:href="#DejaVuSans-109"/>
       <use x="192.773438" xlink:href="#DejaVuSans-101"/>
       <use x="254.296875" xlink:href="#DejaVuSans-116"/>
       <use x="293.505859" xlink:href="#DejaVuSans-105"/>
       <use x="321.289062" xlink:href="#DejaVuSans-115"/>
      </g>
     </g>
    </g>
    <g id="xtick_2">
     <g id="text_2">
      <!--   merged -->
      <defs>
       <path d="M 41.109375 46.296875 
Q 39.59375 47.171875 37.8125 47.578125 
Q 36.03125 48 33.890625 48 
Q 26.265625 48 22.1875 43.046875 
Q 18.109375 38.09375 18.109375 28.8125 
L 18.109375 0 
L 9.078125 0 
L 9.078125 54.6875 
L 18.109375 54.6875 
L 18.109375 46.1875 
Q 20.953125 51.171875 25.484375 53.578125 
Q 30.03125 56 36.53125 56 
Q 37.453125 56 38.578125 55.875 
Q 39.703125 55.765625 41.0625 55.515625 
z
" id="DejaVuSans-114"/>
       <path d="M 45.40625 27.984375 
Q 45.40625 37.75 41.375 43.109375 
Q 37.359375 48.484375 30.078125 48.484375 
Q 22.859375 48.484375 18.828125 43.109375 
Q 14.796875 37.75 14.796875 27.984375 
Q 14.796875 18.265625 18.828125 12.890625 
Q 22.859375 7.515625 30.078125 7.515625 
Q 37.359375 7.515625 41.375 12.890625 
Q 45.40625 18.265625 45.40625 27.984375 
z
M 54.390625 6.78125 
Q 54.390625 -7.171875 48.1875 -13.984375 
Q 42 -20.796875 29.203125 -20.796875 
Q 24.46875 -20.796875 20.265625 -20.09375 
Q 16.0625 -19.390625 12.109375 -17.921875 
L 12.109375 -9.1875 
Q 16.0625 -11.328125 19.921875 -12.34375 
Q 23.78125 -13.375 27.78125 -13.375 
Q 36.625 -13.375 41.015625 -8.765625 
Q 45.40625 -4.15625 45.40625 5.171875 
L 45.40625 9.625 
Q 42.625 4.78125 38.28125 2.390625 
Q 33.9375 0 27.875 0 
Q 17.828125 0 11.671875 7.65625 
Q 5.515625 15.328125 5.515625 27.984375 
Q 5.515625 40.671875 11.671875 48.328125 
Q 17.828125 56 27.875 56 
Q 33.9375 56 38.28125 53.609375 
Q 42.625 51.21875 45.40625 46.390625 
L 45.40625 54.6875 
L 54.390625 54.6875 
z
" id="DejaVuSans-103"/>
       <path d="M 45.40625 46.390625 
L 45.40625 75.984375 
L 54.390625 75.984375 
L 54.390625 0 
L 45.40625 0 
L 45.40625 8.203125 
Q 42.578125 3.328125 38.25 0.953125 
Q 33.9375 -1.421875 27.875 -1.421875 
Q 17.96875 -1.421875 11.734375 6.484375 
Q 5.515625 14.40625 5.515625 27.296875 
Q 5.515625 40.1875 11.734375 48.09375 
Q 17.96875 56 27.875 56 
Q 33.9375 56 38.25 53.625 
Q 42.578125 51.265625 45.40625 46.390625 
z
M 14.796875 27.296875 
Q 14.796875 17.390625 18.875 11.75 
Q 22.953125 6.109375 30.078125 6.109375 
Q 37.203125 6.109375 41.296875 11.75 
Q 45.40625 17.390625 45.40625 27.296875 
Q 45.40625 37.203125 41.296875 42.84375 
Q 37.203125 48.484375 30.078125 48.484375 
Q 22.953125 48.484375 18.875 42.84375 
Q 14.796875 37.203125 14.796875 27.296875 
z
" id="DejaVuSans-100"/>
      </defs>
      <g style="fill:#262626;" transform="translate(112.401597 391.103438)rotate(-90)scale(0.154 -0.154)">
       <use xlink:href="#DejaVuSans-32"/>
       <use x="31.787109" xlink:href="#DejaVuSans-32"/>
       <use x="63.574219" xlink:href="#DejaVuSans-109"/>
       <use x="160.986328" xlink:href="#DejaVuSans-101"/>
       <use x="222.509766" xlink:href="#DejaVuSans-114"/>
       <use x="263.607422" xlink:href="#DejaVuSans-103"/>
       <use x="327.083984" xlink:href="#DejaVuSans-101"/>
       <use x="388.607422" xlink:href="#DejaVuSans-100"/>
      </g>
     </g>
    </g>
    <g id="xtick_3">
     <g id="text_3">
      <!--     prio -->
      <defs>
       <path d="M 18.109375 8.203125 
L 18.109375 -20.796875 
L 9.078125 -20.796875 
L 9.078125 54.6875 
L 18.109375 54.6875 
L 18.109375 46.390625 
Q 20.953125 51.265625 25.265625 53.625 
Q 29.59375 56 35.59375 56 
Q 45.5625 56 51.78125 48.09375 
Q 58.015625 40.1875 58.015625 27.296875 
Q 58.015625 14.40625 51.78125 6.484375 
Q 45.5625 -1.421875 35.59375 -1.421875 
Q 29.59375 -1.421875 25.265625 0.953125 
Q 20.953125 3.328125 18.109375 8.203125 
z
M 48.6875 27.296875 
Q 48.6875 37.203125 44.609375 42.84375 
Q 40.53125 48.484375 33.40625 48.484375 
Q 26.265625 48.484375 22.1875 42.84375 
Q 18.109375 37.203125 18.109375 27.296875 
Q 18.109375 17.390625 22.1875 11.75 
Q 26.265625 6.109375 33.40625 6.109375 
Q 40.53125 6.109375 44.609375 11.75 
Q 48.6875 17.390625 48.6875 27.296875 
z
" id="DejaVuSans-112"/>
       <path d="M 30.609375 48.390625 
Q 23.390625 48.390625 19.1875 42.75 
Q 14.984375 37.109375 14.984375 27.296875 
Q 14.984375 17.484375 19.15625 11.84375 
Q 23.34375 6.203125 30.609375 6.203125 
Q 37.796875 6.203125 41.984375 11.859375 
Q 46.1875 17.53125 46.1875 27.296875 
Q 46.1875 37.015625 41.984375 42.703125 
Q 37.796875 48.390625 30.609375 48.390625 
z
M 30.609375 56 
Q 42.328125 56 49.015625 48.375 
Q 55.71875 40.765625 55.71875 27.296875 
Q 55.71875 13.875 49.015625 6.21875 
Q 42.328125 -1.421875 30.609375 -1.421875 
Q 18.84375 -1.421875 12.171875 6.21875 
Q 5.515625 13.875 5.515625 27.296875 
Q 5.515625 40.765625 12.171875 48.375 
Q 18.84375 56 30.609375 56 
z
" id="DejaVuSans-111"/>
      </defs>
      <g style="fill:#262626;" transform="translate(138.407038 370.866875)rotate(-90)scale(0.154 -0.154)">
       <use xlink:href="#DejaVuSans-32"/>
       <use x="31.787109" xlink:href="#DejaVuSans-32"/>
       <use x="63.574219" xlink:href="#DejaVuSans-32"/>
       <use x="95.361328" xlink:href="#DejaVuSans-32"/>
       <use x="127.148438" xlink:href="#DejaVuSans-112"/>
       <use x="190.625" xlink:href="#DejaVuSans-114"/>
       <use x="231.738281" xlink:href="#DejaVuSans-105"/>
       <use x="259.521484" xlink:href="#DejaVuSans-111"/>
      </g>
     </g>
    </g>
    <g id="xtick_4">
     <g id="text_4">
      <!--   kmeans -->
      <defs>
       <path d="M 9.078125 75.984375 
L 18.109375 75.984375 
L 18.109375 31.109375 
L 44.921875 54.6875 
L 56.390625 54.6875 
L 27.390625 29.109375 
L 57.625 0 
L 45.90625 0 
L 18.109375 26.703125 
L 18.109375 0 
L 9.078125 0 
z
" id="DejaVuSans-107"/>
       <path d="M 34.28125 27.484375 
Q 23.390625 27.484375 19.1875 25 
Q 14.984375 22.515625 14.984375 16.5 
Q 14.984375 11.71875 18.140625 8.90625 
Q 21.296875 6.109375 26.703125 6.109375 
Q 34.1875 6.109375 38.703125 11.40625 
Q 43.21875 16.703125 43.21875 25.484375 
L 43.21875 27.484375 
z
M 52.203125 31.203125 
L 52.203125 0 
L 43.21875 0 
L 43.21875 8.296875 
Q 40.140625 3.328125 35.546875 0.953125 
Q 30.953125 -1.421875 24.3125 -1.421875 
Q 15.921875 -1.421875 10.953125 3.296875 
Q 6 8.015625 6 15.921875 
Q 6 25.140625 12.171875 29.828125 
Q 18.359375 34.515625 30.609375 34.515625 
L 43.21875 34.515625 
L 43.21875 35.40625 
Q 43.21875 41.609375 39.140625 45 
Q 35.0625 48.390625 27.6875 48.390625 
Q 23 48.390625 18.546875 47.265625 
Q 14.109375 46.140625 10.015625 43.890625 
L 10.015625 52.203125 
Q 14.9375 54.109375 19.578125 55.046875 
Q 24.21875 56 28.609375 56 
Q 40.484375 56 46.34375 49.84375 
Q 52.203125 43.703125 52.203125 31.203125 
z
" id="DejaVuSans-97"/>
       <path d="M 54.890625 33.015625 
L 54.890625 0 
L 45.90625 0 
L 45.90625 32.71875 
Q 45.90625 40.484375 42.875 44.328125 
Q 39.84375 48.1875 33.796875 48.1875 
Q 26.515625 48.1875 22.3125 43.546875 
Q 18.109375 38.921875 18.109375 30.90625 
L 18.109375 0 
L 9.078125 0 
L 9.078125 54.6875 
L 18.109375 54.6875 
L 18.109375 46.1875 
Q 21.34375 51.125 25.703125 53.5625 
Q 30.078125 56 35.796875 56 
Q 45.21875 56 50.046875 50.171875 
Q 54.890625 44.34375 54.890625 33.015625 
z
" id="DejaVuSans-110"/>
      </defs>
      <g style="fill:#262626;" transform="translate(164.412477 391.883062)rotate(-90)scale(0.154 -0.154)">
       <use xlink:href="#DejaVuSans-32"/>
       <use x="31.787109" xlink:href="#DejaVuSans-32"/>
       <use x="63.574219" xlink:href="#DejaVuSans-107"/>
       <use x="121.484375" xlink:href="#DejaVuSans-109"/>
       <use x="218.896484" xlink:href="#DejaVuSans-101"/>
       <use x="280.419922" xlink:href="#DejaVuSans-97"/>
       <use x="341.699219" xlink:href="#DejaVuSans-110"/>
       <use x="405.078125" xlink:href="#DejaVuSans-115"/>
      </g>
     </g>
    </g>
    <g id="xtick_5">
     <g id="text_5">
      <!--     base -->
      <defs>
       <path d="M 48.6875 27.296875 
Q 48.6875 37.203125 44.609375 42.84375 
Q 40.53125 48.484375 33.40625 48.484375 
Q 26.265625 48.484375 22.1875 42.84375 
Q 18.109375 37.203125 18.109375 27.296875 
Q 18.109375 17.390625 22.1875 11.75 
Q 26.265625 6.109375 33.40625 6.109375 
Q 40.53125 6.109375 44.609375 11.75 
Q 48.6875 17.390625 48.6875 27.296875 
z
M 18.109375 46.390625 
Q 20.953125 51.265625 25.265625 53.625 
Q 29.59375 56 35.59375 56 
Q 45.5625 56 51.78125 48.09375 
Q 58.015625 40.1875 58.015625 27.296875 
Q 58.015625 14.40625 51.78125 6.484375 
Q 45.5625 -1.421875 35.59375 -1.421875 
Q 29.59375 -1.421875 25.265625 0.953125 
Q 20.953125 3.328125 18.109375 8.203125 
L 18.109375 0 
L 9.078125 0 
L 9.078125 75.984375 
L 18.109375 75.984375 
z
" id="DejaVuSans-98"/>
      </defs>
      <g style="fill:#262626;" transform="translate(190.417917 377.770406)rotate(-90)scale(0.154 -0.154)">
       <use xlink:href="#DejaVuSans-32"/>
       <use x="31.787109" xlink:href="#DejaVuSans-32"/>
       <use x="63.574219" xlink:href="#DejaVuSans-32"/>
       <use x="95.361328" xlink:href="#DejaVuSans-32"/>
       <use x="127.148438" xlink:href="#DejaVuSans-98"/>
       <use x="190.625" xlink:href="#DejaVuSans-97"/>
       <use x="251.904297" xlink:href="#DejaVuSans-115"/>
       <use x="304.003906" xlink:href="#DejaVuSans-101"/>
      </g>
     </g>
    </g>
    <g id="text_6">
     <!-- method  -->
     <defs>
      <path d="M 54.890625 33.015625 
L 54.890625 0 
L 45.90625 0 
L 45.90625 32.71875 
Q 45.90625 40.484375 42.875 44.328125 
Q 39.84375 48.1875 33.796875 48.1875 
Q 26.515625 48.1875 22.3125 43.546875 
Q 18.109375 38.921875 18.109375 30.90625 
L 18.109375 0 
L 9.078125 0 
L 9.078125 75.984375 
L 18.109375 75.984375 
L 18.109375 46.1875 
Q 21.34375 51.125 25.703125 53.5625 
Q 30.078125 56 35.796875 56 
Q 45.21875 56 50.046875 50.171875 
Q 54.890625 44.34375 54.890625 33.015625 
z
" id="DejaVuSans-104"/>
     </defs>
     <g style="fill:#262626;" transform="translate(99.048225 408.648438)scale(0.168 -0.168)">
      <use xlink:href="#DejaVuSans-109"/>
      <use x="97.412109" xlink:href="#DejaVuSans-101"/>
      <use x="158.935547" xlink:href="#DejaVuSans-116"/>
      <use x="198.144531" xlink:href="#DejaVuSans-104"/>
      <use x="261.523438" xlink:href="#DejaVuSans-111"/>
      <use x="322.705078" xlink:href="#DejaVuSans-100"/>
      <use x="386.181641" xlink:href="#DejaVuSans-32"/>
     </g>
    </g>
   </g>
   <g id="matplotlib.axis_2">
    <g id="ytick_1">
     <g id="line2d_1">
      <path clip-path="url(#pc370f7bccc)" d="M 69.144 271.322682 
L 199.1712 271.322682 
" style="fill:none;stroke:#ffffff;stroke-linecap:round;"/>
     </g>
     <g id="text_7">
      <!-- 20 -->
      <defs>
       <path d="M 19.1875 8.296875 
L 53.609375 8.296875 
L 53.609375 0 
L 7.328125 0 
L 7.328125 8.296875 
Q 12.9375 14.109375 22.625 23.890625 
Q 32.328125 33.6875 34.8125 36.53125 
Q 39.546875 41.84375 41.421875 45.53125 
Q 43.3125 49.21875 43.3125 52.78125 
Q 43.3125 58.59375 39.234375 62.25 
Q 35.15625 65.921875 28.609375 65.921875 
Q 23.96875 65.921875 18.8125 64.3125 
Q 13.671875 62.703125 7.8125 59.421875 
L 7.8125 69.390625 
Q 13.765625 71.78125 18.9375 73 
Q 24.125 74.21875 28.421875 74.21875 
Q 39.75 74.21875 46.484375 68.546875 
Q 53.21875 62.890625 53.21875 53.421875 
Q 53.21875 48.921875 51.53125 44.890625 
Q 49.859375 40.875 45.40625 35.40625 
Q 44.1875 33.984375 37.640625 27.21875 
Q 31.109375 20.453125 19.1875 8.296875 
z
" id="DejaVuSans-50"/>
       <path d="M 31.78125 66.40625 
Q 24.171875 66.40625 20.328125 58.90625 
Q 16.5 51.421875 16.5 36.375 
Q 16.5 21.390625 20.328125 13.890625 
Q 24.171875 6.390625 31.78125 6.390625 
Q 39.453125 6.390625 43.28125 13.890625 
Q 47.125 21.390625 47.125 36.375 
Q 47.125 51.421875 43.28125 58.90625 
Q 39.453125 66.40625 31.78125 66.40625 
z
M 31.78125 74.21875 
Q 44.046875 74.21875 50.515625 64.515625 
Q 56.984375 54.828125 56.984375 36.375 
Q 56.984375 17.96875 50.515625 8.265625 
Q 44.046875 -1.421875 31.78125 -1.421875 
Q 19.53125 -1.421875 13.0625 8.265625 
Q 6.59375 17.96875 6.59375 36.375 
Q 6.59375 54.828125 13.0625 64.515625 
Q 19.53125 74.21875 31.78125 74.21875 
z
" id="DejaVuSans-48"/>
      </defs>
      <g style="fill:#262626;" transform="translate(40.0475 277.173479)scale(0.154 -0.154)">
       <use xlink:href="#DejaVuSans-50"/>
       <use x="63.623047" xlink:href="#DejaVuSans-48"/>
      </g>
     </g>
    </g>
    <g id="ytick_2">
     <g id="line2d_2">
      <path clip-path="url(#pc370f7bccc)" d="M 69.144 219.508991 
L 199.1712 219.508991 
" style="fill:none;stroke:#ffffff;stroke-linecap:round;"/>
     </g>
     <g id="text_8">
      <!-- 30 -->
      <defs>
       <path d="M 40.578125 39.3125 
Q 47.65625 37.796875 51.625 33 
Q 55.609375 28.21875 55.609375 21.1875 
Q 55.609375 10.40625 48.1875 4.484375 
Q 40.765625 -1.421875 27.09375 -1.421875 
Q 22.515625 -1.421875 17.65625 -0.515625 
Q 12.796875 0.390625 7.625 2.203125 
L 7.625 11.71875 
Q 11.71875 9.328125 16.59375 8.109375 
Q 21.484375 6.890625 26.8125 6.890625 
Q 36.078125 6.890625 40.9375 10.546875 
Q 45.796875 14.203125 45.796875 21.1875 
Q 45.796875 27.640625 41.28125 31.265625 
Q 36.765625 34.90625 28.71875 34.90625 
L 20.21875 34.90625 
L 20.21875 43.015625 
L 29.109375 43.015625 
Q 36.375 43.015625 40.234375 45.921875 
Q 44.09375 48.828125 44.09375 54.296875 
Q 44.09375 59.90625 40.109375 62.90625 
Q 36.140625 65.921875 28.71875 65.921875 
Q 24.65625 65.921875 20.015625 65.03125 
Q 15.375 64.15625 9.8125 62.3125 
L 9.8125 71.09375 
Q 15.4375 72.65625 20.34375 73.4375 
Q 25.25 74.21875 29.59375 74.21875 
Q 40.828125 74.21875 47.359375 69.109375 
Q 53.90625 64.015625 53.90625 55.328125 
Q 53.90625 49.265625 50.4375 45.09375 
Q 46.96875 40.921875 40.578125 39.3125 
z
" id="DejaVuSans-51"/>
      </defs>
      <g style="fill:#262626;" transform="translate(40.0475 225.359788)scale(0.154 -0.154)">
       <use xlink:href="#DejaVuSans-51"/>
       <use x="63.623047" xlink:href="#DejaVuSans-48"/>
      </g>
     </g>
    </g>
    <g id="ytick_3">
     <g id="line2d_3">
      <path clip-path="url(#pc370f7bccc)" d="M 69.144 167.6953 
L 199.1712 167.6953 
" style="fill:none;stroke:#ffffff;stroke-linecap:round;"/>
     </g>
     <g id="text_9">
      <!-- 40 -->
      <defs>
       <path d="M 37.796875 64.3125 
L 12.890625 25.390625 
L 37.796875 25.390625 
z
M 35.203125 72.90625 
L 47.609375 72.90625 
L 47.609375 25.390625 
L 58.015625 25.390625 
L 58.015625 17.1875 
L 47.609375 17.1875 
L 47.609375 0 
L 37.796875 0 
L 37.796875 17.1875 
L 4.890625 17.1875 
L 4.890625 26.703125 
z
" id="DejaVuSans-52"/>
      </defs>
      <g style="fill:#262626;" transform="translate(40.0475 173.546097)scale(0.154 -0.154)">
       <use xlink:href="#DejaVuSans-52"/>
       <use x="63.623047" xlink:href="#DejaVuSans-48"/>
      </g>
     </g>
    </g>
    <g id="ytick_4">
     <g id="line2d_4">
      <path clip-path="url(#pc370f7bccc)" d="M 69.144 115.881609 
L 199.1712 115.881609 
" style="fill:none;stroke:#ffffff;stroke-linecap:round;"/>
     </g>
     <g id="text_10">
      <!-- 50 -->
      <defs>
       <path d="M 10.796875 72.90625 
L 49.515625 72.90625 
L 49.515625 64.59375 
L 19.828125 64.59375 
L 19.828125 46.734375 
Q 21.96875 47.46875 24.109375 47.828125 
Q 26.265625 48.1875 28.421875 48.1875 
Q 40.625 48.1875 47.75 41.5 
Q 54.890625 34.8125 54.890625 23.390625 
Q 54.890625 11.625 47.5625 5.09375 
Q 40.234375 -1.421875 26.90625 -1.421875 
Q 22.3125 -1.421875 17.546875 -0.640625 
Q 12.796875 0.140625 7.71875 1.703125 
L 7.71875 11.625 
Q 12.109375 9.234375 16.796875 8.0625 
Q 21.484375 6.890625 26.703125 6.890625 
Q 35.15625 6.890625 40.078125 11.328125 
Q 45.015625 15.765625 45.015625 23.390625 
Q 45.015625 31 40.078125 35.4375 
Q 35.15625 39.890625 26.703125 39.890625 
Q 22.75 39.890625 18.8125 39.015625 
Q 14.890625 38.140625 10.796875 36.28125 
z
" id="DejaVuSans-53"/>
      </defs>
      <g style="fill:#262626;" transform="translate(40.0475 121.732406)scale(0.154 -0.154)">
       <use xlink:href="#DejaVuSans-53"/>
       <use x="63.623047" xlink:href="#DejaVuSans-48"/>
      </g>
     </g>
    </g>
    <g id="ytick_5">
     <g id="line2d_5">
      <path clip-path="url(#pc370f7bccc)" d="M 69.144 64.067918 
L 199.1712 64.067918 
" style="fill:none;stroke:#ffffff;stroke-linecap:round;"/>
     </g>
     <g id="text_11">
      <!-- 60 -->
      <defs>
       <path d="M 33.015625 40.375 
Q 26.375 40.375 22.484375 35.828125 
Q 18.609375 31.296875 18.609375 23.390625 
Q 18.609375 15.53125 22.484375 10.953125 
Q 26.375 6.390625 33.015625 6.390625 
Q 39.65625 6.390625 43.53125 10.953125 
Q 47.40625 15.53125 47.40625 23.390625 
Q 47.40625 31.296875 43.53125 35.828125 
Q 39.65625 40.375 33.015625 40.375 
z
M 52.59375 71.296875 
L 52.59375 62.3125 
Q 48.875 64.0625 45.09375 64.984375 
Q 41.3125 65.921875 37.59375 65.921875 
Q 27.828125 65.921875 22.671875 59.328125 
Q 17.53125 52.734375 16.796875 39.40625 
Q 19.671875 43.65625 24.015625 45.921875 
Q 28.375 48.1875 33.59375 48.1875 
Q 44.578125 48.1875 50.953125 41.515625 
Q 57.328125 34.859375 57.328125 23.390625 
Q 57.328125 12.15625 50.6875 5.359375 
Q 44.046875 -1.421875 33.015625 -1.421875 
Q 20.359375 -1.421875 13.671875 8.265625 
Q 6.984375 17.96875 6.984375 36.375 
Q 6.984375 53.65625 15.1875 63.9375 
Q 23.390625 74.21875 37.203125 74.21875 
Q 40.921875 74.21875 44.703125 73.484375 
Q 48.484375 72.75 52.59375 71.296875 
z
" id="DejaVuSans-54"/>
      </defs>
      <g style="fill:#262626;" transform="translate(40.0475 69.918715)scale(0.154 -0.154)">
       <use xlink:href="#DejaVuSans-54"/>
       <use x="63.623047" xlink:href="#DejaVuSans-48"/>
      </g>
     </g>
    </g>
    <g id="text_12">
     <!-- hitrate -->
     <g style="fill:#262626;" transform="translate(32.553625 203.075187)rotate(-90)scale(0.168 -0.168)">
      <use xlink:href="#DejaVuSans-104"/>
      <use x="63.378906" xlink:href="#DejaVuSans-105"/>
      <use x="91.162109" xlink:href="#DejaVuSans-116"/>
      <use x="130.371094" xlink:href="#DejaVuSans-114"/>
      <use x="171.484375" xlink:href="#DejaVuSans-97"/>
      <use x="232.763672" xlink:href="#DejaVuSans-116"/>
      <use x="271.972656" xlink:href="#DejaVuSans-101"/>
     </g>
    </g>
   </g>
   <g id="PathCollection_1">
    <defs>
     <path d="M -0 4.242641 
L 2.545584 0 
L 0 -4.242641 
L -2.545584 -0 
z
" id="mfe7752e133" style="stroke:#c282b5;"/>
    </defs>
    <g clip-path="url(#pc370f7bccc)">
     <use style="fill:#c282b5;stroke:#c282b5;" x="186.16848" xlink:href="#mfe7752e133" y="297.229528"/>
     <use style="fill:#c282b5;stroke:#c282b5;" x="186.16848" xlink:href="#mfe7752e133" y="297.229528"/>
     <use style="fill:#c282b5;stroke:#c282b5;" x="186.16848" xlink:href="#mfe7752e133" y="297.229528"/>
     <use style="fill:#c282b5;stroke:#c282b5;" x="186.16848" xlink:href="#mfe7752e133" y="297.229528"/>
     <use style="fill:#c282b5;stroke:#c282b5;" x="186.16848" xlink:href="#mfe7752e133" y="152.151193"/>
     <use style="fill:#c282b5;stroke:#c282b5;" x="186.16848" xlink:href="#mfe7752e133" y="157.332562"/>
    </g>
   </g>
   <g id="PatchCollection_1">
    <path clip-path="url(#pc370f7bccc)" d="M 186.127846 296.080923 
L 186.209114 296.080923 
L 186.209114 172.876669 
L 186.127846 172.876669 
z
" style="fill:#ffffff;stroke:#ffffff;"/>
    <path clip-path="url(#pc370f7bccc)" d="M 186.087213 292.048159 
L 186.249747 292.048159 
L 186.249747 175.173878 
L 186.087213 175.173878 
z
" style="fill:#f7eff6;stroke:#ffffff;"/>
    <path clip-path="url(#pc370f7bccc)" d="M 186.005946 286.86679 
L 186.331014 286.86679 
L 186.331014 183.239408 
L 186.005946 183.239408 
z
" style="fill:#f0e0ed;stroke:#ffffff;"/>
    <path clip-path="url(#pc370f7bccc)" d="M 185.843412 281.68542 
L 186.493548 281.68542 
L 186.493548 193.602146 
L 185.843412 193.602146 
z
" style="fill:#e8d0e3;stroke:#ffffff;"/>
    <path clip-path="url(#pc370f7bccc)" d="M 185.518344 276.504051 
L 186.818616 276.504051 
L 186.818616 198.783515 
L 185.518344 198.783515 
z
" style="fill:#e0c1da;stroke:#ffffff;"/>
    <path clip-path="url(#pc370f7bccc)" d="M 184.868208 271.322682 
L 187.468752 271.322682 
L 187.468752 203.964884 
L 184.868208 203.964884 
z
" style="fill:#d8b1d1;stroke:#ffffff;"/>
    <path clip-path="url(#pc370f7bccc)" d="M 183.567936 263.032492 
L 188.769024 263.032492 
L 188.769024 214.327622 
L 183.567936 214.327622 
z
" style="fill:#d1a1c8;stroke:#ffffff;"/>
    <path clip-path="url(#pc370f7bccc)" d="M 180.967392 256.518771 
L 191.369568 256.518771 
L 191.369568 220.989383 
L 180.967392 220.989383 
z
" style="fill:#c992be;stroke:#ffffff;"/>
    <path clip-path="url(#pc370f7bccc)" d="M 175.766304 249.215507 
L 196.570656 249.215507 
L 196.570656 229.87173 
L 175.766304 229.87173 
z
" style="fill:#c282b5;stroke:#ffffff;"/>
   </g>
   <g id="line2d_6">
    <path clip-path="url(#pc370f7bccc)" d="M 175.766304 239.543619 
L 196.570656 239.543619 
" style="fill:none;stroke:#262626;stroke-linecap:round;stroke-opacity:0.45;stroke-width:1.5;"/>
   </g>
   <g id="patch_3">
    <path d="M 69.144 311.981 
L 69.144 38.144 
" style="fill:none;stroke:#ffffff;stroke-linecap:square;stroke-linejoin:miter;stroke-width:1.25;"/>
   </g>
   <g id="patch_4">
    <path d="M 69.144 311.981 
L 199.1712 311.981 
" style="fill:none;stroke:#ffffff;stroke-linecap:square;stroke-linejoin:miter;stroke-width:1.25;"/>
   </g>
   <g id="text_13">
    <!-- clusters = 1 -->
    <defs>
     <path d="M 48.78125 52.59375 
L 48.78125 44.1875 
Q 44.96875 46.296875 41.140625 47.34375 
Q 37.3125 48.390625 33.40625 48.390625 
Q 24.65625 48.390625 19.8125 42.84375 
Q 14.984375 37.3125 14.984375 27.296875 
Q 14.984375 17.28125 19.8125 11.734375 
Q 24.65625 6.203125 33.40625 6.203125 
Q 37.3125 6.203125 41.140625 7.25 
Q 44.96875 8.296875 48.78125 10.40625 
L 48.78125 2.09375 
Q 45.015625 0.34375 40.984375 -0.53125 
Q 36.96875 -1.421875 32.421875 -1.421875 
Q 20.0625 -1.421875 12.78125 6.34375 
Q 5.515625 14.109375 5.515625 27.296875 
Q 5.515625 40.671875 12.859375 48.328125 
Q 20.21875 56 33.015625 56 
Q 37.15625 56 41.109375 55.140625 
Q 45.0625 54.296875 48.78125 52.59375 
z
" id="DejaVuSans-99"/>
     <path d="M 9.421875 75.984375 
L 18.40625 75.984375 
L 18.40625 0 
L 9.421875 0 
z
" id="DejaVuSans-108"/>
     <path d="M 8.5 21.578125 
L 8.5 54.6875 
L 17.484375 54.6875 
L 17.484375 21.921875 
Q 17.484375 14.15625 20.5 10.265625 
Q 23.53125 6.390625 29.59375 6.390625 
Q 36.859375 6.390625 41.078125 11.03125 
Q 45.3125 15.671875 45.3125 23.6875 
L 45.3125 54.6875 
L 54.296875 54.6875 
L 54.296875 0 
L 45.3125 0 
L 45.3125 8.40625 
Q 42.046875 3.421875 37.71875 1 
Q 33.40625 -1.421875 27.6875 -1.421875 
Q 18.265625 -1.421875 13.375 4.4375 
Q 8.5 10.296875 8.5 21.578125 
z
M 31.109375 56 
z
" id="DejaVuSans-117"/>
     <path d="M 10.59375 45.40625 
L 73.1875 45.40625 
L 73.1875 37.203125 
L 10.59375 37.203125 
z
M 10.59375 25.484375 
L 73.1875 25.484375 
L 73.1875 17.1875 
L 10.59375 17.1875 
z
" id="DejaVuSans-61"/>
     <path d="M 12.40625 8.296875 
L 28.515625 8.296875 
L 28.515625 63.921875 
L 10.984375 60.40625 
L 10.984375 69.390625 
L 28.421875 72.90625 
L 38.28125 72.90625 
L 38.28125 8.296875 
L 54.390625 8.296875 
L 54.390625 0 
L 12.40625 0 
z
" id="DejaVuSans-49"/>
    </defs>
    <g style="fill:#262626;" transform="translate(83.492475 32.144)scale(0.168 -0.168)">
     <use xlink:href="#DejaVuSans-99"/>
     <use x="54.980469" xlink:href="#DejaVuSans-108"/>
     <use x="82.763672" xlink:href="#DejaVuSans-117"/>
     <use x="146.142578" xlink:href="#DejaVuSans-115"/>
     <use x="198.242188" xlink:href="#DejaVuSans-116"/>
     <use x="237.451172" xlink:href="#DejaVuSans-101"/>
     <use x="298.974609" xlink:href="#DejaVuSans-114"/>
     <use x="340.087891" xlink:href="#DejaVuSans-115"/>
     <use x="392.1875" xlink:href="#DejaVuSans-32"/>
     <use x="423.974609" xlink:href="#DejaVuSans-61"/>
     <use x="507.763672" xlink:href="#DejaVuSans-32"/>
     <use x="539.550781" xlink:href="#DejaVuSans-49"/>
    </g>
   </g>
  </g>
  <g id="axes_2">
   <g id="patch_5">
    <path d="M 229.3152 311.981 
L 359.3424 311.981 
L 359.3424 38.144 
L 229.3152 38.144 
z
" style="fill:#eaeaf2;"/>
   </g>
   <g id="matplotlib.axis_3">
    <g id="xtick_6">
     <g id="text_14">
      <!--    metis -->
      <g style="fill:#262626;" transform="translate(246.567357 378.978344)rotate(-90)scale(0.154 -0.154)">
       <use xlink:href="#DejaVuSans-32"/>
       <use x="31.787109" xlink:href="#DejaVuSans-32"/>
       <use x="63.574219" xlink:href="#DejaVuSans-32"/>
       <use x="95.361328" xlink:href="#DejaVuSans-109"/>
       <use x="192.773438" xlink:href="#DejaVuSans-101"/>
       <use x="254.296875" xlink:href="#DejaVuSans-116"/>
       <use x="293.505859" xlink:href="#DejaVuSans-105"/>
       <use x="321.289062" xlink:href="#DejaVuSans-115"/>
      </g>
     </g>
    </g>
    <g id="xtick_7">
     <g id="text_15">
      <!--   merged -->
      <g style="fill:#262626;" transform="translate(272.572797 391.103438)rotate(-90)scale(0.154 -0.154)">
       <use xlink:href="#DejaVuSans-32"/>
       <use x="31.787109" xlink:href="#DejaVuSans-32"/>
       <use x="63.574219" xlink:href="#DejaVuSans-109"/>
       <use x="160.986328" xlink:href="#DejaVuSans-101"/>
       <use x="222.509766" xlink:href="#DejaVuSans-114"/>
       <use x="263.607422" xlink:href="#DejaVuSans-103"/>
       <use x="327.083984" xlink:href="#DejaVuSans-101"/>
       <use x="388.607422" xlink:href="#DejaVuSans-100"/>
      </g>
     </g>
    </g>
    <g id="xtick_8">
     <g id="text_16">
      <!--     prio -->
      <g style="fill:#262626;" transform="translate(298.578237 370.866875)rotate(-90)scale(0.154 -0.154)">
       <use xlink:href="#DejaVuSans-32"/>
       <use x="31.787109" xlink:href="#DejaVuSans-32"/>
       <use x="63.574219" xlink:href="#DejaVuSans-32"/>
       <use x="95.361328" xlink:href="#DejaVuSans-32"/>
       <use x="127.148438" xlink:href="#DejaVuSans-112"/>
       <use x="190.625" xlink:href="#DejaVuSans-114"/>
       <use x="231.738281" xlink:href="#DejaVuSans-105"/>
       <use x="259.521484" xlink:href="#DejaVuSans-111"/>
      </g>
     </g>
    </g>
    <g id="xtick_9">
     <g id="text_17">
      <!--   kmeans -->
      <g style="fill:#262626;" transform="translate(324.583677 391.883062)rotate(-90)scale(0.154 -0.154)">
       <use xlink:href="#DejaVuSans-32"/>
       <use x="31.787109" xlink:href="#DejaVuSans-32"/>
       <use x="63.574219" xlink:href="#DejaVuSans-107"/>
       <use x="121.484375" xlink:href="#DejaVuSans-109"/>
       <use x="218.896484" xlink:href="#DejaVuSans-101"/>
       <use x="280.419922" xlink:href="#DejaVuSans-97"/>
       <use x="341.699219" xlink:href="#DejaVuSans-110"/>
       <use x="405.078125" xlink:href="#DejaVuSans-115"/>
      </g>
     </g>
    </g>
    <g id="xtick_10">
     <g id="text_18">
      <!--     base -->
      <g style="fill:#262626;" transform="translate(350.589117 377.770406)rotate(-90)scale(0.154 -0.154)">
       <use xlink:href="#DejaVuSans-32"/>
       <use x="31.787109" xlink:href="#DejaVuSans-32"/>
       <use x="63.574219" xlink:href="#DejaVuSans-32"/>
       <use x="95.361328" xlink:href="#DejaVuSans-32"/>
       <use x="127.148438" xlink:href="#DejaVuSans-98"/>
       <use x="190.625" xlink:href="#DejaVuSans-97"/>
       <use x="251.904297" xlink:href="#DejaVuSans-115"/>
       <use x="304.003906" xlink:href="#DejaVuSans-101"/>
      </g>
     </g>
    </g>
    <g id="text_19">
     <!-- method  -->
     <g style="fill:#262626;" transform="translate(259.219425 408.648438)scale(0.168 -0.168)">
      <use xlink:href="#DejaVuSans-109"/>
      <use x="97.412109" xlink:href="#DejaVuSans-101"/>
      <use x="158.935547" xlink:href="#DejaVuSans-116"/>
      <use x="198.144531" xlink:href="#DejaVuSans-104"/>
      <use x="261.523438" xlink:href="#DejaVuSans-111"/>
      <use x="322.705078" xlink:href="#DejaVuSans-100"/>
      <use x="386.181641" xlink:href="#DejaVuSans-32"/>
     </g>
    </g>
   </g>
   <g id="matplotlib.axis_4">
    <g id="ytick_6">
     <g id="line2d_7">
      <path clip-path="url(#p025a8cb4e5)" d="M 229.3152 271.322682 
L 359.3424 271.322682 
" style="fill:none;stroke:#ffffff;stroke-linecap:round;"/>
     </g>
    </g>
    <g id="ytick_7">
     <g id="line2d_8">
      <path clip-path="url(#p025a8cb4e5)" d="M 229.3152 219.508991 
L 359.3424 219.508991 
" style="fill:none;stroke:#ffffff;stroke-linecap:round;"/>
     </g>
    </g>
    <g id="ytick_8">
     <g id="line2d_9">
      <path clip-path="url(#p025a8cb4e5)" d="M 229.3152 167.6953 
L 359.3424 167.6953 
" style="fill:none;stroke:#ffffff;stroke-linecap:round;"/>
     </g>
    </g>
    <g id="ytick_9">
     <g id="line2d_10">
      <path clip-path="url(#p025a8cb4e5)" d="M 229.3152 115.881609 
L 359.3424 115.881609 
" style="fill:none;stroke:#ffffff;stroke-linecap:round;"/>
     </g>
    </g>
    <g id="ytick_10">
     <g id="line2d_11">
      <path clip-path="url(#p025a8cb4e5)" d="M 229.3152 64.067918 
L 359.3424 64.067918 
" style="fill:none;stroke:#ffffff;stroke-linecap:round;"/>
     </g>
    </g>
   </g>
   <g id="PathCollection_2">
    <defs>
     <path d="M -0 4.242641 
L 2.545584 0 
L 0 -4.242641 
L -2.545584 -0 
z
" id="m6ead7b1816" style="stroke:#176d9c;"/>
    </defs>
    <g clip-path="url(#p025a8cb4e5)">
     <use style="fill:#176d9c;stroke:#176d9c;" x="242.31792" xlink:href="#m6ead7b1816" y="292.048159"/>
     <use style="fill:#176d9c;stroke:#176d9c;" x="242.31792" xlink:href="#m6ead7b1816" y="292.048159"/>
     <use style="fill:#176d9c;stroke:#176d9c;" x="242.31792" xlink:href="#m6ead7b1816" y="292.048159"/>
     <use style="fill:#176d9c;stroke:#176d9c;" x="242.31792" xlink:href="#m6ead7b1816" y="152.151193"/>
     <use style="fill:#176d9c;stroke:#176d9c;" x="242.31792" xlink:href="#m6ead7b1816" y="141.788455"/>
     <use style="fill:#176d9c;stroke:#176d9c;" x="242.31792" xlink:href="#m6ead7b1816" y="152.151193"/>
    </g>
   </g>
   <g id="PatchCollection_2">
    <path clip-path="url(#p025a8cb4e5)" d="M 242.277286 286.86679 
L 242.358553 286.86679 
L 242.358553 157.332562 
L 242.277286 157.332562 
z
" style="fill:#ffffff;stroke:#ffffff;"/>
    <path clip-path="url(#p025a8cb4e5)" d="M 242.236653 281.029075 
L 242.399187 281.029075 
L 242.399187 159.629771 
L 242.236653 159.629771 
z
" style="fill:#e2edf3;stroke:#ffffff;"/>
    <path clip-path="url(#p025a8cb4e5)" d="M 242.155386 276.504051 
L 242.480454 276.504051 
L 242.480454 167.359899 
L 242.155386 167.359899 
z
" style="fill:#c5dae6;stroke:#ffffff;"/>
    <path clip-path="url(#p025a8cb4e5)" d="M 241.992852 271.322682 
L 242.642988 271.322682 
L 242.642988 172.876669 
L 241.992852 172.876669 
z
" style="fill:#a8c8da;stroke:#ffffff;"/>
    <path clip-path="url(#p025a8cb4e5)" d="M 241.667784 260.959944 
L 242.968056 260.959944 
L 242.968056 178.058039 
L 241.667784 178.058039 
z
" style="fill:#8bb6cd;stroke:#ffffff;"/>
    <path clip-path="url(#p025a8cb4e5)" d="M 241.017648 255.778575 
L 243.618192 255.778575 
L 243.618192 185.459994 
L 241.017648 185.459994 
z
" style="fill:#6ea3c1;stroke:#ffffff;"/>
    <path clip-path="url(#p025a8cb4e5)" d="M 239.717376 247.636424 
L 244.918464 247.636424 
L 244.918464 193.602146 
L 239.717376 193.602146 
z
" style="fill:#5091b4;stroke:#ffffff;"/>
    <path clip-path="url(#p025a8cb4e5)" d="M 237.116832 240.234468 
L 247.519008 240.234468 
L 247.519008 203.619459 
L 237.116832 203.619459 
z
" style="fill:#337ea8;stroke:#ffffff;"/>
    <path clip-path="url(#p025a8cb4e5)" d="M 231.915744 231.944277 
L 252.720096 231.944277 
L 252.720096 211.90965 
L 231.915744 211.90965 
z
" style="fill:#176d9c;stroke:#ffffff;"/>
   </g>
   <g id="PathCollection_3">
    <defs>
     <path d="M -0 4.242641 
L 2.545584 0 
L 0 -4.242641 
L -2.545584 -0 
z
" id="m1a0075f2e8" style="stroke:#c38820;"/>
    </defs>
    <g clip-path="url(#p025a8cb4e5)">
     <use style="fill:#c38820;stroke:#c38820;" x="268.32336" xlink:href="#m1a0075f2e8" y="286.86679"/>
     <use style="fill:#c38820;stroke:#c38820;" x="268.32336" xlink:href="#m1a0075f2e8" y="286.86679"/>
     <use style="fill:#c38820;stroke:#c38820;" x="268.32336" xlink:href="#m1a0075f2e8" y="152.151193"/>
     <use style="fill:#c38820;stroke:#c38820;" x="268.32336" xlink:href="#m1a0075f2e8" y="136.607086"/>
     <use style="fill:#c38820;stroke:#c38820;" x="268.32336" xlink:href="#m1a0075f2e8" y="152.151193"/>
     <use style="fill:#c38820;stroke:#c38820;" x="268.32336" xlink:href="#m1a0075f2e8" y="141.788455"/>
    </g>
   </g>
   <g id="PatchCollection_3">
    <path clip-path="url(#p025a8cb4e5)" d="M 268.282726 281.68542 
L 268.363993 281.68542 
L 268.363993 153.299797 
L 268.282726 153.299797 
z
" style="fill:#ffffff;stroke:#ffffff;"/>
    <path clip-path="url(#p025a8cb4e5)" d="M 268.242093 276.504051 
L 268.404627 276.504051 
L 268.404627 162.513931 
L 268.242093 162.513931 
z
" style="fill:#f7f0e3;stroke:#ffffff;"/>
    <path clip-path="url(#p025a8cb4e5)" d="M 268.160826 276.504051 
L 268.485894 276.504051 
L 268.485894 164.482967 
L 268.160826 164.482967 
z
" style="fill:#f0e1c7;stroke:#ffffff;"/>
    <path clip-path="url(#p025a8cb4e5)" d="M 267.998292 269.032702 
L 268.648428 269.032702 
L 268.648428 172.876669 
L 267.998292 172.876669 
z
" style="fill:#e8d2ab;stroke:#ffffff;"/>
    <path clip-path="url(#p025a8cb4e5)" d="M 267.673224 260.959944 
L 268.973496 260.959944 
L 268.973496 178.058039 
L 267.673224 178.058039 
z
" style="fill:#e1c38f;stroke:#ffffff;"/>
    <path clip-path="url(#p025a8cb4e5)" d="M 267.023088 255.778575 
L 269.623632 255.778575 
L 269.623632 188.420777 
L 267.023088 188.420777 
z
" style="fill:#d9b473;stroke:#ffffff;"/>
    <path clip-path="url(#p025a8cb4e5)" d="M 265.722816 247.636424 
L 270.923904 247.636424 
L 270.923904 193.602146 
L 265.722816 193.602146 
z
" style="fill:#d2a557;stroke:#ffffff;"/>
    <path clip-path="url(#p025a8cb4e5)" d="M 263.122272 240.234468 
L 273.524448 240.234468 
L 273.524448 203.224688 
L 263.122272 203.224688 
z
" style="fill:#ca963b;stroke:#ffffff;"/>
    <path clip-path="url(#p025a8cb4e5)" d="M 257.921184 231.944277 
L 278.725536 231.944277 
L 278.725536 211.218801 
L 257.921184 211.218801 
z
" style="fill:#c38820;stroke:#ffffff;"/>
   </g>
   <g id="PathCollection_4">
    <defs>
     <path d="M -0 4.242641 
L 2.545584 0 
L 0 -4.242641 
L -2.545584 -0 
z
" id="m7b31e6822b" style="stroke:#158b6a;"/>
    </defs>
    <g clip-path="url(#p025a8cb4e5)">
     <use style="fill:#158b6a;stroke:#158b6a;" x="294.3288" xlink:href="#m7b31e6822b" y="286.86679"/>
     <use style="fill:#158b6a;stroke:#158b6a;" x="294.3288" xlink:href="#m7b31e6822b" y="292.048159"/>
     <use style="fill:#158b6a;stroke:#158b6a;" x="294.3288" xlink:href="#m7b31e6822b" y="292.048159"/>
     <use style="fill:#158b6a;stroke:#158b6a;" x="294.3288" xlink:href="#m7b31e6822b" y="297.229528"/>
     <use style="fill:#158b6a;stroke:#158b6a;" x="294.3288" xlink:href="#m7b31e6822b" y="121.062979"/>
     <use style="fill:#158b6a;stroke:#158b6a;" x="294.3288" xlink:href="#m7b31e6822b" y="136.607086"/>
     <use style="fill:#158b6a;stroke:#158b6a;" x="294.3288" xlink:href="#m7b31e6822b" y="136.607086"/>
     <use style="fill:#158b6a;stroke:#158b6a;" x="294.3288" xlink:href="#m7b31e6822b" y="136.607086"/>
    </g>
   </g>
   <g id="PatchCollection_4">
    <path clip-path="url(#p025a8cb4e5)" d="M 294.288166 283.18822 
L 294.369433 283.18822 
L 294.369433 140.285655 
L 294.288166 140.285655 
z
" style="fill:#ffffff;stroke:#ffffff;"/>
    <path clip-path="url(#p025a8cb4e5)" d="M 294.247533 276.504051 
L 294.410067 276.504051 
L 294.410067 152.151193 
L 294.247533 152.151193 
z
" style="fill:#e2f0ec;stroke:#ffffff;"/>
    <path clip-path="url(#p025a8cb4e5)" d="M 294.166266 271.322682 
L 294.491334 271.322682 
L 294.491334 162.513931 
L 294.166266 162.513931 
z
" style="fill:#c4e2da;stroke:#ffffff;"/>
    <path clip-path="url(#p025a8cb4e5)" d="M 294.003732 266.141313 
L 294.653868 266.141313 
L 294.653868 167.6953 
L 294.003732 167.6953 
z
" style="fill:#a7d3c7;stroke:#ffffff;"/>
    <path clip-path="url(#p025a8cb4e5)" d="M 293.678664 260.959944 
L 294.978936 260.959944 
L 294.978936 178.058039 
L 293.678664 178.058039 
z
" style="fill:#8ac5b4;stroke:#ffffff;"/>
    <path clip-path="url(#p025a8cb4e5)" d="M 293.028528 250.597206 
L 295.629072 250.597206 
L 295.629072 183.239408 
L 293.028528 183.239408 
z
" style="fill:#6cb6a2;stroke:#ffffff;"/>
    <path clip-path="url(#p025a8cb4e5)" d="M 291.728256 244.379563 
L 296.929344 244.379563 
L 296.929344 191.381559 
L 291.728256 191.381559 
z
" style="fill:#4fa78f;stroke:#ffffff;"/>
    <path clip-path="url(#p025a8cb4e5)" d="M 289.127712 235.053099 
L 299.529888 235.053099 
L 299.529888 199.301652 
L 289.127712 199.301652 
z
" style="fill:#32997c;stroke:#ffffff;"/>
    <path clip-path="url(#p025a8cb4e5)" d="M 283.926624 227.108333 
L 304.730976 227.108333 
L 304.730976 209.146253 
L 283.926624 209.146253 
z
" style="fill:#158b6a;stroke:#ffffff;"/>
   </g>
   <g id="PathCollection_5">
    <defs>
     <path d="M -0 4.242641 
L 2.545584 0 
L 0 -4.242641 
L -2.545584 -0 
z
" id="m0db526b68e" style="stroke:#ba611b;"/>
    </defs>
    <g clip-path="url(#p025a8cb4e5)">
     <use style="fill:#ba611b;stroke:#ba611b;" x="320.33424" xlink:href="#m0db526b68e" y="292.048159"/>
     <use style="fill:#ba611b;stroke:#ba611b;" x="320.33424" xlink:href="#m0db526b68e" y="292.048159"/>
     <use style="fill:#ba611b;stroke:#ba611b;" x="320.33424" xlink:href="#m0db526b68e" y="162.513931"/>
     <use style="fill:#ba611b;stroke:#ba611b;" x="320.33424" xlink:href="#m0db526b68e" y="146.969824"/>
    </g>
   </g>
   <g id="PatchCollection_5">
    <path clip-path="url(#p025a8cb4e5)" d="M 320.293606 286.86679 
L 320.374873 286.86679 
L 320.374873 167.6953 
L 320.293606 167.6953 
z
" style="fill:#ffffff;stroke:#ffffff;"/>
    <path clip-path="url(#p025a8cb4e5)" d="M 320.252973 284.569581 
L 320.415507 284.569581 
L 320.415507 172.876669 
L 320.252973 172.876669 
z
" style="fill:#f6ebe2;stroke:#ffffff;"/>
    <path clip-path="url(#p025a8cb4e5)" d="M 320.171706 281.68542 
L 320.496774 281.68542 
L 320.496774 172.876669 
L 320.171706 172.876669 
z
" style="fill:#eed7c6;stroke:#ffffff;"/>
    <path clip-path="url(#p025a8cb4e5)" d="M 320.009172 276.504051 
L 320.659308 276.504051 
L 320.659308 178.058039 
L 320.009172 178.058039 
z
" style="fill:#e5c4a9;stroke:#ffffff;"/>
    <path clip-path="url(#p025a8cb4e5)" d="M 319.684104 266.141313 
L 320.984376 266.141313 
L 320.984376 188.420777 
L 319.684104 188.420777 
z
" style="fill:#ddb08c;stroke:#ffffff;"/>
    <path clip-path="url(#p025a8cb4e5)" d="M 319.033968 260.269095 
L 321.634512 260.269095 
L 321.634512 193.602146 
L 319.033968 193.602146 
z
" style="fill:#d49c70;stroke:#ffffff;"/>
    <path clip-path="url(#p025a8cb4e5)" d="M 317.733696 251.978904 
L 322.934784 251.978904 
L 322.934784 202.92861 
L 317.733696 202.92861 
z
" style="fill:#cb8853;stroke:#ffffff;"/>
    <path clip-path="url(#p025a8cb4e5)" d="M 315.133152 245.415837 
L 325.535328 245.415837 
L 325.535328 209.146253 
L 315.133152 209.146253 
z
" style="fill:#c37436;stroke:#ffffff;"/>
    <path clip-path="url(#p025a8cb4e5)" d="M 309.932064 236.780222 
L 330.736416 236.780222 
L 330.736416 217.436444 
L 309.932064 217.436444 
z
" style="fill:#ba611b;stroke:#ffffff;"/>
   </g>
   <g id="line2d_12">
    <path clip-path="url(#p025a8cb4e5)" d="M 231.915744 221.581539 
L 252.720096 221.581539 
" style="fill:none;stroke:#262626;stroke-linecap:round;stroke-opacity:0.45;stroke-width:1.5;"/>
   </g>
   <g id="line2d_13">
    <path clip-path="url(#p025a8cb4e5)" d="M 257.921184 221.581539 
L 278.725536 221.581539 
" style="fill:none;stroke:#262626;stroke-linecap:round;stroke-opacity:0.45;stroke-width:1.5;"/>
   </g>
   <g id="line2d_14">
    <path clip-path="url(#p025a8cb4e5)" d="M 283.926624 218.0286 
L 304.730976 218.0286 
" style="fill:none;stroke:#262626;stroke-linecap:round;stroke-opacity:0.45;stroke-width:1.5;"/>
   </g>
   <g id="line2d_15">
    <path clip-path="url(#p025a8cb4e5)" d="M 309.932064 227.493359 
L 330.736416 227.493359 
" style="fill:none;stroke:#262626;stroke-linecap:round;stroke-opacity:0.45;stroke-width:1.5;"/>
   </g>
   <g id="patch_6">
    <path d="M 229.3152 311.981 
L 229.3152 38.144 
" style="fill:none;stroke:#ffffff;stroke-linecap:square;stroke-linejoin:miter;stroke-width:1.25;"/>
   </g>
   <g id="patch_7">
    <path d="M 229.3152 311.981 
L 359.3424 311.981 
" style="fill:none;stroke:#ffffff;stroke-linecap:square;stroke-linejoin:miter;stroke-width:1.25;"/>
   </g>
   <g id="text_20">
    <!-- clusters = 4 -->
    <g style="fill:#262626;" transform="translate(243.663675 32.144)scale(0.168 -0.168)">
     <use xlink:href="#DejaVuSans-99"/>
     <use x="54.980469" xlink:href="#DejaVuSans-108"/>
     <use x="82.763672" xlink:href="#DejaVuSans-117"/>
     <use x="146.142578" xlink:href="#DejaVuSans-115"/>
     <use x="198.242188" xlink:href="#DejaVuSans-116"/>
     <use x="237.451172" xlink:href="#DejaVuSans-101"/>
     <use x="298.974609" xlink:href="#DejaVuSans-114"/>
     <use x="340.087891" xlink:href="#DejaVuSans-115"/>
     <use x="392.1875" xlink:href="#DejaVuSans-32"/>
     <use x="423.974609" xlink:href="#DejaVuSans-61"/>
     <use x="507.763672" xlink:href="#DejaVuSans-32"/>
     <use x="539.550781" xlink:href="#DejaVuSans-52"/>
    </g>
   </g>
  </g>
  <g id="axes_3">
   <g id="patch_8">
    <path d="M 389.4864 311.981 
L 519.5136 311.981 
L 519.5136 38.144 
L 389.4864 38.144 
z
" style="fill:#eaeaf2;"/>
   </g>
   <g id="matplotlib.axis_5">
    <g id="xtick_11">
     <g id="text_21">
      <!--    metis -->
      <g style="fill:#262626;" transform="translate(406.738558 378.978344)rotate(-90)scale(0.154 -0.154)">
       <use xlink:href="#DejaVuSans-32"/>
       <use x="31.787109" xlink:href="#DejaVuSans-32"/>
       <use x="63.574219" xlink:href="#DejaVuSans-32"/>
       <use x="95.361328" xlink:href="#DejaVuSans-109"/>
       <use x="192.773438" xlink:href="#DejaVuSans-101"/>
       <use x="254.296875" xlink:href="#DejaVuSans-116"/>
       <use x="293.505859" xlink:href="#DejaVuSans-105"/>
       <use x="321.289062" xlink:href="#DejaVuSans-115"/>
      </g>
     </g>
    </g>
    <g id="xtick_12">
     <g id="text_22">
      <!--   merged -->
      <g style="fill:#262626;" transform="translate(432.743998 391.103438)rotate(-90)scale(0.154 -0.154)">
       <use xlink:href="#DejaVuSans-32"/>
       <use x="31.787109" xlink:href="#DejaVuSans-32"/>
       <use x="63.574219" xlink:href="#DejaVuSans-109"/>
       <use x="160.986328" xlink:href="#DejaVuSans-101"/>
       <use x="222.509766" xlink:href="#DejaVuSans-114"/>
       <use x="263.607422" xlink:href="#DejaVuSans-103"/>
       <use x="327.083984" xlink:href="#DejaVuSans-101"/>
       <use x="388.607422" xlink:href="#DejaVuSans-100"/>
      </g>
     </g>
    </g>
    <g id="xtick_13">
     <g id="text_23">
      <!--     prio -->
      <g style="fill:#262626;" transform="translate(458.749437 370.866875)rotate(-90)scale(0.154 -0.154)">
       <use xlink:href="#DejaVuSans-32"/>
       <use x="31.787109" xlink:href="#DejaVuSans-32"/>
       <use x="63.574219" xlink:href="#DejaVuSans-32"/>
       <use x="95.361328" xlink:href="#DejaVuSans-32"/>
       <use x="127.148438" xlink:href="#DejaVuSans-112"/>
       <use x="190.625" xlink:href="#DejaVuSans-114"/>
       <use x="231.738281" xlink:href="#DejaVuSans-105"/>
       <use x="259.521484" xlink:href="#DejaVuSans-111"/>
      </g>
     </g>
    </g>
    <g id="xtick_14">
     <g id="text_24">
      <!--   kmeans -->
      <g style="fill:#262626;" transform="translate(484.754878 391.883062)rotate(-90)scale(0.154 -0.154)">
       <use xlink:href="#DejaVuSans-32"/>
       <use x="31.787109" xlink:href="#DejaVuSans-32"/>
       <use x="63.574219" xlink:href="#DejaVuSans-107"/>
       <use x="121.484375" xlink:href="#DejaVuSans-109"/>
       <use x="218.896484" xlink:href="#DejaVuSans-101"/>
       <use x="280.419922" xlink:href="#DejaVuSans-97"/>
       <use x="341.699219" xlink:href="#DejaVuSans-110"/>
       <use x="405.078125" xlink:href="#DejaVuSans-115"/>
      </g>
     </g>
    </g>
    <g id="xtick_15">
     <g id="text_25">
      <!--     base -->
      <g style="fill:#262626;" transform="translate(510.760318 377.770406)rotate(-90)scale(0.154 -0.154)">
       <use xlink:href="#DejaVuSans-32"/>
       <use x="31.787109" xlink:href="#DejaVuSans-32"/>
       <use x="63.574219" xlink:href="#DejaVuSans-32"/>
       <use x="95.361328" xlink:href="#DejaVuSans-32"/>
       <use x="127.148438" xlink:href="#DejaVuSans-98"/>
       <use x="190.625" xlink:href="#DejaVuSans-97"/>
       <use x="251.904297" xlink:href="#DejaVuSans-115"/>
       <use x="304.003906" xlink:href="#DejaVuSans-101"/>
      </g>
     </g>
    </g>
    <g id="text_26">
     <!-- method  -->
     <g style="fill:#262626;" transform="translate(419.390625 408.648438)scale(0.168 -0.168)">
      <use xlink:href="#DejaVuSans-109"/>
      <use x="97.412109" xlink:href="#DejaVuSans-101"/>
      <use x="158.935547" xlink:href="#DejaVuSans-116"/>
      <use x="198.144531" xlink:href="#DejaVuSans-104"/>
      <use x="261.523438" xlink:href="#DejaVuSans-111"/>
      <use x="322.705078" xlink:href="#DejaVuSans-100"/>
      <use x="386.181641" xlink:href="#DejaVuSans-32"/>
     </g>
    </g>
   </g>
   <g id="matplotlib.axis_6">
    <g id="ytick_11">
     <g id="line2d_16">
      <path clip-path="url(#pe574c31d45)" d="M 389.4864 271.322682 
L 519.5136 271.322682 
" style="fill:none;stroke:#ffffff;stroke-linecap:round;"/>
     </g>
    </g>
    <g id="ytick_12">
     <g id="line2d_17">
      <path clip-path="url(#pe574c31d45)" d="M 389.4864 219.508991 
L 519.5136 219.508991 
" style="fill:none;stroke:#ffffff;stroke-linecap:round;"/>
     </g>
    </g>
    <g id="ytick_13">
     <g id="line2d_18">
      <path clip-path="url(#pe574c31d45)" d="M 389.4864 167.6953 
L 519.5136 167.6953 
" style="fill:none;stroke:#ffffff;stroke-linecap:round;"/>
     </g>
    </g>
    <g id="ytick_14">
     <g id="line2d_19">
      <path clip-path="url(#pe574c31d45)" d="M 389.4864 115.881609 
L 519.5136 115.881609 
" style="fill:none;stroke:#ffffff;stroke-linecap:round;"/>
     </g>
    </g>
    <g id="ytick_15">
     <g id="line2d_20">
      <path clip-path="url(#pe574c31d45)" d="M 389.4864 64.067918 
L 519.5136 64.067918 
" style="fill:none;stroke:#ffffff;stroke-linecap:round;"/>
     </g>
    </g>
   </g>
   <g id="PathCollection_6">
    <g clip-path="url(#pe574c31d45)">
     <use style="fill:#176d9c;stroke:#176d9c;" x="402.48912" xlink:href="#m6ead7b1816" y="276.504051"/>
     <use style="fill:#176d9c;stroke:#176d9c;" x="402.48912" xlink:href="#m6ead7b1816" y="286.86679"/>
     <use style="fill:#176d9c;stroke:#176d9c;" x="402.48912" xlink:href="#m6ead7b1816" y="281.68542"/>
     <use style="fill:#176d9c;stroke:#176d9c;" x="402.48912" xlink:href="#m6ead7b1816" y="281.68542"/>
     <use style="fill:#176d9c;stroke:#176d9c;" x="402.48912" xlink:href="#m6ead7b1816" y="131.425717"/>
     <use style="fill:#176d9c;stroke:#176d9c;" x="402.48912" xlink:href="#m6ead7b1816" y="131.425717"/>
    </g>
   </g>
   <g id="PatchCollection_6">
    <path clip-path="url(#pe574c31d45)" d="M 402.448487 275.355447 
L 402.529754 275.355447 
L 402.529754 136.607086 
L 402.448487 136.607086 
z
" style="fill:#ffffff;stroke:#ffffff;"/>
    <path clip-path="url(#pe574c31d45)" d="M 402.407853 266.141313 
L 402.570387 266.141313 
L 402.570387 141.788455 
L 402.407853 141.788455 
z
" style="fill:#e2edf3;stroke:#ffffff;"/>
    <path clip-path="url(#pe574c31d45)" d="M 402.326586 260.959944 
L 402.651654 260.959944 
L 402.651654 146.969824 
L 402.326586 146.969824 
z
" style="fill:#c5dae6;stroke:#ffffff;"/>
    <path clip-path="url(#pe574c31d45)" d="M 402.164052 256.585851 
L 402.814188 256.585851 
L 402.814188 157.332562 
L 402.164052 157.332562 
z
" style="fill:#a8c8da;stroke:#ffffff;"/>
    <path clip-path="url(#pe574c31d45)" d="M 401.838984 250.597206 
L 403.139256 250.597206 
L 403.139256 162.513931 
L 401.838984 162.513931 
z
" style="fill:#8bb6cd;stroke:#ffffff;"/>
    <path clip-path="url(#pe574c31d45)" d="M 401.188848 244.314796 
L 403.789392 244.314796 
L 403.789392 170.656083 
L 401.188848 170.656083 
z
" style="fill:#6ea3c1;stroke:#ffffff;"/>
    <path clip-path="url(#pe574c31d45)" d="M 399.888576 235.053099 
L 405.089664 235.053099 
L 405.089664 178.058039 
L 399.888576 178.058039 
z
" style="fill:#5091b4;stroke:#ffffff;"/>
    <path clip-path="url(#pe574c31d45)" d="M 397.288032 225.726634 
L 407.690208 225.726634 
L 407.690208 188.420777 
L 397.288032 188.420777 
z
" style="fill:#337ea8;stroke:#ffffff;"/>
    <path clip-path="url(#pe574c31d45)" d="M 392.086944 218.0286 
L 412.891296 218.0286 
L 412.891296 196.791878 
L 392.086944 196.791878 
z
" style="fill:#176d9c;stroke:#ffffff;"/>
   </g>
   <g id="PathCollection_7">
    <g clip-path="url(#pe574c31d45)">
     <use style="fill:#c38820;stroke:#c38820;" x="428.49456" xlink:href="#m1a0075f2e8" y="271.322682"/>
     <use style="fill:#c38820;stroke:#c38820;" x="428.49456" xlink:href="#m1a0075f2e8" y="271.322682"/>
     <use style="fill:#c38820;stroke:#c38820;" x="428.49456" xlink:href="#m1a0075f2e8" y="271.322682"/>
     <use style="fill:#c38820;stroke:#c38820;" x="428.49456" xlink:href="#m1a0075f2e8" y="297.229528"/>
     <use style="fill:#c38820;stroke:#c38820;" x="428.49456" xlink:href="#m1a0075f2e8" y="115.881609"/>
    </g>
   </g>
   <g id="PatchCollection_7">
    <path clip-path="url(#pe574c31d45)" d="M 428.453927 270.174078 
L 428.535193 270.174078 
L 428.535193 121.062979 
L 428.453927 121.062979 
z
" style="fill:#ffffff;stroke:#ffffff;"/>
    <path clip-path="url(#pe574c31d45)" d="M 428.413293 258.990908 
L 428.575827 258.990908 
L 428.575827 126.244348 
L 428.413293 126.244348 
z
" style="fill:#f7f0e3;stroke:#ffffff;"/>
    <path clip-path="url(#pe574c31d45)" d="M 428.332026 250.597206 
L 428.657094 250.597206 
L 428.657094 131.425717 
L 428.332026 131.425717 
z
" style="fill:#f0e1c7;stroke:#ffffff;"/>
    <path clip-path="url(#pe574c31d45)" d="M 428.169492 247.837664 
L 428.819628 247.837664 
L 428.819628 141.788455 
L 428.169492 141.788455 
z
" style="fill:#e8d2ab;stroke:#ffffff;"/>
    <path clip-path="url(#pe574c31d45)" d="M 427.844424 240.234468 
L 429.144696 240.234468 
L 429.144696 152.151193 
L 427.844424 152.151193 
z
" style="fill:#e1c38f;stroke:#ffffff;"/>
    <path clip-path="url(#pe574c31d45)" d="M 427.194288 232.74924 
L 429.794832 232.74924 
L 429.794832 157.332562 
L 427.194288 157.332562 
z
" style="fill:#d9b473;stroke:#ffffff;"/>
    <path clip-path="url(#pe574c31d45)" d="M 425.894016 224.69036 
L 431.095104 224.69036 
L 431.095104 167.6953 
L 425.894016 167.6953 
z
" style="fill:#d2a557;stroke:#ffffff;"/>
    <path clip-path="url(#pe574c31d45)" d="M 423.293472 215.067818 
L 433.695648 215.067818 
L 433.695648 178.058039 
L 423.293472 178.058039 
z
" style="fill:#ca963b;stroke:#ffffff;"/>
    <path clip-path="url(#pe574c31d45)" d="M 418.092384 208.109979 
L 438.896736 208.109979 
L 438.896736 185.65738 
L 418.092384 185.65738 
z
" style="fill:#c38820;stroke:#ffffff;"/>
   </g>
   <g id="PathCollection_8">
    <g clip-path="url(#pe574c31d45)">
     <use style="fill:#158b6a;stroke:#158b6a;" x="454.5" xlink:href="#m7b31e6822b" y="286.86679"/>
     <use style="fill:#158b6a;stroke:#158b6a;" x="454.5" xlink:href="#m7b31e6822b" y="266.141313"/>
     <use style="fill:#158b6a;stroke:#158b6a;" x="454.5" xlink:href="#m7b31e6822b" y="286.86679"/>
     <use style="fill:#158b6a;stroke:#158b6a;" x="454.5" xlink:href="#m7b31e6822b" y="271.322682"/>
     <use style="fill:#158b6a;stroke:#158b6a;" x="454.5" xlink:href="#m7b31e6822b" y="136.607086"/>
     <use style="fill:#158b6a;stroke:#158b6a;" x="454.5" xlink:href="#m7b31e6822b" y="131.425717"/>
     <use style="fill:#158b6a;stroke:#158b6a;" x="454.5" xlink:href="#m7b31e6822b" y="121.062979"/>
     <use style="fill:#158b6a;stroke:#158b6a;" x="454.5" xlink:href="#m7b31e6822b" y="126.244348"/>
    </g>
   </g>
   <g id="PatchCollection_8">
    <path clip-path="url(#pe574c31d45)" d="M 454.459366 265.977227 
L 454.540634 265.977227 
L 454.540634 137.75569 
L 454.459366 137.75569 
z
" style="fill:#ffffff;stroke:#ffffff;"/>
    <path clip-path="url(#pe574c31d45)" d="M 454.418733 260.959944 
L 454.581267 260.959944 
L 454.581267 146.969824 
L 454.418733 146.969824 
z
" style="fill:#e2f0ec;stroke:#ffffff;"/>
    <path clip-path="url(#pe574c31d45)" d="M 454.337466 255.778575 
L 454.662534 255.778575 
L 454.662534 146.969824 
L 454.337466 146.969824 
z
" style="fill:#c4e2da;stroke:#ffffff;"/>
    <path clip-path="url(#pe574c31d45)" d="M 454.174932 250.597206 
L 454.825068 250.597206 
L 454.825068 152.151193 
L 454.174932 152.151193 
z
" style="fill:#a7d3c7;stroke:#ffffff;"/>
    <path clip-path="url(#pe574c31d45)" d="M 453.849864 245.415837 
L 455.150136 245.415837 
L 455.150136 159.136789 
L 453.849864 159.136789 
z
" style="fill:#8ac5b4;stroke:#ffffff;"/>
    <path clip-path="url(#pe574c31d45)" d="M 453.199728 235.793294 
L 455.800272 235.793294 
L 455.800272 167.6953 
L 453.199728 167.6953 
z
" style="fill:#6cb6a2;stroke:#ffffff;"/>
    <path clip-path="url(#pe574c31d45)" d="M 451.899456 229.87173 
L 457.100544 229.87173 
L 457.100544 173.616865 
L 451.899456 173.616865 
z
" style="fill:#4fa78f;stroke:#ffffff;"/>
    <path clip-path="url(#pe574c31d45)" d="M 449.298912 221.581539 
L 459.701088 221.581539 
L 459.701088 182.499212 
L 449.298912 182.499212 
z
" style="fill:#32997c;stroke:#ffffff;"/>
    <path clip-path="url(#pe574c31d45)" d="M 444.097824 213.291348 
L 464.902176 213.291348 
L 464.902176 190.493324 
L 444.097824 190.493324 
z
" style="fill:#158b6a;stroke:#ffffff;"/>
   </g>
   <g id="PathCollection_9">
    <g clip-path="url(#pe574c31d45)">
     <use style="fill:#ba611b;stroke:#ba611b;" x="480.50544" xlink:href="#m0db526b68e" y="121.062979"/>
     <use style="fill:#ba611b;stroke:#ba611b;" x="480.50544" xlink:href="#m0db526b68e" y="121.062979"/>
     <use style="fill:#ba611b;stroke:#ba611b;" x="480.50544" xlink:href="#m0db526b68e" y="126.244348"/>
     <use style="fill:#ba611b;stroke:#ba611b;" x="480.50544" xlink:href="#m0db526b68e" y="121.062979"/>
    </g>
   </g>
   <g id="PatchCollection_9">
    <path clip-path="url(#pe574c31d45)" d="M 480.464807 271.322682 
L 480.546074 271.322682 
L 480.546074 127.392952 
L 480.464807 127.392952 
z
" style="fill:#ffffff;stroke:#ffffff;"/>
    <path clip-path="url(#pe574c31d45)" d="M 480.424173 260.959944 
L 480.586707 260.959944 
L 480.586707 136.607086 
L 480.424173 136.607086 
z
" style="fill:#f6ebe2;stroke:#ffffff;"/>
    <path clip-path="url(#pe574c31d45)" d="M 480.342906 259.479553 
L 480.667974 259.479553 
L 480.667974 146.969824 
L 480.342906 146.969824 
z
" style="fill:#eed7c6;stroke:#ffffff;"/>
    <path clip-path="url(#pe574c31d45)" d="M 480.180372 250.597206 
L 480.830508 250.597206 
L 480.830508 152.151193 
L 480.180372 152.151193 
z
" style="fill:#e5c4a9;stroke:#ffffff;"/>
    <path clip-path="url(#pe574c31d45)" d="M 479.855304 246.452111 
L 481.155576 246.452111 
L 481.155576 162.513931 
L 479.855304 162.513931 
z
" style="fill:#ddb08c;stroke:#ffffff;"/>
    <path clip-path="url(#pe574c31d45)" d="M 479.205168 240.234468 
L 481.805712 240.234468 
L 481.805712 172.876669 
L 479.205168 172.876669 
z
" style="fill:#d49c70;stroke:#ffffff;"/>
    <path clip-path="url(#pe574c31d45)" d="M 477.904896 234.016825 
L 483.105984 234.016825 
L 483.105984 178.058039 
L 477.904896 178.058039 
z
" style="fill:#cb8853;stroke:#ffffff;"/>
    <path clip-path="url(#pe574c31d45)" d="M 475.304352 224.69036 
L 485.706528 224.69036 
L 485.706528 185.459994 
L 475.304352 185.459994 
z
" style="fill:#c37436;stroke:#ffffff;"/>
    <path clip-path="url(#pe574c31d45)" d="M 470.103264 216.054745 
L 490.907616 216.054745 
L 490.907616 195.329269 
L 470.103264 195.329269 
z
" style="fill:#ba611b;stroke:#ffffff;"/>
   </g>
   <g id="line2d_21">
    <path clip-path="url(#pe574c31d45)" d="M 392.086944 208.109979 
L 412.891296 208.109979 
" style="fill:none;stroke:#262626;stroke-linecap:round;stroke-opacity:0.45;stroke-width:1.5;"/>
   </g>
   <g id="line2d_22">
    <path clip-path="url(#pe574c31d45)" d="M 418.092384 197.303124 
L 438.896736 197.303124 
" style="fill:none;stroke:#262626;stroke-linecap:round;stroke-opacity:0.45;stroke-width:1.5;"/>
   </g>
   <g id="line2d_23">
    <path clip-path="url(#pe574c31d45)" d="M 444.097824 200.856063 
L 464.902176 200.856063 
" style="fill:none;stroke:#262626;stroke-linecap:round;stroke-opacity:0.45;stroke-width:1.5;"/>
   </g>
   <g id="line2d_24">
    <path clip-path="url(#pe574c31d45)" d="M 470.103264 206.185471 
L 490.907616 206.185471 
" style="fill:none;stroke:#262626;stroke-linecap:round;stroke-opacity:0.45;stroke-width:1.5;"/>
   </g>
   <g id="patch_9">
    <path d="M 389.4864 311.981 
L 389.4864 38.144 
" style="fill:none;stroke:#ffffff;stroke-linecap:square;stroke-linejoin:miter;stroke-width:1.25;"/>
   </g>
   <g id="patch_10">
    <path d="M 389.4864 311.981 
L 519.5136 311.981 
" style="fill:none;stroke:#ffffff;stroke-linecap:square;stroke-linejoin:miter;stroke-width:1.25;"/>
   </g>
   <g id="text_27">
    <!-- clusters = 8 -->
    <defs>
     <path d="M 31.78125 34.625 
Q 24.75 34.625 20.71875 30.859375 
Q 16.703125 27.09375 16.703125 20.515625 
Q 16.703125 13.921875 20.71875 10.15625 
Q 24.75 6.390625 31.78125 6.390625 
Q 38.8125 6.390625 42.859375 10.171875 
Q 46.921875 13.96875 46.921875 20.515625 
Q 46.921875 27.09375 42.890625 30.859375 
Q 38.875 34.625 31.78125 34.625 
z
M 21.921875 38.8125 
Q 15.578125 40.375 12.03125 44.71875 
Q 8.5 49.078125 8.5 55.328125 
Q 8.5 64.0625 14.71875 69.140625 
Q 20.953125 74.21875 31.78125 74.21875 
Q 42.671875 74.21875 48.875 69.140625 
Q 55.078125 64.0625 55.078125 55.328125 
Q 55.078125 49.078125 51.53125 44.71875 
Q 48 40.375 41.703125 38.8125 
Q 48.828125 37.15625 52.796875 32.3125 
Q 56.78125 27.484375 56.78125 20.515625 
Q 56.78125 9.90625 50.3125 4.234375 
Q 43.84375 -1.421875 31.78125 -1.421875 
Q 19.734375 -1.421875 13.25 4.234375 
Q 6.78125 9.90625 6.78125 20.515625 
Q 6.78125 27.484375 10.78125 32.3125 
Q 14.796875 37.15625 21.921875 38.8125 
z
M 18.3125 54.390625 
Q 18.3125 48.734375 21.84375 45.5625 
Q 25.390625 42.390625 31.78125 42.390625 
Q 38.140625 42.390625 41.71875 45.5625 
Q 45.3125 48.734375 45.3125 54.390625 
Q 45.3125 60.0625 41.71875 63.234375 
Q 38.140625 66.40625 31.78125 66.40625 
Q 25.390625 66.40625 21.84375 63.234375 
Q 18.3125 60.0625 18.3125 54.390625 
z
" id="DejaVuSans-56"/>
    </defs>
    <g style="fill:#262626;" transform="translate(403.834875 32.144)scale(0.168 -0.168)">
     <use xlink:href="#DejaVuSans-99"/>
     <use x="54.980469" xlink:href="#DejaVuSans-108"/>
     <use x="82.763672" xlink:href="#DejaVuSans-117"/>
     <use x="146.142578" xlink:href="#DejaVuSans-115"/>
     <use x="198.242188" xlink:href="#DejaVuSans-116"/>
     <use x="237.451172" xlink:href="#DejaVuSans-101"/>
     <use x="298.974609" xlink:href="#DejaVuSans-114"/>
     <use x="340.087891" xlink:href="#DejaVuSans-115"/>
     <use x="392.1875" xlink:href="#DejaVuSans-32"/>
     <use x="423.974609" xlink:href="#DejaVuSans-61"/>
     <use x="507.763672" xlink:href="#DejaVuSans-32"/>
     <use x="539.550781" xlink:href="#DejaVuSans-56"/>
    </g>
   </g>
  </g>
  <g id="axes_4">
   <g id="patch_11">
    <path d="M 549.6576 311.981 
L 679.6848 311.981 
L 679.6848 38.144 
L 549.6576 38.144 
z
" style="fill:#eaeaf2;"/>
   </g>
   <g id="matplotlib.axis_7">
    <g id="xtick_16">
     <g id="text_28">
      <!--    metis -->
      <g style="fill:#262626;" transform="translate(566.909757 378.978344)rotate(-90)scale(0.154 -0.154)">
       <use xlink:href="#DejaVuSans-32"/>
       <use x="31.787109" xlink:href="#DejaVuSans-32"/>
       <use x="63.574219" xlink:href="#DejaVuSans-32"/>
       <use x="95.361328" xlink:href="#DejaVuSans-109"/>
       <use x="192.773438" xlink:href="#DejaVuSans-101"/>
       <use x="254.296875" xlink:href="#DejaVuSans-116"/>
       <use x="293.505859" xlink:href="#DejaVuSans-105"/>
       <use x="321.289062" xlink:href="#DejaVuSans-115"/>
      </g>
     </g>
    </g>
    <g id="xtick_17">
     <g id="text_29">
      <!--   merged -->
      <g style="fill:#262626;" transform="translate(592.915197 391.103438)rotate(-90)scale(0.154 -0.154)">
       <use xlink:href="#DejaVuSans-32"/>
       <use x="31.787109" xlink:href="#DejaVuSans-32"/>
       <use x="63.574219" xlink:href="#DejaVuSans-109"/>
       <use x="160.986328" xlink:href="#DejaVuSans-101"/>
       <use x="222.509766" xlink:href="#DejaVuSans-114"/>
       <use x="263.607422" xlink:href="#DejaVuSans-103"/>
       <use x="327.083984" xlink:href="#DejaVuSans-101"/>
       <use x="388.607422" xlink:href="#DejaVuSans-100"/>
      </g>
     </g>
    </g>
    <g id="xtick_18">
     <g id="text_30">
      <!--     prio -->
      <g style="fill:#262626;" transform="translate(618.920637 370.866875)rotate(-90)scale(0.154 -0.154)">
       <use xlink:href="#DejaVuSans-32"/>
       <use x="31.787109" xlink:href="#DejaVuSans-32"/>
       <use x="63.574219" xlink:href="#DejaVuSans-32"/>
       <use x="95.361328" xlink:href="#DejaVuSans-32"/>
       <use x="127.148438" xlink:href="#DejaVuSans-112"/>
       <use x="190.625" xlink:href="#DejaVuSans-114"/>
       <use x="231.738281" xlink:href="#DejaVuSans-105"/>
       <use x="259.521484" xlink:href="#DejaVuSans-111"/>
      </g>
     </g>
    </g>
    <g id="xtick_19">
     <g id="text_31">
      <!--   kmeans -->
      <g style="fill:#262626;" transform="translate(644.926077 391.883062)rotate(-90)scale(0.154 -0.154)">
       <use xlink:href="#DejaVuSans-32"/>
       <use x="31.787109" xlink:href="#DejaVuSans-32"/>
       <use x="63.574219" xlink:href="#DejaVuSans-107"/>
       <use x="121.484375" xlink:href="#DejaVuSans-109"/>
       <use x="218.896484" xlink:href="#DejaVuSans-101"/>
       <use x="280.419922" xlink:href="#DejaVuSans-97"/>
       <use x="341.699219" xlink:href="#DejaVuSans-110"/>
       <use x="405.078125" xlink:href="#DejaVuSans-115"/>
      </g>
     </g>
    </g>
    <g id="xtick_20">
     <g id="text_32">
      <!--     base -->
      <g style="fill:#262626;" transform="translate(670.931517 377.770406)rotate(-90)scale(0.154 -0.154)">
       <use xlink:href="#DejaVuSans-32"/>
       <use x="31.787109" xlink:href="#DejaVuSans-32"/>
       <use x="63.574219" xlink:href="#DejaVuSans-32"/>
       <use x="95.361328" xlink:href="#DejaVuSans-32"/>
       <use x="127.148438" xlink:href="#DejaVuSans-98"/>
       <use x="190.625" xlink:href="#DejaVuSans-97"/>
       <use x="251.904297" xlink:href="#DejaVuSans-115"/>
       <use x="304.003906" xlink:href="#DejaVuSans-101"/>
      </g>
     </g>
    </g>
    <g id="text_33">
     <!-- method  -->
     <g style="fill:#262626;" transform="translate(579.561825 408.648438)scale(0.168 -0.168)">
      <use xlink:href="#DejaVuSans-109"/>
      <use x="97.412109" xlink:href="#DejaVuSans-101"/>
      <use x="158.935547" xlink:href="#DejaVuSans-116"/>
      <use x="198.144531" xlink:href="#DejaVuSans-104"/>
      <use x="261.523438" xlink:href="#DejaVuSans-111"/>
      <use x="322.705078" xlink:href="#DejaVuSans-100"/>
      <use x="386.181641" xlink:href="#DejaVuSans-32"/>
     </g>
    </g>
   </g>
   <g id="matplotlib.axis_8">
    <g id="ytick_16">
     <g id="line2d_25">
      <path clip-path="url(#p3e636d3883)" d="M 549.6576 271.322682 
L 679.6848 271.322682 
" style="fill:none;stroke:#ffffff;stroke-linecap:round;"/>
     </g>
    </g>
    <g id="ytick_17">
     <g id="line2d_26">
      <path clip-path="url(#p3e636d3883)" d="M 549.6576 219.508991 
L 679.6848 219.508991 
" style="fill:none;stroke:#ffffff;stroke-linecap:round;"/>
     </g>
    </g>
    <g id="ytick_18">
     <g id="line2d_27">
      <path clip-path="url(#p3e636d3883)" d="M 549.6576 167.6953 
L 679.6848 167.6953 
" style="fill:none;stroke:#ffffff;stroke-linecap:round;"/>
     </g>
    </g>
    <g id="ytick_19">
     <g id="line2d_28">
      <path clip-path="url(#p3e636d3883)" d="M 549.6576 115.881609 
L 679.6848 115.881609 
" style="fill:none;stroke:#ffffff;stroke-linecap:round;"/>
     </g>
    </g>
    <g id="ytick_20">
     <g id="line2d_29">
      <path clip-path="url(#p3e636d3883)" d="M 549.6576 64.067918 
L 679.6848 64.067918 
" style="fill:none;stroke:#ffffff;stroke-linecap:round;"/>
     </g>
    </g>
   </g>
   <g id="PathCollection_10">
    <g clip-path="url(#p3e636d3883)">
     <use style="fill:#176d9c;stroke:#176d9c;" x="562.66032" xlink:href="#m6ead7b1816" y="250.597206"/>
     <use style="fill:#176d9c;stroke:#176d9c;" x="562.66032" xlink:href="#m6ead7b1816" y="255.778575"/>
     <use style="fill:#176d9c;stroke:#176d9c;" x="562.66032" xlink:href="#m6ead7b1816" y="255.778575"/>
     <use style="fill:#176d9c;stroke:#176d9c;" x="562.66032" xlink:href="#m6ead7b1816" y="247.636424"/>
     <use style="fill:#176d9c;stroke:#176d9c;" x="562.66032" xlink:href="#m6ead7b1816" y="110.70024"/>
     <use style="fill:#176d9c;stroke:#176d9c;" x="562.66032" xlink:href="#m6ead7b1816" y="110.70024"/>
     <use style="fill:#176d9c;stroke:#176d9c;" x="562.66032" xlink:href="#m6ead7b1816" y="110.70024"/>
     <use style="fill:#176d9c;stroke:#176d9c;" x="562.66032" xlink:href="#m6ead7b1816" y="105.518871"/>
    </g>
   </g>
   <g id="PatchCollection_10">
    <path clip-path="url(#p3e636d3883)" d="M 562.619686 247.144165 
L 562.700953 247.144165 
L 562.700953 111.848845 
L 562.619686 111.848845 
z
" style="fill:#ffffff;stroke:#ffffff;"/>
    <path clip-path="url(#p3e636d3883)" d="M 562.579053 240.234468 
L 562.741587 240.234468 
L 562.741587 117.850645 
L 562.579053 117.850645 
z
" style="fill:#e2edf3;stroke:#ffffff;"/>
    <path clip-path="url(#p3e636d3883)" d="M 562.497786 235.053099 
L 562.822854 235.053099 
L 562.822854 125.657396 
L 562.497786 125.657396 
z
" style="fill:#c5dae6;stroke:#ffffff;"/>
    <path clip-path="url(#p3e636d3883)" d="M 562.335252 230.341291 
L 562.985388 230.341291 
L 562.985388 131.425717 
L 562.335252 131.425717 
z
" style="fill:#a8c8da;stroke:#ffffff;"/>
    <path clip-path="url(#p3e636d3883)" d="M 562.010184 224.69036 
L 563.310456 224.69036 
L 563.310456 136.607086 
L 562.010184 136.607086 
z
" style="fill:#8bb6cd;stroke:#ffffff;"/>
    <path clip-path="url(#p3e636d3883)" d="M 561.360048 219.508991 
L 563.960592 219.508991 
L 563.960592 146.969824 
L 561.360048 146.969824 
z
" style="fill:#6ea3c1;stroke:#ffffff;"/>
    <path clip-path="url(#p3e636d3883)" d="M 560.059776 209.146253 
L 565.260864 209.146253 
L 565.260864 153.187467 
L 560.059776 153.187467 
z
" style="fill:#5091b4;stroke:#ffffff;"/>
    <path clip-path="url(#p3e636d3883)" d="M 557.459232 203.224688 
L 567.861408 203.224688 
L 567.861408 162.513931 
L 557.459232 162.513931 
z
" style="fill:#337ea8;stroke:#ffffff;"/>
    <path clip-path="url(#p3e636d3883)" d="M 552.258144 193.602146 
L 573.062496 193.602146 
L 573.062496 171.840396 
L 552.258144 171.840396 
z
" style="fill:#176d9c;stroke:#ffffff;"/>
   </g>
   <g id="PathCollection_11">
    <g clip-path="url(#p3e636d3883)">
     <use style="fill:#c38820;stroke:#c38820;" x="588.66576" xlink:href="#m1a0075f2e8" y="255.778575"/>
     <use style="fill:#c38820;stroke:#c38820;" x="588.66576" xlink:href="#m1a0075f2e8" y="255.778575"/>
     <use style="fill:#c38820;stroke:#c38820;" x="588.66576" xlink:href="#m1a0075f2e8" y="255.778575"/>
     <use style="fill:#c38820;stroke:#c38820;" x="588.66576" xlink:href="#m1a0075f2e8" y="276.504051"/>
     <use style="fill:#c38820;stroke:#c38820;" x="588.66576" xlink:href="#m1a0075f2e8" y="110.70024"/>
     <use style="fill:#c38820;stroke:#c38820;" x="588.66576" xlink:href="#m1a0075f2e8" y="100.337502"/>
     <use style="fill:#c38820;stroke:#c38820;" x="588.66576" xlink:href="#m1a0075f2e8" y="89.974764"/>
    </g>
   </g>
   <g id="PatchCollection_11">
    <path clip-path="url(#p3e636d3883)" d="M 588.625126 254.629971 
L 588.706393 254.629971 
L 588.706393 115.881609 
L 588.625126 115.881609 
z
" style="fill:#ffffff;stroke:#ffffff;"/>
    <path clip-path="url(#p3e636d3883)" d="M 588.584493 249.678322 
L 588.747027 249.678322 
L 588.747027 121.062979 
L 588.584493 121.062979 
z
" style="fill:#f7f0e3;stroke:#ffffff;"/>
    <path clip-path="url(#p3e636d3883)" d="M 588.503226 240.402168 
L 588.828294 240.402168 
L 588.828294 121.062979 
L 588.503226 121.062979 
z
" style="fill:#f0e1c7;stroke:#ffffff;"/>
    <path clip-path="url(#p3e636d3883)" d="M 588.340692 235.053099 
L 588.990828 235.053099 
L 588.990828 131.425717 
L 588.340692 131.425717 
z
" style="fill:#e8d2ab;stroke:#ffffff;"/>
    <path clip-path="url(#p3e636d3883)" d="M 588.015624 229.87173 
L 589.315896 229.87173 
L 589.315896 139.706655 
L 588.015624 139.706655 
z
" style="fill:#e1c38f;stroke:#ffffff;"/>
    <path clip-path="url(#p3e636d3883)" d="M 587.365488 220.989383 
L 589.966032 220.989383 
L 589.966032 146.969824 
L 587.365488 146.969824 
z
" style="fill:#d9b473;stroke:#ffffff;"/>
    <path clip-path="url(#p3e636d3883)" d="M 586.065216 213.291348 
L 591.266304 213.291348 
L 591.266304 157.332562 
L 586.065216 157.332562 
z
" style="fill:#d2a557;stroke:#ffffff;"/>
    <path clip-path="url(#p3e636d3883)" d="M 583.464672 205.001158 
L 593.866848 205.001158 
L 593.866848 167.6953 
L 583.464672 167.6953 
z
" style="fill:#ca963b;stroke:#ffffff;"/>
    <path clip-path="url(#p3e636d3883)" d="M 578.263584 197.303124 
L 599.067936 197.303124 
L 599.067936 174.949217 
L 578.263584 174.949217 
z
" style="fill:#c38820;stroke:#ffffff;"/>
   </g>
   <g id="PathCollection_12">
    <g clip-path="url(#p3e636d3883)">
     <use style="fill:#158b6a;stroke:#158b6a;" x="614.6712" xlink:href="#m7b31e6822b" y="245.415837"/>
     <use style="fill:#158b6a;stroke:#158b6a;" x="614.6712" xlink:href="#m7b31e6822b" y="245.415837"/>
     <use style="fill:#158b6a;stroke:#158b6a;" x="614.6712" xlink:href="#m7b31e6822b" y="84.793395"/>
     <use style="fill:#158b6a;stroke:#158b6a;" x="614.6712" xlink:href="#m7b31e6822b" y="100.337502"/>
     <use style="fill:#158b6a;stroke:#158b6a;" x="614.6712" xlink:href="#m7b31e6822b" y="100.337502"/>
     <use style="fill:#158b6a;stroke:#158b6a;" x="614.6712" xlink:href="#m7b31e6822b" y="100.337502"/>
    </g>
   </g>
   <g id="PatchCollection_12">
    <path clip-path="url(#p3e636d3883)" d="M 614.630566 240.234468 
L 614.711834 240.234468 
L 614.711834 102.634711 
L 614.630566 102.634711 
z
" style="fill:#ffffff;stroke:#ffffff;"/>
    <path clip-path="url(#p3e636d3883)" d="M 614.589933 235.053099 
L 614.752467 235.053099 
L 614.752467 110.70024 
L 614.589933 110.70024 
z
" style="fill:#e2f0ec;stroke:#ffffff;"/>
    <path clip-path="url(#p3e636d3883)" d="M 614.508666 230.207131 
L 614.833734 230.207131 
L 614.833734 121.062979 
L 614.508666 121.062979 
z
" style="fill:#c4e2da;stroke:#ffffff;"/>
    <path clip-path="url(#p3e636d3883)" d="M 614.346132 224.69036 
L 614.996268 224.69036 
L 614.996268 126.244348 
L 614.346132 126.244348 
z
" style="fill:#a7d3c7;stroke:#ffffff;"/>
    <path clip-path="url(#p3e636d3883)" d="M 614.021064 219.508991 
L 615.321336 219.508991 
L 615.321336 133.461255 
L 614.021064 133.461255 
z
" style="fill:#8ac5b4;stroke:#ffffff;"/>
    <path clip-path="url(#p3e636d3883)" d="M 613.370928 213.291348 
L 615.971472 213.291348 
L 615.971472 141.788455 
L 613.370928 141.788455 
z
" style="fill:#6cb6a2;stroke:#ffffff;"/>
    <path clip-path="url(#p3e636d3883)" d="M 612.070656 205.001158 
L 617.271744 205.001158 
L 617.271744 152.151193 
L 612.070656 152.151193 
z
" style="fill:#4fa78f;stroke:#ffffff;"/>
    <path clip-path="url(#p3e636d3883)" d="M 609.470112 198.783515 
L 619.872288 198.783515 
L 619.872288 158.812953 
L 609.470112 158.812953 
z
" style="fill:#32997c;stroke:#ffffff;"/>
    <path clip-path="url(#p3e636d3883)" d="M 604.269024 188.938914 
L 625.073376 188.938914 
L 625.073376 167.6953 
L 604.269024 167.6953 
z
" style="fill:#158b6a;stroke:#ffffff;"/>
   </g>
   <g id="PathCollection_13">
    <g clip-path="url(#p3e636d3883)">
     <use style="fill:#ba611b;stroke:#ba611b;" x="640.67664" xlink:href="#m0db526b68e" y="271.322682"/>
     <use style="fill:#ba611b;stroke:#ba611b;" x="640.67664" xlink:href="#m0db526b68e" y="266.141313"/>
     <use style="fill:#ba611b;stroke:#ba611b;" x="640.67664" xlink:href="#m0db526b68e" y="266.141313"/>
     <use style="fill:#ba611b;stroke:#ba611b;" x="640.67664" xlink:href="#m0db526b68e" y="95.156133"/>
     <use style="fill:#ba611b;stroke:#ba611b;" x="640.67664" xlink:href="#m0db526b68e" y="121.062979"/>
     <use style="fill:#ba611b;stroke:#ba611b;" x="640.67664" xlink:href="#m0db526b68e" y="126.244348"/>
     <use style="fill:#ba611b;stroke:#ba611b;" x="640.67664" xlink:href="#m0db526b68e" y="126.244348"/>
    </g>
   </g>
   <g id="PatchCollection_13">
    <path clip-path="url(#p3e636d3883)" d="M 640.636007 260.959944 
L 640.717273 260.959944 
L 640.717273 127.392952 
L 640.636007 127.392952 
z
" style="fill:#ffffff;stroke:#ffffff;"/>
    <path clip-path="url(#p3e636d3883)" d="M 640.595373 260.959944 
L 640.757907 260.959944 
L 640.757907 133.722925 
L 640.595373 133.722925 
z
" style="fill:#f6ebe2;stroke:#ffffff;"/>
    <path clip-path="url(#p3e636d3883)" d="M 640.514106 255.778575 
L 640.839174 255.778575 
L 640.839174 141.788455 
L 640.514106 141.788455 
z
" style="fill:#eed7c6;stroke:#ffffff;"/>
    <path clip-path="url(#p3e636d3883)" d="M 640.351572 245.415837 
L 641.001708 245.415837 
L 641.001708 146.969824 
L 640.351572 146.969824 
z
" style="fill:#e5c4a9;stroke:#ffffff;"/>
    <path clip-path="url(#p3e636d3883)" d="M 640.026504 240.234468 
L 641.326776 240.234468 
L 641.326776 152.151193 
L 640.026504 152.151193 
z
" style="fill:#ddb08c;stroke:#ffffff;"/>
    <path clip-path="url(#p3e636d3883)" d="M 639.376368 233.905795 
L 641.976912 233.905795 
L 641.976912 162.513931 
L 639.376368 162.513931 
z
" style="fill:#d49c70;stroke:#ffffff;"/>
    <path clip-path="url(#p3e636d3883)" d="M 638.076096 224.69036 
L 643.277184 224.69036 
L 643.277184 167.6953 
L 638.076096 167.6953 
z
" style="fill:#cb8853;stroke:#ffffff;"/>
    <path clip-path="url(#p3e636d3883)" d="M 635.475552 217.436444 
L 645.877728 217.436444 
L 645.877728 178.058039 
L 635.475552 178.058039 
z
" style="fill:#c37436;stroke:#ffffff;"/>
    <path clip-path="url(#p3e636d3883)" d="M 630.274464 209.146253 
L 651.078816 209.146253 
L 651.078816 188.420777 
L 630.274464 188.420777 
z
" style="fill:#ba611b;stroke:#ffffff;"/>
   </g>
   <g id="line2d_30">
    <path clip-path="url(#p3e636d3883)" d="M 552.258144 183.239408 
L 573.062496 183.239408 
" style="fill:none;stroke:#262626;stroke-linecap:round;stroke-opacity:0.45;stroke-width:1.5;"/>
   </g>
   <g id="line2d_31">
    <path clip-path="url(#p3e636d3883)" d="M 578.263584 186.348229 
L 599.067936 186.348229 
" style="fill:none;stroke:#262626;stroke-linecap:round;stroke-opacity:0.45;stroke-width:1.5;"/>
   </g>
   <g id="line2d_32">
    <path clip-path="url(#p3e636d3883)" d="M 604.269024 178.748888 
L 625.073376 178.748888 
" style="fill:none;stroke:#262626;stroke-linecap:round;stroke-opacity:0.45;stroke-width:1.5;"/>
   </g>
   <g id="line2d_33">
    <path clip-path="url(#p3e636d3883)" d="M 630.274464 198.783515 
L 651.078816 198.783515 
" style="fill:none;stroke:#262626;stroke-linecap:round;stroke-opacity:0.45;stroke-width:1.5;"/>
   </g>
   <g id="patch_12">
    <path d="M 549.6576 311.981 
L 549.6576 38.144 
" style="fill:none;stroke:#ffffff;stroke-linecap:square;stroke-linejoin:miter;stroke-width:1.25;"/>
   </g>
   <g id="patch_13">
    <path d="M 549.6576 311.981 
L 679.6848 311.981 
" style="fill:none;stroke:#ffffff;stroke-linecap:square;stroke-linejoin:miter;stroke-width:1.25;"/>
   </g>
   <g id="text_34">
    <!-- clusters = 16 -->
    <g style="fill:#262626;" transform="translate(558.661575 32.144)scale(0.168 -0.168)">
     <use xlink:href="#DejaVuSans-99"/>
     <use x="54.980469" xlink:href="#DejaVuSans-108"/>
     <use x="82.763672" xlink:href="#DejaVuSans-117"/>
     <use x="146.142578" xlink:href="#DejaVuSans-115"/>
     <use x="198.242188" xlink:href="#DejaVuSans-116"/>
     <use x="237.451172" xlink:href="#DejaVuSans-101"/>
     <use x="298.974609" xlink:href="#DejaVuSans-114"/>
     <use x="340.087891" xlink:href="#DejaVuSans-115"/>
     <use x="392.1875" xlink:href="#DejaVuSans-32"/>
     <use x="423.974609" xlink:href="#DejaVuSans-61"/>
     <use x="507.763672" xlink:href="#DejaVuSans-32"/>
     <use x="539.550781" xlink:href="#DejaVuSans-49"/>
     <use x="603.173828" xlink:href="#DejaVuSans-54"/>
    </g>
   </g>
  </g>
  <g id="axes_5">
   <g id="patch_14">
    <path d="M 709.8288 311.981 
L 839.856 311.981 
L 839.856 38.144 
L 709.8288 38.144 
z
" style="fill:#eaeaf2;"/>
   </g>
   <g id="matplotlib.axis_9">
    <g id="xtick_21">
     <g id="text_35">
      <!--    metis -->
      <g style="fill:#262626;" transform="translate(727.080958 378.978344)rotate(-90)scale(0.154 -0.154)">
       <use xlink:href="#DejaVuSans-32"/>
       <use x="31.787109" xlink:href="#DejaVuSans-32"/>
       <use x="63.574219" xlink:href="#DejaVuSans-32"/>
       <use x="95.361328" xlink:href="#DejaVuSans-109"/>
       <use x="192.773438" xlink:href="#DejaVuSans-101"/>
       <use x="254.296875" xlink:href="#DejaVuSans-116"/>
       <use x="293.505859" xlink:href="#DejaVuSans-105"/>
       <use x="321.289062" xlink:href="#DejaVuSans-115"/>
      </g>
     </g>
    </g>
    <g id="xtick_22">
     <g id="text_36">
      <!--   merged -->
      <g style="fill:#262626;" transform="translate(753.086398 391.103438)rotate(-90)scale(0.154 -0.154)">
       <use xlink:href="#DejaVuSans-32"/>
       <use x="31.787109" xlink:href="#DejaVuSans-32"/>
       <use x="63.574219" xlink:href="#DejaVuSans-109"/>
       <use x="160.986328" xlink:href="#DejaVuSans-101"/>
       <use x="222.509766" xlink:href="#DejaVuSans-114"/>
       <use x="263.607422" xlink:href="#DejaVuSans-103"/>
       <use x="327.083984" xlink:href="#DejaVuSans-101"/>
       <use x="388.607422" xlink:href="#DejaVuSans-100"/>
      </g>
     </g>
    </g>
    <g id="xtick_23">
     <g id="text_37">
      <!--     prio -->
      <g style="fill:#262626;" transform="translate(779.091837 370.866875)rotate(-90)scale(0.154 -0.154)">
       <use xlink:href="#DejaVuSans-32"/>
       <use x="31.787109" xlink:href="#DejaVuSans-32"/>
       <use x="63.574219" xlink:href="#DejaVuSans-32"/>
       <use x="95.361328" xlink:href="#DejaVuSans-32"/>
       <use x="127.148438" xlink:href="#DejaVuSans-112"/>
       <use x="190.625" xlink:href="#DejaVuSans-114"/>
       <use x="231.738281" xlink:href="#DejaVuSans-105"/>
       <use x="259.521484" xlink:href="#DejaVuSans-111"/>
      </g>
     </g>
    </g>
    <g id="xtick_24">
     <g id="text_38">
      <!--   kmeans -->
      <g style="fill:#262626;" transform="translate(805.097278 391.883062)rotate(-90)scale(0.154 -0.154)">
       <use xlink:href="#DejaVuSans-32"/>
       <use x="31.787109" xlink:href="#DejaVuSans-32"/>
       <use x="63.574219" xlink:href="#DejaVuSans-107"/>
       <use x="121.484375" xlink:href="#DejaVuSans-109"/>
       <use x="218.896484" xlink:href="#DejaVuSans-101"/>
       <use x="280.419922" xlink:href="#DejaVuSans-97"/>
       <use x="341.699219" xlink:href="#DejaVuSans-110"/>
       <use x="405.078125" xlink:href="#DejaVuSans-115"/>
      </g>
     </g>
    </g>
    <g id="xtick_25">
     <g id="text_39">
      <!--     base -->
      <g style="fill:#262626;" transform="translate(831.102718 377.770406)rotate(-90)scale(0.154 -0.154)">
       <use xlink:href="#DejaVuSans-32"/>
       <use x="31.787109" xlink:href="#DejaVuSans-32"/>
       <use x="63.574219" xlink:href="#DejaVuSans-32"/>
       <use x="95.361328" xlink:href="#DejaVuSans-32"/>
       <use x="127.148438" xlink:href="#DejaVuSans-98"/>
       <use x="190.625" xlink:href="#DejaVuSans-97"/>
       <use x="251.904297" xlink:href="#DejaVuSans-115"/>
       <use x="304.003906" xlink:href="#DejaVuSans-101"/>
      </g>
     </g>
    </g>
    <g id="text_40">
     <!-- method  -->
     <g style="fill:#262626;" transform="translate(739.733025 408.648438)scale(0.168 -0.168)">
      <use xlink:href="#DejaVuSans-109"/>
      <use x="97.412109" xlink:href="#DejaVuSans-101"/>
      <use x="158.935547" xlink:href="#DejaVuSans-116"/>
      <use x="198.144531" xlink:href="#DejaVuSans-104"/>
      <use x="261.523438" xlink:href="#DejaVuSans-111"/>
      <use x="322.705078" xlink:href="#DejaVuSans-100"/>
      <use x="386.181641" xlink:href="#DejaVuSans-32"/>
     </g>
    </g>
   </g>
   <g id="matplotlib.axis_10">
    <g id="ytick_21">
     <g id="line2d_34">
      <path clip-path="url(#p08fe83ecee)" d="M 709.8288 271.322682 
L 839.856 271.322682 
" style="fill:none;stroke:#ffffff;stroke-linecap:round;"/>
     </g>
    </g>
    <g id="ytick_22">
     <g id="line2d_35">
      <path clip-path="url(#p08fe83ecee)" d="M 709.8288 219.508991 
L 839.856 219.508991 
" style="fill:none;stroke:#ffffff;stroke-linecap:round;"/>
     </g>
    </g>
    <g id="ytick_23">
     <g id="line2d_36">
      <path clip-path="url(#p08fe83ecee)" d="M 709.8288 167.6953 
L 839.856 167.6953 
" style="fill:none;stroke:#ffffff;stroke-linecap:round;"/>
     </g>
    </g>
    <g id="ytick_24">
     <g id="line2d_37">
      <path clip-path="url(#p08fe83ecee)" d="M 709.8288 115.881609 
L 839.856 115.881609 
" style="fill:none;stroke:#ffffff;stroke-linecap:round;"/>
     </g>
    </g>
    <g id="ytick_25">
     <g id="line2d_38">
      <path clip-path="url(#p08fe83ecee)" d="M 709.8288 64.067918 
L 839.856 64.067918 
" style="fill:none;stroke:#ffffff;stroke-linecap:round;"/>
     </g>
    </g>
   </g>
   <g id="PathCollection_14">
    <g clip-path="url(#p08fe83ecee)">
     <use style="fill:#176d9c;stroke:#176d9c;" x="722.83152" xlink:href="#m6ead7b1816" y="245.415837"/>
     <use style="fill:#176d9c;stroke:#176d9c;" x="722.83152" xlink:href="#m6ead7b1816" y="235.053099"/>
     <use style="fill:#176d9c;stroke:#176d9c;" x="722.83152" xlink:href="#m6ead7b1816" y="240.234468"/>
     <use style="fill:#176d9c;stroke:#176d9c;" x="722.83152" xlink:href="#m6ead7b1816" y="95.156133"/>
     <use style="fill:#176d9c;stroke:#176d9c;" x="722.83152" xlink:href="#m6ead7b1816" y="64.067918"/>
     <use style="fill:#176d9c;stroke:#176d9c;" x="722.83152" xlink:href="#m6ead7b1816" y="95.156133"/>
    </g>
   </g>
   <g id="PatchCollection_14">
    <path clip-path="url(#p08fe83ecee)" d="M 722.790887 229.87173 
L 722.872154 229.87173 
L 722.872154 100.337502 
L 722.790887 100.337502 
z
" style="fill:#ffffff;stroke:#ffffff;"/>
    <path clip-path="url(#p08fe83ecee)" d="M 722.750253 229.87173 
L 722.912787 229.87173 
L 722.912787 105.518871 
L 722.750253 105.518871 
z
" style="fill:#e2edf3;stroke:#ffffff;"/>
    <path clip-path="url(#p08fe83ecee)" d="M 722.668986 224.034015 
L 722.994054 224.034015 
L 722.994054 109.529806 
L 722.668986 109.529806 
z
" style="fill:#c5dae6;stroke:#ffffff;"/>
    <path clip-path="url(#p08fe83ecee)" d="M 722.506452 214.327622 
L 723.156588 214.327622 
L 723.156588 114.942486 
L 722.506452 114.942486 
z
" style="fill:#a8c8da;stroke:#ffffff;"/>
    <path clip-path="url(#p08fe83ecee)" d="M 722.181384 209.146253 
L 723.481656 209.146253 
L 723.481656 121.062979 
L 722.181384 121.062979 
z
" style="fill:#8bb6cd;stroke:#ffffff;"/>
    <path clip-path="url(#p08fe83ecee)" d="M 721.531248 198.783515 
L 724.131792 198.783515 
L 724.131792 126.244348 
L 721.531248 126.244348 
z
" style="fill:#6ea3c1;stroke:#ffffff;"/>
    <path clip-path="url(#p08fe83ecee)" d="M 720.230976 192.565872 
L 725.432064 192.565872 
L 725.432064 132.221427 
L 720.230976 132.221427 
z
" style="fill:#5091b4;stroke:#ffffff;"/>
    <path clip-path="url(#p08fe83ecee)" d="M 717.630432 183.239408 
L 728.032608 183.239408 
L 728.032608 141.788455 
L 717.630432 141.788455 
z
" style="fill:#337ea8;stroke:#ffffff;"/>
    <path clip-path="url(#p08fe83ecee)" d="M 712.429344 172.876669 
L 733.233696 172.876669 
L 733.233696 152.151193 
L 712.429344 152.151193 
z
" style="fill:#176d9c;stroke:#ffffff;"/>
   </g>
   <g id="PathCollection_15">
    <g clip-path="url(#p08fe83ecee)">
     <use style="fill:#c38820;stroke:#c38820;" x="748.83696" xlink:href="#m1a0075f2e8" y="229.87173"/>
     <use style="fill:#c38820;stroke:#c38820;" x="748.83696" xlink:href="#m1a0075f2e8" y="235.053099"/>
     <use style="fill:#c38820;stroke:#c38820;" x="748.83696" xlink:href="#m1a0075f2e8" y="235.053099"/>
     <use style="fill:#c38820;stroke:#c38820;" x="748.83696" xlink:href="#m1a0075f2e8" y="69.249288"/>
     <use style="fill:#c38820;stroke:#c38820;" x="748.83696" xlink:href="#m1a0075f2e8" y="58.886549"/>
     <use style="fill:#c38820;stroke:#c38820;" x="748.83696" xlink:href="#m1a0075f2e8" y="69.249288"/>
     <use style="fill:#c38820;stroke:#c38820;" x="748.83696" xlink:href="#m1a0075f2e8" y="64.067918"/>
    </g>
   </g>
   <g id="PatchCollection_15">
    <path clip-path="url(#p08fe83ecee)" d="M 748.796327 224.69036 
L 748.877594 224.69036 
L 748.877594 70.397892 
L 748.796327 70.397892 
z
" style="fill:#ffffff;stroke:#ffffff;"/>
    <path clip-path="url(#p08fe83ecee)" d="M 748.755693 214.739645 
L 748.918227 214.739645 
L 748.918227 81.909234 
L 748.755693 81.909234 
z
" style="fill:#f7f0e3;stroke:#ffffff;"/>
    <path clip-path="url(#p08fe83ecee)" d="M 748.674426 209.146253 
L 748.999494 209.146253 
L 748.999494 90.631109 
L 748.674426 90.631109 
z
" style="fill:#f0e1c7;stroke:#ffffff;"/>
    <path clip-path="url(#p08fe83ecee)" d="M 748.511892 203.964884 
L 749.162028 203.964884 
L 749.162028 100.337502 
L 748.511892 100.337502 
z
" style="fill:#e8d2ab;stroke:#ffffff;"/>
    <path clip-path="url(#p08fe83ecee)" d="M 748.186824 197.973926 
L 749.487096 197.973926 
L 749.487096 108.479654 
L 748.186824 108.479654 
z
" style="fill:#e1c38f;stroke:#ffffff;"/>
    <path clip-path="url(#p08fe83ecee)" d="M 747.536688 188.420777 
L 750.137232 188.420777 
L 750.137232 115.881609 
L 747.536688 115.881609 
z
" style="fill:#d9b473;stroke:#ffffff;"/>
    <path clip-path="url(#p08fe83ecee)" d="M 746.236416 180.130586 
L 751.437504 180.130586 
L 751.437504 126.244348 
L 746.236416 126.244348 
z
" style="fill:#d2a557;stroke:#ffffff;"/>
    <path clip-path="url(#p08fe83ecee)" d="M 743.635872 172.876669 
L 754.038048 172.876669 
L 754.038048 132.165912 
L 743.635872 132.165912 
z
" style="fill:#ca963b;stroke:#ffffff;"/>
    <path clip-path="url(#p08fe83ecee)" d="M 738.434784 163.550205 
L 759.239136 163.550205 
L 759.239136 141.788455 
L 738.434784 141.788455 
z
" style="fill:#c38820;stroke:#ffffff;"/>
   </g>
   <g id="PathCollection_16">
    <g clip-path="url(#p08fe83ecee)">
     <use style="fill:#158b6a;stroke:#158b6a;" x="774.8424" xlink:href="#m7b31e6822b" y="224.69036"/>
     <use style="fill:#158b6a;stroke:#158b6a;" x="774.8424" xlink:href="#m7b31e6822b" y="223.950165"/>
     <use style="fill:#158b6a;stroke:#158b6a;" x="774.8424" xlink:href="#m7b31e6822b" y="232.832512"/>
     <use style="fill:#158b6a;stroke:#158b6a;" x="774.8424" xlink:href="#m7b31e6822b" y="69.249288"/>
     <use style="fill:#158b6a;stroke:#158b6a;" x="774.8424" xlink:href="#m7b31e6822b" y="53.70518"/>
    </g>
   </g>
   <g id="PatchCollection_16">
    <path clip-path="url(#p08fe83ecee)" d="M 774.801766 214.327622 
L 774.883034 214.327622 
L 774.883034 79.612026 
L 774.801766 79.612026 
z
" style="fill:#ffffff;stroke:#ffffff;"/>
    <path clip-path="url(#p08fe83ecee)" d="M 774.761133 209.146253 
L 774.923667 209.146253 
L 774.923667 84.793395 
L 774.761133 84.793395 
z
" style="fill:#e2f0ec;stroke:#ffffff;"/>
    <path clip-path="url(#p08fe83ecee)" d="M 774.679866 203.964884 
L 775.004934 203.964884 
L 775.004934 84.793395 
L 774.679866 84.793395 
z
" style="fill:#c4e2da;stroke:#ffffff;"/>
    <path clip-path="url(#p08fe83ecee)" d="M 774.517332 198.783515 
L 775.167468 198.783515 
L 775.167468 95.156133 
L 774.517332 95.156133 
z
" style="fill:#a7d3c7;stroke:#ffffff;"/>
    <path clip-path="url(#p08fe83ecee)" d="M 774.192264 193.602146 
L 775.492536 193.602146 
L 775.492536 100.337502 
L 774.192264 100.337502 
z
" style="fill:#8ac5b4;stroke:#ffffff;"/>
    <path clip-path="url(#p08fe83ecee)" d="M 773.542128 183.239408 
L 776.142672 183.239408 
L 776.142672 110.732624 
L 773.542128 110.732624 
z
" style="fill:#6cb6a2;stroke:#ffffff;"/>
    <path clip-path="url(#p08fe83ecee)" d="M 772.241856 175.985491 
L 777.442944 175.985491 
L 777.442944 121.062979 
L 772.241856 121.062979 
z
" style="fill:#4fa78f;stroke:#ffffff;"/>
    <path clip-path="url(#p08fe83ecee)" d="M 769.641312 167.6953 
L 780.043488 167.6953 
L 780.043488 129.007744 
L 769.641312 129.007744 
z
" style="fill:#32997c;stroke:#ffffff;"/>
    <path clip-path="url(#p08fe83ecee)" d="M 764.440224 158.812953 
L 785.244576 158.812953 
L 785.244576 136.607086 
L 764.440224 136.607086 
z
" style="fill:#158b6a;stroke:#ffffff;"/>
   </g>
   <g id="PathCollection_17">
    <g clip-path="url(#p08fe83ecee)">
     <use style="fill:#ba611b;stroke:#ba611b;" x="800.84784" xlink:href="#m0db526b68e" y="260.959944"/>
     <use style="fill:#ba611b;stroke:#ba611b;" x="800.84784" xlink:href="#m0db526b68e" y="250.597206"/>
     <use style="fill:#ba611b;stroke:#ba611b;" x="800.84784" xlink:href="#m0db526b68e" y="250.597206"/>
     <use style="fill:#ba611b;stroke:#ba611b;" x="800.84784" xlink:href="#m0db526b68e" y="250.597206"/>
     <use style="fill:#ba611b;stroke:#ba611b;" x="800.84784" xlink:href="#m0db526b68e" y="121.062979"/>
     <use style="fill:#ba611b;stroke:#ba611b;" x="800.84784" xlink:href="#m0db526b68e" y="110.70024"/>
     <use style="fill:#ba611b;stroke:#ba611b;" x="800.84784" xlink:href="#m0db526b68e" y="100.337502"/>
    </g>
   </g>
   <g id="PatchCollection_17">
    <path clip-path="url(#p08fe83ecee)" d="M 800.807207 249.448602 
L 800.888474 249.448602 
L 800.888474 126.244348 
L 800.807207 126.244348 
z
" style="fill:#ffffff;stroke:#ffffff;"/>
    <path clip-path="url(#p08fe83ecee)" d="M 800.766573 245.415837 
L 800.929107 245.415837 
L 800.929107 126.244348 
L 800.766573 126.244348 
z
" style="fill:#f6ebe2;stroke:#ffffff;"/>
    <path clip-path="url(#p08fe83ecee)" d="M 800.685306 240.234468 
L 801.010374 240.234468 
L 801.010374 130.255282 
L 800.685306 130.255282 
z
" style="fill:#eed7c6;stroke:#ffffff;"/>
    <path clip-path="url(#p08fe83ecee)" d="M 800.522772 229.87173 
L 801.172908 229.87173 
L 801.172908 131.425717 
L 800.522772 131.425717 
z
" style="fill:#e5c4a9;stroke:#ffffff;"/>
    <path clip-path="url(#p08fe83ecee)" d="M 800.197704 225.159922 
L 801.497976 225.159922 
L 801.497976 141.048259 
L 800.197704 141.048259 
z
" style="fill:#ddb08c;stroke:#ffffff;"/>
    <path clip-path="url(#p08fe83ecee)" d="M 799.547568 219.508991 
L 802.148112 219.508991 
L 802.148112 146.969824 
L 799.547568 146.969824 
z
" style="fill:#d49c70;stroke:#ffffff;"/>
    <path clip-path="url(#p08fe83ecee)" d="M 798.247296 212.107035 
L 803.448384 212.107035 
L 803.448384 157.332562 
L 798.247296 157.332562 
z
" style="fill:#cb8853;stroke:#ffffff;"/>
    <path clip-path="url(#p08fe83ecee)" d="M 795.646752 203.964884 
L 806.048928 203.964884 
L 806.048928 164.734518 
L 795.646752 164.734518 
z
" style="fill:#c37436;stroke:#ffffff;"/>
    <path clip-path="url(#p08fe83ecee)" d="M 790.445664 195.674693 
L 811.250016 195.674693 
L 811.250016 173.616865 
L 790.445664 173.616865 
z
" style="fill:#ba611b;stroke:#ffffff;"/>
   </g>
   <g id="line2d_39">
    <path clip-path="url(#p08fe83ecee)" d="M 712.429344 162.513931 
L 733.233696 162.513931 
" style="fill:none;stroke:#262626;stroke-linecap:round;stroke-opacity:0.45;stroke-width:1.5;"/>
   </g>
   <g id="line2d_40">
    <path clip-path="url(#p08fe83ecee)" d="M 738.434784 152.891389 
L 759.239136 152.891389 
" style="fill:none;stroke:#262626;stroke-linecap:round;stroke-opacity:0.45;stroke-width:1.5;"/>
   </g>
   <g id="line2d_41">
    <path clip-path="url(#p08fe83ecee)" d="M 764.440224 148.351522 
L 785.244576 148.351522 
" style="fill:none;stroke:#262626;stroke-linecap:round;stroke-opacity:0.45;stroke-width:1.5;"/>
   </g>
   <g id="line2d_42">
    <path clip-path="url(#p08fe83ecee)" d="M 790.445664 184.309913 
L 811.250016 184.309913 
" style="fill:none;stroke:#262626;stroke-linecap:round;stroke-opacity:0.45;stroke-width:1.5;"/>
   </g>
   <g id="patch_15">
    <path d="M 709.8288 311.981 
L 709.8288 38.144 
" style="fill:none;stroke:#ffffff;stroke-linecap:square;stroke-linejoin:miter;stroke-width:1.25;"/>
   </g>
   <g id="patch_16">
    <path d="M 709.8288 311.981 
L 839.856 311.981 
" style="fill:none;stroke:#ffffff;stroke-linecap:square;stroke-linejoin:miter;stroke-width:1.25;"/>
   </g>
   <g id="text_41">
    <!-- clusters = 32 -->
    <g style="fill:#262626;" transform="translate(718.832775 32.144)scale(0.168 -0.168)">
     <use xlink:href="#DejaVuSans-99"/>
     <use x="54.980469" xlink:href="#DejaVuSans-108"/>
     <use x="82.763672" xlink:href="#DejaVuSans-117"/>
     <use x="146.142578" xlink:href="#DejaVuSans-115"/>
     <use x="198.242188" xlink:href="#DejaVuSans-116"/>
     <use x="237.451172" xlink:href="#DejaVuSans-101"/>
     <use x="298.974609" xlink:href="#DejaVuSans-114"/>
     <use x="340.087891" xlink:href="#DejaVuSans-115"/>
     <use x="392.1875" xlink:href="#DejaVuSans-32"/>
     <use x="423.974609" xlink:href="#DejaVuSans-61"/>
     <use x="507.763672" xlink:href="#DejaVuSans-32"/>
     <use x="539.550781" xlink:href="#DejaVuSans-51"/>
     <use x="603.173828" xlink:href="#DejaVuSans-50"/>
    </g>
   </g>
  </g>
 </g>
 <defs>
  <clipPath id="pc370f7bccc">
   <rect height="273.837" width="130.0272" x="69.144" y="38.144"/>
  </clipPath>
  <clipPath id="p025a8cb4e5">
   <rect height="273.837" width="130.0272" x="229.3152" y="38.144"/>
  </clipPath>
  <clipPath id="pe574c31d45">
   <rect height="273.837" width="130.0272" x="389.4864" y="38.144"/>
  </clipPath>
  <clipPath id="p3e636d3883">
   <rect height="273.837" width="130.0272" x="549.6576" y="38.144"/>
  </clipPath>
  <clipPath id="p08fe83ecee">
   <rect height="273.837" width="130.0272" x="709.8288" y="38.144"/>
  </clipPath>
 </defs>
</svg>
