<?xml version="1.0" encoding="utf-8" standalone="no"?>
<!DOCTYPE svg PUBLIC "-//W3C//DTD SVG 1.1//EN"
  "http://www.w3.org/Graphics/SVG/1.1/DTD/svg11.dtd">
<!-- Created with matplotlib (https://matplotlib.org/) -->
<svg height="432pt" version="1.1" viewBox="0 0 864 432" width="864pt" xmlns="http://www.w3.org/2000/svg" xmlns:xlink="http://www.w3.org/1999/xlink">
 <defs>
  <style type="text/css">
*{stroke-linecap:butt;stroke-linejoin:round;}
  </style>
 </defs>
 <g id="figure_1">
  <g id="patch_1">
   <path d="M 0 432 
L 864 432 
L 864 0 
L 0 0 
z
" style="fill:#ffffff;"/>
  </g>
  <g id="axes_1">
   <g id="patch_2">
    <path d="M 64.756 377.244 
L 239.811 377.244 
L 239.811 43.2 
L 64.756 43.2 
z
" style="fill:#eaeaf2;"/>
   </g>
   <g id="matplotlib.axis_1">
    <g id="xtick_1">
     <g id="text_1">
      <!-- metis -->
      <defs>
       <path d="M 52 44.1875 
Q 55.375 50.25 60.0625 53.125 
Q 64.75 56 71.09375 56 
Q 79.640625 56 84.28125 50.015625 
Q 88.921875 44.046875 88.921875 33.015625 
L 88.921875 0 
L 79.890625 0 
L 79.890625 32.71875 
Q 79.890625 40.578125 77.09375 44.375 
Q 74.3125 48.1875 68.609375 48.1875 
Q 61.625 48.1875 57.5625 43.546875 
Q 53.515625 38.921875 53.515625 30.90625 
L 53.515625 0 
L 44.484375 0 
L 44.484375 32.71875 
Q 44.484375 40.625 41.703125 44.40625 
Q 38.921875 48.1875 33.109375 48.1875 
Q 26.21875 48.1875 22.15625 43.53125 
Q 18.109375 38.875 18.109375 30.90625 
L 18.109375 0 
L 9.078125 0 
L 9.078125 54.6875 
L 18.109375 54.6875 
L 18.109375 46.1875 
Q 21.1875 51.21875 25.484375 53.609375 
Q 29.78125 56 35.6875 56 
Q 41.65625 56 45.828125 52.96875 
Q 50 49.953125 52 44.1875 
z
" id="DejaVuSans-109"/>
       <path d="M 56.203125 29.59375 
L 56.203125 25.203125 
L 14.890625 25.203125 
Q 15.484375 15.921875 20.484375 11.0625 
Q 25.484375 6.203125 34.421875 6.203125 
Q 39.59375 6.203125 44.453125 7.46875 
Q 49.3125 8.734375 54.109375 11.28125 
L 54.109375 2.78125 
Q 49.265625 0.734375 44.1875 -0.34375 
Q 39.109375 -1.421875 33.890625 -1.421875 
Q 20.796875 -1.421875 13.15625 6.1875 
Q 5.515625 13.8125 5.515625 26.8125 
Q 5.515625 40.234375 12.765625 48.109375 
Q 20.015625 56 32.328125 56 
Q 43.359375 56 49.78125 48.890625 
Q 56.203125 41.796875 56.203125 29.59375 
z
M 47.21875 32.234375 
Q 47.125 39.59375 43.09375 43.984375 
Q 39.0625 48.390625 32.421875 48.390625 
Q 24.90625 48.390625 20.390625 44.140625 
Q 15.875 39.890625 15.1875 32.171875 
z
" id="DejaVuSans-101"/>
       <path d="M 18.3125 70.21875 
L 18.3125 54.6875 
L 36.8125 54.6875 
L 36.8125 47.703125 
L 18.3125 47.703125 
L 18.3125 18.015625 
Q 18.3125 11.328125 20.140625 9.421875 
Q 21.96875 7.515625 27.59375 7.515625 
L 36.8125 7.515625 
L 36.8125 0 
L 27.59375 0 
Q 17.1875 0 13.234375 3.875 
Q 9.28125 7.765625 9.28125 18.015625 
L 9.28125 47.703125 
L 2.6875 47.703125 
L 2.6875 54.6875 
L 9.28125 54.6875 
L 9.28125 70.21875 
z
" id="DejaVuSans-116"/>
       <path d="M 9.421875 54.6875 
L 18.40625 54.6875 
L 18.40625 0 
L 9.421875 0 
z
M 9.421875 75.984375 
L 18.40625 75.984375 
L 18.40625 64.59375 
L 9.421875 64.59375 
z
" id="DejaVuSans-105"/>
       <path d="M 44.28125 53.078125 
L 44.28125 44.578125 
Q 40.484375 46.53125 36.375 47.5 
Q 32.28125 48.484375 27.875 48.484375 
Q 21.1875 48.484375 17.84375 46.4375 
Q 14.5 44.390625 14.5 40.28125 
Q 14.5 37.15625 16.890625 35.375 
Q 19.28125 33.59375 26.515625 31.984375 
L 29.59375 31.296875 
Q 39.15625 29.25 43.1875 25.515625 
Q 47.21875 21.78125 47.21875 15.09375 
Q 47.21875 7.46875 41.1875 3.015625 
Q 35.15625 -1.421875 24.609375 -1.421875 
Q 20.21875 -1.421875 15.453125 -0.5625 
Q 10.6875 0.296875 5.421875 2 
L 5.421875 11.28125 
Q 10.40625 8.6875 15.234375 7.390625 
Q 20.0625 6.109375 24.8125 6.109375 
Q 31.15625 6.109375 34.5625 8.28125 
Q 37.984375 10.453125 37.984375 14.40625 
Q 37.984375 18.0625 35.515625 20.015625 
Q 33.0625 21.96875 24.703125 23.78125 
L 21.578125 24.515625 
Q 13.234375 26.265625 9.515625 29.90625 
Q 5.8125 33.546875 5.8125 39.890625 
Q 5.8125 47.609375 11.28125 51.796875 
Q 16.75 56 26.8125 56 
Q 31.78125 56 36.171875 55.265625 
Q 40.578125 54.546875 44.28125 53.078125 
z
" id="DejaVuSans-115"/>
      </defs>
      <g style="fill:#262626;" transform="translate(69.81793 395.938109)scale(0.121 -0.121)">
       <use xlink:href="#DejaVuSans-109"/>
       <use x="97.412109" xlink:href="#DejaVuSans-101"/>
       <use x="158.935547" xlink:href="#DejaVuSans-116"/>
       <use x="198.144531" xlink:href="#DejaVuSans-105"/>
       <use x="225.927734" xlink:href="#DejaVuSans-115"/>
      </g>
     </g>
    </g>
    <g id="xtick_2">
     <g id="text_2">
      <!-- merged -->
      <defs>
       <path d="M 41.109375 46.296875 
Q 39.59375 47.171875 37.8125 47.578125 
Q 36.03125 48 33.890625 48 
Q 26.265625 48 22.1875 43.046875 
Q 18.109375 38.09375 18.109375 28.8125 
L 18.109375 0 
L 9.078125 0 
L 9.078125 54.6875 
L 18.109375 54.6875 
L 18.109375 46.1875 
Q 20.953125 51.171875 25.484375 53.578125 
Q 30.03125 56 36.53125 56 
Q 37.453125 56 38.578125 55.875 
Q 39.703125 55.765625 41.0625 55.515625 
z
" id="DejaVuSans-114"/>
       <path d="M 45.40625 27.984375 
Q 45.40625 37.75 41.375 43.109375 
Q 37.359375 48.484375 30.078125 48.484375 
Q 22.859375 48.484375 18.828125 43.109375 
Q 14.796875 37.75 14.796875 27.984375 
Q 14.796875 18.265625 18.828125 12.890625 
Q 22.859375 7.515625 30.078125 7.515625 
Q 37.359375 7.515625 41.375 12.890625 
Q 45.40625 18.265625 45.40625 27.984375 
z
M 54.390625 6.78125 
Q 54.390625 -7.171875 48.1875 -13.984375 
Q 42 -20.796875 29.203125 -20.796875 
Q 24.46875 -20.796875 20.265625 -20.09375 
Q 16.0625 -19.390625 12.109375 -17.921875 
L 12.109375 -9.1875 
Q 16.0625 -11.328125 19.921875 -12.34375 
Q 23.78125 -13.375 27.78125 -13.375 
Q 36.625 -13.375 41.015625 -8.765625 
Q 45.40625 -4.15625 45.40625 5.171875 
L 45.40625 9.625 
Q 42.625 4.78125 38.28125 2.390625 
Q 33.9375 0 27.875 0 
Q 17.828125 0 11.671875 7.65625 
Q 5.515625 15.328125 5.515625 27.984375 
Q 5.515625 40.671875 11.671875 48.328125 
Q 17.828125 56 27.875 56 
Q 33.9375 56 38.28125 53.609375 
Q 42.625 51.21875 45.40625 46.390625 
L 45.40625 54.6875 
L 54.390625 54.6875 
z
" id="DejaVuSans-103"/>
       <path d="M 45.40625 46.390625 
L 45.40625 75.984375 
L 54.390625 75.984375 
L 54.390625 0 
L 45.40625 0 
L 45.40625 8.203125 
Q 42.578125 3.328125 38.25 0.953125 
Q 33.9375 -1.421875 27.875 -1.421875 
Q 17.96875 -1.421875 11.734375 6.484375 
Q 5.515625 14.40625 5.515625 27.296875 
Q 5.515625 40.1875 11.734375 48.09375 
Q 17.96875 56 27.875 56 
Q 33.9375 56 38.25 53.625 
Q 42.578125 51.265625 45.40625 46.390625 
z
M 14.796875 27.296875 
Q 14.796875 17.390625 18.875 11.75 
Q 22.953125 6.109375 30.078125 6.109375 
Q 37.203125 6.109375 41.296875 11.75 
Q 45.40625 17.390625 45.40625 27.296875 
Q 45.40625 37.203125 41.296875 42.84375 
Q 37.203125 48.484375 30.078125 48.484375 
Q 22.953125 48.484375 18.875 42.84375 
Q 14.796875 37.203125 14.796875 27.296875 
z
" id="DejaVuSans-100"/>
      </defs>
      <g style="fill:#262626;" transform="translate(106.895484 395.938109)scale(0.121 -0.121)">
       <use xlink:href="#DejaVuSans-109"/>
       <use x="97.412109" xlink:href="#DejaVuSans-101"/>
       <use x="158.935547" xlink:href="#DejaVuSans-114"/>
       <use x="200.033203" xlink:href="#DejaVuSans-103"/>
       <use x="263.509766" xlink:href="#DejaVuSans-101"/>
       <use x="325.033203" xlink:href="#DejaVuSans-100"/>
      </g>
     </g>
    </g>
    <g id="xtick_3">
     <g id="text_3">
      <!-- prio -->
      <defs>
       <path d="M 18.109375 8.203125 
L 18.109375 -20.796875 
L 9.078125 -20.796875 
L 9.078125 54.6875 
L 18.109375 54.6875 
L 18.109375 46.390625 
Q 20.953125 51.265625 25.265625 53.625 
Q 29.59375 56 35.59375 56 
Q 45.5625 56 51.78125 48.09375 
Q 58.015625 40.1875 58.015625 27.296875 
Q 58.015625 14.40625 51.78125 6.484375 
Q 45.5625 -1.421875 35.59375 -1.421875 
Q 29.59375 -1.421875 25.265625 0.953125 
Q 20.953125 3.328125 18.109375 8.203125 
z
M 48.6875 27.296875 
Q 48.6875 37.203125 44.609375 42.84375 
Q 40.53125 48.484375 33.40625 48.484375 
Q 26.265625 48.484375 22.1875 42.84375 
Q 18.109375 37.203125 18.109375 27.296875 
Q 18.109375 17.390625 22.1875 11.75 
Q 26.265625 6.109375 33.40625 6.109375 
Q 40.53125 6.109375 44.609375 11.75 
Q 48.6875 17.390625 48.6875 27.296875 
z
" id="DejaVuSans-112"/>
       <path d="M 30.609375 48.390625 
Q 23.390625 48.390625 19.1875 42.75 
Q 14.984375 37.109375 14.984375 27.296875 
Q 14.984375 17.484375 19.15625 11.84375 
Q 23.34375 6.203125 30.609375 6.203125 
Q 37.796875 6.203125 41.984375 11.859375 
Q 46.1875 17.53125 46.1875 27.296875 
Q 46.1875 37.015625 41.984375 42.703125 
Q 37.796875 48.390625 30.609375 48.390625 
z
M 30.609375 56 
Q 42.328125 56 49.015625 48.375 
Q 55.71875 40.765625 55.71875 27.296875 
Q 55.71875 13.875 49.015625 6.21875 
Q 42.328125 -1.421875 30.609375 -1.421875 
Q 18.84375 -1.421875 12.171875 6.21875 
Q 5.515625 13.875 5.515625 27.296875 
Q 5.515625 40.765625 12.171875 48.375 
Q 18.84375 56 30.609375 56 
z
" id="DejaVuSans-111"/>
      </defs>
      <g style="fill:#262626;" transform="translate(162.454844 395.938109)scale(0.121 -0.121)">
       <use xlink:href="#DejaVuSans-112"/>
       <use x="63.476562" xlink:href="#DejaVuSans-114"/>
       <use x="104.589844" xlink:href="#DejaVuSans-105"/>
       <use x="132.373047" xlink:href="#DejaVuSans-111"/>
      </g>
     </g>
    </g>
    <g id="xtick_4">
     <g id="text_4">
      <!-- kmeans -->
      <defs>
       <path d="M 9.078125 75.984375 
L 18.109375 75.984375 
L 18.109375 31.109375 
L 44.921875 54.6875 
L 56.390625 54.6875 
L 27.390625 29.109375 
L 57.625 0 
L 45.90625 0 
L 18.109375 26.703125 
L 18.109375 0 
L 9.078125 0 
z
" id="DejaVuSans-107"/>
       <path d="M 34.28125 27.484375 
Q 23.390625 27.484375 19.1875 25 
Q 14.984375 22.515625 14.984375 16.5 
Q 14.984375 11.71875 18.140625 8.90625 
Q 21.296875 6.109375 26.703125 6.109375 
Q 34.1875 6.109375 38.703125 11.40625 
Q 43.21875 16.703125 43.21875 25.484375 
L 43.21875 27.484375 
z
M 52.203125 31.203125 
L 52.203125 0 
L 43.21875 0 
L 43.21875 8.296875 
Q 40.140625 3.328125 35.546875 0.953125 
Q 30.953125 -1.421875 24.3125 -1.421875 
Q 15.921875 -1.421875 10.953125 3.296875 
Q 6 8.015625 6 15.921875 
Q 6 25.140625 12.171875 29.828125 
Q 18.359375 34.515625 30.609375 34.515625 
L 43.21875 34.515625 
L 43.21875 35.40625 
Q 43.21875 41.609375 39.140625 45 
Q 35.0625 48.390625 27.6875 48.390625 
Q 23 48.390625 18.546875 47.265625 
Q 14.109375 46.140625 10.015625 43.890625 
L 10.015625 52.203125 
Q 14.9375 54.109375 19.578125 55.046875 
Q 24.21875 56 28.609375 56 
Q 40.484375 56 46.34375 49.84375 
Q 52.203125 43.703125 52.203125 31.203125 
z
" id="DejaVuSans-97"/>
       <path d="M 54.890625 33.015625 
L 54.890625 0 
L 45.90625 0 
L 45.90625 32.71875 
Q 45.90625 40.484375 42.875 44.328125 
Q 39.84375 48.1875 33.796875 48.1875 
Q 26.515625 48.1875 22.3125 43.546875 
Q 18.109375 38.921875 18.109375 30.90625 
L 18.109375 0 
L 9.078125 0 
L 9.078125 54.6875 
L 18.109375 54.6875 
L 18.109375 46.1875 
Q 21.34375 51.125 25.703125 53.5625 
Q 30.078125 56 35.796875 56 
Q 45.21875 56 50.046875 50.171875 
Q 54.890625 44.34375 54.890625 33.015625 
z
" id="DejaVuSans-110"/>
      </defs>
      <g style="fill:#262626;" transform="translate(194.116703 395.938109)scale(0.121 -0.121)">
       <use xlink:href="#DejaVuSans-107"/>
       <use x="57.910156" xlink:href="#DejaVuSans-109"/>
       <use x="155.322266" xlink:href="#DejaVuSans-101"/>
       <use x="216.845703" xlink:href="#DejaVuSans-97"/>
       <use x="278.125" xlink:href="#DejaVuSans-110"/>
       <use x="341.503906" xlink:href="#DejaVuSans-115"/>
      </g>
     </g>
    </g>
    <g id="text_5">
     <!-- Method -->
     <defs>
      <path d="M 9.8125 72.90625 
L 24.515625 72.90625 
L 43.109375 23.296875 
L 61.8125 72.90625 
L 76.515625 72.90625 
L 76.515625 0 
L 66.890625 0 
L 66.890625 64.015625 
L 48.09375 14.015625 
L 38.1875 14.015625 
L 19.390625 64.015625 
L 19.390625 0 
L 9.8125 0 
z
" id="DejaVuSans-77"/>
      <path d="M 54.890625 33.015625 
L 54.890625 0 
L 45.90625 0 
L 45.90625 32.71875 
Q 45.90625 40.484375 42.875 44.328125 
Q 39.84375 48.1875 33.796875 48.1875 
Q 26.515625 48.1875 22.3125 43.546875 
Q 18.109375 38.921875 18.109375 30.90625 
L 18.109375 0 
L 9.078125 0 
L 9.078125 75.984375 
L 18.109375 75.984375 
L 18.109375 46.1875 
Q 21.34375 51.125 25.703125 53.5625 
Q 30.078125 56 35.796875 56 
Q 45.21875 56 50.046875 50.171875 
Q 54.890625 44.34375 54.890625 33.015625 
z
" id="DejaVuSans-104"/>
     </defs>
     <g style="fill:#262626;" transform="translate(127.529375 412.484469)scale(0.132 -0.132)">
      <use xlink:href="#DejaVuSans-77"/>
      <use x="86.279297" xlink:href="#DejaVuSans-101"/>
      <use x="147.802734" xlink:href="#DejaVuSans-116"/>
      <use x="187.011719" xlink:href="#DejaVuSans-104"/>
      <use x="250.390625" xlink:href="#DejaVuSans-111"/>
      <use x="311.572266" xlink:href="#DejaVuSans-100"/>
     </g>
    </g>
   </g>
   <g id="matplotlib.axis_2">
    <g id="ytick_1">
     <g id="line2d_1">
      <path clip-path="url(#pb3fb7caba7)" d="M 64.756 377.244 
L 239.811 377.244 
" style="fill:none;stroke:#ffffff;stroke-linecap:round;"/>
     </g>
     <g id="text_6">
      <!-- 0 -->
      <defs>
       <path d="M 31.78125 66.40625 
Q 24.171875 66.40625 20.328125 58.90625 
Q 16.5 51.421875 16.5 36.375 
Q 16.5 21.390625 20.328125 13.890625 
Q 24.171875 6.390625 31.78125 6.390625 
Q 39.453125 6.390625 43.28125 13.890625 
Q 47.125 21.390625 47.125 36.375 
Q 47.125 51.421875 43.28125 58.90625 
Q 39.453125 66.40625 31.78125 66.40625 
z
M 31.78125 74.21875 
Q 44.046875 74.21875 50.515625 64.515625 
Q 56.984375 54.828125 56.984375 36.375 
Q 56.984375 17.96875 50.515625 8.265625 
Q 44.046875 -1.421875 31.78125 -1.421875 
Q 19.53125 -1.421875 13.0625 8.265625 
Q 6.59375 17.96875 6.59375 36.375 
Q 6.59375 54.828125 13.0625 64.515625 
Q 19.53125 74.21875 31.78125 74.21875 
z
" id="DejaVuSans-48"/>
      </defs>
      <g style="fill:#262626;" transform="translate(47.557375 381.841055)scale(0.121 -0.121)">
       <use xlink:href="#DejaVuSans-48"/>
      </g>
     </g>
    </g>
    <g id="ytick_2">
     <g id="line2d_2">
      <path clip-path="url(#pb3fb7caba7)" d="M 64.756 310.4352 
L 239.811 310.4352 
" style="fill:none;stroke:#ffffff;stroke-linecap:round;"/>
     </g>
     <g id="text_7">
      <!-- 20 -->
      <defs>
       <path d="M 19.1875 8.296875 
L 53.609375 8.296875 
L 53.609375 0 
L 7.328125 0 
L 7.328125 8.296875 
Q 12.9375 14.109375 22.625 23.890625 
Q 32.328125 33.6875 34.8125 36.53125 
Q 39.546875 41.84375 41.421875 45.53125 
Q 43.3125 49.21875 43.3125 52.78125 
Q 43.3125 58.59375 39.234375 62.25 
Q 35.15625 65.921875 28.609375 65.921875 
Q 23.96875 65.921875 18.8125 64.3125 
Q 13.671875 62.703125 7.8125 59.421875 
L 7.8125 69.390625 
Q 13.765625 71.78125 18.9375 73 
Q 24.125 74.21875 28.421875 74.21875 
Q 39.75 74.21875 46.484375 68.546875 
Q 53.21875 62.890625 53.21875 53.421875 
Q 53.21875 48.921875 51.53125 44.890625 
Q 49.859375 40.875 45.40625 35.40625 
Q 44.1875 33.984375 37.640625 27.21875 
Q 31.109375 20.453125 19.1875 8.296875 
z
" id="DejaVuSans-50"/>
      </defs>
      <g style="fill:#262626;" transform="translate(39.85875 315.032255)scale(0.121 -0.121)">
       <use xlink:href="#DejaVuSans-50"/>
       <use x="63.623047" xlink:href="#DejaVuSans-48"/>
      </g>
     </g>
    </g>
    <g id="ytick_3">
     <g id="line2d_3">
      <path clip-path="url(#pb3fb7caba7)" d="M 64.756 243.6264 
L 239.811 243.6264 
" style="fill:none;stroke:#ffffff;stroke-linecap:round;"/>
     </g>
     <g id="text_8">
      <!-- 40 -->
      <defs>
       <path d="M 37.796875 64.3125 
L 12.890625 25.390625 
L 37.796875 25.390625 
z
M 35.203125 72.90625 
L 47.609375 72.90625 
L 47.609375 25.390625 
L 58.015625 25.390625 
L 58.015625 17.1875 
L 47.609375 17.1875 
L 47.609375 0 
L 37.796875 0 
L 37.796875 17.1875 
L 4.890625 17.1875 
L 4.890625 26.703125 
z
" id="DejaVuSans-52"/>
      </defs>
      <g style="fill:#262626;" transform="translate(39.85875 248.223455)scale(0.121 -0.121)">
       <use xlink:href="#DejaVuSans-52"/>
       <use x="63.623047" xlink:href="#DejaVuSans-48"/>
      </g>
     </g>
    </g>
    <g id="ytick_4">
     <g id="line2d_4">
      <path clip-path="url(#pb3fb7caba7)" d="M 64.756 176.8176 
L 239.811 176.8176 
" style="fill:none;stroke:#ffffff;stroke-linecap:round;"/>
     </g>
     <g id="text_9">
      <!-- 60 -->
      <defs>
       <path d="M 33.015625 40.375 
Q 26.375 40.375 22.484375 35.828125 
Q 18.609375 31.296875 18.609375 23.390625 
Q 18.609375 15.53125 22.484375 10.953125 
Q 26.375 6.390625 33.015625 6.390625 
Q 39.65625 6.390625 43.53125 10.953125 
Q 47.40625 15.53125 47.40625 23.390625 
Q 47.40625 31.296875 43.53125 35.828125 
Q 39.65625 40.375 33.015625 40.375 
z
M 52.59375 71.296875 
L 52.59375 62.3125 
Q 48.875 64.0625 45.09375 64.984375 
Q 41.3125 65.921875 37.59375 65.921875 
Q 27.828125 65.921875 22.671875 59.328125 
Q 17.53125 52.734375 16.796875 39.40625 
Q 19.671875 43.65625 24.015625 45.921875 
Q 28.375 48.1875 33.59375 48.1875 
Q 44.578125 48.1875 50.953125 41.515625 
Q 57.328125 34.859375 57.328125 23.390625 
Q 57.328125 12.15625 50.6875 5.359375 
Q 44.046875 -1.421875 33.015625 -1.421875 
Q 20.359375 -1.421875 13.671875 8.265625 
Q 6.984375 17.96875 6.984375 36.375 
Q 6.984375 53.65625 15.1875 63.9375 
Q 23.390625 74.21875 37.203125 74.21875 
Q 40.921875 74.21875 44.703125 73.484375 
Q 48.484375 72.75 52.59375 71.296875 
z
" id="DejaVuSans-54"/>
      </defs>
      <g style="fill:#262626;" transform="translate(39.85875 181.414655)scale(0.121 -0.121)">
       <use xlink:href="#DejaVuSans-54"/>
       <use x="63.623047" xlink:href="#DejaVuSans-48"/>
      </g>
     </g>
    </g>
    <g id="ytick_5">
     <g id="line2d_5">
      <path clip-path="url(#pb3fb7caba7)" d="M 64.756 110.0088 
L 239.811 110.0088 
" style="fill:none;stroke:#ffffff;stroke-linecap:round;"/>
     </g>
     <g id="text_10">
      <!-- 80 -->
      <defs>
       <path d="M 31.78125 34.625 
Q 24.75 34.625 20.71875 30.859375 
Q 16.703125 27.09375 16.703125 20.515625 
Q 16.703125 13.921875 20.71875 10.15625 
Q 24.75 6.390625 31.78125 6.390625 
Q 38.8125 6.390625 42.859375 10.171875 
Q 46.921875 13.96875 46.921875 20.515625 
Q 46.921875 27.09375 42.890625 30.859375 
Q 38.875 34.625 31.78125 34.625 
z
M 21.921875 38.8125 
Q 15.578125 40.375 12.03125 44.71875 
Q 8.5 49.078125 8.5 55.328125 
Q 8.5 64.0625 14.71875 69.140625 
Q 20.953125 74.21875 31.78125 74.21875 
Q 42.671875 74.21875 48.875 69.140625 
Q 55.078125 64.0625 55.078125 55.328125 
Q 55.078125 49.078125 51.53125 44.71875 
Q 48 40.375 41.703125 38.8125 
Q 48.828125 37.15625 52.796875 32.3125 
Q 56.78125 27.484375 56.78125 20.515625 
Q 56.78125 9.90625 50.3125 4.234375 
Q 43.84375 -1.421875 31.78125 -1.421875 
Q 19.734375 -1.421875 13.25 4.234375 
Q 6.78125 9.90625 6.78125 20.515625 
Q 6.78125 27.484375 10.78125 32.3125 
Q 14.796875 37.15625 21.921875 38.8125 
z
M 18.3125 54.390625 
Q 18.3125 48.734375 21.84375 45.5625 
Q 25.390625 42.390625 31.78125 42.390625 
Q 38.140625 42.390625 41.71875 45.5625 
Q 45.3125 48.734375 45.3125 54.390625 
Q 45.3125 60.0625 41.71875 63.234375 
Q 38.140625 66.40625 31.78125 66.40625 
Q 25.390625 66.40625 21.84375 63.234375 
Q 18.3125 60.0625 18.3125 54.390625 
z
" id="DejaVuSans-56"/>
      </defs>
      <g style="fill:#262626;" transform="translate(39.85875 114.605855)scale(0.121 -0.121)">
       <use xlink:href="#DejaVuSans-56"/>
       <use x="63.623047" xlink:href="#DejaVuSans-48"/>
      </g>
     </g>
    </g>
    <g id="ytick_6">
     <g id="line2d_6">
      <path clip-path="url(#pb3fb7caba7)" d="M 64.756 43.2 
L 239.811 43.2 
" style="fill:none;stroke:#ffffff;stroke-linecap:round;"/>
     </g>
     <g id="text_11">
      <!-- 100 -->
      <defs>
       <path d="M 12.40625 8.296875 
L 28.515625 8.296875 
L 28.515625 63.921875 
L 10.984375 60.40625 
L 10.984375 69.390625 
L 28.421875 72.90625 
L 38.28125 72.90625 
L 38.28125 8.296875 
L 54.390625 8.296875 
L 54.390625 0 
L 12.40625 0 
z
" id="DejaVuSans-49"/>
      </defs>
      <g style="fill:#262626;" transform="translate(32.160125 47.797055)scale(0.121 -0.121)">
       <use xlink:href="#DejaVuSans-49"/>
       <use x="63.623047" xlink:href="#DejaVuSans-48"/>
       <use x="127.246094" xlink:href="#DejaVuSans-48"/>
      </g>
     </g>
    </g>
    <g id="text_12">
     <!-- Relative query time (%) -->
     <defs>
      <path d="M 44.390625 34.1875 
Q 47.5625 33.109375 50.5625 29.59375 
Q 53.5625 26.078125 56.59375 19.921875 
L 66.609375 0 
L 56 0 
L 46.6875 18.703125 
Q 43.0625 26.03125 39.671875 28.421875 
Q 36.28125 30.8125 30.421875 30.8125 
L 19.671875 30.8125 
L 19.671875 0 
L 9.8125 0 
L 9.8125 72.90625 
L 32.078125 72.90625 
Q 44.578125 72.90625 50.734375 67.671875 
Q 56.890625 62.453125 56.890625 51.90625 
Q 56.890625 45.015625 53.6875 40.46875 
Q 50.484375 35.9375 44.390625 34.1875 
z
M 19.671875 64.796875 
L 19.671875 38.921875 
L 32.078125 38.921875 
Q 39.203125 38.921875 42.84375 42.21875 
Q 46.484375 45.515625 46.484375 51.90625 
Q 46.484375 58.296875 42.84375 61.546875 
Q 39.203125 64.796875 32.078125 64.796875 
z
" id="DejaVuSans-82"/>
      <path d="M 9.421875 75.984375 
L 18.40625 75.984375 
L 18.40625 0 
L 9.421875 0 
z
" id="DejaVuSans-108"/>
      <path d="M 2.984375 54.6875 
L 12.5 54.6875 
L 29.59375 8.796875 
L 46.6875 54.6875 
L 56.203125 54.6875 
L 35.6875 0 
L 23.484375 0 
z
" id="DejaVuSans-118"/>
      <path id="DejaVuSans-32"/>
      <path d="M 14.796875 27.296875 
Q 14.796875 17.390625 18.875 11.75 
Q 22.953125 6.109375 30.078125 6.109375 
Q 37.203125 6.109375 41.296875 11.75 
Q 45.40625 17.390625 45.40625 27.296875 
Q 45.40625 37.203125 41.296875 42.84375 
Q 37.203125 48.484375 30.078125 48.484375 
Q 22.953125 48.484375 18.875 42.84375 
Q 14.796875 37.203125 14.796875 27.296875 
z
M 45.40625 8.203125 
Q 42.578125 3.328125 38.25 0.953125 
Q 33.9375 -1.421875 27.875 -1.421875 
Q 17.96875 -1.421875 11.734375 6.484375 
Q 5.515625 14.40625 5.515625 27.296875 
Q 5.515625 40.1875 11.734375 48.09375 
Q 17.96875 56 27.875 56 
Q 33.9375 56 38.25 53.625 
Q 42.578125 51.265625 45.40625 46.390625 
L 45.40625 54.6875 
L 54.390625 54.6875 
L 54.390625 -20.796875 
L 45.40625 -20.796875 
z
" id="DejaVuSans-113"/>
      <path d="M 8.5 21.578125 
L 8.5 54.6875 
L 17.484375 54.6875 
L 17.484375 21.921875 
Q 17.484375 14.15625 20.5 10.265625 
Q 23.53125 6.390625 29.59375 6.390625 
Q 36.859375 6.390625 41.078125 11.03125 
Q 45.3125 15.671875 45.3125 23.6875 
L 45.3125 54.6875 
L 54.296875 54.6875 
L 54.296875 0 
L 45.3125 0 
L 45.3125 8.40625 
Q 42.046875 3.421875 37.71875 1 
Q 33.40625 -1.421875 27.6875 -1.421875 
Q 18.265625 -1.421875 13.375 4.4375 
Q 8.5 10.296875 8.5 21.578125 
z
M 31.109375 56 
z
" id="DejaVuSans-117"/>
      <path d="M 32.171875 -5.078125 
Q 28.375 -14.84375 24.75 -17.8125 
Q 21.140625 -20.796875 15.09375 -20.796875 
L 7.90625 -20.796875 
L 7.90625 -13.28125 
L 13.1875 -13.28125 
Q 16.890625 -13.28125 18.9375 -11.515625 
Q 21 -9.765625 23.484375 -3.21875 
L 25.09375 0.875 
L 2.984375 54.6875 
L 12.5 54.6875 
L 29.59375 11.921875 
L 46.6875 54.6875 
L 56.203125 54.6875 
z
" id="DejaVuSans-121"/>
      <path d="M 31 75.875 
Q 24.46875 64.65625 21.28125 53.65625 
Q 18.109375 42.671875 18.109375 31.390625 
Q 18.109375 20.125 21.3125 9.0625 
Q 24.515625 -2 31 -13.1875 
L 23.1875 -13.1875 
Q 15.875 -1.703125 12.234375 9.375 
Q 8.59375 20.453125 8.59375 31.390625 
Q 8.59375 42.28125 12.203125 53.3125 
Q 15.828125 64.359375 23.1875 75.875 
z
" id="DejaVuSans-40"/>
      <path d="M 72.703125 32.078125 
Q 68.453125 32.078125 66.03125 28.46875 
Q 63.625 24.859375 63.625 18.40625 
Q 63.625 12.0625 66.03125 8.421875 
Q 68.453125 4.78125 72.703125 4.78125 
Q 76.859375 4.78125 79.265625 8.421875 
Q 81.6875 12.0625 81.6875 18.40625 
Q 81.6875 24.8125 79.265625 28.4375 
Q 76.859375 32.078125 72.703125 32.078125 
z
M 72.703125 38.28125 
Q 80.421875 38.28125 84.953125 32.90625 
Q 89.5 27.546875 89.5 18.40625 
Q 89.5 9.28125 84.9375 3.921875 
Q 80.375 -1.421875 72.703125 -1.421875 
Q 64.890625 -1.421875 60.34375 3.921875 
Q 55.8125 9.28125 55.8125 18.40625 
Q 55.8125 27.59375 60.375 32.9375 
Q 64.9375 38.28125 72.703125 38.28125 
z
M 22.3125 68.015625 
Q 18.109375 68.015625 15.6875 64.375 
Q 13.28125 60.75 13.28125 54.390625 
Q 13.28125 47.953125 15.671875 44.328125 
Q 18.0625 40.71875 22.3125 40.71875 
Q 26.5625 40.71875 28.96875 44.328125 
Q 31.390625 47.953125 31.390625 54.390625 
Q 31.390625 60.6875 28.953125 64.34375 
Q 26.515625 68.015625 22.3125 68.015625 
z
M 66.40625 74.21875 
L 74.21875 74.21875 
L 28.609375 -1.421875 
L 20.796875 -1.421875 
z
M 22.3125 74.21875 
Q 30.03125 74.21875 34.609375 68.875 
Q 39.203125 63.53125 39.203125 54.390625 
Q 39.203125 45.171875 34.640625 39.84375 
Q 30.078125 34.515625 22.3125 34.515625 
Q 14.546875 34.515625 10.03125 39.859375 
Q 5.515625 45.21875 5.515625 54.390625 
Q 5.515625 63.484375 10.046875 68.84375 
Q 14.59375 74.21875 22.3125 74.21875 
z
" id="DejaVuSans-37"/>
      <path d="M 8.015625 75.875 
L 15.828125 75.875 
Q 23.140625 64.359375 26.78125 53.3125 
Q 30.421875 42.28125 30.421875 31.390625 
Q 30.421875 20.453125 26.78125 9.375 
Q 23.140625 -1.703125 15.828125 -13.1875 
L 8.015625 -13.1875 
Q 14.5 -2 17.703125 9.0625 
Q 20.90625 20.125 20.90625 31.390625 
Q 20.90625 42.671875 17.703125 53.65625 
Q 14.5 64.65625 8.015625 75.875 
z
" id="DejaVuSans-41"/>
     </defs>
     <g style="fill:#262626;" transform="translate(25.414937 288.809438)rotate(-90)scale(0.132 -0.132)">
      <use xlink:href="#DejaVuSans-82"/>
      <use x="69.419922" xlink:href="#DejaVuSans-101"/>
      <use x="130.943359" xlink:href="#DejaVuSans-108"/>
      <use x="158.726562" xlink:href="#DejaVuSans-97"/>
      <use x="220.005859" xlink:href="#DejaVuSans-116"/>
      <use x="259.214844" xlink:href="#DejaVuSans-105"/>
      <use x="286.998047" xlink:href="#DejaVuSans-118"/>
      <use x="346.177734" xlink:href="#DejaVuSans-101"/>
      <use x="407.701172" xlink:href="#DejaVuSans-32"/>
      <use x="439.488281" xlink:href="#DejaVuSans-113"/>
      <use x="502.964844" xlink:href="#DejaVuSans-117"/>
      <use x="566.34375" xlink:href="#DejaVuSans-101"/>
      <use x="627.867188" xlink:href="#DejaVuSans-114"/>
      <use x="668.980469" xlink:href="#DejaVuSans-121"/>
      <use x="728.160156" xlink:href="#DejaVuSans-32"/>
      <use x="759.947266" xlink:href="#DejaVuSans-116"/>
      <use x="799.15625" xlink:href="#DejaVuSans-105"/>
      <use x="826.939453" xlink:href="#DejaVuSans-109"/>
      <use x="924.351562" xlink:href="#DejaVuSans-101"/>
      <use x="985.875" xlink:href="#DejaVuSans-32"/>
      <use x="1017.662109" xlink:href="#DejaVuSans-40"/>
      <use x="1056.675781" xlink:href="#DejaVuSans-37"/>
      <use x="1151.695312" xlink:href="#DejaVuSans-41"/>
     </g>
    </g>
   </g>
   <g id="PathCollection_1">
    <defs>
     <path d="M -0 4.242641 
L 2.545584 0 
L 0 -4.242641 
L -2.545584 -0 
z
" id="m9d5e247447" style="stroke:#176d9c;"/>
    </defs>
    <g clip-path="url(#pb3fb7caba7)">
     <use style="fill:#176d9c;stroke:#176d9c;" x="86.637875" xlink:href="#m9d5e247447" y="326.770624"/>
    </g>
   </g>
   <g id="PatchCollection_1">
    <path clip-path="url(#pb3fb7caba7)" d="M 86.603685 324.848672 
L 86.672065 324.848672 
L 86.672065 59.9022 
L 86.603685 59.9022 
z
" style="fill:#ffffff;stroke:#ffffff;"/>
    <path clip-path="url(#pb3fb7caba7)" d="M 86.569494 323.103677 
L 86.706256 323.103677 
L 86.706256 59.9022 
L 86.569494 59.9022 
z
" style="fill:#e6eff4;stroke:#ffffff;"/>
    <path clip-path="url(#pb3fb7caba7)" d="M 86.501113 322.582695 
L 86.774637 322.582695 
L 86.774637 59.9022 
L 86.501113 59.9022 
z
" style="fill:#ccdfe9;stroke:#ffffff;"/>
    <path clip-path="url(#pb3fb7caba7)" d="M 86.364352 320.968177 
L 86.911398 320.968177 
L 86.911398 62.648896 
L 86.364352 62.648896 
z
" style="fill:#b2cede;stroke:#ffffff;"/>
    <path clip-path="url(#pb3fb7caba7)" d="M 86.090828 319.859701 
L 87.184922 319.859701 
L 87.184922 74.850832 
L 86.090828 74.850832 
z
" style="fill:#98bed3;stroke:#ffffff;"/>
    <path clip-path="url(#pb3fb7caba7)" d="M 85.543781 317.87254 
L 87.731969 317.87254 
L 87.731969 83.09331 
L 85.543781 83.09331 
z
" style="fill:#7eadc8;stroke:#ffffff;"/>
    <path clip-path="url(#pb3fb7caba7)" d="M 84.449687 315.491462 
L 88.826062 315.491462 
L 88.826062 93.491484 
L 84.449687 93.491484 
z
" style="fill:#649dbd;stroke:#ffffff;"/>
    <path clip-path="url(#pb3fb7caba7)" d="M 82.2615 307.242972 
L 91.01425 307.242972 
L 91.01425 106.19258 
L 82.2615 106.19258 
z
" style="fill:#4a8db2;stroke:#ffffff;"/>
    <path clip-path="url(#pb3fb7caba7)" d="M 77.885125 283.239779 
L 95.390625 283.239779 
L 95.390625 124.702484 
L 77.885125 124.702484 
z
" style="fill:#317da7;stroke:#ffffff;"/>
    <path clip-path="url(#pb3fb7caba7)" d="M 69.132375 246.099369 
L 104.143375 246.099369 
L 104.143375 152.498413 
L 69.132375 152.498413 
z
" style="fill:#176d9c;stroke:#ffffff;"/>
   </g>
   <g id="PathCollection_2">
    <defs>
     <path d="M -0 4.242641 
L 2.545584 0 
L 0 -4.242641 
L -2.545584 -0 
z
" id="m4a49280797" style="stroke:#c38820;"/>
    </defs>
    <g clip-path="url(#pb3fb7caba7)">
     <use style="fill:#c38820;stroke:#c38820;" x="130.401625" xlink:href="#m4a49280797" y="331.363689"/>
    </g>
   </g>
   <g id="PatchCollection_2">
    <path clip-path="url(#pb3fb7caba7)" d="M 130.367435 330.524362 
L 130.435815 330.524362 
L 130.435815 59.9022 
L 130.367435 59.9022 
z
" style="fill:#ffffff;stroke:#ffffff;"/>
    <path clip-path="url(#pb3fb7caba7)" d="M 130.333244 329.721675 
L 130.470006 329.721675 
L 130.470006 59.9022 
L 130.333244 59.9022 
z
" style="fill:#f8f2e7;stroke:#ffffff;"/>
    <path clip-path="url(#pb3fb7caba7)" d="M 130.264863 328.844319 
L 130.538387 328.844319 
L 130.538387 61.200079 
L 130.264863 61.200079 
z
" style="fill:#f2e5ce;stroke:#ffffff;"/>
    <path clip-path="url(#pb3fb7caba7)" d="M 130.128102 327.925577 
L 130.675148 327.925577 
L 130.675148 76.951489 
L 130.128102 76.951489 
z
" style="fill:#ebd7b5;stroke:#ffffff;"/>
    <path clip-path="url(#pb3fb7caba7)" d="M 129.854578 326.769639 
L 130.948672 326.769639 
L 130.948672 80.950362 
L 129.854578 80.950362 
z
" style="fill:#e4ca9c;stroke:#ffffff;"/>
    <path clip-path="url(#pb3fb7caba7)" d="M 129.307531 323.022985 
L 131.495719 323.022985 
L 131.495719 90.823915 
L 129.307531 90.823915 
z
" style="fill:#debd83;stroke:#ffffff;"/>
    <path clip-path="url(#pb3fb7caba7)" d="M 128.213437 318.14938 
L 132.589812 318.14938 
L 132.589812 101.129976 
L 128.213437 101.129976 
z
" style="fill:#d7af6a;stroke:#ffffff;"/>
    <path clip-path="url(#pb3fb7caba7)" d="M 126.02525 306.388062 
L 134.778 306.388062 
L 134.778 113.528458 
L 126.02525 113.528458 
z
" style="fill:#d0a251;stroke:#ffffff;"/>
    <path clip-path="url(#pb3fb7caba7)" d="M 121.648875 276.055489 
L 139.154375 276.055489 
L 139.154375 130.796248 
L 121.648875 130.796248 
z
" style="fill:#c99539;stroke:#ffffff;"/>
    <path clip-path="url(#pb3fb7caba7)" d="M 112.896125 224.130499 
L 147.907125 224.130499 
L 147.907125 156.255948 
L 112.896125 156.255948 
z
" style="fill:#c38820;stroke:#ffffff;"/>
   </g>
   <g id="PathCollection_3">
    <defs>
     <path d="M -0 4.242641 
L 2.545584 0 
L 0 -4.242641 
L -2.545584 -0 
z
" id="m17146f458b" style="stroke:#158b6a;"/>
    </defs>
    <g clip-path="url(#pb3fb7caba7)">
     <use style="fill:#158b6a;stroke:#158b6a;" x="174.165375" xlink:href="#m17146f458b" y="329.732461"/>
    </g>
   </g>
   <g id="PatchCollection_3">
    <path clip-path="url(#pb3fb7caba7)" d="M 174.131185 329.507097 
L 174.199565 329.507097 
L 174.199565 59.9022 
L 174.131185 59.9022 
z
" style="fill:#ffffff;stroke:#ffffff;"/>
    <path clip-path="url(#pb3fb7caba7)" d="M 174.096994 329.259586 
L 174.233756 329.259586 
L 174.233756 60.025182 
L 174.096994 60.025182 
z
" style="fill:#e5f2ef;stroke:#ffffff;"/>
    <path clip-path="url(#pb3fb7caba7)" d="M 174.028613 328.435188 
L 174.302137 328.435188 
L 174.302137 62.489044 
L 174.028613 62.489044 
z
" style="fill:#cce5de;stroke:#ffffff;"/>
    <path clip-path="url(#pb3fb7caba7)" d="M 173.891852 327.060598 
L 174.438898 327.060598 
L 174.438898 71.670797 
L 173.891852 71.670797 
z
" style="fill:#b1d8cd;stroke:#ffffff;"/>
    <path clip-path="url(#pb3fb7caba7)" d="M 173.618328 326.310724 
L 174.712422 326.310724 
L 174.712422 83.163512 
L 173.618328 83.163512 
z
" style="fill:#98cbbd;stroke:#ffffff;"/>
    <path clip-path="url(#pb3fb7caba7)" d="M 173.071281 319.152202 
L 175.259469 319.152202 
L 175.259469 92.210708 
L 173.071281 92.210708 
z
" style="fill:#7dbeac;stroke:#ffffff;"/>
    <path clip-path="url(#pb3fb7caba7)" d="M 171.977187 308.127117 
L 176.353562 308.127117 
L 176.353562 101.86009 
L 171.977187 101.86009 
z
" style="fill:#63b19c;stroke:#ffffff;"/>
    <path clip-path="url(#pb3fb7caba7)" d="M 169.789 300.077699 
L 178.54175 300.077699 
L 178.54175 115.689916 
L 169.789 115.689916 
z
" style="fill:#49a48b;stroke:#ffffff;"/>
    <path clip-path="url(#pb3fb7caba7)" d="M 165.412625 276.012319 
L 182.918125 276.012319 
L 182.918125 132.940013 
L 165.412625 132.940013 
z
" style="fill:#2f977b;stroke:#ffffff;"/>
    <path clip-path="url(#pb3fb7caba7)" d="M 156.659875 253.589744 
L 191.670875 253.589744 
L 191.670875 165.540154 
L 156.659875 165.540154 
z
" style="fill:#158b6a;stroke:#ffffff;"/>
   </g>
   <g id="PathCollection_4">
    <defs>
     <path d="M -0 4.242641 
L 2.545584 0 
L 0 -4.242641 
L -2.545584 -0 
z
" id="mbc34dc0a19" style="stroke:#ba611b;"/>
    </defs>
    <g clip-path="url(#pb3fb7caba7)">
     <use style="fill:#ba611b;stroke:#ba611b;" x="217.929125" xlink:href="#mbc34dc0a19" y="330.559753"/>
     <use style="fill:#ba611b;stroke:#ba611b;" x="217.929125" xlink:href="#mbc34dc0a19" y="59.9022"/>
    </g>
   </g>
   <g id="PatchCollection_4">
    <path clip-path="url(#pb3fb7caba7)" d="M 217.894935 329.914032 
L 217.963315 329.914032 
L 217.963315 63.159305 
L 217.894935 63.159305 
z
" style="fill:#ffffff;stroke:#ffffff;"/>
    <path clip-path="url(#pb3fb7caba7)" d="M 217.860744 329.266306 
L 217.997506 329.266306 
L 217.997506 66.685985 
L 217.860744 66.685985 
z
" style="fill:#f7eee6;stroke:#ffffff;"/>
    <path clip-path="url(#pb3fb7caba7)" d="M 217.792363 328.073964 
L 218.065887 328.073964 
L 218.065887 77.199741 
L 217.792363 77.199741 
z
" style="fill:#f0dccd;stroke:#ffffff;"/>
    <path clip-path="url(#pb3fb7caba7)" d="M 217.655602 326.821098 
L 218.202648 326.821098 
L 218.202648 80.823902 
L 217.655602 80.823902 
z
" style="fill:#e8cab3;stroke:#ffffff;"/>
    <path clip-path="url(#pb3fb7caba7)" d="M 217.382078 324.900615 
L 218.476172 324.900615 
L 218.476172 85.925706 
L 217.382078 85.925706 
z
" style="fill:#e1b99a;stroke:#ffffff;"/>
    <path clip-path="url(#pb3fb7caba7)" d="M 216.835031 321.442857 
L 219.023219 321.442857 
L 219.023219 92.570156 
L 216.835031 92.570156 
z
" style="fill:#d9a780;stroke:#ffffff;"/>
    <path clip-path="url(#pb3fb7caba7)" d="M 215.740937 316.686723 
L 220.117312 316.686723 
L 220.117312 101.528913 
L 215.740937 101.528913 
z
" style="fill:#d19667;stroke:#ffffff;"/>
    <path clip-path="url(#pb3fb7caba7)" d="M 213.55275 312.672693 
L 222.3055 312.672693 
L 222.3055 116.143335 
L 213.55275 116.143335 
z
" style="fill:#c9844d;stroke:#ffffff;"/>
    <path clip-path="url(#pb3fb7caba7)" d="M 209.176375 296.900659 
L 226.681875 296.900659 
L 226.681875 134.374469 
L 209.176375 134.374469 
z
" style="fill:#c27234;stroke:#ffffff;"/>
    <path clip-path="url(#pb3fb7caba7)" d="M 200.423625 269.764937 
L 235.434625 269.764937 
L 235.434625 156.545545 
L 200.423625 156.545545 
z
" style="fill:#ba611b;stroke:#ffffff;"/>
   </g>
   <g id="line2d_7">
    <path clip-path="url(#pb3fb7caba7)" d="M 69.132375 196.00809 
L 104.143375 196.00809 
" style="fill:none;stroke:#262626;stroke-linecap:round;stroke-opacity:0.45;stroke-width:1.5;"/>
   </g>
   <g id="line2d_8">
    <path clip-path="url(#pb3fb7caba7)" d="M 112.896125 199.359243 
L 147.907125 199.359243 
" style="fill:none;stroke:#262626;stroke-linecap:round;stroke-opacity:0.45;stroke-width:1.5;"/>
   </g>
   <g id="line2d_9">
    <path clip-path="url(#pb3fb7caba7)" d="M 156.659875 217.103644 
L 191.670875 217.103644 
" style="fill:none;stroke:#262626;stroke-linecap:round;stroke-opacity:0.45;stroke-width:1.5;"/>
   </g>
   <g id="line2d_10">
    <path clip-path="url(#pb3fb7caba7)" d="M 200.423625 201.615203 
L 235.434625 201.615203 
" style="fill:none;stroke:#262626;stroke-linecap:round;stroke-opacity:0.45;stroke-width:1.5;"/>
   </g>
   <g id="patch_3">
    <path d="M 64.756 377.244 
L 64.756 43.2 
" style="fill:none;stroke:#ffffff;stroke-linecap:square;stroke-linejoin:miter;stroke-width:1.25;"/>
   </g>
   <g id="patch_4">
    <path d="M 64.756 377.244 
L 239.811 377.244 
" style="fill:none;stroke:#ffffff;stroke-linecap:square;stroke-linejoin:miter;stroke-width:1.25;"/>
   </g>
   <g id="text_13">
    <!-- clusters = 4 -->
    <defs>
     <path d="M 48.78125 52.59375 
L 48.78125 44.1875 
Q 44.96875 46.296875 41.140625 47.34375 
Q 37.3125 48.390625 33.40625 48.390625 
Q 24.65625 48.390625 19.8125 42.84375 
Q 14.984375 37.3125 14.984375 27.296875 
Q 14.984375 17.28125 19.8125 11.734375 
Q 24.65625 6.203125 33.40625 6.203125 
Q 37.3125 6.203125 41.140625 7.25 
Q 44.96875 8.296875 48.78125 10.40625 
L 48.78125 2.09375 
Q 45.015625 0.34375 40.984375 -0.53125 
Q 36.96875 -1.421875 32.421875 -1.421875 
Q 20.0625 -1.421875 12.78125 6.34375 
Q 5.515625 14.109375 5.515625 27.296875 
Q 5.515625 40.671875 12.859375 48.328125 
Q 20.21875 56 33.015625 56 
Q 37.15625 56 41.109375 55.140625 
Q 45.0625 54.296875 48.78125 52.59375 
z
" id="DejaVuSans-99"/>
     <path d="M 10.59375 45.40625 
L 73.1875 45.40625 
L 73.1875 37.203125 
L 10.59375 37.203125 
z
M 10.59375 25.484375 
L 73.1875 25.484375 
L 73.1875 17.1875 
L 10.59375 17.1875 
z
" id="DejaVuSans-61"/>
    </defs>
    <g style="fill:#262626;" transform="translate(112.475188 37.2)scale(0.132 -0.132)">
     <use xlink:href="#DejaVuSans-99"/>
     <use x="54.980469" xlink:href="#DejaVuSans-108"/>
     <use x="82.763672" xlink:href="#DejaVuSans-117"/>
     <use x="146.142578" xlink:href="#DejaVuSans-115"/>
     <use x="198.242188" xlink:href="#DejaVuSans-116"/>
     <use x="237.451172" xlink:href="#DejaVuSans-101"/>
     <use x="298.974609" xlink:href="#DejaVuSans-114"/>
     <use x="340.087891" xlink:href="#DejaVuSans-115"/>
     <use x="392.1875" xlink:href="#DejaVuSans-32"/>
     <use x="423.974609" xlink:href="#DejaVuSans-61"/>
     <use x="507.763672" xlink:href="#DejaVuSans-32"/>
     <use x="539.550781" xlink:href="#DejaVuSans-52"/>
    </g>
   </g>
  </g>
  <g id="axes_2">
   <g id="patch_5">
    <path d="M 266.067 377.244 
L 441.122 377.244 
L 441.122 43.2 
L 266.067 43.2 
z
" style="fill:#eaeaf2;"/>
   </g>
   <g id="matplotlib.axis_3">
    <g id="xtick_5">
     <g id="text_14">
      <!-- metis -->
      <g style="fill:#262626;" transform="translate(271.12893 395.938109)scale(0.121 -0.121)">
       <use xlink:href="#DejaVuSans-109"/>
       <use x="97.412109" xlink:href="#DejaVuSans-101"/>
       <use x="158.935547" xlink:href="#DejaVuSans-116"/>
       <use x="198.144531" xlink:href="#DejaVuSans-105"/>
       <use x="225.927734" xlink:href="#DejaVuSans-115"/>
      </g>
     </g>
    </g>
    <g id="xtick_6">
     <g id="text_15">
      <!-- merged -->
      <g style="fill:#262626;" transform="translate(308.206484 395.938109)scale(0.121 -0.121)">
       <use xlink:href="#DejaVuSans-109"/>
       <use x="97.412109" xlink:href="#DejaVuSans-101"/>
       <use x="158.935547" xlink:href="#DejaVuSans-114"/>
       <use x="200.033203" xlink:href="#DejaVuSans-103"/>
       <use x="263.509766" xlink:href="#DejaVuSans-101"/>
       <use x="325.033203" xlink:href="#DejaVuSans-100"/>
      </g>
     </g>
    </g>
    <g id="xtick_7">
     <g id="text_16">
      <!-- prio -->
      <g style="fill:#262626;" transform="translate(363.765844 395.938109)scale(0.121 -0.121)">
       <use xlink:href="#DejaVuSans-112"/>
       <use x="63.476562" xlink:href="#DejaVuSans-114"/>
       <use x="104.589844" xlink:href="#DejaVuSans-105"/>
       <use x="132.373047" xlink:href="#DejaVuSans-111"/>
      </g>
     </g>
    </g>
    <g id="xtick_8">
     <g id="text_17">
      <!-- kmeans -->
      <g style="fill:#262626;" transform="translate(395.427703 395.938109)scale(0.121 -0.121)">
       <use xlink:href="#DejaVuSans-107"/>
       <use x="57.910156" xlink:href="#DejaVuSans-109"/>
       <use x="155.322266" xlink:href="#DejaVuSans-101"/>
       <use x="216.845703" xlink:href="#DejaVuSans-97"/>
       <use x="278.125" xlink:href="#DejaVuSans-110"/>
       <use x="341.503906" xlink:href="#DejaVuSans-115"/>
      </g>
     </g>
    </g>
    <g id="text_18">
     <!-- Method -->
     <g style="fill:#262626;" transform="translate(328.840375 412.484469)scale(0.132 -0.132)">
      <use xlink:href="#DejaVuSans-77"/>
      <use x="86.279297" xlink:href="#DejaVuSans-101"/>
      <use x="147.802734" xlink:href="#DejaVuSans-116"/>
      <use x="187.011719" xlink:href="#DejaVuSans-104"/>
      <use x="250.390625" xlink:href="#DejaVuSans-111"/>
      <use x="311.572266" xlink:href="#DejaVuSans-100"/>
     </g>
    </g>
   </g>
   <g id="matplotlib.axis_4">
    <g id="ytick_7">
     <g id="line2d_11">
      <path clip-path="url(#p612c99d161)" d="M 266.067 377.244 
L 441.122 377.244 
" style="fill:none;stroke:#ffffff;stroke-linecap:round;"/>
     </g>
    </g>
    <g id="ytick_8">
     <g id="line2d_12">
      <path clip-path="url(#p612c99d161)" d="M 266.067 310.4352 
L 441.122 310.4352 
" style="fill:none;stroke:#ffffff;stroke-linecap:round;"/>
     </g>
    </g>
    <g id="ytick_9">
     <g id="line2d_13">
      <path clip-path="url(#p612c99d161)" d="M 266.067 243.6264 
L 441.122 243.6264 
" style="fill:none;stroke:#ffffff;stroke-linecap:round;"/>
     </g>
    </g>
    <g id="ytick_10">
     <g id="line2d_14">
      <path clip-path="url(#p612c99d161)" d="M 266.067 176.8176 
L 441.122 176.8176 
" style="fill:none;stroke:#ffffff;stroke-linecap:round;"/>
     </g>
    </g>
    <g id="ytick_11">
     <g id="line2d_15">
      <path clip-path="url(#p612c99d161)" d="M 266.067 110.0088 
L 441.122 110.0088 
" style="fill:none;stroke:#ffffff;stroke-linecap:round;"/>
     </g>
    </g>
    <g id="ytick_12">
     <g id="line2d_16">
      <path clip-path="url(#p612c99d161)" d="M 266.067 43.2 
L 441.122 43.2 
" style="fill:none;stroke:#ffffff;stroke-linecap:round;"/>
     </g>
    </g>
   </g>
   <g id="PathCollection_5">
    <g clip-path="url(#p612c99d161)">
     <use style="fill:#176d9c;stroke:#176d9c;" x="287.948875" xlink:href="#m9d5e247447" y="350.206554"/>
    </g>
   </g>
   <g id="PatchCollection_5">
    <path clip-path="url(#p612c99d161)" d="M 287.914685 348.312982 
L 287.983065 348.312982 
L 287.983065 59.9022 
L 287.914685 59.9022 
z
" style="fill:#ffffff;stroke:#ffffff;"/>
    <path clip-path="url(#p612c99d161)" d="M 287.880494 346.202386 
L 288.017256 346.202386 
L 288.017256 59.9022 
L 287.880494 59.9022 
z
" style="fill:#e6eff4;stroke:#ffffff;"/>
    <path clip-path="url(#p612c99d161)" d="M 287.812113 338.762172 
L 288.085637 338.762172 
L 288.085637 59.9022 
L 287.812113 59.9022 
z
" style="fill:#ccdfe9;stroke:#ffffff;"/>
    <path clip-path="url(#p612c99d161)" d="M 287.675352 335.542217 
L 288.222398 335.542217 
L 288.222398 67.185335 
L 287.675352 67.185335 
z
" style="fill:#b2cede;stroke:#ffffff;"/>
    <path clip-path="url(#p612c99d161)" d="M 287.401828 332.768534 
L 288.495922 332.768534 
L 288.495922 82.703087 
L 287.401828 82.703087 
z
" style="fill:#98bed3;stroke:#ffffff;"/>
    <path clip-path="url(#p612c99d161)" d="M 286.854781 329.964704 
L 289.042969 329.964704 
L 289.042969 94.486216 
L 286.854781 94.486216 
z
" style="fill:#7eadc8;stroke:#ffffff;"/>
    <path clip-path="url(#p612c99d161)" d="M 285.760688 324.480362 
L 290.137063 324.480362 
L 290.137063 110.132018 
L 285.760688 110.132018 
z
" style="fill:#649dbd;stroke:#ffffff;"/>
    <path clip-path="url(#p612c99d161)" d="M 283.5725 317.157723 
L 292.32525 317.157723 
L 292.32525 131.024041 
L 283.5725 131.024041 
z
" style="fill:#4a8db2;stroke:#ffffff;"/>
    <path clip-path="url(#p612c99d161)" d="M 279.196125 304.358978 
L 296.701625 304.358978 
L 296.701625 157.036275 
L 279.196125 157.036275 
z
" style="fill:#317da7;stroke:#ffffff;"/>
    <path clip-path="url(#p612c99d161)" d="M 270.443375 285.68193 
L 305.454375 285.68193 
L 305.454375 192.643119 
L 270.443375 192.643119 
z
" style="fill:#176d9c;stroke:#ffffff;"/>
   </g>
   <g id="PathCollection_6">
    <g clip-path="url(#p612c99d161)">
     <use style="fill:#c38820;stroke:#c38820;" x="331.712625" xlink:href="#m4a49280797" y="333.516699"/>
     <use style="fill:#c38820;stroke:#c38820;" x="331.712625" xlink:href="#m4a49280797" y="59.9022"/>
    </g>
   </g>
   <g id="PatchCollection_6">
    <path clip-path="url(#p612c99d161)" d="M 331.678435 333.28144 
L 331.746815 333.28144 
L 331.746815 71.19069 
L 331.678435 71.19069 
z
" style="fill:#ffffff;stroke:#ffffff;"/>
    <path clip-path="url(#p612c99d161)" d="M 331.644244 333.019208 
L 331.781006 333.019208 
L 331.781006 81.506891 
L 331.644244 81.506891 
z
" style="fill:#f8f2e7;stroke:#ffffff;"/>
    <path clip-path="url(#p612c99d161)" d="M 331.575863 332.026729 
L 331.849387 332.026729 
L 331.849387 85.32554 
L 331.575863 85.32554 
z
" style="fill:#f2e5ce;stroke:#ffffff;"/>
    <path clip-path="url(#p612c99d161)" d="M 331.439102 330.996079 
L 331.986148 330.996079 
L 331.986148 90.91167 
L 331.439102 90.91167 
z
" style="fill:#ebd7b5;stroke:#ffffff;"/>
    <path clip-path="url(#p612c99d161)" d="M 331.165578 329.609744 
L 332.259672 329.609744 
L 332.259672 99.71647 
L 331.165578 99.71647 
z
" style="fill:#e4ca9c;stroke:#ffffff;"/>
    <path clip-path="url(#p612c99d161)" d="M 330.618531 326.823047 
L 332.806719 326.823047 
L 332.806719 109.180494 
L 330.618531 109.180494 
z
" style="fill:#debd83;stroke:#ffffff;"/>
    <path clip-path="url(#p612c99d161)" d="M 329.524438 324.669857 
L 333.900813 324.669857 
L 333.900813 122.447445 
L 329.524438 122.447445 
z
" style="fill:#d7af6a;stroke:#ffffff;"/>
    <path clip-path="url(#p612c99d161)" d="M 327.33625 319.735343 
L 336.089 319.735343 
L 336.089 139.972896 
L 327.33625 139.972896 
z
" style="fill:#d0a251;stroke:#ffffff;"/>
    <path clip-path="url(#p612c99d161)" d="M 322.959875 313.638824 
L 340.465375 313.638824 
L 340.465375 169.833441 
L 322.959875 169.833441 
z
" style="fill:#c99539;stroke:#ffffff;"/>
    <path clip-path="url(#p612c99d161)" d="M 314.207125 298.167901 
L 349.218125 298.167901 
L 349.218125 211.155801 
L 314.207125 211.155801 
z
" style="fill:#c38820;stroke:#ffffff;"/>
   </g>
   <g id="PathCollection_7">
    <g clip-path="url(#p612c99d161)">
     <use style="fill:#158b6a;stroke:#158b6a;" x="375.476375" xlink:href="#m17146f458b" y="356.006878"/>
     <use style="fill:#158b6a;stroke:#158b6a;" x="375.476375" xlink:href="#m17146f458b" y="70.209769"/>
    </g>
   </g>
   <g id="PatchCollection_7">
    <path clip-path="url(#p612c99d161)" d="M 375.442185 355.596304 
L 375.510565 355.596304 
L 375.510565 71.327822 
L 375.442185 71.327822 
z
" style="fill:#ffffff;stroke:#ffffff;"/>
    <path clip-path="url(#p612c99d161)" d="M 375.407994 355.068429 
L 375.544756 355.068429 
L 375.544756 72.992674 
L 375.407994 72.992674 
z
" style="fill:#e5f2ef;stroke:#ffffff;"/>
    <path clip-path="url(#p612c99d161)" d="M 375.339613 352.182202 
L 375.613137 352.182202 
L 375.613137 85.249058 
L 375.339613 85.249058 
z
" style="fill:#cce5de;stroke:#ffffff;"/>
    <path clip-path="url(#p612c99d161)" d="M 375.202852 350.607079 
L 375.749898 350.607079 
L 375.749898 93.467156 
L 375.202852 93.467156 
z
" style="fill:#b1d8cd;stroke:#ffffff;"/>
    <path clip-path="url(#p612c99d161)" d="M 374.929328 342.979547 
L 376.023422 342.979547 
L 376.023422 103.381633 
L 374.929328 103.381633 
z
" style="fill:#98cbbd;stroke:#ffffff;"/>
    <path clip-path="url(#p612c99d161)" d="M 374.382281 334.487366 
L 376.570469 334.487366 
L 376.570469 112.329812 
L 374.382281 112.329812 
z
" style="fill:#7dbeac;stroke:#ffffff;"/>
    <path clip-path="url(#p612c99d161)" d="M 373.288188 324.348461 
L 377.664562 324.348461 
L 377.664562 127.022971 
L 373.288188 127.022971 
z
" style="fill:#63b19c;stroke:#ffffff;"/>
    <path clip-path="url(#p612c99d161)" d="M 371.1 320.53506 
L 379.85275 320.53506 
L 379.85275 143.650047 
L 371.1 143.650047 
z
" style="fill:#49a48b;stroke:#ffffff;"/>
    <path clip-path="url(#p612c99d161)" d="M 366.723625 314.251985 
L 384.229125 314.251985 
L 384.229125 172.291703 
L 366.723625 172.291703 
z
" style="fill:#2f977b;stroke:#ffffff;"/>
    <path clip-path="url(#p612c99d161)" d="M 357.970875 299.0737 
L 392.981875 299.0737 
L 392.981875 208.7484 
L 357.970875 208.7484 
z
" style="fill:#158b6a;stroke:#ffffff;"/>
   </g>
   <g id="PathCollection_8">
    <g clip-path="url(#p612c99d161)">
     <use style="fill:#ba611b;stroke:#ba611b;" x="419.240125" xlink:href="#mbc34dc0a19" y="355.414095"/>
     <use style="fill:#ba611b;stroke:#ba611b;" x="419.240125" xlink:href="#mbc34dc0a19" y="78.756324"/>
    </g>
   </g>
   <g id="PatchCollection_8">
    <path clip-path="url(#p612c99d161)" d="M 419.205935 355.361293 
L 419.274315 355.361293 
L 419.274315 81.207166 
L 419.205935 81.207166 
z
" style="fill:#ffffff;stroke:#ffffff;"/>
    <path clip-path="url(#p612c99d161)" d="M 419.171744 355.181141 
L 419.308506 355.181141 
L 419.308506 83.620158 
L 419.171744 83.620158 
z
" style="fill:#f7eee6;stroke:#ffffff;"/>
    <path clip-path="url(#p612c99d161)" d="M 419.103363 352.660089 
L 419.376887 352.660089 
L 419.376887 87.915554 
L 419.103363 87.915554 
z
" style="fill:#f0dccd;stroke:#ffffff;"/>
    <path clip-path="url(#p612c99d161)" d="M 418.966602 349.79067 
L 419.513648 349.79067 
L 419.513648 95.221469 
L 418.966602 95.221469 
z
" style="fill:#e8cab3;stroke:#ffffff;"/>
    <path clip-path="url(#p612c99d161)" d="M 418.693078 342.593946 
L 419.787172 342.593946 
L 419.787172 103.68592 
L 418.693078 103.68592 
z
" style="fill:#e1b99a;stroke:#ffffff;"/>
    <path clip-path="url(#p612c99d161)" d="M 418.146031 337.668546 
L 420.334219 337.668546 
L 420.334219 113.512025 
L 418.146031 113.512025 
z
" style="fill:#d9a780;stroke:#ffffff;"/>
    <path clip-path="url(#p612c99d161)" d="M 417.051938 333.691257 
L 421.428313 333.691257 
L 421.428313 129.632337 
L 417.051938 129.632337 
z
" style="fill:#d19667;stroke:#ffffff;"/>
    <path clip-path="url(#p612c99d161)" d="M 414.86375 326.999915 
L 423.6165 326.999915 
L 423.6165 149.458895 
L 414.86375 149.458895 
z
" style="fill:#c9844d;stroke:#ffffff;"/>
    <path clip-path="url(#p612c99d161)" d="M 410.487375 317.686643 
L 427.992875 317.686643 
L 427.992875 177.121557 
L 410.487375 177.121557 
z
" style="fill:#c27234;stroke:#ffffff;"/>
    <path clip-path="url(#p612c99d161)" d="M 401.734625 300.986666 
L 436.745625 300.986666 
L 436.745625 214.531933 
L 401.734625 214.531933 
z
" style="fill:#ba611b;stroke:#ffffff;"/>
   </g>
   <g id="line2d_17">
    <path clip-path="url(#p612c99d161)" d="M 270.443375 248.052609 
L 305.454375 248.052609 
" style="fill:none;stroke:#262626;stroke-linecap:round;stroke-opacity:0.45;stroke-width:1.5;"/>
   </g>
   <g id="line2d_18">
    <path clip-path="url(#p612c99d161)" d="M 314.207125 261.124106 
L 349.218125 261.124106 
" style="fill:none;stroke:#262626;stroke-linecap:round;stroke-opacity:0.45;stroke-width:1.5;"/>
   </g>
   <g id="line2d_19">
    <path clip-path="url(#p612c99d161)" d="M 357.970875 262.554712 
L 392.981875 262.554712 
" style="fill:none;stroke:#262626;stroke-linecap:round;stroke-opacity:0.45;stroke-width:1.5;"/>
   </g>
   <g id="line2d_20">
    <path clip-path="url(#p612c99d161)" d="M 401.734625 265.513624 
L 436.745625 265.513624 
" style="fill:none;stroke:#262626;stroke-linecap:round;stroke-opacity:0.45;stroke-width:1.5;"/>
   </g>
   <g id="patch_6">
    <path d="M 266.067 377.244 
L 266.067 43.2 
" style="fill:none;stroke:#ffffff;stroke-linecap:square;stroke-linejoin:miter;stroke-width:1.25;"/>
   </g>
   <g id="patch_7">
    <path d="M 266.067 377.244 
L 441.122 377.244 
" style="fill:none;stroke:#ffffff;stroke-linecap:square;stroke-linejoin:miter;stroke-width:1.25;"/>
   </g>
   <g id="text_19">
    <!-- clusters = 8 -->
    <g style="fill:#262626;" transform="translate(313.786188 37.2)scale(0.132 -0.132)">
     <use xlink:href="#DejaVuSans-99"/>
     <use x="54.980469" xlink:href="#DejaVuSans-108"/>
     <use x="82.763672" xlink:href="#DejaVuSans-117"/>
     <use x="146.142578" xlink:href="#DejaVuSans-115"/>
     <use x="198.242188" xlink:href="#DejaVuSans-116"/>
     <use x="237.451172" xlink:href="#DejaVuSans-101"/>
     <use x="298.974609" xlink:href="#DejaVuSans-114"/>
     <use x="340.087891" xlink:href="#DejaVuSans-115"/>
     <use x="392.1875" xlink:href="#DejaVuSans-32"/>
     <use x="423.974609" xlink:href="#DejaVuSans-61"/>
     <use x="507.763672" xlink:href="#DejaVuSans-32"/>
     <use x="539.550781" xlink:href="#DejaVuSans-56"/>
    </g>
   </g>
  </g>
  <g id="axes_3">
   <g id="patch_8">
    <path d="M 467.378 377.244 
L 642.433 377.244 
L 642.433 43.2 
L 467.378 43.2 
z
" style="fill:#eaeaf2;"/>
   </g>
   <g id="matplotlib.axis_5">
    <g id="xtick_9">
     <g id="text_20">
      <!-- metis -->
      <g style="fill:#262626;" transform="translate(472.43993 395.938109)scale(0.121 -0.121)">
       <use xlink:href="#DejaVuSans-109"/>
       <use x="97.412109" xlink:href="#DejaVuSans-101"/>
       <use x="158.935547" xlink:href="#DejaVuSans-116"/>
       <use x="198.144531" xlink:href="#DejaVuSans-105"/>
       <use x="225.927734" xlink:href="#DejaVuSans-115"/>
      </g>
     </g>
    </g>
    <g id="xtick_10">
     <g id="text_21">
      <!-- merged -->
      <g style="fill:#262626;" transform="translate(509.517484 395.938109)scale(0.121 -0.121)">
       <use xlink:href="#DejaVuSans-109"/>
       <use x="97.412109" xlink:href="#DejaVuSans-101"/>
       <use x="158.935547" xlink:href="#DejaVuSans-114"/>
       <use x="200.033203" xlink:href="#DejaVuSans-103"/>
       <use x="263.509766" xlink:href="#DejaVuSans-101"/>
       <use x="325.033203" xlink:href="#DejaVuSans-100"/>
      </g>
     </g>
    </g>
    <g id="xtick_11">
     <g id="text_22">
      <!-- prio -->
      <g style="fill:#262626;" transform="translate(565.076844 395.938109)scale(0.121 -0.121)">
       <use xlink:href="#DejaVuSans-112"/>
       <use x="63.476562" xlink:href="#DejaVuSans-114"/>
       <use x="104.589844" xlink:href="#DejaVuSans-105"/>
       <use x="132.373047" xlink:href="#DejaVuSans-111"/>
      </g>
     </g>
    </g>
    <g id="xtick_12">
     <g id="text_23">
      <!-- kmeans -->
      <g style="fill:#262626;" transform="translate(596.738703 395.938109)scale(0.121 -0.121)">
       <use xlink:href="#DejaVuSans-107"/>
       <use x="57.910156" xlink:href="#DejaVuSans-109"/>
       <use x="155.322266" xlink:href="#DejaVuSans-101"/>
       <use x="216.845703" xlink:href="#DejaVuSans-97"/>
       <use x="278.125" xlink:href="#DejaVuSans-110"/>
       <use x="341.503906" xlink:href="#DejaVuSans-115"/>
      </g>
     </g>
    </g>
    <g id="text_24">
     <!-- Method -->
     <g style="fill:#262626;" transform="translate(530.151375 412.484469)scale(0.132 -0.132)">
      <use xlink:href="#DejaVuSans-77"/>
      <use x="86.279297" xlink:href="#DejaVuSans-101"/>
      <use x="147.802734" xlink:href="#DejaVuSans-116"/>
      <use x="187.011719" xlink:href="#DejaVuSans-104"/>
      <use x="250.390625" xlink:href="#DejaVuSans-111"/>
      <use x="311.572266" xlink:href="#DejaVuSans-100"/>
     </g>
    </g>
   </g>
   <g id="matplotlib.axis_6">
    <g id="ytick_13">
     <g id="line2d_21">
      <path clip-path="url(#pfc6d119751)" d="M 467.378 377.244 
L 642.433 377.244 
" style="fill:none;stroke:#ffffff;stroke-linecap:round;"/>
     </g>
    </g>
    <g id="ytick_14">
     <g id="line2d_22">
      <path clip-path="url(#pfc6d119751)" d="M 467.378 310.4352 
L 642.433 310.4352 
" style="fill:none;stroke:#ffffff;stroke-linecap:round;"/>
     </g>
    </g>
    <g id="ytick_15">
     <g id="line2d_23">
      <path clip-path="url(#pfc6d119751)" d="M 467.378 243.6264 
L 642.433 243.6264 
" style="fill:none;stroke:#ffffff;stroke-linecap:round;"/>
     </g>
    </g>
    <g id="ytick_16">
     <g id="line2d_24">
      <path clip-path="url(#pfc6d119751)" d="M 467.378 176.8176 
L 642.433 176.8176 
" style="fill:none;stroke:#ffffff;stroke-linecap:round;"/>
     </g>
    </g>
    <g id="ytick_17">
     <g id="line2d_25">
      <path clip-path="url(#pfc6d119751)" d="M 467.378 110.0088 
L 642.433 110.0088 
" style="fill:none;stroke:#ffffff;stroke-linecap:round;"/>
     </g>
    </g>
    <g id="ytick_18">
     <g id="line2d_26">
      <path clip-path="url(#pfc6d119751)" d="M 467.378 43.2 
L 642.433 43.2 
" style="fill:none;stroke:#ffffff;stroke-linecap:round;"/>
     </g>
    </g>
   </g>
   <g id="PathCollection_9">
    <g clip-path="url(#pfc6d119751)">
     <use style="fill:#176d9c;stroke:#176d9c;" x="489.259875" xlink:href="#m9d5e247447" y="357.100091"/>
     <use style="fill:#176d9c;stroke:#176d9c;" x="489.259875" xlink:href="#m9d5e247447" y="59.9022"/>
    </g>
   </g>
   <g id="PatchCollection_9">
    <path clip-path="url(#pfc6d119751)" d="M 489.225685 355.877894 
L 489.294065 355.877894 
L 489.294065 64.335637 
L 489.225685 64.335637 
z
" style="fill:#ffffff;stroke:#ffffff;"/>
    <path clip-path="url(#pfc6d119751)" d="M 489.191494 354.698422 
L 489.328256 354.698422 
L 489.328256 68.396139 
L 489.191494 68.396139 
z
" style="fill:#e6eff4;stroke:#ffffff;"/>
    <path clip-path="url(#pfc6d119751)" d="M 489.123113 353.012181 
L 489.396637 353.012181 
L 489.396637 69.963808 
L 489.123113 69.963808 
z
" style="fill:#ccdfe9;stroke:#ffffff;"/>
    <path clip-path="url(#pfc6d119751)" d="M 488.986352 350.698342 
L 489.533398 350.698342 
L 489.533398 71.966699 
L 488.986352 71.966699 
z
" style="fill:#b2cede;stroke:#ffffff;"/>
    <path clip-path="url(#pfc6d119751)" d="M 488.712828 348.579323 
L 489.806922 348.579323 
L 489.806922 83.831132 
L 488.712828 83.831132 
z
" style="fill:#98bed3;stroke:#ffffff;"/>
    <path clip-path="url(#pfc6d119751)" d="M 488.165781 344.524198 
L 490.353969 344.524198 
L 490.353969 100.718605 
L 488.165781 100.718605 
z
" style="fill:#7eadc8;stroke:#ffffff;"/>
    <path clip-path="url(#pfc6d119751)" d="M 487.071688 341.629123 
L 491.448062 341.629123 
L 491.448062 121.054652 
L 487.071688 121.054652 
z
" style="fill:#649dbd;stroke:#ffffff;"/>
    <path clip-path="url(#pfc6d119751)" d="M 484.8835 335.257404 
L 493.63625 335.257404 
L 493.63625 142.658536 
L 484.8835 142.658536 
z
" style="fill:#4a8db2;stroke:#ffffff;"/>
    <path clip-path="url(#pfc6d119751)" d="M 480.507125 325.798317 
L 498.012625 325.798317 
L 498.012625 174.668323 
L 480.507125 174.668323 
z
" style="fill:#317da7;stroke:#ffffff;"/>
    <path clip-path="url(#pfc6d119751)" d="M 471.754375 307.069909 
L 506.765375 307.069909 
L 506.765375 220.908965 
L 471.754375 220.908965 
z
" style="fill:#176d9c;stroke:#ffffff;"/>
   </g>
   <g id="PathCollection_10">
    <g clip-path="url(#pfc6d119751)">
     <use style="fill:#c38820;stroke:#c38820;" x="533.023625" xlink:href="#m4a49280797" y="349.936765"/>
    </g>
   </g>
   <g id="PatchCollection_10">
    <path clip-path="url(#pfc6d119751)" d="M 532.989435 349.684656 
L 533.057815 349.684656 
L 533.057815 59.9022 
L 532.989435 59.9022 
z
" style="fill:#ffffff;stroke:#ffffff;"/>
    <path clip-path="url(#pfc6d119751)" d="M 532.955244 349.411391 
L 533.092006 349.411391 
L 533.092006 59.9022 
L 532.955244 59.9022 
z
" style="fill:#f8f2e7;stroke:#ffffff;"/>
    <path clip-path="url(#pfc6d119751)" d="M 532.886863 348.588295 
L 533.160387 348.588295 
L 533.160387 59.9022 
L 532.886863 59.9022 
z
" style="fill:#f2e5ce;stroke:#ffffff;"/>
    <path clip-path="url(#pfc6d119751)" d="M 532.750102 347.429226 
L 533.297148 347.429226 
L 533.297148 69.501774 
L 532.750102 69.501774 
z
" style="fill:#ebd7b5;stroke:#ffffff;"/>
    <path clip-path="url(#pfc6d119751)" d="M 532.476578 343.796831 
L 533.570672 343.796831 
L 533.570672 81.223078 
L 532.476578 81.223078 
z
" style="fill:#e4ca9c;stroke:#ffffff;"/>
    <path clip-path="url(#pfc6d119751)" d="M 531.929531 342.1498 
L 534.117719 342.1498 
L 534.117719 102.818668 
L 531.929531 102.818668 
z
" style="fill:#debd83;stroke:#ffffff;"/>
    <path clip-path="url(#pfc6d119751)" d="M 530.835438 338.407471 
L 535.211812 338.407471 
L 535.211812 118.645178 
L 530.835438 118.645178 
z
" style="fill:#d7af6a;stroke:#ffffff;"/>
    <path clip-path="url(#pfc6d119751)" d="M 528.64725 331.776844 
L 537.4 331.776844 
L 537.4 141.737918 
L 528.64725 141.737918 
z
" style="fill:#d0a251;stroke:#ffffff;"/>
    <path clip-path="url(#pfc6d119751)" d="M 524.270875 319.187176 
L 541.776375 319.187176 
L 541.776375 173.093211 
L 524.270875 173.093211 
z
" style="fill:#c99539;stroke:#ffffff;"/>
    <path clip-path="url(#pfc6d119751)" d="M 515.518125 306.880355 
L 550.529125 306.880355 
L 550.529125 224.371906 
L 515.518125 224.371906 
z
" style="fill:#c38820;stroke:#ffffff;"/>
   </g>
   <g id="PathCollection_11">
    <g clip-path="url(#pfc6d119751)">
     <use style="fill:#158b6a;stroke:#158b6a;" x="576.787375" xlink:href="#m17146f458b" y="359.784645"/>
     <use style="fill:#158b6a;stroke:#158b6a;" x="576.787375" xlink:href="#m17146f458b" y="77.028234"/>
    </g>
   </g>
   <g id="PatchCollection_11">
    <path clip-path="url(#pfc6d119751)" d="M 576.753185 358.533713 
L 576.821565 358.533713 
L 576.821565 78.389774 
L 576.753185 78.389774 
z
" style="fill:#ffffff;stroke:#ffffff;"/>
    <path clip-path="url(#pfc6d119751)" d="M 576.718994 357.394459 
L 576.855756 357.394459 
L 576.855756 79.75165 
L 576.718994 79.75165 
z
" style="fill:#e5f2ef;stroke:#ffffff;"/>
    <path clip-path="url(#pfc6d119751)" d="M 576.650613 356.980804 
L 576.924137 356.980804 
L 576.924137 82.718551 
L 576.650613 82.718551 
z
" style="fill:#cce5de;stroke:#ffffff;"/>
    <path clip-path="url(#pfc6d119751)" d="M 576.513852 355.436532 
L 577.060898 355.436532 
L 577.060898 88.198874 
L 576.513852 88.198874 
z
" style="fill:#b1d8cd;stroke:#ffffff;"/>
    <path clip-path="url(#pfc6d119751)" d="M 576.240328 352.606823 
L 577.334422 352.606823 
L 577.334422 96.891562 
L 576.240328 96.891562 
z
" style="fill:#98cbbd;stroke:#ffffff;"/>
    <path clip-path="url(#pfc6d119751)" d="M 575.693281 349.440544 
L 577.881469 349.440544 
L 577.881469 114.376306 
L 575.693281 114.376306 
z
" style="fill:#7dbeac;stroke:#ffffff;"/>
    <path clip-path="url(#pfc6d119751)" d="M 574.599187 346.443641 
L 578.975562 346.443641 
L 578.975562 130.939071 
L 574.599187 130.939071 
z
" style="fill:#63b19c;stroke:#ffffff;"/>
    <path clip-path="url(#pfc6d119751)" d="M 572.411 341.068449 
L 581.16375 341.068449 
L 581.16375 156.311941 
L 572.411 156.311941 
z
" style="fill:#49a48b;stroke:#ffffff;"/>
    <path clip-path="url(#pfc6d119751)" d="M 568.034625 332.786733 
L 585.540125 332.786733 
L 585.540125 188.77482 
L 568.034625 188.77482 
z
" style="fill:#2f977b;stroke:#ffffff;"/>
    <path clip-path="url(#pfc6d119751)" d="M 559.281875 317.194718 
L 594.292875 317.194718 
L 594.292875 235.464636 
L 559.281875 235.464636 
z
" style="fill:#158b6a;stroke:#ffffff;"/>
   </g>
   <g id="PathCollection_12">
    <g clip-path="url(#pfc6d119751)">
     <use style="fill:#ba611b;stroke:#ba611b;" x="620.551125" xlink:href="#mbc34dc0a19" y="361.866789"/>
     <use style="fill:#ba611b;stroke:#ba611b;" x="620.551125" xlink:href="#mbc34dc0a19" y="59.9022"/>
    </g>
   </g>
   <g id="PatchCollection_12">
    <path clip-path="url(#pfc6d119751)" d="M 620.516935 361.858076 
L 620.585315 361.858076 
L 620.585315 70.725105 
L 620.516935 70.725105 
z
" style="fill:#ffffff;stroke:#ffffff;"/>
    <path clip-path="url(#pfc6d119751)" d="M 620.482744 361.81521 
L 620.619506 361.81521 
L 620.619506 80.815319 
L 620.482744 80.815319 
z
" style="fill:#f7eee6;stroke:#ffffff;"/>
    <path clip-path="url(#pfc6d119751)" d="M 620.414363 361.106436 
L 620.687887 361.106436 
L 620.687887 88.072012 
L 620.414363 88.072012 
z
" style="fill:#f0dccd;stroke:#ffffff;"/>
    <path clip-path="url(#pfc6d119751)" d="M 620.277602 360.015758 
L 620.824648 360.015758 
L 620.824648 93.177303 
L 620.277602 93.177303 
z
" style="fill:#e8cab3;stroke:#ffffff;"/>
    <path clip-path="url(#pfc6d119751)" d="M 620.004078 357.978345 
L 621.098172 357.978345 
L 621.098172 101.663509 
L 620.004078 101.663509 
z
" style="fill:#e1b99a;stroke:#ffffff;"/>
    <path clip-path="url(#pfc6d119751)" d="M 619.457031 353.934162 
L 621.645219 353.934162 
L 621.645219 110.516237 
L 619.457031 110.516237 
z
" style="fill:#d9a780;stroke:#ffffff;"/>
    <path clip-path="url(#pfc6d119751)" d="M 618.362937 351.753932 
L 622.739312 351.753932 
L 622.739312 132.070806 
L 618.362937 132.070806 
z
" style="fill:#d19667;stroke:#ffffff;"/>
    <path clip-path="url(#pfc6d119751)" d="M 616.17475 347.072488 
L 624.9275 347.072488 
L 624.9275 152.112707 
L 616.17475 152.112707 
z
" style="fill:#c9844d;stroke:#ffffff;"/>
    <path clip-path="url(#pfc6d119751)" d="M 611.798375 334.005108 
L 629.303875 334.005108 
L 629.303875 186.510132 
L 611.798375 186.510132 
z
" style="fill:#c27234;stroke:#ffffff;"/>
    <path clip-path="url(#pfc6d119751)" d="M 603.045625 315.829699 
L 638.056625 315.829699 
L 638.056625 227.411519 
L 603.045625 227.411519 
z
" style="fill:#ba611b;stroke:#ffffff;"/>
   </g>
   <g id="line2d_27">
    <path clip-path="url(#pfc6d119751)" d="M 471.754375 273.373597 
L 506.765375 273.373597 
" style="fill:none;stroke:#262626;stroke-linecap:round;stroke-opacity:0.45;stroke-width:1.5;"/>
   </g>
   <g id="line2d_28">
    <path clip-path="url(#pfc6d119751)" d="M 515.518125 273.826056 
L 550.529125 273.826056 
" style="fill:none;stroke:#262626;stroke-linecap:round;stroke-opacity:0.45;stroke-width:1.5;"/>
   </g>
   <g id="line2d_29">
    <path clip-path="url(#pfc6d119751)" d="M 559.281875 288.797362 
L 594.292875 288.797362 
" style="fill:none;stroke:#262626;stroke-linecap:round;stroke-opacity:0.45;stroke-width:1.5;"/>
   </g>
   <g id="line2d_30">
    <path clip-path="url(#pfc6d119751)" d="M 603.045625 281.268536 
L 638.056625 281.268536 
" style="fill:none;stroke:#262626;stroke-linecap:round;stroke-opacity:0.45;stroke-width:1.5;"/>
   </g>
   <g id="patch_9">
    <path d="M 467.378 377.244 
L 467.378 43.2 
" style="fill:none;stroke:#ffffff;stroke-linecap:square;stroke-linejoin:miter;stroke-width:1.25;"/>
   </g>
   <g id="patch_10">
    <path d="M 467.378 377.244 
L 642.433 377.244 
" style="fill:none;stroke:#ffffff;stroke-linecap:square;stroke-linejoin:miter;stroke-width:1.25;"/>
   </g>
   <g id="text_25">
    <!-- clusters = 16 -->
    <g style="fill:#262626;" transform="translate(510.897937 37.2)scale(0.132 -0.132)">
     <use xlink:href="#DejaVuSans-99"/>
     <use x="54.980469" xlink:href="#DejaVuSans-108"/>
     <use x="82.763672" xlink:href="#DejaVuSans-117"/>
     <use x="146.142578" xlink:href="#DejaVuSans-115"/>
     <use x="198.242188" xlink:href="#DejaVuSans-116"/>
     <use x="237.451172" xlink:href="#DejaVuSans-101"/>
     <use x="298.974609" xlink:href="#DejaVuSans-114"/>
     <use x="340.087891" xlink:href="#DejaVuSans-115"/>
     <use x="392.1875" xlink:href="#DejaVuSans-32"/>
     <use x="423.974609" xlink:href="#DejaVuSans-61"/>
     <use x="507.763672" xlink:href="#DejaVuSans-32"/>
     <use x="539.550781" xlink:href="#DejaVuSans-49"/>
     <use x="603.173828" xlink:href="#DejaVuSans-54"/>
    </g>
   </g>
  </g>
  <g id="axes_4">
   <g id="patch_11">
    <path d="M 668.689 377.244 
L 843.744 377.244 
L 843.744 43.2 
L 668.689 43.2 
z
" style="fill:#eaeaf2;"/>
   </g>
   <g id="matplotlib.axis_7">
    <g id="xtick_13">
     <g id="text_26">
      <!-- metis -->
      <g style="fill:#262626;" transform="translate(673.75093 395.938109)scale(0.121 -0.121)">
       <use xlink:href="#DejaVuSans-109"/>
       <use x="97.412109" xlink:href="#DejaVuSans-101"/>
       <use x="158.935547" xlink:href="#DejaVuSans-116"/>
       <use x="198.144531" xlink:href="#DejaVuSans-105"/>
       <use x="225.927734" xlink:href="#DejaVuSans-115"/>
      </g>
     </g>
    </g>
    <g id="xtick_14">
     <g id="text_27">
      <!-- merged -->
      <g style="fill:#262626;" transform="translate(710.828484 395.938109)scale(0.121 -0.121)">
       <use xlink:href="#DejaVuSans-109"/>
       <use x="97.412109" xlink:href="#DejaVuSans-101"/>
       <use x="158.935547" xlink:href="#DejaVuSans-114"/>
       <use x="200.033203" xlink:href="#DejaVuSans-103"/>
       <use x="263.509766" xlink:href="#DejaVuSans-101"/>
       <use x="325.033203" xlink:href="#DejaVuSans-100"/>
      </g>
     </g>
    </g>
    <g id="xtick_15">
     <g id="text_28">
      <!-- prio -->
      <g style="fill:#262626;" transform="translate(766.387844 395.938109)scale(0.121 -0.121)">
       <use xlink:href="#DejaVuSans-112"/>
       <use x="63.476562" xlink:href="#DejaVuSans-114"/>
       <use x="104.589844" xlink:href="#DejaVuSans-105"/>
       <use x="132.373047" xlink:href="#DejaVuSans-111"/>
      </g>
     </g>
    </g>
    <g id="xtick_16">
     <g id="text_29">
      <!-- kmeans -->
      <g style="fill:#262626;" transform="translate(798.049703 395.938109)scale(0.121 -0.121)">
       <use xlink:href="#DejaVuSans-107"/>
       <use x="57.910156" xlink:href="#DejaVuSans-109"/>
       <use x="155.322266" xlink:href="#DejaVuSans-101"/>
       <use x="216.845703" xlink:href="#DejaVuSans-97"/>
       <use x="278.125" xlink:href="#DejaVuSans-110"/>
       <use x="341.503906" xlink:href="#DejaVuSans-115"/>
      </g>
     </g>
    </g>
    <g id="text_30">
     <!-- Method -->
     <g style="fill:#262626;" transform="translate(731.462375 412.484469)scale(0.132 -0.132)">
      <use xlink:href="#DejaVuSans-77"/>
      <use x="86.279297" xlink:href="#DejaVuSans-101"/>
      <use x="147.802734" xlink:href="#DejaVuSans-116"/>
      <use x="187.011719" xlink:href="#DejaVuSans-104"/>
      <use x="250.390625" xlink:href="#DejaVuSans-111"/>
      <use x="311.572266" xlink:href="#DejaVuSans-100"/>
     </g>
    </g>
   </g>
   <g id="matplotlib.axis_8">
    <g id="ytick_19">
     <g id="line2d_31">
      <path clip-path="url(#p86ecd85f4c)" d="M 668.689 377.244 
L 843.744 377.244 
" style="fill:none;stroke:#ffffff;stroke-linecap:round;"/>
     </g>
    </g>
    <g id="ytick_20">
     <g id="line2d_32">
      <path clip-path="url(#p86ecd85f4c)" d="M 668.689 310.4352 
L 843.744 310.4352 
" style="fill:none;stroke:#ffffff;stroke-linecap:round;"/>
     </g>
    </g>
    <g id="ytick_21">
     <g id="line2d_33">
      <path clip-path="url(#p86ecd85f4c)" d="M 668.689 243.6264 
L 843.744 243.6264 
" style="fill:none;stroke:#ffffff;stroke-linecap:round;"/>
     </g>
    </g>
    <g id="ytick_22">
     <g id="line2d_34">
      <path clip-path="url(#p86ecd85f4c)" d="M 668.689 176.8176 
L 843.744 176.8176 
" style="fill:none;stroke:#ffffff;stroke-linecap:round;"/>
     </g>
    </g>
    <g id="ytick_23">
     <g id="line2d_35">
      <path clip-path="url(#p86ecd85f4c)" d="M 668.689 110.0088 
L 843.744 110.0088 
" style="fill:none;stroke:#ffffff;stroke-linecap:round;"/>
     </g>
    </g>
    <g id="ytick_24">
     <g id="line2d_36">
      <path clip-path="url(#p86ecd85f4c)" d="M 668.689 43.2 
L 843.744 43.2 
" style="fill:none;stroke:#ffffff;stroke-linecap:round;"/>
     </g>
    </g>
   </g>
   <g id="PathCollection_13">
    <g clip-path="url(#p86ecd85f4c)">
     <use style="fill:#176d9c;stroke:#176d9c;" x="690.570875" xlink:href="#m9d5e247447" y="363.403069"/>
    </g>
   </g>
   <g id="PatchCollection_13">
    <path clip-path="url(#p86ecd85f4c)" d="M 690.536685 360.453268 
L 690.605065 360.453268 
L 690.605065 59.9022 
L 690.536685 59.9022 
z
" style="fill:#ffffff;stroke:#ffffff;"/>
    <path clip-path="url(#p86ecd85f4c)" d="M 690.502494 357.787225 
L 690.639256 357.787225 
L 690.639256 59.9022 
L 690.502494 59.9022 
z
" style="fill:#e6eff4;stroke:#ffffff;"/>
    <path clip-path="url(#p86ecd85f4c)" d="M 690.434113 357.328298 
L 690.707637 357.328298 
L 690.707637 59.9022 
L 690.434113 59.9022 
z
" style="fill:#ccdfe9;stroke:#ffffff;"/>
    <path clip-path="url(#p86ecd85f4c)" d="M 690.297352 355.612501 
L 690.844398 355.612501 
L 690.844398 59.9022 
L 690.297352 59.9022 
z
" style="fill:#b2cede;stroke:#ffffff;"/>
    <path clip-path="url(#p86ecd85f4c)" d="M 690.023828 353.812281 
L 691.117922 353.812281 
L 691.117922 75.427587 
L 690.023828 75.427587 
z
" style="fill:#98bed3;stroke:#ffffff;"/>
    <path clip-path="url(#p86ecd85f4c)" d="M 689.476781 348.466429 
L 691.664969 348.466429 
L 691.664969 96.848608 
L 689.476781 96.848608 
z
" style="fill:#7eadc8;stroke:#ffffff;"/>
    <path clip-path="url(#p86ecd85f4c)" d="M 688.382687 343.399434 
L 692.759063 343.399434 
L 692.759063 111.98791 
L 688.382687 111.98791 
z
" style="fill:#649dbd;stroke:#ffffff;"/>
    <path clip-path="url(#p86ecd85f4c)" d="M 686.1945 337.305653 
L 694.94725 337.305653 
L 694.94725 135.918991 
L 686.1945 135.918991 
z
" style="fill:#4a8db2;stroke:#ffffff;"/>
    <path clip-path="url(#p86ecd85f4c)" d="M 681.818125 327.131416 
L 699.323625 327.131416 
L 699.323625 169.152329 
L 681.818125 169.152329 
z
" style="fill:#317da7;stroke:#ffffff;"/>
    <path clip-path="url(#p86ecd85f4c)" d="M 673.065375 307.780814 
L 708.076375 307.780814 
L 708.076375 213.113158 
L 673.065375 213.113158 
z
" style="fill:#176d9c;stroke:#ffffff;"/>
   </g>
   <g id="PathCollection_14">
    <g clip-path="url(#p86ecd85f4c)">
     <use style="fill:#c38820;stroke:#c38820;" x="734.334625" xlink:href="#m4a49280797" y="360.769018"/>
    </g>
   </g>
   <g id="PatchCollection_14">
    <path clip-path="url(#p86ecd85f4c)" d="M 734.300435 359.577324 
L 734.368815 359.577324 
L 734.368815 59.9022 
L 734.300435 59.9022 
z
" style="fill:#ffffff;stroke:#ffffff;"/>
    <path clip-path="url(#p86ecd85f4c)" d="M 734.266244 358.480339 
L 734.403006 358.480339 
L 734.403006 59.9022 
L 734.266244 59.9022 
z
" style="fill:#f8f2e7;stroke:#ffffff;"/>
    <path clip-path="url(#p86ecd85f4c)" d="M 734.197863 357.874626 
L 734.471387 357.874626 
L 734.471387 59.9022 
L 734.197863 59.9022 
z
" style="fill:#f2e5ce;stroke:#ffffff;"/>
    <path clip-path="url(#p86ecd85f4c)" d="M 734.061102 356.081812 
L 734.608148 356.081812 
L 734.608148 61.346891 
L 734.061102 61.346891 
z
" style="fill:#ebd7b5;stroke:#ffffff;"/>
    <path clip-path="url(#p86ecd85f4c)" d="M 733.787578 354.106858 
L 734.881672 354.106858 
L 734.881672 75.866859 
L 733.787578 75.866859 
z
" style="fill:#e4ca9c;stroke:#ffffff;"/>
    <path clip-path="url(#p86ecd85f4c)" d="M 733.240531 350.406288 
L 735.428719 350.406288 
L 735.428719 91.847582 
L 733.240531 91.847582 
z
" style="fill:#debd83;stroke:#ffffff;"/>
    <path clip-path="url(#p86ecd85f4c)" d="M 732.146438 346.476496 
L 736.522812 346.476496 
L 736.522812 114.307869 
L 732.146438 114.307869 
z
" style="fill:#d7af6a;stroke:#ffffff;"/>
    <path clip-path="url(#p86ecd85f4c)" d="M 729.95825 342.298835 
L 738.711 342.298835 
L 738.711 145.692508 
L 729.95825 145.692508 
z
" style="fill:#d0a251;stroke:#ffffff;"/>
    <path clip-path="url(#p86ecd85f4c)" d="M 725.581875 335.412988 
L 743.087375 335.412988 
L 743.087375 181.393229 
L 725.581875 181.393229 
z
" style="fill:#c99539;stroke:#ffffff;"/>
    <path clip-path="url(#p86ecd85f4c)" d="M 716.829125 319.040708 
L 751.840125 319.040708 
L 751.840125 233.371127 
L 716.829125 233.371127 
z
" style="fill:#c38820;stroke:#ffffff;"/>
   </g>
   <g id="PathCollection_15">
    <g clip-path="url(#p86ecd85f4c)">
     <use style="fill:#158b6a;stroke:#158b6a;" x="778.098375" xlink:href="#m17146f458b" y="362.34393"/>
    </g>
   </g>
   <g id="PatchCollection_15">
    <path clip-path="url(#p86ecd85f4c)" d="M 778.064185 361.852535 
L 778.132565 361.852535 
L 778.132565 59.9022 
L 778.064185 59.9022 
z
" style="fill:#ffffff;stroke:#ffffff;"/>
    <path clip-path="url(#p86ecd85f4c)" d="M 778.029994 361.361783 
L 778.166756 361.361783 
L 778.166756 59.9022 
L 778.029994 59.9022 
z
" style="fill:#e5f2ef;stroke:#ffffff;"/>
    <path clip-path="url(#p86ecd85f4c)" d="M 777.961613 360.422104 
L 778.235137 360.422104 
L 778.235137 59.9022 
L 777.961613 59.9022 
z
" style="fill:#cce5de;stroke:#ffffff;"/>
    <path clip-path="url(#p86ecd85f4c)" d="M 777.824852 358.465051 
L 778.371898 358.465051 
L 778.371898 59.9022 
L 777.824852 59.9022 
z
" style="fill:#b1d8cd;stroke:#ffffff;"/>
    <path clip-path="url(#p86ecd85f4c)" d="M 777.551328 355.867605 
L 778.645422 355.867605 
L 778.645422 76.51913 
L 777.551328 76.51913 
z
" style="fill:#98cbbd;stroke:#ffffff;"/>
    <path clip-path="url(#p86ecd85f4c)" d="M 777.004281 353.804968 
L 779.192469 353.804968 
L 779.192469 100.282062 
L 777.004281 100.282062 
z
" style="fill:#7dbeac;stroke:#ffffff;"/>
    <path clip-path="url(#p86ecd85f4c)" d="M 775.910188 350.642004 
L 780.286562 350.642004 
L 780.286562 123.601441 
L 775.910188 123.601441 
z
" style="fill:#63b19c;stroke:#ffffff;"/>
    <path clip-path="url(#p86ecd85f4c)" d="M 773.722 346.31889 
L 782.47475 346.31889 
L 782.47475 155.224624 
L 773.722 155.224624 
z
" style="fill:#49a48b;stroke:#ffffff;"/>
    <path clip-path="url(#p86ecd85f4c)" d="M 769.345625 337.707274 
L 786.851125 337.707274 
L 786.851125 195.050691 
L 769.345625 195.050691 
z
" style="fill:#2f977b;stroke:#ffffff;"/>
    <path clip-path="url(#p86ecd85f4c)" d="M 760.592875 324.001138 
L 795.603875 324.001138 
L 795.603875 244.636496 
L 760.592875 244.636496 
z
" style="fill:#158b6a;stroke:#ffffff;"/>
   </g>
   <g id="PathCollection_16">
    <g clip-path="url(#p86ecd85f4c)">
     <use style="fill:#ba611b;stroke:#ba611b;" x="821.862125" xlink:href="#mbc34dc0a19" y="369.540315"/>
    </g>
   </g>
   <g id="PatchCollection_16">
    <path clip-path="url(#p86ecd85f4c)" d="M 821.827935 367.242597 
L 821.896315 367.242597 
L 821.896315 59.9022 
L 821.827935 59.9022 
z
" style="fill:#ffffff;stroke:#ffffff;"/>
    <path clip-path="url(#p86ecd85f4c)" d="M 821.793744 365.153946 
L 821.930506 365.153946 
L 821.930506 59.9022 
L 821.793744 59.9022 
z
" style="fill:#f7eee6;stroke:#ffffff;"/>
    <path clip-path="url(#p86ecd85f4c)" d="M 821.725363 364.618299 
L 821.998887 364.618299 
L 821.998887 59.9022 
L 821.725363 59.9022 
z
" style="fill:#f0dccd;stroke:#ffffff;"/>
    <path clip-path="url(#p86ecd85f4c)" d="M 821.588602 363.622316 
L 822.135648 363.622316 
L 822.135648 59.9022 
L 821.588602 59.9022 
z
" style="fill:#e8cab3;stroke:#ffffff;"/>
    <path clip-path="url(#p86ecd85f4c)" d="M 821.315078 361.943873 
L 822.409172 361.943873 
L 822.409172 76.42356 
L 821.315078 76.42356 
z
" style="fill:#e1b99a;stroke:#ffffff;"/>
    <path clip-path="url(#p86ecd85f4c)" d="M 820.768031 359.701498 
L 822.956219 359.701498 
L 822.956219 102.377068 
L 820.768031 102.377068 
z
" style="fill:#d9a780;stroke:#ffffff;"/>
    <path clip-path="url(#p86ecd85f4c)" d="M 819.673937 354.352238 
L 824.050313 354.352238 
L 824.050313 125.510804 
L 819.673937 125.510804 
z
" style="fill:#d19667;stroke:#ffffff;"/>
    <path clip-path="url(#p86ecd85f4c)" d="M 817.48575 349.484088 
L 826.2385 349.484088 
L 826.2385 156.549123 
L 817.48575 156.549123 
z
" style="fill:#c9844d;stroke:#ffffff;"/>
    <path clip-path="url(#p86ecd85f4c)" d="M 813.109375 341.779604 
L 830.614875 341.779604 
L 830.614875 193.546144 
L 813.109375 193.546144 
z
" style="fill:#c27234;stroke:#ffffff;"/>
    <path clip-path="url(#p86ecd85f4c)" d="M 804.356625 323.074703 
L 839.367625 323.074703 
L 839.367625 242.437987 
L 804.356625 242.437987 
z
" style="fill:#ba611b;stroke:#ffffff;"/>
   </g>
   <g id="line2d_37">
    <path clip-path="url(#p86ecd85f4c)" d="M 673.065375 270.695301 
L 708.076375 270.695301 
" style="fill:none;stroke:#262626;stroke-linecap:round;stroke-opacity:0.45;stroke-width:1.5;"/>
   </g>
   <g id="line2d_38">
    <path clip-path="url(#p86ecd85f4c)" d="M 716.829125 286.918288 
L 751.840125 286.918288 
" style="fill:none;stroke:#262626;stroke-linecap:round;stroke-opacity:0.45;stroke-width:1.5;"/>
   </g>
   <g id="line2d_39">
    <path clip-path="url(#p86ecd85f4c)" d="M 760.592875 295.556119 
L 795.603875 295.556119 
" style="fill:none;stroke:#262626;stroke-linecap:round;stroke-opacity:0.45;stroke-width:1.5;"/>
   </g>
   <g id="line2d_40">
    <path clip-path="url(#p86ecd85f4c)" d="M 804.356625 293.076621 
L 839.367625 293.076621 
" style="fill:none;stroke:#262626;stroke-linecap:round;stroke-opacity:0.45;stroke-width:1.5;"/>
   </g>
   <g id="patch_12">
    <path d="M 668.689 377.244 
L 668.689 43.2 
" style="fill:none;stroke:#ffffff;stroke-linecap:square;stroke-linejoin:miter;stroke-width:1.25;"/>
   </g>
   <g id="patch_13">
    <path d="M 668.689 377.244 
L 843.744 377.244 
" style="fill:none;stroke:#ffffff;stroke-linecap:square;stroke-linejoin:miter;stroke-width:1.25;"/>
   </g>
   <g id="text_31">
    <!-- clusters = 32 -->
    <defs>
     <path d="M 40.578125 39.3125 
Q 47.65625 37.796875 51.625 33 
Q 55.609375 28.21875 55.609375 21.1875 
Q 55.609375 10.40625 48.1875 4.484375 
Q 40.765625 -1.421875 27.09375 -1.421875 
Q 22.515625 -1.421875 17.65625 -0.515625 
Q 12.796875 0.390625 7.625 2.203125 
L 7.625 11.71875 
Q 11.71875 9.328125 16.59375 8.109375 
Q 21.484375 6.890625 26.8125 6.890625 
Q 36.078125 6.890625 40.9375 10.546875 
Q 45.796875 14.203125 45.796875 21.1875 
Q 45.796875 27.640625 41.28125 31.265625 
Q 36.765625 34.90625 28.71875 34.90625 
L 20.21875 34.90625 
L 20.21875 43.015625 
L 29.109375 43.015625 
Q 36.375 43.015625 40.234375 45.921875 
Q 44.09375 48.828125 44.09375 54.296875 
Q 44.09375 59.90625 40.109375 62.90625 
Q 36.140625 65.921875 28.71875 65.921875 
Q 24.65625 65.921875 20.015625 65.03125 
Q 15.375 64.15625 9.8125 62.3125 
L 9.8125 71.09375 
Q 15.4375 72.65625 20.34375 73.4375 
Q 25.25 74.21875 29.59375 74.21875 
Q 40.828125 74.21875 47.359375 69.109375 
Q 53.90625 64.015625 53.90625 55.328125 
Q 53.90625 49.265625 50.4375 45.09375 
Q 46.96875 40.921875 40.578125 39.3125 
z
" id="DejaVuSans-51"/>
    </defs>
    <g style="fill:#262626;" transform="translate(712.208938 37.2)scale(0.132 -0.132)">
     <use xlink:href="#DejaVuSans-99"/>
     <use x="54.980469" xlink:href="#DejaVuSans-108"/>
     <use x="82.763672" xlink:href="#DejaVuSans-117"/>
     <use x="146.142578" xlink:href="#DejaVuSans-115"/>
     <use x="198.242188" xlink:href="#DejaVuSans-116"/>
     <use x="237.451172" xlink:href="#DejaVuSans-101"/>
     <use x="298.974609" xlink:href="#DejaVuSans-114"/>
     <use x="340.087891" xlink:href="#DejaVuSans-115"/>
     <use x="392.1875" xlink:href="#DejaVuSans-32"/>
     <use x="423.974609" xlink:href="#DejaVuSans-61"/>
     <use x="507.763672" xlink:href="#DejaVuSans-32"/>
     <use x="539.550781" xlink:href="#DejaVuSans-51"/>
     <use x="603.173828" xlink:href="#DejaVuSans-50"/>
    </g>
   </g>
  </g>
  <g id="text_32">
   <!-- Query time relative to baseline (lower is better) -->
   <defs>
    <path d="M 39.40625 66.21875 
Q 28.65625 66.21875 22.328125 58.203125 
Q 16.015625 50.203125 16.015625 36.375 
Q 16.015625 22.609375 22.328125 14.59375 
Q 28.65625 6.59375 39.40625 6.59375 
Q 50.140625 6.59375 56.421875 14.59375 
Q 62.703125 22.609375 62.703125 36.375 
Q 62.703125 50.203125 56.421875 58.203125 
Q 50.140625 66.21875 39.40625 66.21875 
z
M 53.21875 1.3125 
L 66.21875 -12.890625 
L 54.296875 -12.890625 
L 43.5 -1.21875 
Q 41.890625 -1.3125 41.03125 -1.359375 
Q 40.1875 -1.421875 39.40625 -1.421875 
Q 24.03125 -1.421875 14.8125 8.859375 
Q 5.609375 19.140625 5.609375 36.375 
Q 5.609375 53.65625 14.8125 63.9375 
Q 24.03125 74.21875 39.40625 74.21875 
Q 54.734375 74.21875 63.90625 63.9375 
Q 73.09375 53.65625 73.09375 36.375 
Q 73.09375 23.6875 67.984375 14.640625 
Q 62.890625 5.609375 53.21875 1.3125 
z
" id="DejaVuSans-81"/>
    <path d="M 48.6875 27.296875 
Q 48.6875 37.203125 44.609375 42.84375 
Q 40.53125 48.484375 33.40625 48.484375 
Q 26.265625 48.484375 22.1875 42.84375 
Q 18.109375 37.203125 18.109375 27.296875 
Q 18.109375 17.390625 22.1875 11.75 
Q 26.265625 6.109375 33.40625 6.109375 
Q 40.53125 6.109375 44.609375 11.75 
Q 48.6875 17.390625 48.6875 27.296875 
z
M 18.109375 46.390625 
Q 20.953125 51.265625 25.265625 53.625 
Q 29.59375 56 35.59375 56 
Q 45.5625 56 51.78125 48.09375 
Q 58.015625 40.1875 58.015625 27.296875 
Q 58.015625 14.40625 51.78125 6.484375 
Q 45.5625 -1.421875 35.59375 -1.421875 
Q 29.59375 -1.421875 25.265625 0.953125 
Q 20.953125 3.328125 18.109375 8.203125 
L 18.109375 0 
L 9.078125 0 
L 9.078125 75.984375 
L 18.109375 75.984375 
z
" id="DejaVuSans-98"/>
    <path d="M 4.203125 54.6875 
L 13.1875 54.6875 
L 24.421875 12.015625 
L 35.59375 54.6875 
L 46.1875 54.6875 
L 57.421875 12.015625 
L 68.609375 54.6875 
L 77.59375 54.6875 
L 63.28125 0 
L 52.6875 0 
L 40.921875 44.828125 
L 29.109375 0 
L 18.5 0 
z
" id="DejaVuSans-119"/>
   </defs>
   <g style="fill:#262626;" transform="translate(242.846888 20.675925)scale(0.1584 -0.1584)">
    <use xlink:href="#DejaVuSans-81"/>
    <use x="78.710938" xlink:href="#DejaVuSans-117"/>
    <use x="142.089844" xlink:href="#DejaVuSans-101"/>
    <use x="203.613281" xlink:href="#DejaVuSans-114"/>
    <use x="244.726562" xlink:href="#DejaVuSans-121"/>
    <use x="303.90625" xlink:href="#DejaVuSans-32"/>
    <use x="335.693359" xlink:href="#DejaVuSans-116"/>
    <use x="374.902344" xlink:href="#DejaVuSans-105"/>
    <use x="402.685547" xlink:href="#DejaVuSans-109"/>
    <use x="500.097656" xlink:href="#DejaVuSans-101"/>
    <use x="561.621094" xlink:href="#DejaVuSans-32"/>
    <use x="593.408203" xlink:href="#DejaVuSans-114"/>
    <use x="634.490234" xlink:href="#DejaVuSans-101"/>
    <use x="696.013672" xlink:href="#DejaVuSans-108"/>
    <use x="723.796875" xlink:href="#DejaVuSans-97"/>
    <use x="785.076172" xlink:href="#DejaVuSans-116"/>
    <use x="824.285156" xlink:href="#DejaVuSans-105"/>
    <use x="852.068359" xlink:href="#DejaVuSans-118"/>
    <use x="911.248047" xlink:href="#DejaVuSans-101"/>
    <use x="972.771484" xlink:href="#DejaVuSans-32"/>
    <use x="1004.558594" xlink:href="#DejaVuSans-116"/>
    <use x="1043.767578" xlink:href="#DejaVuSans-111"/>
    <use x="1104.949219" xlink:href="#DejaVuSans-32"/>
    <use x="1136.736328" xlink:href="#DejaVuSans-98"/>
    <use x="1200.212891" xlink:href="#DejaVuSans-97"/>
    <use x="1261.492188" xlink:href="#DejaVuSans-115"/>
    <use x="1313.591797" xlink:href="#DejaVuSans-101"/>
    <use x="1375.115234" xlink:href="#DejaVuSans-108"/>
    <use x="1402.898438" xlink:href="#DejaVuSans-105"/>
    <use x="1430.681641" xlink:href="#DejaVuSans-110"/>
    <use x="1494.060547" xlink:href="#DejaVuSans-101"/>
    <use x="1555.583984" xlink:href="#DejaVuSans-32"/>
    <use x="1587.371094" xlink:href="#DejaVuSans-40"/>
    <use x="1626.384766" xlink:href="#DejaVuSans-108"/>
    <use x="1654.167969" xlink:href="#DejaVuSans-111"/>
    <use x="1715.349609" xlink:href="#DejaVuSans-119"/>
    <use x="1797.136719" xlink:href="#DejaVuSans-101"/>
    <use x="1858.660156" xlink:href="#DejaVuSans-114"/>
    <use x="1899.773438" xlink:href="#DejaVuSans-32"/>
    <use x="1931.560547" xlink:href="#DejaVuSans-105"/>
    <use x="1959.34375" xlink:href="#DejaVuSans-115"/>
    <use x="2011.443359" xlink:href="#DejaVuSans-32"/>
    <use x="2043.230469" xlink:href="#DejaVuSans-98"/>
    <use x="2106.707031" xlink:href="#DejaVuSans-101"/>
    <use x="2168.230469" xlink:href="#DejaVuSans-116"/>
    <use x="2207.439453" xlink:href="#DejaVuSans-116"/>
    <use x="2246.648438" xlink:href="#DejaVuSans-101"/>
    <use x="2308.171875" xlink:href="#DejaVuSans-114"/>
    <use x="2349.285156" xlink:href="#DejaVuSans-41"/>
   </g>
  </g>
 </g>
 <defs>
  <clipPath id="pb3fb7caba7">
   <rect height="334.044" width="175.055" x="64.756" y="43.2"/>
  </clipPath>
  <clipPath id="p612c99d161">
   <rect height="334.044" width="175.055" x="266.067" y="43.2"/>
  </clipPath>
  <clipPath id="pfc6d119751">
   <rect height="334.044" width="175.055" x="467.378" y="43.2"/>
  </clipPath>
  <clipPath id="p86ecd85f4c">
   <rect height="334.044" width="175.055" x="668.689" y="43.2"/>
  </clipPath>
 </defs>
</svg>
