<?xml version="1.0" encoding="utf-8" standalone="no"?>
<!DOCTYPE svg PUBLIC "-//W3C//DTD SVG 1.1//EN"
  "http://www.w3.org/Graphics/SVG/1.1/DTD/svg11.dtd">
<!-- Created with matplotlib (https://matplotlib.org/) -->
<svg height="432pt" version="1.1" viewBox="0 0 864 432" width="864pt" xmlns="http://www.w3.org/2000/svg" xmlns:xlink="http://www.w3.org/1999/xlink">
 <defs>
  <style type="text/css">
*{stroke-linecap:butt;stroke-linejoin:round;}
  </style>
 </defs>
 <g id="figure_1">
  <g id="patch_1">
   <path d="M 0 432 
L 864 432 
L 864 0 
L 0 0 
z
" style="fill:#ffffff;"/>
  </g>
  <g id="axes_1">
   <g id="patch_2">
    <path d="M 64.756 377.244 
L 239.811 377.244 
L 239.811 43.2 
L 64.756 43.2 
z
" style="fill:#eaeaf2;"/>
   </g>
   <g id="matplotlib.axis_1">
    <g id="xtick_1">
     <g id="text_1">
      <!-- metis -->
      <defs>
       <path d="M 52 44.1875 
Q 55.375 50.25 60.0625 53.125 
Q 64.75 56 71.09375 56 
Q 79.640625 56 84.28125 50.015625 
Q 88.921875 44.046875 88.921875 33.015625 
L 88.921875 0 
L 79.890625 0 
L 79.890625 32.71875 
Q 79.890625 40.578125 77.09375 44.375 
Q 74.3125 48.1875 68.609375 48.1875 
Q 61.625 48.1875 57.5625 43.546875 
Q 53.515625 38.921875 53.515625 30.90625 
L 53.515625 0 
L 44.484375 0 
L 44.484375 32.71875 
Q 44.484375 40.625 41.703125 44.40625 
Q 38.921875 48.1875 33.109375 48.1875 
Q 26.21875 48.1875 22.15625 43.53125 
Q 18.109375 38.875 18.109375 30.90625 
L 18.109375 0 
L 9.078125 0 
L 9.078125 54.6875 
L 18.109375 54.6875 
L 18.109375 46.1875 
Q 21.1875 51.21875 25.484375 53.609375 
Q 29.78125 56 35.6875 56 
Q 41.65625 56 45.828125 52.96875 
Q 50 49.953125 52 44.1875 
z
" id="DejaVuSans-109"/>
       <path d="M 56.203125 29.59375 
L 56.203125 25.203125 
L 14.890625 25.203125 
Q 15.484375 15.921875 20.484375 11.0625 
Q 25.484375 6.203125 34.421875 6.203125 
Q 39.59375 6.203125 44.453125 7.46875 
Q 49.3125 8.734375 54.109375 11.28125 
L 54.109375 2.78125 
Q 49.265625 0.734375 44.1875 -0.34375 
Q 39.109375 -1.421875 33.890625 -1.421875 
Q 20.796875 -1.421875 13.15625 6.1875 
Q 5.515625 13.8125 5.515625 26.8125 
Q 5.515625 40.234375 12.765625 48.109375 
Q 20.015625 56 32.328125 56 
Q 43.359375 56 49.78125 48.890625 
Q 56.203125 41.796875 56.203125 29.59375 
z
M 47.21875 32.234375 
Q 47.125 39.59375 43.09375 43.984375 
Q 39.0625 48.390625 32.421875 48.390625 
Q 24.90625 48.390625 20.390625 44.140625 
Q 15.875 39.890625 15.1875 32.171875 
z
" id="DejaVuSans-101"/>
       <path d="M 18.3125 70.21875 
L 18.3125 54.6875 
L 36.8125 54.6875 
L 36.8125 47.703125 
L 18.3125 47.703125 
L 18.3125 18.015625 
Q 18.3125 11.328125 20.140625 9.421875 
Q 21.96875 7.515625 27.59375 7.515625 
L 36.8125 7.515625 
L 36.8125 0 
L 27.59375 0 
Q 17.1875 0 13.234375 3.875 
Q 9.28125 7.765625 9.28125 18.015625 
L 9.28125 47.703125 
L 2.6875 47.703125 
L 2.6875 54.6875 
L 9.28125 54.6875 
L 9.28125 70.21875 
z
" id="DejaVuSans-116"/>
       <path d="M 9.421875 54.6875 
L 18.40625 54.6875 
L 18.40625 0 
L 9.421875 0 
z
M 9.421875 75.984375 
L 18.40625 75.984375 
L 18.40625 64.59375 
L 9.421875 64.59375 
z
" id="DejaVuSans-105"/>
       <path d="M 44.28125 53.078125 
L 44.28125 44.578125 
Q 40.484375 46.53125 36.375 47.5 
Q 32.28125 48.484375 27.875 48.484375 
Q 21.1875 48.484375 17.84375 46.4375 
Q 14.5 44.390625 14.5 40.28125 
Q 14.5 37.15625 16.890625 35.375 
Q 19.28125 33.59375 26.515625 31.984375 
L 29.59375 31.296875 
Q 39.15625 29.25 43.1875 25.515625 
Q 47.21875 21.78125 47.21875 15.09375 
Q 47.21875 7.46875 41.1875 3.015625 
Q 35.15625 -1.421875 24.609375 -1.421875 
Q 20.21875 -1.421875 15.453125 -0.5625 
Q 10.6875 0.296875 5.421875 2 
L 5.421875 11.28125 
Q 10.40625 8.6875 15.234375 7.390625 
Q 20.0625 6.109375 24.8125 6.109375 
Q 31.15625 6.109375 34.5625 8.28125 
Q 37.984375 10.453125 37.984375 14.40625 
Q 37.984375 18.0625 35.515625 20.015625 
Q 33.0625 21.96875 24.703125 23.78125 
L 21.578125 24.515625 
Q 13.234375 26.265625 9.515625 29.90625 
Q 5.8125 33.546875 5.8125 39.890625 
Q 5.8125 47.609375 11.28125 51.796875 
Q 16.75 56 26.8125 56 
Q 31.78125 56 36.171875 55.265625 
Q 40.578125 54.546875 44.28125 53.078125 
z
" id="DejaVuSans-115"/>
      </defs>
      <g style="fill:#262626;" transform="translate(69.81793 395.938109)scale(0.121 -0.121)">
       <use xlink:href="#DejaVuSans-109"/>
       <use x="97.412109" xlink:href="#DejaVuSans-101"/>
       <use x="158.935547" xlink:href="#DejaVuSans-116"/>
       <use x="198.144531" xlink:href="#DejaVuSans-105"/>
       <use x="225.927734" xlink:href="#DejaVuSans-115"/>
      </g>
     </g>
    </g>
    <g id="xtick_2">
     <g id="text_2">
      <!-- merged -->
      <defs>
       <path d="M 41.109375 46.296875 
Q 39.59375 47.171875 37.8125 47.578125 
Q 36.03125 48 33.890625 48 
Q 26.265625 48 22.1875 43.046875 
Q 18.109375 38.09375 18.109375 28.8125 
L 18.109375 0 
L 9.078125 0 
L 9.078125 54.6875 
L 18.109375 54.6875 
L 18.109375 46.1875 
Q 20.953125 51.171875 25.484375 53.578125 
Q 30.03125 56 36.53125 56 
Q 37.453125 56 38.578125 55.875 
Q 39.703125 55.765625 41.0625 55.515625 
z
" id="DejaVuSans-114"/>
       <path d="M 45.40625 27.984375 
Q 45.40625 37.75 41.375 43.109375 
Q 37.359375 48.484375 30.078125 48.484375 
Q 22.859375 48.484375 18.828125 43.109375 
Q 14.796875 37.75 14.796875 27.984375 
Q 14.796875 18.265625 18.828125 12.890625 
Q 22.859375 7.515625 30.078125 7.515625 
Q 37.359375 7.515625 41.375 12.890625 
Q 45.40625 18.265625 45.40625 27.984375 
z
M 54.390625 6.78125 
Q 54.390625 -7.171875 48.1875 -13.984375 
Q 42 -20.796875 29.203125 -20.796875 
Q 24.46875 -20.796875 20.265625 -20.09375 
Q 16.0625 -19.390625 12.109375 -17.921875 
L 12.109375 -9.1875 
Q 16.0625 -11.328125 19.921875 -12.34375 
Q 23.78125 -13.375 27.78125 -13.375 
Q 36.625 -13.375 41.015625 -8.765625 
Q 45.40625 -4.15625 45.40625 5.171875 
L 45.40625 9.625 
Q 42.625 4.78125 38.28125 2.390625 
Q 33.9375 0 27.875 0 
Q 17.828125 0 11.671875 7.65625 
Q 5.515625 15.328125 5.515625 27.984375 
Q 5.515625 40.671875 11.671875 48.328125 
Q 17.828125 56 27.875 56 
Q 33.9375 56 38.28125 53.609375 
Q 42.625 51.21875 45.40625 46.390625 
L 45.40625 54.6875 
L 54.390625 54.6875 
z
" id="DejaVuSans-103"/>
       <path d="M 45.40625 46.390625 
L 45.40625 75.984375 
L 54.390625 75.984375 
L 54.390625 0 
L 45.40625 0 
L 45.40625 8.203125 
Q 42.578125 3.328125 38.25 0.953125 
Q 33.9375 -1.421875 27.875 -1.421875 
Q 17.96875 -1.421875 11.734375 6.484375 
Q 5.515625 14.40625 5.515625 27.296875 
Q 5.515625 40.1875 11.734375 48.09375 
Q 17.96875 56 27.875 56 
Q 33.9375 56 38.25 53.625 
Q 42.578125 51.265625 45.40625 46.390625 
z
M 14.796875 27.296875 
Q 14.796875 17.390625 18.875 11.75 
Q 22.953125 6.109375 30.078125 6.109375 
Q 37.203125 6.109375 41.296875 11.75 
Q 45.40625 17.390625 45.40625 27.296875 
Q 45.40625 37.203125 41.296875 42.84375 
Q 37.203125 48.484375 30.078125 48.484375 
Q 22.953125 48.484375 18.875 42.84375 
Q 14.796875 37.203125 14.796875 27.296875 
z
" id="DejaVuSans-100"/>
      </defs>
      <g style="fill:#262626;" transform="translate(106.895484 395.938109)scale(0.121 -0.121)">
       <use xlink:href="#DejaVuSans-109"/>
       <use x="97.412109" xlink:href="#DejaVuSans-101"/>
       <use x="158.935547" xlink:href="#DejaVuSans-114"/>
       <use x="200.033203" xlink:href="#DejaVuSans-103"/>
       <use x="263.509766" xlink:href="#DejaVuSans-101"/>
       <use x="325.033203" xlink:href="#DejaVuSans-100"/>
      </g>
     </g>
    </g>
    <g id="xtick_3">
     <g id="text_3">
      <!-- prio -->
      <defs>
       <path d="M 18.109375 8.203125 
L 18.109375 -20.796875 
L 9.078125 -20.796875 
L 9.078125 54.6875 
L 18.109375 54.6875 
L 18.109375 46.390625 
Q 20.953125 51.265625 25.265625 53.625 
Q 29.59375 56 35.59375 56 
Q 45.5625 56 51.78125 48.09375 
Q 58.015625 40.1875 58.015625 27.296875 
Q 58.015625 14.40625 51.78125 6.484375 
Q 45.5625 -1.421875 35.59375 -1.421875 
Q 29.59375 -1.421875 25.265625 0.953125 
Q 20.953125 3.328125 18.109375 8.203125 
z
M 48.6875 27.296875 
Q 48.6875 37.203125 44.609375 42.84375 
Q 40.53125 48.484375 33.40625 48.484375 
Q 26.265625 48.484375 22.1875 42.84375 
Q 18.109375 37.203125 18.109375 27.296875 
Q 18.109375 17.390625 22.1875 11.75 
Q 26.265625 6.109375 33.40625 6.109375 
Q 40.53125 6.109375 44.609375 11.75 
Q 48.6875 17.390625 48.6875 27.296875 
z
" id="DejaVuSans-112"/>
       <path d="M 30.609375 48.390625 
Q 23.390625 48.390625 19.1875 42.75 
Q 14.984375 37.109375 14.984375 27.296875 
Q 14.984375 17.484375 19.15625 11.84375 
Q 23.34375 6.203125 30.609375 6.203125 
Q 37.796875 6.203125 41.984375 11.859375 
Q 46.1875 17.53125 46.1875 27.296875 
Q 46.1875 37.015625 41.984375 42.703125 
Q 37.796875 48.390625 30.609375 48.390625 
z
M 30.609375 56 
Q 42.328125 56 49.015625 48.375 
Q 55.71875 40.765625 55.71875 27.296875 
Q 55.71875 13.875 49.015625 6.21875 
Q 42.328125 -1.421875 30.609375 -1.421875 
Q 18.84375 -1.421875 12.171875 6.21875 
Q 5.515625 13.875 5.515625 27.296875 
Q 5.515625 40.765625 12.171875 48.375 
Q 18.84375 56 30.609375 56 
z
" id="DejaVuSans-111"/>
      </defs>
      <g style="fill:#262626;" transform="translate(162.454844 395.938109)scale(0.121 -0.121)">
       <use xlink:href="#DejaVuSans-112"/>
       <use x="63.476562" xlink:href="#DejaVuSans-114"/>
       <use x="104.589844" xlink:href="#DejaVuSans-105"/>
       <use x="132.373047" xlink:href="#DejaVuSans-111"/>
      </g>
     </g>
    </g>
    <g id="xtick_4">
     <g id="text_4">
      <!-- kmeans -->
      <defs>
       <path d="M 9.078125 75.984375 
L 18.109375 75.984375 
L 18.109375 31.109375 
L 44.921875 54.6875 
L 56.390625 54.6875 
L 27.390625 29.109375 
L 57.625 0 
L 45.90625 0 
L 18.109375 26.703125 
L 18.109375 0 
L 9.078125 0 
z
" id="DejaVuSans-107"/>
       <path d="M 34.28125 27.484375 
Q 23.390625 27.484375 19.1875 25 
Q 14.984375 22.515625 14.984375 16.5 
Q 14.984375 11.71875 18.140625 8.90625 
Q 21.296875 6.109375 26.703125 6.109375 
Q 34.1875 6.109375 38.703125 11.40625 
Q 43.21875 16.703125 43.21875 25.484375 
L 43.21875 27.484375 
z
M 52.203125 31.203125 
L 52.203125 0 
L 43.21875 0 
L 43.21875 8.296875 
Q 40.140625 3.328125 35.546875 0.953125 
Q 30.953125 -1.421875 24.3125 -1.421875 
Q 15.921875 -1.421875 10.953125 3.296875 
Q 6 8.015625 6 15.921875 
Q 6 25.140625 12.171875 29.828125 
Q 18.359375 34.515625 30.609375 34.515625 
L 43.21875 34.515625 
L 43.21875 35.40625 
Q 43.21875 41.609375 39.140625 45 
Q 35.0625 48.390625 27.6875 48.390625 
Q 23 48.390625 18.546875 47.265625 
Q 14.109375 46.140625 10.015625 43.890625 
L 10.015625 52.203125 
Q 14.9375 54.109375 19.578125 55.046875 
Q 24.21875 56 28.609375 56 
Q 40.484375 56 46.34375 49.84375 
Q 52.203125 43.703125 52.203125 31.203125 
z
" id="DejaVuSans-97"/>
       <path d="M 54.890625 33.015625 
L 54.890625 0 
L 45.90625 0 
L 45.90625 32.71875 
Q 45.90625 40.484375 42.875 44.328125 
Q 39.84375 48.1875 33.796875 48.1875 
Q 26.515625 48.1875 22.3125 43.546875 
Q 18.109375 38.921875 18.109375 30.90625 
L 18.109375 0 
L 9.078125 0 
L 9.078125 54.6875 
L 18.109375 54.6875 
L 18.109375 46.1875 
Q 21.34375 51.125 25.703125 53.5625 
Q 30.078125 56 35.796875 56 
Q 45.21875 56 50.046875 50.171875 
Q 54.890625 44.34375 54.890625 33.015625 
z
" id="DejaVuSans-110"/>
      </defs>
      <g style="fill:#262626;" transform="translate(194.116703 395.938109)scale(0.121 -0.121)">
       <use xlink:href="#DejaVuSans-107"/>
       <use x="57.910156" xlink:href="#DejaVuSans-109"/>
       <use x="155.322266" xlink:href="#DejaVuSans-101"/>
       <use x="216.845703" xlink:href="#DejaVuSans-97"/>
       <use x="278.125" xlink:href="#DejaVuSans-110"/>
       <use x="341.503906" xlink:href="#DejaVuSans-115"/>
      </g>
     </g>
    </g>
    <g id="text_5">
     <!-- Method -->
     <defs>
      <path d="M 9.8125 72.90625 
L 24.515625 72.90625 
L 43.109375 23.296875 
L 61.8125 72.90625 
L 76.515625 72.90625 
L 76.515625 0 
L 66.890625 0 
L 66.890625 64.015625 
L 48.09375 14.015625 
L 38.1875 14.015625 
L 19.390625 64.015625 
L 19.390625 0 
L 9.8125 0 
z
" id="DejaVuSans-77"/>
      <path d="M 54.890625 33.015625 
L 54.890625 0 
L 45.90625 0 
L 45.90625 32.71875 
Q 45.90625 40.484375 42.875 44.328125 
Q 39.84375 48.1875 33.796875 48.1875 
Q 26.515625 48.1875 22.3125 43.546875 
Q 18.109375 38.921875 18.109375 30.90625 
L 18.109375 0 
L 9.078125 0 
L 9.078125 75.984375 
L 18.109375 75.984375 
L 18.109375 46.1875 
Q 21.34375 51.125 25.703125 53.5625 
Q 30.078125 56 35.796875 56 
Q 45.21875 56 50.046875 50.171875 
Q 54.890625 44.34375 54.890625 33.015625 
z
" id="DejaVuSans-104"/>
     </defs>
     <g style="fill:#262626;" transform="translate(127.529375 412.484469)scale(0.132 -0.132)">
      <use xlink:href="#DejaVuSans-77"/>
      <use x="86.279297" xlink:href="#DejaVuSans-101"/>
      <use x="147.802734" xlink:href="#DejaVuSans-116"/>
      <use x="187.011719" xlink:href="#DejaVuSans-104"/>
      <use x="250.390625" xlink:href="#DejaVuSans-111"/>
      <use x="311.572266" xlink:href="#DejaVuSans-100"/>
     </g>
    </g>
   </g>
   <g id="matplotlib.axis_2">
    <g id="ytick_1">
     <g id="line2d_1">
      <path clip-path="url(#pd0b4104b38)" d="M 64.756 377.244 
L 239.811 377.244 
" style="fill:none;stroke:#ffffff;stroke-linecap:round;"/>
     </g>
     <g id="text_6">
      <!-- 0 -->
      <defs>
       <path d="M 31.78125 66.40625 
Q 24.171875 66.40625 20.328125 58.90625 
Q 16.5 51.421875 16.5 36.375 
Q 16.5 21.390625 20.328125 13.890625 
Q 24.171875 6.390625 31.78125 6.390625 
Q 39.453125 6.390625 43.28125 13.890625 
Q 47.125 21.390625 47.125 36.375 
Q 47.125 51.421875 43.28125 58.90625 
Q 39.453125 66.40625 31.78125 66.40625 
z
M 31.78125 74.21875 
Q 44.046875 74.21875 50.515625 64.515625 
Q 56.984375 54.828125 56.984375 36.375 
Q 56.984375 17.96875 50.515625 8.265625 
Q 44.046875 -1.421875 31.78125 -1.421875 
Q 19.53125 -1.421875 13.0625 8.265625 
Q 6.59375 17.96875 6.59375 36.375 
Q 6.59375 54.828125 13.0625 64.515625 
Q 19.53125 74.21875 31.78125 74.21875 
z
" id="DejaVuSans-48"/>
      </defs>
      <g style="fill:#262626;" transform="translate(47.557375 381.841055)scale(0.121 -0.121)">
       <use xlink:href="#DejaVuSans-48"/>
      </g>
     </g>
    </g>
    <g id="ytick_2">
     <g id="line2d_2">
      <path clip-path="url(#pd0b4104b38)" d="M 64.756 310.4352 
L 239.811 310.4352 
" style="fill:none;stroke:#ffffff;stroke-linecap:round;"/>
     </g>
     <g id="text_7">
      <!-- 20 -->
      <defs>
       <path d="M 19.1875 8.296875 
L 53.609375 8.296875 
L 53.609375 0 
L 7.328125 0 
L 7.328125 8.296875 
Q 12.9375 14.109375 22.625 23.890625 
Q 32.328125 33.6875 34.8125 36.53125 
Q 39.546875 41.84375 41.421875 45.53125 
Q 43.3125 49.21875 43.3125 52.78125 
Q 43.3125 58.59375 39.234375 62.25 
Q 35.15625 65.921875 28.609375 65.921875 
Q 23.96875 65.921875 18.8125 64.3125 
Q 13.671875 62.703125 7.8125 59.421875 
L 7.8125 69.390625 
Q 13.765625 71.78125 18.9375 73 
Q 24.125 74.21875 28.421875 74.21875 
Q 39.75 74.21875 46.484375 68.546875 
Q 53.21875 62.890625 53.21875 53.421875 
Q 53.21875 48.921875 51.53125 44.890625 
Q 49.859375 40.875 45.40625 35.40625 
Q 44.1875 33.984375 37.640625 27.21875 
Q 31.109375 20.453125 19.1875 8.296875 
z
" id="DejaVuSans-50"/>
      </defs>
      <g style="fill:#262626;" transform="translate(39.85875 315.032255)scale(0.121 -0.121)">
       <use xlink:href="#DejaVuSans-50"/>
       <use x="63.623047" xlink:href="#DejaVuSans-48"/>
      </g>
     </g>
    </g>
    <g id="ytick_3">
     <g id="line2d_3">
      <path clip-path="url(#pd0b4104b38)" d="M 64.756 243.6264 
L 239.811 243.6264 
" style="fill:none;stroke:#ffffff;stroke-linecap:round;"/>
     </g>
     <g id="text_8">
      <!-- 40 -->
      <defs>
       <path d="M 37.796875 64.3125 
L 12.890625 25.390625 
L 37.796875 25.390625 
z
M 35.203125 72.90625 
L 47.609375 72.90625 
L 47.609375 25.390625 
L 58.015625 25.390625 
L 58.015625 17.1875 
L 47.609375 17.1875 
L 47.609375 0 
L 37.796875 0 
L 37.796875 17.1875 
L 4.890625 17.1875 
L 4.890625 26.703125 
z
" id="DejaVuSans-52"/>
      </defs>
      <g style="fill:#262626;" transform="translate(39.85875 248.223455)scale(0.121 -0.121)">
       <use xlink:href="#DejaVuSans-52"/>
       <use x="63.623047" xlink:href="#DejaVuSans-48"/>
      </g>
     </g>
    </g>
    <g id="ytick_4">
     <g id="line2d_4">
      <path clip-path="url(#pd0b4104b38)" d="M 64.756 176.8176 
L 239.811 176.8176 
" style="fill:none;stroke:#ffffff;stroke-linecap:round;"/>
     </g>
     <g id="text_9">
      <!-- 60 -->
      <defs>
       <path d="M 33.015625 40.375 
Q 26.375 40.375 22.484375 35.828125 
Q 18.609375 31.296875 18.609375 23.390625 
Q 18.609375 15.53125 22.484375 10.953125 
Q 26.375 6.390625 33.015625 6.390625 
Q 39.65625 6.390625 43.53125 10.953125 
Q 47.40625 15.53125 47.40625 23.390625 
Q 47.40625 31.296875 43.53125 35.828125 
Q 39.65625 40.375 33.015625 40.375 
z
M 52.59375 71.296875 
L 52.59375 62.3125 
Q 48.875 64.0625 45.09375 64.984375 
Q 41.3125 65.921875 37.59375 65.921875 
Q 27.828125 65.921875 22.671875 59.328125 
Q 17.53125 52.734375 16.796875 39.40625 
Q 19.671875 43.65625 24.015625 45.921875 
Q 28.375 48.1875 33.59375 48.1875 
Q 44.578125 48.1875 50.953125 41.515625 
Q 57.328125 34.859375 57.328125 23.390625 
Q 57.328125 12.15625 50.6875 5.359375 
Q 44.046875 -1.421875 33.015625 -1.421875 
Q 20.359375 -1.421875 13.671875 8.265625 
Q 6.984375 17.96875 6.984375 36.375 
Q 6.984375 53.65625 15.1875 63.9375 
Q 23.390625 74.21875 37.203125 74.21875 
Q 40.921875 74.21875 44.703125 73.484375 
Q 48.484375 72.75 52.59375 71.296875 
z
" id="DejaVuSans-54"/>
      </defs>
      <g style="fill:#262626;" transform="translate(39.85875 181.414655)scale(0.121 -0.121)">
       <use xlink:href="#DejaVuSans-54"/>
       <use x="63.623047" xlink:href="#DejaVuSans-48"/>
      </g>
     </g>
    </g>
    <g id="ytick_5">
     <g id="line2d_5">
      <path clip-path="url(#pd0b4104b38)" d="M 64.756 110.0088 
L 239.811 110.0088 
" style="fill:none;stroke:#ffffff;stroke-linecap:round;"/>
     </g>
     <g id="text_10">
      <!-- 80 -->
      <defs>
       <path d="M 31.78125 34.625 
Q 24.75 34.625 20.71875 30.859375 
Q 16.703125 27.09375 16.703125 20.515625 
Q 16.703125 13.921875 20.71875 10.15625 
Q 24.75 6.390625 31.78125 6.390625 
Q 38.8125 6.390625 42.859375 10.171875 
Q 46.921875 13.96875 46.921875 20.515625 
Q 46.921875 27.09375 42.890625 30.859375 
Q 38.875 34.625 31.78125 34.625 
z
M 21.921875 38.8125 
Q 15.578125 40.375 12.03125 44.71875 
Q 8.5 49.078125 8.5 55.328125 
Q 8.5 64.0625 14.71875 69.140625 
Q 20.953125 74.21875 31.78125 74.21875 
Q 42.671875 74.21875 48.875 69.140625 
Q 55.078125 64.0625 55.078125 55.328125 
Q 55.078125 49.078125 51.53125 44.71875 
Q 48 40.375 41.703125 38.8125 
Q 48.828125 37.15625 52.796875 32.3125 
Q 56.78125 27.484375 56.78125 20.515625 
Q 56.78125 9.90625 50.3125 4.234375 
Q 43.84375 -1.421875 31.78125 -1.421875 
Q 19.734375 -1.421875 13.25 4.234375 
Q 6.78125 9.90625 6.78125 20.515625 
Q 6.78125 27.484375 10.78125 32.3125 
Q 14.796875 37.15625 21.921875 38.8125 
z
M 18.3125 54.390625 
Q 18.3125 48.734375 21.84375 45.5625 
Q 25.390625 42.390625 31.78125 42.390625 
Q 38.140625 42.390625 41.71875 45.5625 
Q 45.3125 48.734375 45.3125 54.390625 
Q 45.3125 60.0625 41.71875 63.234375 
Q 38.140625 66.40625 31.78125 66.40625 
Q 25.390625 66.40625 21.84375 63.234375 
Q 18.3125 60.0625 18.3125 54.390625 
z
" id="DejaVuSans-56"/>
      </defs>
      <g style="fill:#262626;" transform="translate(39.85875 114.605855)scale(0.121 -0.121)">
       <use xlink:href="#DejaVuSans-56"/>
       <use x="63.623047" xlink:href="#DejaVuSans-48"/>
      </g>
     </g>
    </g>
    <g id="ytick_6">
     <g id="line2d_6">
      <path clip-path="url(#pd0b4104b38)" d="M 64.756 43.2 
L 239.811 43.2 
" style="fill:none;stroke:#ffffff;stroke-linecap:round;"/>
     </g>
     <g id="text_11">
      <!-- 100 -->
      <defs>
       <path d="M 12.40625 8.296875 
L 28.515625 8.296875 
L 28.515625 63.921875 
L 10.984375 60.40625 
L 10.984375 69.390625 
L 28.421875 72.90625 
L 38.28125 72.90625 
L 38.28125 8.296875 
L 54.390625 8.296875 
L 54.390625 0 
L 12.40625 0 
z
" id="DejaVuSans-49"/>
      </defs>
      <g style="fill:#262626;" transform="translate(32.160125 47.797055)scale(0.121 -0.121)">
       <use xlink:href="#DejaVuSans-49"/>
       <use x="63.623047" xlink:href="#DejaVuSans-48"/>
       <use x="127.246094" xlink:href="#DejaVuSans-48"/>
      </g>
     </g>
    </g>
    <g id="text_12">
     <!-- Relative query time (%) -->
     <defs>
      <path d="M 44.390625 34.1875 
Q 47.5625 33.109375 50.5625 29.59375 
Q 53.5625 26.078125 56.59375 19.921875 
L 66.609375 0 
L 56 0 
L 46.6875 18.703125 
Q 43.0625 26.03125 39.671875 28.421875 
Q 36.28125 30.8125 30.421875 30.8125 
L 19.671875 30.8125 
L 19.671875 0 
L 9.8125 0 
L 9.8125 72.90625 
L 32.078125 72.90625 
Q 44.578125 72.90625 50.734375 67.671875 
Q 56.890625 62.453125 56.890625 51.90625 
Q 56.890625 45.015625 53.6875 40.46875 
Q 50.484375 35.9375 44.390625 34.1875 
z
M 19.671875 64.796875 
L 19.671875 38.921875 
L 32.078125 38.921875 
Q 39.203125 38.921875 42.84375 42.21875 
Q 46.484375 45.515625 46.484375 51.90625 
Q 46.484375 58.296875 42.84375 61.546875 
Q 39.203125 64.796875 32.078125 64.796875 
z
" id="DejaVuSans-82"/>
      <path d="M 9.421875 75.984375 
L 18.40625 75.984375 
L 18.40625 0 
L 9.421875 0 
z
" id="DejaVuSans-108"/>
      <path d="M 2.984375 54.6875 
L 12.5 54.6875 
L 29.59375 8.796875 
L 46.6875 54.6875 
L 56.203125 54.6875 
L 35.6875 0 
L 23.484375 0 
z
" id="DejaVuSans-118"/>
      <path id="DejaVuSans-32"/>
      <path d="M 14.796875 27.296875 
Q 14.796875 17.390625 18.875 11.75 
Q 22.953125 6.109375 30.078125 6.109375 
Q 37.203125 6.109375 41.296875 11.75 
Q 45.40625 17.390625 45.40625 27.296875 
Q 45.40625 37.203125 41.296875 42.84375 
Q 37.203125 48.484375 30.078125 48.484375 
Q 22.953125 48.484375 18.875 42.84375 
Q 14.796875 37.203125 14.796875 27.296875 
z
M 45.40625 8.203125 
Q 42.578125 3.328125 38.25 0.953125 
Q 33.9375 -1.421875 27.875 -1.421875 
Q 17.96875 -1.421875 11.734375 6.484375 
Q 5.515625 14.40625 5.515625 27.296875 
Q 5.515625 40.1875 11.734375 48.09375 
Q 17.96875 56 27.875 56 
Q 33.9375 56 38.25 53.625 
Q 42.578125 51.265625 45.40625 46.390625 
L 45.40625 54.6875 
L 54.390625 54.6875 
L 54.390625 -20.796875 
L 45.40625 -20.796875 
z
" id="DejaVuSans-113"/>
      <path d="M 8.5 21.578125 
L 8.5 54.6875 
L 17.484375 54.6875 
L 17.484375 21.921875 
Q 17.484375 14.15625 20.5 10.265625 
Q 23.53125 6.390625 29.59375 6.390625 
Q 36.859375 6.390625 41.078125 11.03125 
Q 45.3125 15.671875 45.3125 23.6875 
L 45.3125 54.6875 
L 54.296875 54.6875 
L 54.296875 0 
L 45.3125 0 
L 45.3125 8.40625 
Q 42.046875 3.421875 37.71875 1 
Q 33.40625 -1.421875 27.6875 -1.421875 
Q 18.265625 -1.421875 13.375 4.4375 
Q 8.5 10.296875 8.5 21.578125 
z
M 31.109375 56 
z
" id="DejaVuSans-117"/>
      <path d="M 32.171875 -5.078125 
Q 28.375 -14.84375 24.75 -17.8125 
Q 21.140625 -20.796875 15.09375 -20.796875 
L 7.90625 -20.796875 
L 7.90625 -13.28125 
L 13.1875 -13.28125 
Q 16.890625 -13.28125 18.9375 -11.515625 
Q 21 -9.765625 23.484375 -3.21875 
L 25.09375 0.875 
L 2.984375 54.6875 
L 12.5 54.6875 
L 29.59375 11.921875 
L 46.6875 54.6875 
L 56.203125 54.6875 
z
" id="DejaVuSans-121"/>
      <path d="M 31 75.875 
Q 24.46875 64.65625 21.28125 53.65625 
Q 18.109375 42.671875 18.109375 31.390625 
Q 18.109375 20.125 21.3125 9.0625 
Q 24.515625 -2 31 -13.1875 
L 23.1875 -13.1875 
Q 15.875 -1.703125 12.234375 9.375 
Q 8.59375 20.453125 8.59375 31.390625 
Q 8.59375 42.28125 12.203125 53.3125 
Q 15.828125 64.359375 23.1875 75.875 
z
" id="DejaVuSans-40"/>
      <path d="M 72.703125 32.078125 
Q 68.453125 32.078125 66.03125 28.46875 
Q 63.625 24.859375 63.625 18.40625 
Q 63.625 12.0625 66.03125 8.421875 
Q 68.453125 4.78125 72.703125 4.78125 
Q 76.859375 4.78125 79.265625 8.421875 
Q 81.6875 12.0625 81.6875 18.40625 
Q 81.6875 24.8125 79.265625 28.4375 
Q 76.859375 32.078125 72.703125 32.078125 
z
M 72.703125 38.28125 
Q 80.421875 38.28125 84.953125 32.90625 
Q 89.5 27.546875 89.5 18.40625 
Q 89.5 9.28125 84.9375 3.921875 
Q 80.375 -1.421875 72.703125 -1.421875 
Q 64.890625 -1.421875 60.34375 3.921875 
Q 55.8125 9.28125 55.8125 18.40625 
Q 55.8125 27.59375 60.375 32.9375 
Q 64.9375 38.28125 72.703125 38.28125 
z
M 22.3125 68.015625 
Q 18.109375 68.015625 15.6875 64.375 
Q 13.28125 60.75 13.28125 54.390625 
Q 13.28125 47.953125 15.671875 44.328125 
Q 18.0625 40.71875 22.3125 40.71875 
Q 26.5625 40.71875 28.96875 44.328125 
Q 31.390625 47.953125 31.390625 54.390625 
Q 31.390625 60.6875 28.953125 64.34375 
Q 26.515625 68.015625 22.3125 68.015625 
z
M 66.40625 74.21875 
L 74.21875 74.21875 
L 28.609375 -1.421875 
L 20.796875 -1.421875 
z
M 22.3125 74.21875 
Q 30.03125 74.21875 34.609375 68.875 
Q 39.203125 63.53125 39.203125 54.390625 
Q 39.203125 45.171875 34.640625 39.84375 
Q 30.078125 34.515625 22.3125 34.515625 
Q 14.546875 34.515625 10.03125 39.859375 
Q 5.515625 45.21875 5.515625 54.390625 
Q 5.515625 63.484375 10.046875 68.84375 
Q 14.59375 74.21875 22.3125 74.21875 
z
" id="DejaVuSans-37"/>
      <path d="M 8.015625 75.875 
L 15.828125 75.875 
Q 23.140625 64.359375 26.78125 53.3125 
Q 30.421875 42.28125 30.421875 31.390625 
Q 30.421875 20.453125 26.78125 9.375 
Q 23.140625 -1.703125 15.828125 -13.1875 
L 8.015625 -13.1875 
Q 14.5 -2 17.703125 9.0625 
Q 20.90625 20.125 20.90625 31.390625 
Q 20.90625 42.671875 17.703125 53.65625 
Q 14.5 64.65625 8.015625 75.875 
z
" id="DejaVuSans-41"/>
     </defs>
     <g style="fill:#262626;" transform="translate(25.414937 288.809438)rotate(-90)scale(0.132 -0.132)">
      <use xlink:href="#DejaVuSans-82"/>
      <use x="69.419922" xlink:href="#DejaVuSans-101"/>
      <use x="130.943359" xlink:href="#DejaVuSans-108"/>
      <use x="158.726562" xlink:href="#DejaVuSans-97"/>
      <use x="220.005859" xlink:href="#DejaVuSans-116"/>
      <use x="259.214844" xlink:href="#DejaVuSans-105"/>
      <use x="286.998047" xlink:href="#DejaVuSans-118"/>
      <use x="346.177734" xlink:href="#DejaVuSans-101"/>
      <use x="407.701172" xlink:href="#DejaVuSans-32"/>
      <use x="439.488281" xlink:href="#DejaVuSans-113"/>
      <use x="502.964844" xlink:href="#DejaVuSans-117"/>
      <use x="566.34375" xlink:href="#DejaVuSans-101"/>
      <use x="627.867188" xlink:href="#DejaVuSans-114"/>
      <use x="668.980469" xlink:href="#DejaVuSans-121"/>
      <use x="728.160156" xlink:href="#DejaVuSans-32"/>
      <use x="759.947266" xlink:href="#DejaVuSans-116"/>
      <use x="799.15625" xlink:href="#DejaVuSans-105"/>
      <use x="826.939453" xlink:href="#DejaVuSans-109"/>
      <use x="924.351562" xlink:href="#DejaVuSans-101"/>
      <use x="985.875" xlink:href="#DejaVuSans-32"/>
      <use x="1017.662109" xlink:href="#DejaVuSans-40"/>
      <use x="1056.675781" xlink:href="#DejaVuSans-37"/>
      <use x="1151.695312" xlink:href="#DejaVuSans-41"/>
     </g>
    </g>
   </g>
   <g id="PathCollection_1">
    <defs>
     <path d="M -0 4.242641 
L 2.545584 0 
L 0 -4.242641 
L -2.545584 -0 
z
" id="m2469bc97aa" style="stroke:#176d9c;"/>
    </defs>
    <g clip-path="url(#pd0b4104b38)">
     <use style="fill:#176d9c;stroke:#176d9c;" x="86.637875" xlink:href="#m2469bc97aa" y="310.954716"/>
    </g>
   </g>
   <g id="PatchCollection_1">
    <path clip-path="url(#pd0b4104b38)" d="M 86.569494 310.871306 
L 86.706256 310.871306 
L 86.706256 59.9022 
L 86.569494 59.9022 
z
" style="fill:#ffffff;stroke:#ffffff;"/>
    <path clip-path="url(#pd0b4104b38)" d="M 86.501113 310.401521 
L 86.774637 310.401521 
L 86.774637 59.9022 
L 86.501113 59.9022 
z
" style="fill:#e2edf3;stroke:#ffffff;"/>
    <path clip-path="url(#pd0b4104b38)" d="M 86.364352 305.917974 
L 86.911398 305.917974 
L 86.911398 59.9022 
L 86.364352 59.9022 
z
" style="fill:#c5dae6;stroke:#ffffff;"/>
    <path clip-path="url(#pd0b4104b38)" d="M 86.090828 296.633891 
L 87.184922 296.633891 
L 87.184922 60.010164 
L 86.090828 60.010164 
z
" style="fill:#a8c8da;stroke:#ffffff;"/>
    <path clip-path="url(#pd0b4104b38)" d="M 85.543781 290.745987 
L 87.731969 290.745987 
L 87.731969 69.676288 
L 85.543781 69.676288 
z
" style="fill:#8bb6cd;stroke:#ffffff;"/>
    <path clip-path="url(#pd0b4104b38)" d="M 84.449687 282.217759 
L 88.826062 282.217759 
L 88.826062 81.187477 
L 84.449687 81.187477 
z
" style="fill:#6ea3c1;stroke:#ffffff;"/>
    <path clip-path="url(#pd0b4104b38)" d="M 82.2615 268.190261 
L 91.01425 268.190261 
L 91.01425 89.003197 
L 82.2615 89.003197 
z
" style="fill:#5091b4;stroke:#ffffff;"/>
    <path clip-path="url(#pd0b4104b38)" d="M 77.885125 253.006695 
L 95.390625 253.006695 
L 95.390625 104.940452 
L 77.885125 104.940452 
z
" style="fill:#337ea8;stroke:#ffffff;"/>
    <path clip-path="url(#pd0b4104b38)" d="M 69.132375 222.646128 
L 104.143375 222.646128 
L 104.143375 128.692732 
L 69.132375 128.692732 
z
" style="fill:#176d9c;stroke:#ffffff;"/>
   </g>
   <g id="PathCollection_2">
    <defs>
     <path d="M -0 4.242641 
L 2.545584 0 
L 0 -4.242641 
L -2.545584 -0 
z
" id="mbb531b4a1c" style="stroke:#c38820;"/>
    </defs>
    <g clip-path="url(#pd0b4104b38)">
     <use style="fill:#c38820;stroke:#c38820;" x="130.401625" xlink:href="#mbb531b4a1c" y="317.768374"/>
    </g>
   </g>
   <g id="PatchCollection_2">
    <path clip-path="url(#pd0b4104b38)" d="M 130.333244 313.625878 
L 130.470006 313.625878 
L 130.470006 59.9022 
L 130.333244 59.9022 
z
" style="fill:#ffffff;stroke:#ffffff;"/>
    <path clip-path="url(#pd0b4104b38)" d="M 130.264863 311.177316 
L 130.538387 311.177316 
L 130.538387 61.136121 
L 130.264863 61.136121 
z
" style="fill:#f7f0e3;stroke:#ffffff;"/>
    <path clip-path="url(#pd0b4104b38)" d="M 130.128102 309.631825 
L 130.675148 309.631825 
L 130.675148 64.3801 
L 130.128102 64.3801 
z
" style="fill:#f0e1c7;stroke:#ffffff;"/>
    <path clip-path="url(#pd0b4104b38)" d="M 129.854578 307.951222 
L 130.948672 307.951222 
L 130.948672 77.643658 
L 129.854578 77.643658 
z
" style="fill:#e8d2ab;stroke:#ffffff;"/>
    <path clip-path="url(#pd0b4104b38)" d="M 129.307531 304.986455 
L 131.495719 304.986455 
L 131.495719 82.452643 
L 129.307531 82.452643 
z
" style="fill:#e1c38f;stroke:#ffffff;"/>
    <path clip-path="url(#pd0b4104b38)" d="M 128.213437 297.618372 
L 132.589812 297.618372 
L 132.589812 87.328143 
L 128.213437 87.328143 
z
" style="fill:#d9b473;stroke:#ffffff;"/>
    <path clip-path="url(#pd0b4104b38)" d="M 126.02525 281.672851 
L 134.778 281.672851 
L 134.778 99.224985 
L 126.02525 99.224985 
z
" style="fill:#d2a557;stroke:#ffffff;"/>
    <path clip-path="url(#pd0b4104b38)" d="M 121.648875 252.025736 
L 139.154375 252.025736 
L 139.154375 111.746775 
L 121.648875 111.746775 
z
" style="fill:#ca963b;stroke:#ffffff;"/>
    <path clip-path="url(#pd0b4104b38)" d="M 112.896125 210.585713 
L 147.907125 210.585713 
L 147.907125 134.175889 
L 112.896125 134.175889 
z
" style="fill:#c38820;stroke:#ffffff;"/>
   </g>
   <g id="PathCollection_3">
    <defs>
     <path d="M -0 4.242641 
L 2.545584 0 
L 0 -4.242641 
L -2.545584 -0 
z
" id="m1012578b47" style="stroke:#158b6a;"/>
    </defs>
    <g clip-path="url(#pd0b4104b38)">
     <use style="fill:#158b6a;stroke:#158b6a;" x="174.165375" xlink:href="#m1012578b47" y="318.003224"/>
    </g>
   </g>
   <g id="PatchCollection_3">
    <path clip-path="url(#pd0b4104b38)" d="M 174.096994 313.451128 
L 174.233756 313.451128 
L 174.233756 59.9022 
L 174.096994 59.9022 
z
" style="fill:#ffffff;stroke:#ffffff;"/>
    <path clip-path="url(#pd0b4104b38)" d="M 174.028613 310.913781 
L 174.302137 310.913781 
L 174.302137 59.9022 
L 174.028613 59.9022 
z
" style="fill:#e2f0ec;stroke:#ffffff;"/>
    <path clip-path="url(#pd0b4104b38)" d="M 173.891852 310.070491 
L 174.438898 310.070491 
L 174.438898 61.202299 
L 173.891852 61.202299 
z
" style="fill:#c4e2da;stroke:#ffffff;"/>
    <path clip-path="url(#pd0b4104b38)" d="M 173.618328 307.602962 
L 174.712422 307.602962 
L 174.712422 70.207576 
L 173.618328 70.207576 
z
" style="fill:#a7d3c7;stroke:#ffffff;"/>
    <path clip-path="url(#pd0b4104b38)" d="M 173.071281 302.962557 
L 175.259469 302.962557 
L 175.259469 84.703501 
L 173.071281 84.703501 
z
" style="fill:#8ac5b4;stroke:#ffffff;"/>
    <path clip-path="url(#pd0b4104b38)" d="M 171.977187 294.872764 
L 176.353562 294.872764 
L 176.353562 92.080333 
L 171.977187 92.080333 
z
" style="fill:#6cb6a2;stroke:#ffffff;"/>
    <path clip-path="url(#pd0b4104b38)" d="M 169.789 278.663608 
L 178.54175 278.663608 
L 178.54175 105.205061 
L 169.789 105.205061 
z
" style="fill:#4fa78f;stroke:#ffffff;"/>
    <path clip-path="url(#pd0b4104b38)" d="M 165.412625 255.031694 
L 182.918125 255.031694 
L 182.918125 117.099809 
L 165.412625 117.099809 
z
" style="fill:#32997c;stroke:#ffffff;"/>
    <path clip-path="url(#pd0b4104b38)" d="M 156.659875 234.931154 
L 191.670875 234.931154 
L 191.670875 141.801982 
L 156.659875 141.801982 
z
" style="fill:#158b6a;stroke:#ffffff;"/>
   </g>
   <g id="PathCollection_4">
    <defs>
     <path d="M -0 4.242641 
L 2.545584 0 
L 0 -4.242641 
L -2.545584 -0 
z
" id="mb188a30c39" style="stroke:#ba611b;"/>
    </defs>
    <g clip-path="url(#pd0b4104b38)">
     <use style="fill:#ba611b;stroke:#ba611b;" x="217.929125" xlink:href="#mb188a30c39" y="315.273099"/>
    </g>
   </g>
   <g id="PatchCollection_4">
    <path clip-path="url(#pd0b4104b38)" d="M 217.860744 310.588905 
L 217.997506 310.588905 
L 217.997506 59.9022 
L 217.860744 59.9022 
z
" style="fill:#ffffff;stroke:#ffffff;"/>
    <path clip-path="url(#pd0b4104b38)" d="M 217.792363 307.964414 
L 218.065887 307.964414 
L 218.065887 59.9022 
L 217.792363 59.9022 
z
" style="fill:#f6ebe2;stroke:#ffffff;"/>
    <path clip-path="url(#pd0b4104b38)" d="M 217.655602 307.821644 
L 218.202648 307.821644 
L 218.202648 59.9022 
L 217.655602 59.9022 
z
" style="fill:#eed7c6;stroke:#ffffff;"/>
    <path clip-path="url(#pd0b4104b38)" d="M 217.382078 306.344847 
L 218.476172 306.344847 
L 218.476172 62.156999 
L 217.382078 62.156999 
z
" style="fill:#e5c4a9;stroke:#ffffff;"/>
    <path clip-path="url(#pd0b4104b38)" d="M 216.835031 304.599712 
L 219.023219 304.599712 
L 219.023219 84.112264 
L 216.835031 84.112264 
z
" style="fill:#ddb08c;stroke:#ffffff;"/>
    <path clip-path="url(#pd0b4104b38)" d="M 215.740937 299.982478 
L 220.117312 299.982478 
L 220.117312 91.264138 
L 215.740937 91.264138 
z
" style="fill:#d49c70;stroke:#ffffff;"/>
    <path clip-path="url(#pd0b4104b38)" d="M 213.55275 289.935769 
L 222.3055 289.935769 
L 222.3055 99.156347 
L 213.55275 99.156347 
z
" style="fill:#cb8853;stroke:#ffffff;"/>
    <path clip-path="url(#pd0b4104b38)" d="M 209.176375 272.436694 
L 226.681875 272.436694 
L 226.681875 115.031702 
L 209.176375 115.031702 
z
" style="fill:#c37436;stroke:#ffffff;"/>
    <path clip-path="url(#pd0b4104b38)" d="M 200.423625 235.141 
L 235.434625 235.141 
L 235.434625 142.339569 
L 200.423625 142.339569 
z
" style="fill:#ba611b;stroke:#ffffff;"/>
   </g>
   <g id="line2d_7">
    <path clip-path="url(#pd0b4104b38)" d="M 69.132375 174.515194 
L 104.143375 174.515194 
" style="fill:none;stroke:#262626;stroke-linecap:round;stroke-opacity:0.45;stroke-width:1.5;"/>
   </g>
   <g id="line2d_8">
    <path clip-path="url(#pd0b4104b38)" d="M 112.896125 179.040124 
L 147.907125 179.040124 
" style="fill:none;stroke:#262626;stroke-linecap:round;stroke-opacity:0.45;stroke-width:1.5;"/>
   </g>
   <g id="line2d_9">
    <path clip-path="url(#pd0b4104b38)" d="M 156.659875 198.683544 
L 191.670875 198.683544 
" style="fill:none;stroke:#262626;stroke-linecap:round;stroke-opacity:0.45;stroke-width:1.5;"/>
   </g>
   <g id="line2d_10">
    <path clip-path="url(#pd0b4104b38)" d="M 200.423625 190.997305 
L 235.434625 190.997305 
" style="fill:none;stroke:#262626;stroke-linecap:round;stroke-opacity:0.45;stroke-width:1.5;"/>
   </g>
   <g id="patch_3">
    <path d="M 64.756 377.244 
L 64.756 43.2 
" style="fill:none;stroke:#ffffff;stroke-linecap:square;stroke-linejoin:miter;stroke-width:1.25;"/>
   </g>
   <g id="patch_4">
    <path d="M 64.756 377.244 
L 239.811 377.244 
" style="fill:none;stroke:#ffffff;stroke-linecap:square;stroke-linejoin:miter;stroke-width:1.25;"/>
   </g>
   <g id="text_13">
    <!-- clusters = 4 -->
    <defs>
     <path d="M 48.78125 52.59375 
L 48.78125 44.1875 
Q 44.96875 46.296875 41.140625 47.34375 
Q 37.3125 48.390625 33.40625 48.390625 
Q 24.65625 48.390625 19.8125 42.84375 
Q 14.984375 37.3125 14.984375 27.296875 
Q 14.984375 17.28125 19.8125 11.734375 
Q 24.65625 6.203125 33.40625 6.203125 
Q 37.3125 6.203125 41.140625 7.25 
Q 44.96875 8.296875 48.78125 10.40625 
L 48.78125 2.09375 
Q 45.015625 0.34375 40.984375 -0.53125 
Q 36.96875 -1.421875 32.421875 -1.421875 
Q 20.0625 -1.421875 12.78125 6.34375 
Q 5.515625 14.109375 5.515625 27.296875 
Q 5.515625 40.671875 12.859375 48.328125 
Q 20.21875 56 33.015625 56 
Q 37.15625 56 41.109375 55.140625 
Q 45.0625 54.296875 48.78125 52.59375 
z
" id="DejaVuSans-99"/>
     <path d="M 10.59375 45.40625 
L 73.1875 45.40625 
L 73.1875 37.203125 
L 10.59375 37.203125 
z
M 10.59375 25.484375 
L 73.1875 25.484375 
L 73.1875 17.1875 
L 10.59375 17.1875 
z
" id="DejaVuSans-61"/>
    </defs>
    <g style="fill:#262626;" transform="translate(112.475188 37.2)scale(0.132 -0.132)">
     <use xlink:href="#DejaVuSans-99"/>
     <use x="54.980469" xlink:href="#DejaVuSans-108"/>
     <use x="82.763672" xlink:href="#DejaVuSans-117"/>
     <use x="146.142578" xlink:href="#DejaVuSans-115"/>
     <use x="198.242188" xlink:href="#DejaVuSans-116"/>
     <use x="237.451172" xlink:href="#DejaVuSans-101"/>
     <use x="298.974609" xlink:href="#DejaVuSans-114"/>
     <use x="340.087891" xlink:href="#DejaVuSans-115"/>
     <use x="392.1875" xlink:href="#DejaVuSans-32"/>
     <use x="423.974609" xlink:href="#DejaVuSans-61"/>
     <use x="507.763672" xlink:href="#DejaVuSans-32"/>
     <use x="539.550781" xlink:href="#DejaVuSans-52"/>
    </g>
   </g>
  </g>
  <g id="axes_2">
   <g id="patch_5">
    <path d="M 266.067 377.244 
L 441.122 377.244 
L 441.122 43.2 
L 266.067 43.2 
z
" style="fill:#eaeaf2;"/>
   </g>
   <g id="matplotlib.axis_3">
    <g id="xtick_5">
     <g id="text_14">
      <!-- metis -->
      <g style="fill:#262626;" transform="translate(271.12893 395.938109)scale(0.121 -0.121)">
       <use xlink:href="#DejaVuSans-109"/>
       <use x="97.412109" xlink:href="#DejaVuSans-101"/>
       <use x="158.935547" xlink:href="#DejaVuSans-116"/>
       <use x="198.144531" xlink:href="#DejaVuSans-105"/>
       <use x="225.927734" xlink:href="#DejaVuSans-115"/>
      </g>
     </g>
    </g>
    <g id="xtick_6">
     <g id="text_15">
      <!-- merged -->
      <g style="fill:#262626;" transform="translate(308.206484 395.938109)scale(0.121 -0.121)">
       <use xlink:href="#DejaVuSans-109"/>
       <use x="97.412109" xlink:href="#DejaVuSans-101"/>
       <use x="158.935547" xlink:href="#DejaVuSans-114"/>
       <use x="200.033203" xlink:href="#DejaVuSans-103"/>
       <use x="263.509766" xlink:href="#DejaVuSans-101"/>
       <use x="325.033203" xlink:href="#DejaVuSans-100"/>
      </g>
     </g>
    </g>
    <g id="xtick_7">
     <g id="text_16">
      <!-- prio -->
      <g style="fill:#262626;" transform="translate(363.765844 395.938109)scale(0.121 -0.121)">
       <use xlink:href="#DejaVuSans-112"/>
       <use x="63.476562" xlink:href="#DejaVuSans-114"/>
       <use x="104.589844" xlink:href="#DejaVuSans-105"/>
       <use x="132.373047" xlink:href="#DejaVuSans-111"/>
      </g>
     </g>
    </g>
    <g id="xtick_8">
     <g id="text_17">
      <!-- kmeans -->
      <g style="fill:#262626;" transform="translate(395.427703 395.938109)scale(0.121 -0.121)">
       <use xlink:href="#DejaVuSans-107"/>
       <use x="57.910156" xlink:href="#DejaVuSans-109"/>
       <use x="155.322266" xlink:href="#DejaVuSans-101"/>
       <use x="216.845703" xlink:href="#DejaVuSans-97"/>
       <use x="278.125" xlink:href="#DejaVuSans-110"/>
       <use x="341.503906" xlink:href="#DejaVuSans-115"/>
      </g>
     </g>
    </g>
    <g id="text_18">
     <!-- Method -->
     <g style="fill:#262626;" transform="translate(328.840375 412.484469)scale(0.132 -0.132)">
      <use xlink:href="#DejaVuSans-77"/>
      <use x="86.279297" xlink:href="#DejaVuSans-101"/>
      <use x="147.802734" xlink:href="#DejaVuSans-116"/>
      <use x="187.011719" xlink:href="#DejaVuSans-104"/>
      <use x="250.390625" xlink:href="#DejaVuSans-111"/>
      <use x="311.572266" xlink:href="#DejaVuSans-100"/>
     </g>
    </g>
   </g>
   <g id="matplotlib.axis_4">
    <g id="ytick_7">
     <g id="line2d_11">
      <path clip-path="url(#p3b04c441b2)" d="M 266.067 377.244 
L 441.122 377.244 
" style="fill:none;stroke:#ffffff;stroke-linecap:round;"/>
     </g>
    </g>
    <g id="ytick_8">
     <g id="line2d_12">
      <path clip-path="url(#p3b04c441b2)" d="M 266.067 310.4352 
L 441.122 310.4352 
" style="fill:none;stroke:#ffffff;stroke-linecap:round;"/>
     </g>
    </g>
    <g id="ytick_9">
     <g id="line2d_13">
      <path clip-path="url(#p3b04c441b2)" d="M 266.067 243.6264 
L 441.122 243.6264 
" style="fill:none;stroke:#ffffff;stroke-linecap:round;"/>
     </g>
    </g>
    <g id="ytick_10">
     <g id="line2d_14">
      <path clip-path="url(#p3b04c441b2)" d="M 266.067 176.8176 
L 441.122 176.8176 
" style="fill:none;stroke:#ffffff;stroke-linecap:round;"/>
     </g>
    </g>
    <g id="ytick_11">
     <g id="line2d_15">
      <path clip-path="url(#p3b04c441b2)" d="M 266.067 110.0088 
L 441.122 110.0088 
" style="fill:none;stroke:#ffffff;stroke-linecap:round;"/>
     </g>
    </g>
    <g id="ytick_12">
     <g id="line2d_16">
      <path clip-path="url(#p3b04c441b2)" d="M 266.067 43.2 
L 441.122 43.2 
" style="fill:none;stroke:#ffffff;stroke-linecap:round;"/>
     </g>
    </g>
   </g>
   <g id="PathCollection_5">
    <g clip-path="url(#p3b04c441b2)">
     <use style="fill:#176d9c;stroke:#176d9c;" x="287.948875" xlink:href="#m2469bc97aa" y="324.893737"/>
    </g>
   </g>
   <g id="PatchCollection_5">
    <path clip-path="url(#p3b04c441b2)" d="M 287.880494 323.640256 
L 288.017256 323.640256 
L 288.017256 59.9022 
L 287.880494 59.9022 
z
" style="fill:#ffffff;stroke:#ffffff;"/>
    <path clip-path="url(#p3b04c441b2)" d="M 287.812113 322.510673 
L 288.085637 322.510673 
L 288.085637 59.9022 
L 287.812113 59.9022 
z
" style="fill:#e2edf3;stroke:#ffffff;"/>
    <path clip-path="url(#p3b04c441b2)" d="M 287.675352 318.017918 
L 288.222398 318.017918 
L 288.222398 59.9022 
L 287.675352 59.9022 
z
" style="fill:#c5dae6;stroke:#ffffff;"/>
    <path clip-path="url(#p3b04c441b2)" d="M 287.401828 314.976714 
L 288.495922 314.976714 
L 288.495922 59.9022 
L 287.401828 59.9022 
z
" style="fill:#a8c8da;stroke:#ffffff;"/>
    <path clip-path="url(#p3b04c441b2)" d="M 286.854781 306.203661 
L 289.042969 306.203661 
L 289.042969 67.695687 
L 286.854781 67.695687 
z
" style="fill:#8bb6cd;stroke:#ffffff;"/>
    <path clip-path="url(#p3b04c441b2)" d="M 285.760688 300.487638 
L 290.137063 300.487638 
L 290.137063 83.013553 
L 285.760688 83.013553 
z
" style="fill:#6ea3c1;stroke:#ffffff;"/>
    <path clip-path="url(#p3b04c441b2)" d="M 283.5725 291.268028 
L 292.32525 291.268028 
L 292.32525 100.654815 
L 283.5725 100.654815 
z
" style="fill:#5091b4;stroke:#ffffff;"/>
    <path clip-path="url(#p3b04c441b2)" d="M 279.196125 275.019509 
L 296.701625 275.019509 
L 296.701625 123.428631 
L 279.196125 123.428631 
z
" style="fill:#337ea8;stroke:#ffffff;"/>
    <path clip-path="url(#p3b04c441b2)" d="M 270.443375 256.018355 
L 305.454375 256.018355 
L 305.454375 155.164317 
L 270.443375 155.164317 
z
" style="fill:#176d9c;stroke:#ffffff;"/>
   </g>
   <g id="PathCollection_6">
    <g clip-path="url(#p3b04c441b2)">
     <use style="fill:#c38820;stroke:#c38820;" x="331.712625" xlink:href="#mbb531b4a1c" y="322.972142"/>
    </g>
   </g>
   <g id="PatchCollection_6">
    <path clip-path="url(#p3b04c441b2)" d="M 331.644244 319.942281 
L 331.781006 319.942281 
L 331.781006 59.9022 
L 331.644244 59.9022 
z
" style="fill:#ffffff;stroke:#ffffff;"/>
    <path clip-path="url(#p3b04c441b2)" d="M 331.575863 317.582636 
L 331.849387 317.582636 
L 331.849387 63.296965 
L 331.575863 63.296965 
z
" style="fill:#f7f0e3;stroke:#ffffff;"/>
    <path clip-path="url(#p3b04c441b2)" d="M 331.439102 315.312606 
L 331.986148 315.312606 
L 331.986148 77.025632 
L 331.439102 77.025632 
z
" style="fill:#f0e1c7;stroke:#ffffff;"/>
    <path clip-path="url(#p3b04c441b2)" d="M 331.165578 314.145929 
L 332.259672 314.145929 
L 332.259672 85.492546 
L 331.165578 85.492546 
z
" style="fill:#e8d2ab;stroke:#ffffff;"/>
    <path clip-path="url(#p3b04c441b2)" d="M 330.618531 308.978212 
L 332.806719 308.978212 
L 332.806719 93.087012 
L 330.618531 93.087012 
z
" style="fill:#e1c38f;stroke:#ffffff;"/>
    <path clip-path="url(#p3b04c441b2)" d="M 329.524438 304.430258 
L 333.900813 304.430258 
L 333.900813 105.499918 
L 329.524438 105.499918 
z
" style="fill:#d9b473;stroke:#ffffff;"/>
    <path clip-path="url(#p3b04c441b2)" d="M 327.33625 297.886266 
L 336.089 297.886266 
L 336.089 117.940341 
L 327.33625 117.940341 
z
" style="fill:#d2a557;stroke:#ffffff;"/>
    <path clip-path="url(#p3b04c441b2)" d="M 322.959875 288.473503 
L 340.465375 288.473503 
L 340.465375 134.358764 
L 322.959875 134.358764 
z
" style="fill:#ca963b;stroke:#ffffff;"/>
    <path clip-path="url(#p3b04c441b2)" d="M 314.207125 270.413699 
L 349.218125 270.413699 
L 349.218125 167.854033 
L 314.207125 167.854033 
z
" style="fill:#c38820;stroke:#ffffff;"/>
   </g>
   <g id="PathCollection_7">
    <g clip-path="url(#p3b04c441b2)">
     <use style="fill:#158b6a;stroke:#158b6a;" x="375.476375" xlink:href="#m1012578b47" y="342.691773"/>
     <use style="fill:#158b6a;stroke:#158b6a;" x="375.476375" xlink:href="#m1012578b47" y="59.9022"/>
    </g>
   </g>
   <g id="PatchCollection_7">
    <path clip-path="url(#p3b04c441b2)" d="M 375.407994 337.719794 
L 375.544756 337.719794 
L 375.544756 66.54575 
L 375.407994 66.54575 
z
" style="fill:#ffffff;stroke:#ffffff;"/>
    <path clip-path="url(#p3b04c441b2)" d="M 375.339613 333.954548 
L 375.613137 333.954548 
L 375.613137 70.822628 
L 375.339613 70.822628 
z
" style="fill:#e2f0ec;stroke:#ffffff;"/>
    <path clip-path="url(#p3b04c441b2)" d="M 375.202852 331.29565 
L 375.749898 331.29565 
L 375.749898 79.33609 
L 375.202852 79.33609 
z
" style="fill:#c4e2da;stroke:#ffffff;"/>
    <path clip-path="url(#p3b04c441b2)" d="M 374.929328 326.153875 
L 376.023422 326.153875 
L 376.023422 91.964889 
L 374.929328 91.964889 
z
" style="fill:#a7d3c7;stroke:#ffffff;"/>
    <path clip-path="url(#p3b04c441b2)" d="M 374.382281 321.325683 
L 376.570469 321.325683 
L 376.570469 96.426826 
L 374.382281 96.426826 
z
" style="fill:#8ac5b4;stroke:#ffffff;"/>
    <path clip-path="url(#p3b04c441b2)" d="M 373.288188 313.876429 
L 377.664562 313.876429 
L 377.664562 106.190416 
L 373.288188 106.190416 
z
" style="fill:#6cb6a2;stroke:#ffffff;"/>
    <path clip-path="url(#p3b04c441b2)" d="M 371.1 301.36601 
L 379.85275 301.36601 
L 379.85275 116.141308 
L 371.1 116.141308 
z
" style="fill:#4fa78f;stroke:#ffffff;"/>
    <path clip-path="url(#p3b04c441b2)" d="M 366.723625 290.996358 
L 384.229125 290.996358 
L 384.229125 134.977495 
L 366.723625 134.977495 
z
" style="fill:#32997c;stroke:#ffffff;"/>
    <path clip-path="url(#p3b04c441b2)" d="M 357.970875 270.73356 
L 392.981875 270.73356 
L 392.981875 171.480328 
L 357.970875 171.480328 
z
" style="fill:#158b6a;stroke:#ffffff;"/>
   </g>
   <g id="PathCollection_8">
    <g clip-path="url(#p3b04c441b2)">
     <use style="fill:#ba611b;stroke:#ba611b;" x="419.240125" xlink:href="#mb188a30c39" y="342.838554"/>
    </g>
   </g>
   <g id="PatchCollection_8">
    <path clip-path="url(#p3b04c441b2)" d="M 419.171744 337.650027 
L 419.308506 337.650027 
L 419.308506 59.9022 
L 419.171744 59.9022 
z
" style="fill:#ffffff;stroke:#ffffff;"/>
    <path clip-path="url(#p3b04c441b2)" d="M 419.103363 333.503095 
L 419.376887 333.503095 
L 419.376887 65.35222 
L 419.103363 65.35222 
z
" style="fill:#f6ebe2;stroke:#ffffff;"/>
    <path clip-path="url(#p3b04c441b2)" d="M 418.966602 330.121042 
L 419.513648 330.121042 
L 419.513648 81.443173 
L 418.966602 81.443173 
z
" style="fill:#eed7c6;stroke:#ffffff;"/>
    <path clip-path="url(#p3b04c441b2)" d="M 418.693078 328.01958 
L 419.787172 328.01958 
L 419.787172 88.153971 
L 418.693078 88.153971 
z
" style="fill:#e5c4a9;stroke:#ffffff;"/>
    <path clip-path="url(#p3b04c441b2)" d="M 418.146031 321.01476 
L 420.334219 321.01476 
L 420.334219 101.78688 
L 418.146031 101.78688 
z
" style="fill:#ddb08c;stroke:#ffffff;"/>
    <path clip-path="url(#p3b04c441b2)" d="M 417.051938 315.656788 
L 421.428313 315.656788 
L 421.428313 110.774826 
L 417.051938 110.774826 
z
" style="fill:#d49c70;stroke:#ffffff;"/>
    <path clip-path="url(#p3b04c441b2)" d="M 414.86375 303.998104 
L 423.6165 303.998104 
L 423.6165 120.263668 
L 414.86375 120.263668 
z
" style="fill:#cb8853;stroke:#ffffff;"/>
    <path clip-path="url(#p3b04c441b2)" d="M 410.487375 295.554697 
L 427.992875 295.554697 
L 427.992875 139.822915 
L 410.487375 139.822915 
z
" style="fill:#c37436;stroke:#ffffff;"/>
    <path clip-path="url(#p3b04c441b2)" d="M 401.734625 276.762021 
L 436.745625 276.762021 
L 436.745625 173.875735 
L 401.734625 173.875735 
z
" style="fill:#ba611b;stroke:#ffffff;"/>
   </g>
   <g id="line2d_17">
    <path clip-path="url(#p3b04c441b2)" d="M 270.443375 212.888846 
L 305.454375 212.888846 
" style="fill:none;stroke:#262626;stroke-linecap:round;stroke-opacity:0.45;stroke-width:1.5;"/>
   </g>
   <g id="line2d_18">
    <path clip-path="url(#p3b04c441b2)" d="M 314.207125 231.818324 
L 349.218125 231.818324 
" style="fill:none;stroke:#262626;stroke-linecap:round;stroke-opacity:0.45;stroke-width:1.5;"/>
   </g>
   <g id="line2d_19">
    <path clip-path="url(#p3b04c441b2)" d="M 357.970875 233.634345 
L 392.981875 233.634345 
" style="fill:none;stroke:#262626;stroke-linecap:round;stroke-opacity:0.45;stroke-width:1.5;"/>
   </g>
   <g id="line2d_20">
    <path clip-path="url(#p3b04c441b2)" d="M 401.734625 234.818094 
L 436.745625 234.818094 
" style="fill:none;stroke:#262626;stroke-linecap:round;stroke-opacity:0.45;stroke-width:1.5;"/>
   </g>
   <g id="patch_6">
    <path d="M 266.067 377.244 
L 266.067 43.2 
" style="fill:none;stroke:#ffffff;stroke-linecap:square;stroke-linejoin:miter;stroke-width:1.25;"/>
   </g>
   <g id="patch_7">
    <path d="M 266.067 377.244 
L 441.122 377.244 
" style="fill:none;stroke:#ffffff;stroke-linecap:square;stroke-linejoin:miter;stroke-width:1.25;"/>
   </g>
   <g id="text_19">
    <!-- clusters = 8 -->
    <g style="fill:#262626;" transform="translate(313.786188 37.2)scale(0.132 -0.132)">
     <use xlink:href="#DejaVuSans-99"/>
     <use x="54.980469" xlink:href="#DejaVuSans-108"/>
     <use x="82.763672" xlink:href="#DejaVuSans-117"/>
     <use x="146.142578" xlink:href="#DejaVuSans-115"/>
     <use x="198.242188" xlink:href="#DejaVuSans-116"/>
     <use x="237.451172" xlink:href="#DejaVuSans-101"/>
     <use x="298.974609" xlink:href="#DejaVuSans-114"/>
     <use x="340.087891" xlink:href="#DejaVuSans-115"/>
     <use x="392.1875" xlink:href="#DejaVuSans-32"/>
     <use x="423.974609" xlink:href="#DejaVuSans-61"/>
     <use x="507.763672" xlink:href="#DejaVuSans-32"/>
     <use x="539.550781" xlink:href="#DejaVuSans-56"/>
    </g>
   </g>
  </g>
  <g id="axes_3">
   <g id="patch_8">
    <path d="M 467.378 377.244 
L 642.433 377.244 
L 642.433 43.2 
L 467.378 43.2 
z
" style="fill:#eaeaf2;"/>
   </g>
   <g id="matplotlib.axis_5">
    <g id="xtick_9">
     <g id="text_20">
      <!-- metis -->
      <g style="fill:#262626;" transform="translate(472.43993 395.938109)scale(0.121 -0.121)">
       <use xlink:href="#DejaVuSans-109"/>
       <use x="97.412109" xlink:href="#DejaVuSans-101"/>
       <use x="158.935547" xlink:href="#DejaVuSans-116"/>
       <use x="198.144531" xlink:href="#DejaVuSans-105"/>
       <use x="225.927734" xlink:href="#DejaVuSans-115"/>
      </g>
     </g>
    </g>
    <g id="xtick_10">
     <g id="text_21">
      <!-- merged -->
      <g style="fill:#262626;" transform="translate(509.517484 395.938109)scale(0.121 -0.121)">
       <use xlink:href="#DejaVuSans-109"/>
       <use x="97.412109" xlink:href="#DejaVuSans-101"/>
       <use x="158.935547" xlink:href="#DejaVuSans-114"/>
       <use x="200.033203" xlink:href="#DejaVuSans-103"/>
       <use x="263.509766" xlink:href="#DejaVuSans-101"/>
       <use x="325.033203" xlink:href="#DejaVuSans-100"/>
      </g>
     </g>
    </g>
    <g id="xtick_11">
     <g id="text_22">
      <!-- prio -->
      <g style="fill:#262626;" transform="translate(565.076844 395.938109)scale(0.121 -0.121)">
       <use xlink:href="#DejaVuSans-112"/>
       <use x="63.476562" xlink:href="#DejaVuSans-114"/>
       <use x="104.589844" xlink:href="#DejaVuSans-105"/>
       <use x="132.373047" xlink:href="#DejaVuSans-111"/>
      </g>
     </g>
    </g>
    <g id="xtick_12">
     <g id="text_23">
      <!-- kmeans -->
      <g style="fill:#262626;" transform="translate(596.738703 395.938109)scale(0.121 -0.121)">
       <use xlink:href="#DejaVuSans-107"/>
       <use x="57.910156" xlink:href="#DejaVuSans-109"/>
       <use x="155.322266" xlink:href="#DejaVuSans-101"/>
       <use x="216.845703" xlink:href="#DejaVuSans-97"/>
       <use x="278.125" xlink:href="#DejaVuSans-110"/>
       <use x="341.503906" xlink:href="#DejaVuSans-115"/>
      </g>
     </g>
    </g>
    <g id="text_24">
     <!-- Method -->
     <g style="fill:#262626;" transform="translate(530.151375 412.484469)scale(0.132 -0.132)">
      <use xlink:href="#DejaVuSans-77"/>
      <use x="86.279297" xlink:href="#DejaVuSans-101"/>
      <use x="147.802734" xlink:href="#DejaVuSans-116"/>
      <use x="187.011719" xlink:href="#DejaVuSans-104"/>
      <use x="250.390625" xlink:href="#DejaVuSans-111"/>
      <use x="311.572266" xlink:href="#DejaVuSans-100"/>
     </g>
    </g>
   </g>
   <g id="matplotlib.axis_6">
    <g id="ytick_13">
     <g id="line2d_21">
      <path clip-path="url(#p617218554f)" d="M 467.378 377.244 
L 642.433 377.244 
" style="fill:none;stroke:#ffffff;stroke-linecap:round;"/>
     </g>
    </g>
    <g id="ytick_14">
     <g id="line2d_22">
      <path clip-path="url(#p617218554f)" d="M 467.378 310.4352 
L 642.433 310.4352 
" style="fill:none;stroke:#ffffff;stroke-linecap:round;"/>
     </g>
    </g>
    <g id="ytick_15">
     <g id="line2d_23">
      <path clip-path="url(#p617218554f)" d="M 467.378 243.6264 
L 642.433 243.6264 
" style="fill:none;stroke:#ffffff;stroke-linecap:round;"/>
     </g>
    </g>
    <g id="ytick_16">
     <g id="line2d_24">
      <path clip-path="url(#p617218554f)" d="M 467.378 176.8176 
L 642.433 176.8176 
" style="fill:none;stroke:#ffffff;stroke-linecap:round;"/>
     </g>
    </g>
    <g id="ytick_17">
     <g id="line2d_25">
      <path clip-path="url(#p617218554f)" d="M 467.378 110.0088 
L 642.433 110.0088 
" style="fill:none;stroke:#ffffff;stroke-linecap:round;"/>
     </g>
    </g>
    <g id="ytick_18">
     <g id="line2d_26">
      <path clip-path="url(#p617218554f)" d="M 467.378 43.2 
L 642.433 43.2 
" style="fill:none;stroke:#ffffff;stroke-linecap:round;"/>
     </g>
    </g>
   </g>
   <g id="PathCollection_9">
    <g clip-path="url(#p617218554f)">
     <use style="fill:#176d9c;stroke:#176d9c;" x="489.259875" xlink:href="#m2469bc97aa" y="341.963713"/>
     <use style="fill:#176d9c;stroke:#176d9c;" x="489.259875" xlink:href="#m2469bc97aa" y="62.210145"/>
    </g>
   </g>
   <g id="PatchCollection_9">
    <path clip-path="url(#p617218554f)" d="M 489.191494 341.517502 
L 489.328256 341.517502 
L 489.328256 65.874499 
L 489.191494 65.874499 
z
" style="fill:#ffffff;stroke:#ffffff;"/>
    <path clip-path="url(#p617218554f)" d="M 489.123113 340.780593 
L 489.396637 340.780593 
L 489.396637 68.015078 
L 489.123113 68.015078 
z
" style="fill:#e2edf3;stroke:#ffffff;"/>
    <path clip-path="url(#p617218554f)" d="M 488.986352 337.958983 
L 489.533398 337.958983 
L 489.533398 69.227227 
L 488.986352 69.227227 
z
" style="fill:#c5dae6;stroke:#ffffff;"/>
    <path clip-path="url(#p617218554f)" d="M 488.712828 326.514614 
L 489.806922 326.514614 
L 489.806922 71.846985 
L 488.712828 71.846985 
z
" style="fill:#a8c8da;stroke:#ffffff;"/>
    <path clip-path="url(#p617218554f)" d="M 488.165781 320.471741 
L 490.353969 320.471741 
L 490.353969 78.591782 
L 488.165781 78.591782 
z
" style="fill:#8bb6cd;stroke:#ffffff;"/>
    <path clip-path="url(#p617218554f)" d="M 487.071688 309.893766 
L 491.448062 309.893766 
L 491.448062 95.181753 
L 487.071688 95.181753 
z
" style="fill:#6ea3c1;stroke:#ffffff;"/>
    <path clip-path="url(#p617218554f)" d="M 484.8835 300.642548 
L 493.63625 300.642548 
L 493.63625 107.909171 
L 484.8835 107.909171 
z
" style="fill:#5091b4;stroke:#ffffff;"/>
    <path clip-path="url(#p617218554f)" d="M 480.507125 287.564503 
L 498.012625 287.564503 
L 498.012625 133.59975 
L 480.507125 133.59975 
z
" style="fill:#337ea8;stroke:#ffffff;"/>
    <path clip-path="url(#p617218554f)" d="M 471.754375 266.460163 
L 506.765375 266.460163 
L 506.765375 166.59131 
L 471.754375 166.59131 
z
" style="fill:#176d9c;stroke:#ffffff;"/>
   </g>
   <g id="PathCollection_10">
    <g clip-path="url(#p617218554f)">
     <use style="fill:#c38820;stroke:#c38820;" x="533.023625" xlink:href="#mbb531b4a1c" y="338.965025"/>
    </g>
   </g>
   <g id="PatchCollection_10">
    <path clip-path="url(#p617218554f)" d="M 532.955244 336.34671 
L 533.092006 336.34671 
L 533.092006 59.9022 
L 532.955244 59.9022 
z
" style="fill:#ffffff;stroke:#ffffff;"/>
    <path clip-path="url(#p617218554f)" d="M 532.886863 334.583019 
L 533.160387 334.583019 
L 533.160387 59.9022 
L 532.886863 59.9022 
z
" style="fill:#f7f0e3;stroke:#ffffff;"/>
    <path clip-path="url(#p617218554f)" d="M 532.750102 331.257735 
L 533.297148 331.257735 
L 533.297148 60.414911 
L 532.750102 60.414911 
z
" style="fill:#f0e1c7;stroke:#ffffff;"/>
    <path clip-path="url(#p617218554f)" d="M 532.476578 324.093153 
L 533.570672 324.093153 
L 533.570672 69.372468 
L 532.476578 69.372468 
z
" style="fill:#e8d2ab;stroke:#ffffff;"/>
    <path clip-path="url(#p617218554f)" d="M 531.929531 319.808016 
L 534.117719 319.808016 
L 534.117719 79.137258 
L 531.929531 79.137258 
z
" style="fill:#e1c38f;stroke:#ffffff;"/>
    <path clip-path="url(#p617218554f)" d="M 530.835438 315.05137 
L 535.211812 315.05137 
L 535.211812 94.797181 
L 530.835438 94.797181 
z
" style="fill:#d9b473;stroke:#ffffff;"/>
    <path clip-path="url(#p617218554f)" d="M 528.64725 306.891503 
L 537.4 306.891503 
L 537.4 113.382057 
L 528.64725 113.382057 
z
" style="fill:#d2a557;stroke:#ffffff;"/>
    <path clip-path="url(#p617218554f)" d="M 524.270875 292.738498 
L 541.776375 292.738498 
L 541.776375 135.630934 
L 524.270875 135.630934 
z
" style="fill:#ca963b;stroke:#ffffff;"/>
    <path clip-path="url(#p617218554f)" d="M 515.518125 274.957637 
L 550.529125 274.957637 
L 550.529125 174.844577 
L 515.518125 174.844577 
z
" style="fill:#c38820;stroke:#ffffff;"/>
   </g>
   <g id="PathCollection_11">
    <g clip-path="url(#p617218554f)">
     <use style="fill:#158b6a;stroke:#158b6a;" x="576.787375" xlink:href="#m1012578b47" y="350.322867"/>
    </g>
   </g>
   <g id="PatchCollection_11">
    <path clip-path="url(#p617218554f)" d="M 576.718994 344.042078 
L 576.855756 344.042078 
L 576.855756 59.9022 
L 576.718994 59.9022 
z
" style="fill:#ffffff;stroke:#ffffff;"/>
    <path clip-path="url(#p617218554f)" d="M 576.650613 340.384044 
L 576.924137 340.384044 
L 576.924137 62.23626 
L 576.650613 62.23626 
z
" style="fill:#e2f0ec;stroke:#ffffff;"/>
    <path clip-path="url(#p617218554f)" d="M 576.513852 339.523864 
L 577.060898 339.523864 
L 577.060898 72.687271 
L 576.513852 72.687271 
z
" style="fill:#c4e2da;stroke:#ffffff;"/>
    <path clip-path="url(#p617218554f)" d="M 576.240328 337.59279 
L 577.334422 337.59279 
L 577.334422 80.258792 
L 576.240328 80.258792 
z
" style="fill:#a7d3c7;stroke:#ffffff;"/>
    <path clip-path="url(#p617218554f)" d="M 575.693281 329.924815 
L 577.881469 329.924815 
L 577.881469 88.46293 
L 575.693281 88.46293 
z
" style="fill:#8ac5b4;stroke:#ffffff;"/>
    <path clip-path="url(#p617218554f)" d="M 574.599187 325.503545 
L 578.975562 325.503545 
L 578.975562 100.440476 
L 574.599187 100.440476 
z
" style="fill:#6cb6a2;stroke:#ffffff;"/>
    <path clip-path="url(#p617218554f)" d="M 572.411 316.748825 
L 581.16375 316.748825 
L 581.16375 115.785026 
L 572.411 115.785026 
z
" style="fill:#4fa78f;stroke:#ffffff;"/>
    <path clip-path="url(#p617218554f)" d="M 568.034625 306.504494 
L 585.540125 306.504494 
L 585.540125 144.052231 
L 568.034625 144.052231 
z
" style="fill:#32997c;stroke:#ffffff;"/>
    <path clip-path="url(#p617218554f)" d="M 559.281875 289.261703 
L 594.292875 289.261703 
L 594.292875 184.970793 
L 559.281875 184.970793 
z
" style="fill:#158b6a;stroke:#ffffff;"/>
   </g>
   <g id="PathCollection_12">
    <g clip-path="url(#p617218554f)">
     <use style="fill:#ba611b;stroke:#ba611b;" x="620.551125" xlink:href="#mb188a30c39" y="354.058631"/>
    </g>
   </g>
   <g id="PatchCollection_12">
    <path clip-path="url(#p617218554f)" d="M 620.482744 348.721372 
L 620.619506 348.721372 
L 620.619506 59.9022 
L 620.482744 59.9022 
z
" style="fill:#ffffff;stroke:#ffffff;"/>
    <path clip-path="url(#p617218554f)" d="M 620.414363 345.607031 
L 620.687887 345.607031 
L 620.687887 59.9022 
L 620.414363 59.9022 
z
" style="fill:#f6ebe2;stroke:#ffffff;"/>
    <path clip-path="url(#p617218554f)" d="M 620.277602 344.837733 
L 620.824648 344.837733 
L 620.824648 60.029144 
L 620.277602 60.029144 
z
" style="fill:#eed7c6;stroke:#ffffff;"/>
    <path clip-path="url(#p617218554f)" d="M 620.004078 343.356395 
L 621.098172 343.356395 
L 621.098172 83.640888 
L 620.004078 83.640888 
z
" style="fill:#e5c4a9;stroke:#ffffff;"/>
    <path clip-path="url(#p617218554f)" d="M 619.457031 335.666801 
L 621.645219 335.666801 
L 621.645219 94.412076 
L 619.457031 94.412076 
z
" style="fill:#ddb08c;stroke:#ffffff;"/>
    <path clip-path="url(#p617218554f)" d="M 618.362937 328.765102 
L 622.739312 328.765102 
L 622.739312 104.796704 
L 618.362937 104.796704 
z
" style="fill:#d49c70;stroke:#ffffff;"/>
    <path clip-path="url(#p617218554f)" d="M 616.17475 318.062949 
L 624.9275 318.062949 
L 624.9275 118.969123 
L 616.17475 118.969123 
z
" style="fill:#cb8853;stroke:#ffffff;"/>
    <path clip-path="url(#p617218554f)" d="M 611.798375 307.901487 
L 629.303875 307.901487 
L 629.303875 144.226219 
L 611.798375 144.226219 
z
" style="fill:#c37436;stroke:#ffffff;"/>
    <path clip-path="url(#p617218554f)" d="M 603.045625 285.919823 
L 638.056625 285.919823 
L 638.056625 184.77201 
L 603.045625 184.77201 
z
" style="fill:#ba611b;stroke:#ffffff;"/>
   </g>
   <g id="line2d_27">
    <path clip-path="url(#p617218554f)" d="M 471.754375 227.173133 
L 506.765375 227.173133 
" style="fill:none;stroke:#262626;stroke-linecap:round;stroke-opacity:0.45;stroke-width:1.5;"/>
   </g>
   <g id="line2d_28">
    <path clip-path="url(#p617218554f)" d="M 515.518125 238.206037 
L 550.529125 238.206037 
" style="fill:none;stroke:#262626;stroke-linecap:round;stroke-opacity:0.45;stroke-width:1.5;"/>
   </g>
   <g id="line2d_29">
    <path clip-path="url(#p617218554f)" d="M 559.281875 247.991651 
L 594.292875 247.991651 
" style="fill:none;stroke:#262626;stroke-linecap:round;stroke-opacity:0.45;stroke-width:1.5;"/>
   </g>
   <g id="line2d_30">
    <path clip-path="url(#p617218554f)" d="M 603.045625 243.922896 
L 638.056625 243.922896 
" style="fill:none;stroke:#262626;stroke-linecap:round;stroke-opacity:0.45;stroke-width:1.5;"/>
   </g>
   <g id="patch_9">
    <path d="M 467.378 377.244 
L 467.378 43.2 
" style="fill:none;stroke:#ffffff;stroke-linecap:square;stroke-linejoin:miter;stroke-width:1.25;"/>
   </g>
   <g id="patch_10">
    <path d="M 467.378 377.244 
L 642.433 377.244 
" style="fill:none;stroke:#ffffff;stroke-linecap:square;stroke-linejoin:miter;stroke-width:1.25;"/>
   </g>
   <g id="text_25">
    <!-- clusters = 16 -->
    <g style="fill:#262626;" transform="translate(510.897937 37.2)scale(0.132 -0.132)">
     <use xlink:href="#DejaVuSans-99"/>
     <use x="54.980469" xlink:href="#DejaVuSans-108"/>
     <use x="82.763672" xlink:href="#DejaVuSans-117"/>
     <use x="146.142578" xlink:href="#DejaVuSans-115"/>
     <use x="198.242188" xlink:href="#DejaVuSans-116"/>
     <use x="237.451172" xlink:href="#DejaVuSans-101"/>
     <use x="298.974609" xlink:href="#DejaVuSans-114"/>
     <use x="340.087891" xlink:href="#DejaVuSans-115"/>
     <use x="392.1875" xlink:href="#DejaVuSans-32"/>
     <use x="423.974609" xlink:href="#DejaVuSans-61"/>
     <use x="507.763672" xlink:href="#DejaVuSans-32"/>
     <use x="539.550781" xlink:href="#DejaVuSans-49"/>
     <use x="603.173828" xlink:href="#DejaVuSans-54"/>
    </g>
   </g>
  </g>
  <g id="axes_4">
   <g id="patch_11">
    <path d="M 668.689 377.244 
L 843.744 377.244 
L 843.744 43.2 
L 668.689 43.2 
z
" style="fill:#eaeaf2;"/>
   </g>
   <g id="matplotlib.axis_7">
    <g id="xtick_13">
     <g id="text_26">
      <!-- metis -->
      <g style="fill:#262626;" transform="translate(673.75093 395.938109)scale(0.121 -0.121)">
       <use xlink:href="#DejaVuSans-109"/>
       <use x="97.412109" xlink:href="#DejaVuSans-101"/>
       <use x="158.935547" xlink:href="#DejaVuSans-116"/>
       <use x="198.144531" xlink:href="#DejaVuSans-105"/>
       <use x="225.927734" xlink:href="#DejaVuSans-115"/>
      </g>
     </g>
    </g>
    <g id="xtick_14">
     <g id="text_27">
      <!-- merged -->
      <g style="fill:#262626;" transform="translate(710.828484 395.938109)scale(0.121 -0.121)">
       <use xlink:href="#DejaVuSans-109"/>
       <use x="97.412109" xlink:href="#DejaVuSans-101"/>
       <use x="158.935547" xlink:href="#DejaVuSans-114"/>
       <use x="200.033203" xlink:href="#DejaVuSans-103"/>
       <use x="263.509766" xlink:href="#DejaVuSans-101"/>
       <use x="325.033203" xlink:href="#DejaVuSans-100"/>
      </g>
     </g>
    </g>
    <g id="xtick_15">
     <g id="text_28">
      <!-- prio -->
      <g style="fill:#262626;" transform="translate(766.387844 395.938109)scale(0.121 -0.121)">
       <use xlink:href="#DejaVuSans-112"/>
       <use x="63.476562" xlink:href="#DejaVuSans-114"/>
       <use x="104.589844" xlink:href="#DejaVuSans-105"/>
       <use x="132.373047" xlink:href="#DejaVuSans-111"/>
      </g>
     </g>
    </g>
    <g id="xtick_16">
     <g id="text_29">
      <!-- kmeans -->
      <g style="fill:#262626;" transform="translate(798.049703 395.938109)scale(0.121 -0.121)">
       <use xlink:href="#DejaVuSans-107"/>
       <use x="57.910156" xlink:href="#DejaVuSans-109"/>
       <use x="155.322266" xlink:href="#DejaVuSans-101"/>
       <use x="216.845703" xlink:href="#DejaVuSans-97"/>
       <use x="278.125" xlink:href="#DejaVuSans-110"/>
       <use x="341.503906" xlink:href="#DejaVuSans-115"/>
      </g>
     </g>
    </g>
    <g id="text_30">
     <!-- Method -->
     <g style="fill:#262626;" transform="translate(731.462375 412.484469)scale(0.132 -0.132)">
      <use xlink:href="#DejaVuSans-77"/>
      <use x="86.279297" xlink:href="#DejaVuSans-101"/>
      <use x="147.802734" xlink:href="#DejaVuSans-116"/>
      <use x="187.011719" xlink:href="#DejaVuSans-104"/>
      <use x="250.390625" xlink:href="#DejaVuSans-111"/>
      <use x="311.572266" xlink:href="#DejaVuSans-100"/>
     </g>
    </g>
   </g>
   <g id="matplotlib.axis_8">
    <g id="ytick_19">
     <g id="line2d_31">
      <path clip-path="url(#pc05b40120e)" d="M 668.689 377.244 
L 843.744 377.244 
" style="fill:none;stroke:#ffffff;stroke-linecap:round;"/>
     </g>
    </g>
    <g id="ytick_20">
     <g id="line2d_32">
      <path clip-path="url(#pc05b40120e)" d="M 668.689 310.4352 
L 843.744 310.4352 
" style="fill:none;stroke:#ffffff;stroke-linecap:round;"/>
     </g>
    </g>
    <g id="ytick_21">
     <g id="line2d_33">
      <path clip-path="url(#pc05b40120e)" d="M 668.689 243.6264 
L 843.744 243.6264 
" style="fill:none;stroke:#ffffff;stroke-linecap:round;"/>
     </g>
    </g>
    <g id="ytick_22">
     <g id="line2d_34">
      <path clip-path="url(#pc05b40120e)" d="M 668.689 176.8176 
L 843.744 176.8176 
" style="fill:none;stroke:#ffffff;stroke-linecap:round;"/>
     </g>
    </g>
    <g id="ytick_23">
     <g id="line2d_35">
      <path clip-path="url(#pc05b40120e)" d="M 668.689 110.0088 
L 843.744 110.0088 
" style="fill:none;stroke:#ffffff;stroke-linecap:round;"/>
     </g>
    </g>
    <g id="ytick_24">
     <g id="line2d_36">
      <path clip-path="url(#pc05b40120e)" d="M 668.689 43.2 
L 843.744 43.2 
" style="fill:none;stroke:#ffffff;stroke-linecap:round;"/>
     </g>
    </g>
   </g>
   <g id="PathCollection_13">
    <g clip-path="url(#pc05b40120e)">
     <use style="fill:#176d9c;stroke:#176d9c;" x="690.570875" xlink:href="#m2469bc97aa" y="346.304387"/>
    </g>
   </g>
   <g id="PatchCollection_13">
    <path clip-path="url(#pc05b40120e)" d="M 690.502494 345.065952 
L 690.639256 345.065952 
L 690.639256 59.9022 
L 690.502494 59.9022 
z
" style="fill:#ffffff;stroke:#ffffff;"/>
    <path clip-path="url(#pc05b40120e)" d="M 690.434113 343.276128 
L 690.707637 343.276128 
L 690.707637 59.9022 
L 690.434113 59.9022 
z
" style="fill:#e2edf3;stroke:#ffffff;"/>
    <path clip-path="url(#pc05b40120e)" d="M 690.297352 340.259394 
L 690.844398 340.259394 
L 690.844398 59.9022 
L 690.297352 59.9022 
z
" style="fill:#c5dae6;stroke:#ffffff;"/>
    <path clip-path="url(#pc05b40120e)" d="M 690.023828 330.869897 
L 691.117922 330.869897 
L 691.117922 59.9022 
L 690.023828 59.9022 
z
" style="fill:#a8c8da;stroke:#ffffff;"/>
    <path clip-path="url(#pc05b40120e)" d="M 689.476781 316.488777 
L 691.664969 316.488777 
L 691.664969 59.9022 
L 689.476781 59.9022 
z
" style="fill:#8bb6cd;stroke:#ffffff;"/>
    <path clip-path="url(#pc05b40120e)" d="M 688.382687 304.173303 
L 692.759063 304.173303 
L 692.759063 78.035245 
L 688.382687 78.035245 
z
" style="fill:#6ea3c1;stroke:#ffffff;"/>
    <path clip-path="url(#pc05b40120e)" d="M 686.1945 292.402164 
L 694.94725 292.402164 
L 694.94725 101.966932 
L 686.1945 101.966932 
z
" style="fill:#5091b4;stroke:#ffffff;"/>
    <path clip-path="url(#pc05b40120e)" d="M 681.818125 274.474141 
L 699.323625 274.474141 
L 699.323625 120.505169 
L 681.818125 120.505169 
z
" style="fill:#337ea8;stroke:#ffffff;"/>
    <path clip-path="url(#pc05b40120e)" d="M 673.065375 252.654287 
L 708.076375 252.654287 
L 708.076375 155.158438 
L 673.065375 155.158438 
z
" style="fill:#176d9c;stroke:#ffffff;"/>
   </g>
   <g id="PathCollection_14">
    <g clip-path="url(#pc05b40120e)">
     <use style="fill:#c38820;stroke:#c38820;" x="734.334625" xlink:href="#mbb531b4a1c" y="343.82528"/>
    </g>
   </g>
   <g id="PatchCollection_14">
    <path clip-path="url(#pc05b40120e)" d="M 734.266244 341.581989 
L 734.403006 341.581989 
L 734.403006 59.9022 
L 734.266244 59.9022 
z
" style="fill:#ffffff;stroke:#ffffff;"/>
    <path clip-path="url(#pc05b40120e)" d="M 734.197863 340.314521 
L 734.471387 340.314521 
L 734.471387 59.9022 
L 734.197863 59.9022 
z
" style="fill:#f7f0e3;stroke:#ffffff;"/>
    <path clip-path="url(#pc05b40120e)" d="M 734.061102 339.434186 
L 734.608148 339.434186 
L 734.608148 59.9022 
L 734.061102 59.9022 
z
" style="fill:#f0e1c7;stroke:#ffffff;"/>
    <path clip-path="url(#pc05b40120e)" d="M 733.787578 335.858348 
L 734.881672 335.858348 
L 734.881672 59.9022 
L 733.787578 59.9022 
z
" style="fill:#e8d2ab;stroke:#ffffff;"/>
    <path clip-path="url(#pc05b40120e)" d="M 733.240531 328.16667 
L 735.428719 328.16667 
L 735.428719 59.9022 
L 733.240531 59.9022 
z
" style="fill:#e1c38f;stroke:#ffffff;"/>
    <path clip-path="url(#pc05b40120e)" d="M 732.146438 318.50437 
L 736.522812 318.50437 
L 736.522812 76.72461 
L 732.146438 76.72461 
z
" style="fill:#d9b473;stroke:#ffffff;"/>
    <path clip-path="url(#pc05b40120e)" d="M 729.95825 311.086649 
L 738.711 311.086649 
L 738.711 102.737071 
L 729.95825 102.737071 
z
" style="fill:#d2a557;stroke:#ffffff;"/>
    <path clip-path="url(#pc05b40120e)" d="M 725.581875 299.299646 
L 743.087375 299.299646 
L 743.087375 133.303167 
L 725.581875 133.303167 
z
" style="fill:#ca963b;stroke:#ffffff;"/>
    <path clip-path="url(#pc05b40120e)" d="M 716.829125 280.978032 
L 751.840125 280.978032 
L 751.840125 178.680647 
L 716.829125 178.680647 
z
" style="fill:#c38820;stroke:#ffffff;"/>
   </g>
   <g id="PathCollection_15">
    <g clip-path="url(#pc05b40120e)">
     <use style="fill:#158b6a;stroke:#158b6a;" x="778.098375" xlink:href="#m1012578b47" y="354.430846"/>
    </g>
   </g>
   <g id="PatchCollection_15">
    <path clip-path="url(#pc05b40120e)" d="M 778.029994 351.777677 
L 778.166756 351.777677 
L 778.166756 59.9022 
L 778.029994 59.9022 
z
" style="fill:#ffffff;stroke:#ffffff;"/>
    <path clip-path="url(#pc05b40120e)" d="M 777.961613 348.595146 
L 778.235137 348.595146 
L 778.235137 59.9022 
L 777.961613 59.9022 
z
" style="fill:#e2f0ec;stroke:#ffffff;"/>
    <path clip-path="url(#pc05b40120e)" d="M 777.824852 344.04623 
L 778.371898 344.04623 
L 778.371898 59.9022 
L 777.824852 59.9022 
z
" style="fill:#c4e2da;stroke:#ffffff;"/>
    <path clip-path="url(#pc05b40120e)" d="M 777.551328 340.066433 
L 778.645422 340.066433 
L 778.645422 59.9022 
L 777.551328 59.9022 
z
" style="fill:#a7d3c7;stroke:#ffffff;"/>
    <path clip-path="url(#pc05b40120e)" d="M 777.004281 334.558976 
L 779.192469 334.558976 
L 779.192469 61.769397 
L 777.004281 61.769397 
z
" style="fill:#8ac5b4;stroke:#ffffff;"/>
    <path clip-path="url(#pc05b40120e)" d="M 775.910188 324.117352 
L 780.286562 324.117352 
L 780.286562 83.97541 
L 775.910188 83.97541 
z
" style="fill:#6cb6a2;stroke:#ffffff;"/>
    <path clip-path="url(#pc05b40120e)" d="M 773.722 314.718291 
L 782.47475 314.718291 
L 782.47475 113.188834 
L 773.722 113.188834 
z
" style="fill:#4fa78f;stroke:#ffffff;"/>
    <path clip-path="url(#pc05b40120e)" d="M 769.345625 306.22427 
L 786.851125 306.22427 
L 786.851125 141.914387 
L 769.345625 141.914387 
z
" style="fill:#32997c;stroke:#ffffff;"/>
    <path clip-path="url(#pc05b40120e)" d="M 760.592875 289.221409 
L 795.603875 289.221409 
L 795.603875 191.046971 
L 760.592875 191.046971 
z
" style="fill:#158b6a;stroke:#ffffff;"/>
   </g>
   <g id="PathCollection_16">
    <g clip-path="url(#pc05b40120e)">
     <use style="fill:#ba611b;stroke:#ba611b;" x="821.862125" xlink:href="#mb188a30c39" y="358.062758"/>
    </g>
   </g>
   <g id="PatchCollection_16">
    <path clip-path="url(#pc05b40120e)" d="M 821.793744 355.736968 
L 821.930506 355.736968 
L 821.930506 59.9022 
L 821.793744 59.9022 
z
" style="fill:#ffffff;stroke:#ffffff;"/>
    <path clip-path="url(#pc05b40120e)" d="M 821.725363 353.911331 
L 821.998887 353.911331 
L 821.998887 59.9022 
L 821.725363 59.9022 
z
" style="fill:#f6ebe2;stroke:#ffffff;"/>
    <path clip-path="url(#pc05b40120e)" d="M 821.588602 350.395603 
L 822.135648 350.395603 
L 822.135648 59.9022 
L 821.588602 59.9022 
z
" style="fill:#eed7c6;stroke:#ffffff;"/>
    <path clip-path="url(#pc05b40120e)" d="M 821.315078 343.453709 
L 822.409172 343.453709 
L 822.409172 59.9022 
L 821.315078 59.9022 
z
" style="fill:#e5c4a9;stroke:#ffffff;"/>
    <path clip-path="url(#pc05b40120e)" d="M 820.768031 339.358512 
L 822.956219 339.358512 
L 822.956219 73.506699 
L 820.768031 73.506699 
z
" style="fill:#ddb08c;stroke:#ffffff;"/>
    <path clip-path="url(#pc05b40120e)" d="M 819.673937 329.303273 
L 824.050313 329.303273 
L 824.050313 91.800892 
L 819.673937 91.800892 
z
" style="fill:#d49c70;stroke:#ffffff;"/>
    <path clip-path="url(#pc05b40120e)" d="M 817.48575 321.517698 
L 826.2385 321.517698 
L 826.2385 117.512993 
L 817.48575 117.512993 
z
" style="fill:#cb8853;stroke:#ffffff;"/>
    <path clip-path="url(#pc05b40120e)" d="M 813.109375 309.224486 
L 830.614875 309.224486 
L 830.614875 147.162708 
L 813.109375 147.162708 
z
" style="fill:#c37436;stroke:#ffffff;"/>
    <path clip-path="url(#pc05b40120e)" d="M 804.356625 287.744426 
L 839.367625 287.744426 
L 839.367625 187.652712 
L 804.356625 187.652712 
z
" style="fill:#ba611b;stroke:#ffffff;"/>
   </g>
   <g id="line2d_37">
    <path clip-path="url(#pc05b40120e)" d="M 673.065375 206.359798 
L 708.076375 206.359798 
" style="fill:none;stroke:#262626;stroke-linecap:round;stroke-opacity:0.45;stroke-width:1.5;"/>
   </g>
   <g id="line2d_38">
    <path clip-path="url(#pc05b40120e)" d="M 716.829125 240.109715 
L 751.840125 240.109715 
" style="fill:none;stroke:#262626;stroke-linecap:round;stroke-opacity:0.45;stroke-width:1.5;"/>
   </g>
   <g id="line2d_39">
    <path clip-path="url(#pc05b40120e)" d="M 760.592875 249.370728 
L 795.603875 249.370728 
" style="fill:none;stroke:#262626;stroke-linecap:round;stroke-opacity:0.45;stroke-width:1.5;"/>
   </g>
   <g id="line2d_40">
    <path clip-path="url(#pc05b40120e)" d="M 804.356625 247.719266 
L 839.367625 247.719266 
" style="fill:none;stroke:#262626;stroke-linecap:round;stroke-opacity:0.45;stroke-width:1.5;"/>
   </g>
   <g id="patch_12">
    <path d="M 668.689 377.244 
L 668.689 43.2 
" style="fill:none;stroke:#ffffff;stroke-linecap:square;stroke-linejoin:miter;stroke-width:1.25;"/>
   </g>
   <g id="patch_13">
    <path d="M 668.689 377.244 
L 843.744 377.244 
" style="fill:none;stroke:#ffffff;stroke-linecap:square;stroke-linejoin:miter;stroke-width:1.25;"/>
   </g>
   <g id="text_31">
    <!-- clusters = 32 -->
    <defs>
     <path d="M 40.578125 39.3125 
Q 47.65625 37.796875 51.625 33 
Q 55.609375 28.21875 55.609375 21.1875 
Q 55.609375 10.40625 48.1875 4.484375 
Q 40.765625 -1.421875 27.09375 -1.421875 
Q 22.515625 -1.421875 17.65625 -0.515625 
Q 12.796875 0.390625 7.625 2.203125 
L 7.625 11.71875 
Q 11.71875 9.328125 16.59375 8.109375 
Q 21.484375 6.890625 26.8125 6.890625 
Q 36.078125 6.890625 40.9375 10.546875 
Q 45.796875 14.203125 45.796875 21.1875 
Q 45.796875 27.640625 41.28125 31.265625 
Q 36.765625 34.90625 28.71875 34.90625 
L 20.21875 34.90625 
L 20.21875 43.015625 
L 29.109375 43.015625 
Q 36.375 43.015625 40.234375 45.921875 
Q 44.09375 48.828125 44.09375 54.296875 
Q 44.09375 59.90625 40.109375 62.90625 
Q 36.140625 65.921875 28.71875 65.921875 
Q 24.65625 65.921875 20.015625 65.03125 
Q 15.375 64.15625 9.8125 62.3125 
L 9.8125 71.09375 
Q 15.4375 72.65625 20.34375 73.4375 
Q 25.25 74.21875 29.59375 74.21875 
Q 40.828125 74.21875 47.359375 69.109375 
Q 53.90625 64.015625 53.90625 55.328125 
Q 53.90625 49.265625 50.4375 45.09375 
Q 46.96875 40.921875 40.578125 39.3125 
z
" id="DejaVuSans-51"/>
    </defs>
    <g style="fill:#262626;" transform="translate(712.208938 37.2)scale(0.132 -0.132)">
     <use xlink:href="#DejaVuSans-99"/>
     <use x="54.980469" xlink:href="#DejaVuSans-108"/>
     <use x="82.763672" xlink:href="#DejaVuSans-117"/>
     <use x="146.142578" xlink:href="#DejaVuSans-115"/>
     <use x="198.242188" xlink:href="#DejaVuSans-116"/>
     <use x="237.451172" xlink:href="#DejaVuSans-101"/>
     <use x="298.974609" xlink:href="#DejaVuSans-114"/>
     <use x="340.087891" xlink:href="#DejaVuSans-115"/>
     <use x="392.1875" xlink:href="#DejaVuSans-32"/>
     <use x="423.974609" xlink:href="#DejaVuSans-61"/>
     <use x="507.763672" xlink:href="#DejaVuSans-32"/>
     <use x="539.550781" xlink:href="#DejaVuSans-51"/>
     <use x="603.173828" xlink:href="#DejaVuSans-50"/>
    </g>
   </g>
  </g>
  <g id="text_32">
   <!-- Query time relative to baseline (lower is better) -->
   <defs>
    <path d="M 39.40625 66.21875 
Q 28.65625 66.21875 22.328125 58.203125 
Q 16.015625 50.203125 16.015625 36.375 
Q 16.015625 22.609375 22.328125 14.59375 
Q 28.65625 6.59375 39.40625 6.59375 
Q 50.140625 6.59375 56.421875 14.59375 
Q 62.703125 22.609375 62.703125 36.375 
Q 62.703125 50.203125 56.421875 58.203125 
Q 50.140625 66.21875 39.40625 66.21875 
z
M 53.21875 1.3125 
L 66.21875 -12.890625 
L 54.296875 -12.890625 
L 43.5 -1.21875 
Q 41.890625 -1.3125 41.03125 -1.359375 
Q 40.1875 -1.421875 39.40625 -1.421875 
Q 24.03125 -1.421875 14.8125 8.859375 
Q 5.609375 19.140625 5.609375 36.375 
Q 5.609375 53.65625 14.8125 63.9375 
Q 24.03125 74.21875 39.40625 74.21875 
Q 54.734375 74.21875 63.90625 63.9375 
Q 73.09375 53.65625 73.09375 36.375 
Q 73.09375 23.6875 67.984375 14.640625 
Q 62.890625 5.609375 53.21875 1.3125 
z
" id="DejaVuSans-81"/>
    <path d="M 48.6875 27.296875 
Q 48.6875 37.203125 44.609375 42.84375 
Q 40.53125 48.484375 33.40625 48.484375 
Q 26.265625 48.484375 22.1875 42.84375 
Q 18.109375 37.203125 18.109375 27.296875 
Q 18.109375 17.390625 22.1875 11.75 
Q 26.265625 6.109375 33.40625 6.109375 
Q 40.53125 6.109375 44.609375 11.75 
Q 48.6875 17.390625 48.6875 27.296875 
z
M 18.109375 46.390625 
Q 20.953125 51.265625 25.265625 53.625 
Q 29.59375 56 35.59375 56 
Q 45.5625 56 51.78125 48.09375 
Q 58.015625 40.1875 58.015625 27.296875 
Q 58.015625 14.40625 51.78125 6.484375 
Q 45.5625 -1.421875 35.59375 -1.421875 
Q 29.59375 -1.421875 25.265625 0.953125 
Q 20.953125 3.328125 18.109375 8.203125 
L 18.109375 0 
L 9.078125 0 
L 9.078125 75.984375 
L 18.109375 75.984375 
z
" id="DejaVuSans-98"/>
    <path d="M 4.203125 54.6875 
L 13.1875 54.6875 
L 24.421875 12.015625 
L 35.59375 54.6875 
L 46.1875 54.6875 
L 57.421875 12.015625 
L 68.609375 54.6875 
L 77.59375 54.6875 
L 63.28125 0 
L 52.6875 0 
L 40.921875 44.828125 
L 29.109375 0 
L 18.5 0 
z
" id="DejaVuSans-119"/>
   </defs>
   <g style="fill:#262626;" transform="translate(242.846888 20.675925)scale(0.1584 -0.1584)">
    <use xlink:href="#DejaVuSans-81"/>
    <use x="78.710938" xlink:href="#DejaVuSans-117"/>
    <use x="142.089844" xlink:href="#DejaVuSans-101"/>
    <use x="203.613281" xlink:href="#DejaVuSans-114"/>
    <use x="244.726562" xlink:href="#DejaVuSans-121"/>
    <use x="303.90625" xlink:href="#DejaVuSans-32"/>
    <use x="335.693359" xlink:href="#DejaVuSans-116"/>
    <use x="374.902344" xlink:href="#DejaVuSans-105"/>
    <use x="402.685547" xlink:href="#DejaVuSans-109"/>
    <use x="500.097656" xlink:href="#DejaVuSans-101"/>
    <use x="561.621094" xlink:href="#DejaVuSans-32"/>
    <use x="593.408203" xlink:href="#DejaVuSans-114"/>
    <use x="634.490234" xlink:href="#DejaVuSans-101"/>
    <use x="696.013672" xlink:href="#DejaVuSans-108"/>
    <use x="723.796875" xlink:href="#DejaVuSans-97"/>
    <use x="785.076172" xlink:href="#DejaVuSans-116"/>
    <use x="824.285156" xlink:href="#DejaVuSans-105"/>
    <use x="852.068359" xlink:href="#DejaVuSans-118"/>
    <use x="911.248047" xlink:href="#DejaVuSans-101"/>
    <use x="972.771484" xlink:href="#DejaVuSans-32"/>
    <use x="1004.558594" xlink:href="#DejaVuSans-116"/>
    <use x="1043.767578" xlink:href="#DejaVuSans-111"/>
    <use x="1104.949219" xlink:href="#DejaVuSans-32"/>
    <use x="1136.736328" xlink:href="#DejaVuSans-98"/>
    <use x="1200.212891" xlink:href="#DejaVuSans-97"/>
    <use x="1261.492188" xlink:href="#DejaVuSans-115"/>
    <use x="1313.591797" xlink:href="#DejaVuSans-101"/>
    <use x="1375.115234" xlink:href="#DejaVuSans-108"/>
    <use x="1402.898438" xlink:href="#DejaVuSans-105"/>
    <use x="1430.681641" xlink:href="#DejaVuSans-110"/>
    <use x="1494.060547" xlink:href="#DejaVuSans-101"/>
    <use x="1555.583984" xlink:href="#DejaVuSans-32"/>
    <use x="1587.371094" xlink:href="#DejaVuSans-40"/>
    <use x="1626.384766" xlink:href="#DejaVuSans-108"/>
    <use x="1654.167969" xlink:href="#DejaVuSans-111"/>
    <use x="1715.349609" xlink:href="#DejaVuSans-119"/>
    <use x="1797.136719" xlink:href="#DejaVuSans-101"/>
    <use x="1858.660156" xlink:href="#DejaVuSans-114"/>
    <use x="1899.773438" xlink:href="#DejaVuSans-32"/>
    <use x="1931.560547" xlink:href="#DejaVuSans-105"/>
    <use x="1959.34375" xlink:href="#DejaVuSans-115"/>
    <use x="2011.443359" xlink:href="#DejaVuSans-32"/>
    <use x="2043.230469" xlink:href="#DejaVuSans-98"/>
    <use x="2106.707031" xlink:href="#DejaVuSans-101"/>
    <use x="2168.230469" xlink:href="#DejaVuSans-116"/>
    <use x="2207.439453" xlink:href="#DejaVuSans-116"/>
    <use x="2246.648438" xlink:href="#DejaVuSans-101"/>
    <use x="2308.171875" xlink:href="#DejaVuSans-114"/>
    <use x="2349.285156" xlink:href="#DejaVuSans-41"/>
   </g>
  </g>
 </g>
 <defs>
  <clipPath id="pd0b4104b38">
   <rect height="334.044" width="175.055" x="64.756" y="43.2"/>
  </clipPath>
  <clipPath id="p3b04c441b2">
   <rect height="334.044" width="175.055" x="266.067" y="43.2"/>
  </clipPath>
  <clipPath id="p617218554f">
   <rect height="334.044" width="175.055" x="467.378" y="43.2"/>
  </clipPath>
  <clipPath id="pc05b40120e">
   <rect height="334.044" width="175.055" x="668.689" y="43.2"/>
  </clipPath>
 </defs>
</svg>
