<?xml version="1.0" encoding="utf-8" standalone="no"?>
<!DOCTYPE svg PUBLIC "-//W3C//DTD SVG 1.1//EN"
  "http://www.w3.org/Graphics/SVG/1.1/DTD/svg11.dtd">
<!-- Created with matplotlib (https://matplotlib.org/) -->
<svg height="432pt" version="1.1" viewBox="0 0 864 432" width="864pt" xmlns="http://www.w3.org/2000/svg" xmlns:xlink="http://www.w3.org/1999/xlink">
 <defs>
  <style type="text/css">
*{stroke-linecap:butt;stroke-linejoin:round;}
  </style>
 </defs>
 <g id="figure_1">
  <g id="patch_1">
   <path d="M 0 432 
L 864 432 
L 864 0 
L 0 0 
z
" style="fill:#ffffff;"/>
  </g>
  <g id="axes_1">
   <g id="patch_2">
    <path d="M 45.118 357.882 
L 187.7264 357.882 
L 187.7264 24.368 
L 45.118 24.368 
z
" style="fill:#eaeaf2;"/>
   </g>
   <g id="matplotlib.axis_1">
    <g id="xtick_1">
     <g id="text_1">
      <!--    metis -->
      <defs>
       <path id="DejaVuSans-32"/>
       <path d="M 52 44.1875 
Q 55.375 50.25 60.0625 53.125 
Q 64.75 56 71.09375 56 
Q 79.640625 56 84.28125 50.015625 
Q 88.921875 44.046875 88.921875 33.015625 
L 88.921875 0 
L 79.890625 0 
L 79.890625 32.71875 
Q 79.890625 40.578125 77.09375 44.375 
Q 74.3125 48.1875 68.609375 48.1875 
Q 61.625 48.1875 57.5625 43.546875 
Q 53.515625 38.921875 53.515625 30.90625 
L 53.515625 0 
L 44.484375 0 
L 44.484375 32.71875 
Q 44.484375 40.625 41.703125 44.40625 
Q 38.921875 48.1875 33.109375 48.1875 
Q 26.21875 48.1875 22.15625 43.53125 
Q 18.109375 38.875 18.109375 30.90625 
L 18.109375 0 
L 9.078125 0 
L 9.078125 54.6875 
L 18.109375 54.6875 
L 18.109375 46.1875 
Q 21.1875 51.21875 25.484375 53.609375 
Q 29.78125 56 35.6875 56 
Q 41.65625 56 45.828125 52.96875 
Q 50 49.953125 52 44.1875 
z
" id="DejaVuSans-109"/>
       <path d="M 56.203125 29.59375 
L 56.203125 25.203125 
L 14.890625 25.203125 
Q 15.484375 15.921875 20.484375 11.0625 
Q 25.484375 6.203125 34.421875 6.203125 
Q 39.59375 6.203125 44.453125 7.46875 
Q 49.3125 8.734375 54.109375 11.28125 
L 54.109375 2.78125 
Q 49.265625 0.734375 44.1875 -0.34375 
Q 39.109375 -1.421875 33.890625 -1.421875 
Q 20.796875 -1.421875 13.15625 6.1875 
Q 5.515625 13.8125 5.515625 26.8125 
Q 5.515625 40.234375 12.765625 48.109375 
Q 20.015625 56 32.328125 56 
Q 43.359375 56 49.78125 48.890625 
Q 56.203125 41.796875 56.203125 29.59375 
z
M 47.21875 32.234375 
Q 47.125 39.59375 43.09375 43.984375 
Q 39.0625 48.390625 32.421875 48.390625 
Q 24.90625 48.390625 20.390625 44.140625 
Q 15.875 39.890625 15.1875 32.171875 
z
" id="DejaVuSans-101"/>
       <path d="M 18.3125 70.21875 
L 18.3125 54.6875 
L 36.8125 54.6875 
L 36.8125 47.703125 
L 18.3125 47.703125 
L 18.3125 18.015625 
Q 18.3125 11.328125 20.140625 9.421875 
Q 21.96875 7.515625 27.59375 7.515625 
L 36.8125 7.515625 
L 36.8125 0 
L 27.59375 0 
Q 17.1875 0 13.234375 3.875 
Q 9.28125 7.765625 9.28125 18.015625 
L 9.28125 47.703125 
L 2.6875 47.703125 
L 2.6875 54.6875 
L 9.28125 54.6875 
L 9.28125 70.21875 
z
" id="DejaVuSans-116"/>
       <path d="M 9.421875 54.6875 
L 18.40625 54.6875 
L 18.40625 0 
L 9.421875 0 
z
M 9.421875 75.984375 
L 18.40625 75.984375 
L 18.40625 64.59375 
L 9.421875 64.59375 
z
" id="DejaVuSans-105"/>
       <path d="M 44.28125 53.078125 
L 44.28125 44.578125 
Q 40.484375 46.53125 36.375 47.5 
Q 32.28125 48.484375 27.875 48.484375 
Q 21.1875 48.484375 17.84375 46.4375 
Q 14.5 44.390625 14.5 40.28125 
Q 14.5 37.15625 16.890625 35.375 
Q 19.28125 33.59375 26.515625 31.984375 
L 29.59375 31.296875 
Q 39.15625 29.25 43.1875 25.515625 
Q 47.21875 21.78125 47.21875 15.09375 
Q 47.21875 7.46875 41.1875 3.015625 
Q 35.15625 -1.421875 24.609375 -1.421875 
Q 20.21875 -1.421875 15.453125 -0.5625 
Q 10.6875 0.296875 5.421875 2 
L 5.421875 11.28125 
Q 10.40625 8.6875 15.234375 7.390625 
Q 20.0625 6.109375 24.8125 6.109375 
Q 31.15625 6.109375 34.5625 8.28125 
Q 37.984375 10.453125 37.984375 14.40625 
Q 37.984375 18.0625 35.515625 20.015625 
Q 33.0625 21.96875 24.703125 23.78125 
L 21.578125 24.515625 
Q 13.234375 26.265625 9.515625 29.90625 
Q 5.8125 33.546875 5.8125 39.890625 
Q 5.8125 47.609375 11.28125 51.796875 
Q 16.75 56 26.8125 56 
Q 31.78125 56 36.171875 55.265625 
Q 40.578125 54.546875 44.28125 53.078125 
z
" id="DejaVuSans-115"/>
      </defs>
      <g style="fill:#262626;" transform="translate(61.80709 400.237625)rotate(-90)scale(0.088 -0.088)">
       <use xlink:href="#DejaVuSans-32"/>
       <use x="31.787109" xlink:href="#DejaVuSans-32"/>
       <use x="63.574219" xlink:href="#DejaVuSans-32"/>
       <use x="95.361328" xlink:href="#DejaVuSans-109"/>
       <use x="192.773438" xlink:href="#DejaVuSans-101"/>
       <use x="254.296875" xlink:href="#DejaVuSans-116"/>
       <use x="293.505859" xlink:href="#DejaVuSans-105"/>
       <use x="321.289062" xlink:href="#DejaVuSans-115"/>
      </g>
     </g>
    </g>
    <g id="xtick_2">
     <g id="text_2">
      <!--   merged -->
      <defs>
       <path d="M 41.109375 46.296875 
Q 39.59375 47.171875 37.8125 47.578125 
Q 36.03125 48 33.890625 48 
Q 26.265625 48 22.1875 43.046875 
Q 18.109375 38.09375 18.109375 28.8125 
L 18.109375 0 
L 9.078125 0 
L 9.078125 54.6875 
L 18.109375 54.6875 
L 18.109375 46.1875 
Q 20.953125 51.171875 25.484375 53.578125 
Q 30.03125 56 36.53125 56 
Q 37.453125 56 38.578125 55.875 
Q 39.703125 55.765625 41.0625 55.515625 
z
" id="DejaVuSans-114"/>
       <path d="M 45.40625 27.984375 
Q 45.40625 37.75 41.375 43.109375 
Q 37.359375 48.484375 30.078125 48.484375 
Q 22.859375 48.484375 18.828125 43.109375 
Q 14.796875 37.75 14.796875 27.984375 
Q 14.796875 18.265625 18.828125 12.890625 
Q 22.859375 7.515625 30.078125 7.515625 
Q 37.359375 7.515625 41.375 12.890625 
Q 45.40625 18.265625 45.40625 27.984375 
z
M 54.390625 6.78125 
Q 54.390625 -7.171875 48.1875 -13.984375 
Q 42 -20.796875 29.203125 -20.796875 
Q 24.46875 -20.796875 20.265625 -20.09375 
Q 16.0625 -19.390625 12.109375 -17.921875 
L 12.109375 -9.1875 
Q 16.0625 -11.328125 19.921875 -12.34375 
Q 23.78125 -13.375 27.78125 -13.375 
Q 36.625 -13.375 41.015625 -8.765625 
Q 45.40625 -4.15625 45.40625 5.171875 
L 45.40625 9.625 
Q 42.625 4.78125 38.28125 2.390625 
Q 33.9375 0 27.875 0 
Q 17.828125 0 11.671875 7.65625 
Q 5.515625 15.328125 5.515625 27.984375 
Q 5.515625 40.671875 11.671875 48.328125 
Q 17.828125 56 27.875 56 
Q 33.9375 56 38.28125 53.609375 
Q 42.625 51.21875 45.40625 46.390625 
L 45.40625 54.6875 
L 54.390625 54.6875 
z
" id="DejaVuSans-103"/>
       <path d="M 45.40625 46.390625 
L 45.40625 75.984375 
L 54.390625 75.984375 
L 54.390625 0 
L 45.40625 0 
L 45.40625 8.203125 
Q 42.578125 3.328125 38.25 0.953125 
Q 33.9375 -1.421875 27.875 -1.421875 
Q 17.96875 -1.421875 11.734375 6.484375 
Q 5.515625 14.40625 5.515625 27.296875 
Q 5.515625 40.1875 11.734375 48.09375 
Q 17.96875 56 27.875 56 
Q 33.9375 56 38.25 53.625 
Q 42.578125 51.265625 45.40625 46.390625 
z
M 14.796875 27.296875 
Q 14.796875 17.390625 18.875 11.75 
Q 22.953125 6.109375 30.078125 6.109375 
Q 37.203125 6.109375 41.296875 11.75 
Q 45.40625 17.390625 45.40625 27.296875 
Q 45.40625 37.203125 41.296875 42.84375 
Q 37.203125 48.484375 30.078125 48.484375 
Q 22.953125 48.484375 18.875 42.84375 
Q 14.796875 37.203125 14.796875 27.296875 
z
" id="DejaVuSans-100"/>
      </defs>
      <g style="fill:#262626;" transform="translate(90.32877 407.16625)rotate(-90)scale(0.088 -0.088)">
       <use xlink:href="#DejaVuSans-32"/>
       <use x="31.787109" xlink:href="#DejaVuSans-32"/>
       <use x="63.574219" xlink:href="#DejaVuSans-109"/>
       <use x="160.986328" xlink:href="#DejaVuSans-101"/>
       <use x="222.509766" xlink:href="#DejaVuSans-114"/>
       <use x="263.607422" xlink:href="#DejaVuSans-103"/>
       <use x="327.083984" xlink:href="#DejaVuSans-101"/>
       <use x="388.607422" xlink:href="#DejaVuSans-100"/>
      </g>
     </g>
    </g>
    <g id="xtick_3">
     <g id="text_3">
      <!--     prio -->
      <defs>
       <path d="M 18.109375 8.203125 
L 18.109375 -20.796875 
L 9.078125 -20.796875 
L 9.078125 54.6875 
L 18.109375 54.6875 
L 18.109375 46.390625 
Q 20.953125 51.265625 25.265625 53.625 
Q 29.59375 56 35.59375 56 
Q 45.5625 56 51.78125 48.09375 
Q 58.015625 40.1875 58.015625 27.296875 
Q 58.015625 14.40625 51.78125 6.484375 
Q 45.5625 -1.421875 35.59375 -1.421875 
Q 29.59375 -1.421875 25.265625 0.953125 
Q 20.953125 3.328125 18.109375 8.203125 
z
M 48.6875 27.296875 
Q 48.6875 37.203125 44.609375 42.84375 
Q 40.53125 48.484375 33.40625 48.484375 
Q 26.265625 48.484375 22.1875 42.84375 
Q 18.109375 37.203125 18.109375 27.296875 
Q 18.109375 17.390625 22.1875 11.75 
Q 26.265625 6.109375 33.40625 6.109375 
Q 40.53125 6.109375 44.609375 11.75 
Q 48.6875 17.390625 48.6875 27.296875 
z
" id="DejaVuSans-112"/>
       <path d="M 30.609375 48.390625 
Q 23.390625 48.390625 19.1875 42.75 
Q 14.984375 37.109375 14.984375 27.296875 
Q 14.984375 17.484375 19.15625 11.84375 
Q 23.34375 6.203125 30.609375 6.203125 
Q 37.796875 6.203125 41.984375 11.859375 
Q 46.1875 17.53125 46.1875 27.296875 
Q 46.1875 37.015625 41.984375 42.703125 
Q 37.796875 48.390625 30.609375 48.390625 
z
M 30.609375 56 
Q 42.328125 56 49.015625 48.375 
Q 55.71875 40.765625 55.71875 27.296875 
Q 55.71875 13.875 49.015625 6.21875 
Q 42.328125 -1.421875 30.609375 -1.421875 
Q 18.84375 -1.421875 12.171875 6.21875 
Q 5.515625 13.875 5.515625 27.296875 
Q 5.515625 40.765625 12.171875 48.375 
Q 18.84375 56 30.609375 56 
z
" id="DejaVuSans-111"/>
      </defs>
      <g style="fill:#262626;" transform="translate(118.85045 395.6025)rotate(-90)scale(0.088 -0.088)">
       <use xlink:href="#DejaVuSans-32"/>
       <use x="31.787109" xlink:href="#DejaVuSans-32"/>
       <use x="63.574219" xlink:href="#DejaVuSans-32"/>
       <use x="95.361328" xlink:href="#DejaVuSans-32"/>
       <use x="127.148438" xlink:href="#DejaVuSans-112"/>
       <use x="190.625" xlink:href="#DejaVuSans-114"/>
       <use x="231.738281" xlink:href="#DejaVuSans-105"/>
       <use x="259.521484" xlink:href="#DejaVuSans-111"/>
      </g>
     </g>
    </g>
    <g id="xtick_4">
     <g id="text_4">
      <!--   kmeans -->
      <defs>
       <path d="M 9.078125 75.984375 
L 18.109375 75.984375 
L 18.109375 31.109375 
L 44.921875 54.6875 
L 56.390625 54.6875 
L 27.390625 29.109375 
L 57.625 0 
L 45.90625 0 
L 18.109375 26.703125 
L 18.109375 0 
L 9.078125 0 
z
" id="DejaVuSans-107"/>
       <path d="M 34.28125 27.484375 
Q 23.390625 27.484375 19.1875 25 
Q 14.984375 22.515625 14.984375 16.5 
Q 14.984375 11.71875 18.140625 8.90625 
Q 21.296875 6.109375 26.703125 6.109375 
Q 34.1875 6.109375 38.703125 11.40625 
Q 43.21875 16.703125 43.21875 25.484375 
L 43.21875 27.484375 
z
M 52.203125 31.203125 
L 52.203125 0 
L 43.21875 0 
L 43.21875 8.296875 
Q 40.140625 3.328125 35.546875 0.953125 
Q 30.953125 -1.421875 24.3125 -1.421875 
Q 15.921875 -1.421875 10.953125 3.296875 
Q 6 8.015625 6 15.921875 
Q 6 25.140625 12.171875 29.828125 
Q 18.359375 34.515625 30.609375 34.515625 
L 43.21875 34.515625 
L 43.21875 35.40625 
Q 43.21875 41.609375 39.140625 45 
Q 35.0625 48.390625 27.6875 48.390625 
Q 23 48.390625 18.546875 47.265625 
Q 14.109375 46.140625 10.015625 43.890625 
L 10.015625 52.203125 
Q 14.9375 54.109375 19.578125 55.046875 
Q 24.21875 56 28.609375 56 
Q 40.484375 56 46.34375 49.84375 
Q 52.203125 43.703125 52.203125 31.203125 
z
" id="DejaVuSans-97"/>
       <path d="M 54.890625 33.015625 
L 54.890625 0 
L 45.90625 0 
L 45.90625 32.71875 
Q 45.90625 40.484375 42.875 44.328125 
Q 39.84375 48.1875 33.796875 48.1875 
Q 26.515625 48.1875 22.3125 43.546875 
Q 18.109375 38.921875 18.109375 30.90625 
L 18.109375 0 
L 9.078125 0 
L 9.078125 54.6875 
L 18.109375 54.6875 
L 18.109375 46.1875 
Q 21.34375 51.125 25.703125 53.5625 
Q 30.078125 56 35.796875 56 
Q 45.21875 56 50.046875 50.171875 
Q 54.890625 44.34375 54.890625 33.015625 
z
" id="DejaVuSans-110"/>
      </defs>
      <g style="fill:#262626;" transform="translate(147.37213 407.61175)rotate(-90)scale(0.088 -0.088)">
       <use xlink:href="#DejaVuSans-32"/>
       <use x="31.787109" xlink:href="#DejaVuSans-32"/>
       <use x="63.574219" xlink:href="#DejaVuSans-107"/>
       <use x="121.484375" xlink:href="#DejaVuSans-109"/>
       <use x="218.896484" xlink:href="#DejaVuSans-101"/>
       <use x="280.419922" xlink:href="#DejaVuSans-97"/>
       <use x="341.699219" xlink:href="#DejaVuSans-110"/>
       <use x="405.078125" xlink:href="#DejaVuSans-115"/>
      </g>
     </g>
    </g>
    <g id="xtick_5">
     <g id="text_5">
      <!--     base -->
      <defs>
       <path d="M 48.6875 27.296875 
Q 48.6875 37.203125 44.609375 42.84375 
Q 40.53125 48.484375 33.40625 48.484375 
Q 26.265625 48.484375 22.1875 42.84375 
Q 18.109375 37.203125 18.109375 27.296875 
Q 18.109375 17.390625 22.1875 11.75 
Q 26.265625 6.109375 33.40625 6.109375 
Q 40.53125 6.109375 44.609375 11.75 
Q 48.6875 17.390625 48.6875 27.296875 
z
M 18.109375 46.390625 
Q 20.953125 51.265625 25.265625 53.625 
Q 29.59375 56 35.59375 56 
Q 45.5625 56 51.78125 48.09375 
Q 58.015625 40.1875 58.015625 27.296875 
Q 58.015625 14.40625 51.78125 6.484375 
Q 45.5625 -1.421875 35.59375 -1.421875 
Q 29.59375 -1.421875 25.265625 0.953125 
Q 20.953125 3.328125 18.109375 8.203125 
L 18.109375 0 
L 9.078125 0 
L 9.078125 75.984375 
L 18.109375 75.984375 
z
" id="DejaVuSans-98"/>
      </defs>
      <g style="fill:#262626;" transform="translate(175.89381 399.547375)rotate(-90)scale(0.088 -0.088)">
       <use xlink:href="#DejaVuSans-32"/>
       <use x="31.787109" xlink:href="#DejaVuSans-32"/>
       <use x="63.574219" xlink:href="#DejaVuSans-32"/>
       <use x="95.361328" xlink:href="#DejaVuSans-32"/>
       <use x="127.148438" xlink:href="#DejaVuSans-98"/>
       <use x="190.625" xlink:href="#DejaVuSans-97"/>
       <use x="251.904297" xlink:href="#DejaVuSans-115"/>
       <use x="304.003906" xlink:href="#DejaVuSans-101"/>
      </g>
     </g>
    </g>
    <g id="text_6">
     <!-- method  -->
     <defs>
      <path d="M 54.890625 33.015625 
L 54.890625 0 
L 45.90625 0 
L 45.90625 32.71875 
Q 45.90625 40.484375 42.875 44.328125 
Q 39.84375 48.1875 33.796875 48.1875 
Q 26.515625 48.1875 22.3125 43.546875 
Q 18.109375 38.921875 18.109375 30.90625 
L 18.109375 0 
L 9.078125 0 
L 9.078125 75.984375 
L 18.109375 75.984375 
L 18.109375 46.1875 
Q 21.34375 51.125 25.703125 53.5625 
Q 30.078125 56 35.796875 56 
Q 45.21875 56 50.046875 50.171875 
Q 54.890625 44.34375 54.890625 33.015625 
z
" id="DejaVuSans-104"/>
     </defs>
     <g style="fill:#262626;" transform="translate(96.3597 418.90625)scale(0.096 -0.096)">
      <use xlink:href="#DejaVuSans-109"/>
      <use x="97.412109" xlink:href="#DejaVuSans-101"/>
      <use x="158.935547" xlink:href="#DejaVuSans-116"/>
      <use x="198.144531" xlink:href="#DejaVuSans-104"/>
      <use x="261.523438" xlink:href="#DejaVuSans-111"/>
      <use x="322.705078" xlink:href="#DejaVuSans-100"/>
      <use x="386.181641" xlink:href="#DejaVuSans-32"/>
     </g>
    </g>
   </g>
   <g id="matplotlib.axis_2">
    <g id="ytick_1">
     <g id="line2d_1">
      <path clip-path="url(#p13797338fd)" d="M 45.118 308.480475 
L 187.7264 308.480475 
" style="fill:none;stroke:#ffffff;stroke-linecap:round;"/>
     </g>
     <g id="text_7">
      <!-- 20 -->
      <defs>
       <path d="M 19.1875 8.296875 
L 53.609375 8.296875 
L 53.609375 0 
L 7.328125 0 
L 7.328125 8.296875 
Q 12.9375 14.109375 22.625 23.890625 
Q 32.328125 33.6875 34.8125 36.53125 
Q 39.546875 41.84375 41.421875 45.53125 
Q 43.3125 49.21875 43.3125 52.78125 
Q 43.3125 58.59375 39.234375 62.25 
Q 35.15625 65.921875 28.609375 65.921875 
Q 23.96875 65.921875 18.8125 64.3125 
Q 13.671875 62.703125 7.8125 59.421875 
L 7.8125 69.390625 
Q 13.765625 71.78125 18.9375 73 
Q 24.125 74.21875 28.421875 74.21875 
Q 39.75 74.21875 46.484375 68.546875 
Q 53.21875 62.890625 53.21875 53.421875 
Q 53.21875 48.921875 51.53125 44.890625 
Q 49.859375 40.875 45.40625 35.40625 
Q 44.1875 33.984375 37.640625 27.21875 
Q 31.109375 20.453125 19.1875 8.296875 
z
" id="DejaVuSans-50"/>
       <path d="M 31.78125 66.40625 
Q 24.171875 66.40625 20.328125 58.90625 
Q 16.5 51.421875 16.5 36.375 
Q 16.5 21.390625 20.328125 13.890625 
Q 24.171875 6.390625 31.78125 6.390625 
Q 39.453125 6.390625 43.28125 13.890625 
Q 47.125 21.390625 47.125 36.375 
Q 47.125 51.421875 43.28125 58.90625 
Q 39.453125 66.40625 31.78125 66.40625 
z
M 31.78125 74.21875 
Q 44.046875 74.21875 50.515625 64.515625 
Q 56.984375 54.828125 56.984375 36.375 
Q 56.984375 17.96875 50.515625 8.265625 
Q 44.046875 -1.421875 31.78125 -1.421875 
Q 19.53125 -1.421875 13.0625 8.265625 
Q 6.59375 17.96875 6.59375 36.375 
Q 6.59375 54.828125 13.0625 64.515625 
Q 19.53125 74.21875 31.78125 74.21875 
z
" id="DejaVuSans-48"/>
      </defs>
      <g style="fill:#262626;" transform="translate(24.42 311.823788)scale(0.088 -0.088)">
       <use xlink:href="#DejaVuSans-50"/>
       <use x="63.623047" xlink:href="#DejaVuSans-48"/>
      </g>
     </g>
    </g>
    <g id="ytick_2">
     <g id="line2d_2">
      <path clip-path="url(#p13797338fd)" d="M 45.118 245.296798 
L 187.7264 245.296798 
" style="fill:none;stroke:#ffffff;stroke-linecap:round;"/>
     </g>
     <g id="text_8">
      <!-- 30 -->
      <defs>
       <path d="M 40.578125 39.3125 
Q 47.65625 37.796875 51.625 33 
Q 55.609375 28.21875 55.609375 21.1875 
Q 55.609375 10.40625 48.1875 4.484375 
Q 40.765625 -1.421875 27.09375 -1.421875 
Q 22.515625 -1.421875 17.65625 -0.515625 
Q 12.796875 0.390625 7.625 2.203125 
L 7.625 11.71875 
Q 11.71875 9.328125 16.59375 8.109375 
Q 21.484375 6.890625 26.8125 6.890625 
Q 36.078125 6.890625 40.9375 10.546875 
Q 45.796875 14.203125 45.796875 21.1875 
Q 45.796875 27.640625 41.28125 31.265625 
Q 36.765625 34.90625 28.71875 34.90625 
L 20.21875 34.90625 
L 20.21875 43.015625 
L 29.109375 43.015625 
Q 36.375 43.015625 40.234375 45.921875 
Q 44.09375 48.828125 44.09375 54.296875 
Q 44.09375 59.90625 40.109375 62.90625 
Q 36.140625 65.921875 28.71875 65.921875 
Q 24.65625 65.921875 20.015625 65.03125 
Q 15.375 64.15625 9.8125 62.3125 
L 9.8125 71.09375 
Q 15.4375 72.65625 20.34375 73.4375 
Q 25.25 74.21875 29.59375 74.21875 
Q 40.828125 74.21875 47.359375 69.109375 
Q 53.90625 64.015625 53.90625 55.328125 
Q 53.90625 49.265625 50.4375 45.09375 
Q 46.96875 40.921875 40.578125 39.3125 
z
" id="DejaVuSans-51"/>
      </defs>
      <g style="fill:#262626;" transform="translate(24.42 248.640111)scale(0.088 -0.088)">
       <use xlink:href="#DejaVuSans-51"/>
       <use x="63.623047" xlink:href="#DejaVuSans-48"/>
      </g>
     </g>
    </g>
    <g id="ytick_3">
     <g id="line2d_3">
      <path clip-path="url(#p13797338fd)" d="M 45.118 182.113121 
L 187.7264 182.113121 
" style="fill:none;stroke:#ffffff;stroke-linecap:round;"/>
     </g>
     <g id="text_9">
      <!-- 40 -->
      <defs>
       <path d="M 37.796875 64.3125 
L 12.890625 25.390625 
L 37.796875 25.390625 
z
M 35.203125 72.90625 
L 47.609375 72.90625 
L 47.609375 25.390625 
L 58.015625 25.390625 
L 58.015625 17.1875 
L 47.609375 17.1875 
L 47.609375 0 
L 37.796875 0 
L 37.796875 17.1875 
L 4.890625 17.1875 
L 4.890625 26.703125 
z
" id="DejaVuSans-52"/>
      </defs>
      <g style="fill:#262626;" transform="translate(24.42 185.456434)scale(0.088 -0.088)">
       <use xlink:href="#DejaVuSans-52"/>
       <use x="63.623047" xlink:href="#DejaVuSans-48"/>
      </g>
     </g>
    </g>
    <g id="ytick_4">
     <g id="line2d_4">
      <path clip-path="url(#p13797338fd)" d="M 45.118 118.929444 
L 187.7264 118.929444 
" style="fill:none;stroke:#ffffff;stroke-linecap:round;"/>
     </g>
     <g id="text_10">
      <!-- 50 -->
      <defs>
       <path d="M 10.796875 72.90625 
L 49.515625 72.90625 
L 49.515625 64.59375 
L 19.828125 64.59375 
L 19.828125 46.734375 
Q 21.96875 47.46875 24.109375 47.828125 
Q 26.265625 48.1875 28.421875 48.1875 
Q 40.625 48.1875 47.75 41.5 
Q 54.890625 34.8125 54.890625 23.390625 
Q 54.890625 11.625 47.5625 5.09375 
Q 40.234375 -1.421875 26.90625 -1.421875 
Q 22.3125 -1.421875 17.546875 -0.640625 
Q 12.796875 0.140625 7.71875 1.703125 
L 7.71875 11.625 
Q 12.109375 9.234375 16.796875 8.0625 
Q 21.484375 6.890625 26.703125 6.890625 
Q 35.15625 6.890625 40.078125 11.328125 
Q 45.015625 15.765625 45.015625 23.390625 
Q 45.015625 31 40.078125 35.4375 
Q 35.15625 39.890625 26.703125 39.890625 
Q 22.75 39.890625 18.8125 39.015625 
Q 14.890625 38.140625 10.796875 36.28125 
z
" id="DejaVuSans-53"/>
      </defs>
      <g style="fill:#262626;" transform="translate(24.42 122.272757)scale(0.088 -0.088)">
       <use xlink:href="#DejaVuSans-53"/>
       <use x="63.623047" xlink:href="#DejaVuSans-48"/>
      </g>
     </g>
    </g>
    <g id="ytick_5">
     <g id="line2d_5">
      <path clip-path="url(#p13797338fd)" d="M 45.118 55.745768 
L 187.7264 55.745768 
" style="fill:none;stroke:#ffffff;stroke-linecap:round;"/>
     </g>
     <g id="text_11">
      <!-- 60 -->
      <defs>
       <path d="M 33.015625 40.375 
Q 26.375 40.375 22.484375 35.828125 
Q 18.609375 31.296875 18.609375 23.390625 
Q 18.609375 15.53125 22.484375 10.953125 
Q 26.375 6.390625 33.015625 6.390625 
Q 39.65625 6.390625 43.53125 10.953125 
Q 47.40625 15.53125 47.40625 23.390625 
Q 47.40625 31.296875 43.53125 35.828125 
Q 39.65625 40.375 33.015625 40.375 
z
M 52.59375 71.296875 
L 52.59375 62.3125 
Q 48.875 64.0625 45.09375 64.984375 
Q 41.3125 65.921875 37.59375 65.921875 
Q 27.828125 65.921875 22.671875 59.328125 
Q 17.53125 52.734375 16.796875 39.40625 
Q 19.671875 43.65625 24.015625 45.921875 
Q 28.375 48.1875 33.59375 48.1875 
Q 44.578125 48.1875 50.953125 41.515625 
Q 57.328125 34.859375 57.328125 23.390625 
Q 57.328125 12.15625 50.6875 5.359375 
Q 44.046875 -1.421875 33.015625 -1.421875 
Q 20.359375 -1.421875 13.671875 8.265625 
Q 6.984375 17.96875 6.984375 36.375 
Q 6.984375 53.65625 15.1875 63.9375 
Q 23.390625 74.21875 37.203125 74.21875 
Q 40.921875 74.21875 44.703125 73.484375 
Q 48.484375 72.75 52.59375 71.296875 
z
" id="DejaVuSans-54"/>
      </defs>
      <g style="fill:#262626;" transform="translate(24.42 59.08908)scale(0.088 -0.088)">
       <use xlink:href="#DejaVuSans-54"/>
       <use x="63.623047" xlink:href="#DejaVuSans-48"/>
      </g>
     </g>
    </g>
    <g id="text_12">
     <!-- hitrate -->
     <g style="fill:#262626;" transform="translate(18.4235 207.13225)rotate(-90)scale(0.096 -0.096)">
      <use xlink:href="#DejaVuSans-104"/>
      <use x="63.378906" xlink:href="#DejaVuSans-105"/>
      <use x="91.162109" xlink:href="#DejaVuSans-116"/>
      <use x="130.371094" xlink:href="#DejaVuSans-114"/>
      <use x="171.484375" xlink:href="#DejaVuSans-97"/>
      <use x="232.763672" xlink:href="#DejaVuSans-116"/>
      <use x="271.972656" xlink:href="#DejaVuSans-101"/>
     </g>
    </g>
   </g>
   <g id="PathCollection_1">
    <defs>
     <path d="M -0 4.242641 
L 2.545584 0 
L 0 -4.242641 
L -2.545584 -0 
z
" id="m49e348e513" style="stroke:#c282b5;"/>
    </defs>
    <g clip-path="url(#p13797338fd)">
     <use style="fill:#c282b5;stroke:#c282b5;" x="173.46556" xlink:href="#m49e348e513" y="340.072313"/>
     <use style="fill:#c282b5;stroke:#c282b5;" x="173.46556" xlink:href="#m49e348e513" y="340.072313"/>
     <use style="fill:#c282b5;stroke:#c282b5;" x="173.46556" xlink:href="#m49e348e513" y="340.072313"/>
     <use style="fill:#c282b5;stroke:#c282b5;" x="173.46556" xlink:href="#m49e348e513" y="340.072313"/>
     <use style="fill:#c282b5;stroke:#c282b5;" x="173.46556" xlink:href="#m49e348e513" y="163.158018"/>
     <use style="fill:#c282b5;stroke:#c282b5;" x="173.46556" xlink:href="#m49e348e513" y="169.476386"/>
    </g>
   </g>
   <g id="PatchCollection_1">
    <path clip-path="url(#p13797338fd)" d="M 173.420995 338.67166 
L 173.510125 338.67166 
L 173.510125 188.431489 
L 173.420995 188.431489 
z
" style="fill:#ffffff;stroke:#ffffff;"/>
    <path clip-path="url(#p13797338fd)" d="M 173.37643 333.753946 
L 173.55469 333.753946 
L 173.55469 191.232797 
L 173.37643 191.232797 
z
" style="fill:#f7eff6;stroke:#ffffff;"/>
    <path clip-path="url(#p13797338fd)" d="M 173.287299 327.435578 
L 173.64382 327.435578 
L 173.64382 201.068224 
L 173.287299 201.068224 
z
" style="fill:#f0e0ed;stroke:#ffffff;"/>
    <path clip-path="url(#p13797338fd)" d="M 173.109039 321.11721 
L 173.822081 321.11721 
L 173.822081 213.70496 
L 173.109039 213.70496 
z
" style="fill:#e8d0e3;stroke:#ffffff;"/>
    <path clip-path="url(#p13797338fd)" d="M 172.752518 314.798843 
L 174.178602 314.798843 
L 174.178602 220.023327 
L 172.752518 220.023327 
z
" style="fill:#e0c1da;stroke:#ffffff;"/>
    <path clip-path="url(#p13797338fd)" d="M 172.039476 308.480475 
L 174.891644 308.480475 
L 174.891644 226.341695 
L 172.039476 226.341695 
z
" style="fill:#d8b1d1;stroke:#ffffff;"/>
    <path clip-path="url(#p13797338fd)" d="M 170.613392 298.371087 
L 176.317728 298.371087 
L 176.317728 238.97843 
L 170.613392 238.97843 
z
" style="fill:#d1a1c8;stroke:#ffffff;"/>
    <path clip-path="url(#p13797338fd)" d="M 167.761224 290.427996 
L 179.169896 290.427996 
L 179.169896 247.102046 
L 167.761224 247.102046 
z
" style="fill:#c992be;stroke:#ffffff;"/>
    <path clip-path="url(#p13797338fd)" d="M 162.056888 281.522106 
L 184.874232 281.522106 
L 184.874232 257.933534 
L 162.056888 257.933534 
z
" style="fill:#c282b5;stroke:#ffffff;"/>
   </g>
   <g id="line2d_6">
    <path clip-path="url(#p13797338fd)" d="M 162.056888 269.72782 
L 184.874232 269.72782 
" style="fill:none;stroke:#262626;stroke-linecap:round;stroke-opacity:0.45;stroke-width:1.5;"/>
   </g>
   <g id="patch_3">
    <path d="M 45.118 357.882 
L 45.118 24.368 
" style="fill:none;stroke:#ffffff;stroke-linecap:square;stroke-linejoin:miter;stroke-width:1.25;"/>
   </g>
   <g id="patch_4">
    <path d="M 45.118 357.882 
L 187.7264 357.882 
" style="fill:none;stroke:#ffffff;stroke-linecap:square;stroke-linejoin:miter;stroke-width:1.25;"/>
   </g>
   <g id="text_13">
    <!-- clusters = 1 -->
    <defs>
     <path d="M 48.78125 52.59375 
L 48.78125 44.1875 
Q 44.96875 46.296875 41.140625 47.34375 
Q 37.3125 48.390625 33.40625 48.390625 
Q 24.65625 48.390625 19.8125 42.84375 
Q 14.984375 37.3125 14.984375 27.296875 
Q 14.984375 17.28125 19.8125 11.734375 
Q 24.65625 6.203125 33.40625 6.203125 
Q 37.3125 6.203125 41.140625 7.25 
Q 44.96875 8.296875 48.78125 10.40625 
L 48.78125 2.09375 
Q 45.015625 0.34375 40.984375 -0.53125 
Q 36.96875 -1.421875 32.421875 -1.421875 
Q 20.0625 -1.421875 12.78125 6.34375 
Q 5.515625 14.109375 5.515625 27.296875 
Q 5.515625 40.671875 12.859375 48.328125 
Q 20.21875 56 33.015625 56 
Q 37.15625 56 41.109375 55.140625 
Q 45.0625 54.296875 48.78125 52.59375 
z
" id="DejaVuSans-99"/>
     <path d="M 9.421875 75.984375 
L 18.40625 75.984375 
L 18.40625 0 
L 9.421875 0 
z
" id="DejaVuSans-108"/>
     <path d="M 8.5 21.578125 
L 8.5 54.6875 
L 17.484375 54.6875 
L 17.484375 21.921875 
Q 17.484375 14.15625 20.5 10.265625 
Q 23.53125 6.390625 29.59375 6.390625 
Q 36.859375 6.390625 41.078125 11.03125 
Q 45.3125 15.671875 45.3125 23.6875 
L 45.3125 54.6875 
L 54.296875 54.6875 
L 54.296875 0 
L 45.3125 0 
L 45.3125 8.40625 
Q 42.046875 3.421875 37.71875 1 
Q 33.40625 -1.421875 27.6875 -1.421875 
Q 18.265625 -1.421875 13.375 4.4375 
Q 8.5 10.296875 8.5 21.578125 
z
M 31.109375 56 
z
" id="DejaVuSans-117"/>
     <path d="M 10.59375 45.40625 
L 73.1875 45.40625 
L 73.1875 37.203125 
L 10.59375 37.203125 
z
M 10.59375 25.484375 
L 73.1875 25.484375 
L 73.1875 17.1875 
L 10.59375 17.1875 
z
" id="DejaVuSans-61"/>
     <path d="M 12.40625 8.296875 
L 28.515625 8.296875 
L 28.515625 63.921875 
L 10.984375 60.40625 
L 10.984375 69.390625 
L 28.421875 72.90625 
L 38.28125 72.90625 
L 38.28125 8.296875 
L 54.390625 8.296875 
L 54.390625 0 
L 12.40625 0 
z
" id="DejaVuSans-49"/>
    </defs>
    <g style="fill:#262626;" transform="translate(87.4707 18.368)scale(0.096 -0.096)">
     <use xlink:href="#DejaVuSans-99"/>
     <use x="54.980469" xlink:href="#DejaVuSans-108"/>
     <use x="82.763672" xlink:href="#DejaVuSans-117"/>
     <use x="146.142578" xlink:href="#DejaVuSans-115"/>
     <use x="198.242188" xlink:href="#DejaVuSans-116"/>
     <use x="237.451172" xlink:href="#DejaVuSans-101"/>
     <use x="298.974609" xlink:href="#DejaVuSans-114"/>
     <use x="340.087891" xlink:href="#DejaVuSans-115"/>
     <use x="392.1875" xlink:href="#DejaVuSans-32"/>
     <use x="423.974609" xlink:href="#DejaVuSans-61"/>
     <use x="507.763672" xlink:href="#DejaVuSans-32"/>
     <use x="539.550781" xlink:href="#DejaVuSans-49"/>
    </g>
   </g>
  </g>
  <g id="axes_2">
   <g id="patch_5">
    <path d="M 210.0944 357.882 
L 352.7028 357.882 
L 352.7028 24.368 
L 210.0944 24.368 
z
" style="fill:#eaeaf2;"/>
   </g>
   <g id="matplotlib.axis_3">
    <g id="xtick_6">
     <g id="text_14">
      <!--    metis -->
      <g style="fill:#262626;" transform="translate(226.78349 400.237625)rotate(-90)scale(0.088 -0.088)">
       <use xlink:href="#DejaVuSans-32"/>
       <use x="31.787109" xlink:href="#DejaVuSans-32"/>
       <use x="63.574219" xlink:href="#DejaVuSans-32"/>
       <use x="95.361328" xlink:href="#DejaVuSans-109"/>
       <use x="192.773438" xlink:href="#DejaVuSans-101"/>
       <use x="254.296875" xlink:href="#DejaVuSans-116"/>
       <use x="293.505859" xlink:href="#DejaVuSans-105"/>
       <use x="321.289062" xlink:href="#DejaVuSans-115"/>
      </g>
     </g>
    </g>
    <g id="xtick_7">
     <g id="text_15">
      <!--   merged -->
      <g style="fill:#262626;" transform="translate(255.30517 407.16625)rotate(-90)scale(0.088 -0.088)">
       <use xlink:href="#DejaVuSans-32"/>
       <use x="31.787109" xlink:href="#DejaVuSans-32"/>
       <use x="63.574219" xlink:href="#DejaVuSans-109"/>
       <use x="160.986328" xlink:href="#DejaVuSans-101"/>
       <use x="222.509766" xlink:href="#DejaVuSans-114"/>
       <use x="263.607422" xlink:href="#DejaVuSans-103"/>
       <use x="327.083984" xlink:href="#DejaVuSans-101"/>
       <use x="388.607422" xlink:href="#DejaVuSans-100"/>
      </g>
     </g>
    </g>
    <g id="xtick_8">
     <g id="text_16">
      <!--     prio -->
      <g style="fill:#262626;" transform="translate(283.82685 395.6025)rotate(-90)scale(0.088 -0.088)">
       <use xlink:href="#DejaVuSans-32"/>
       <use x="31.787109" xlink:href="#DejaVuSans-32"/>
       <use x="63.574219" xlink:href="#DejaVuSans-32"/>
       <use x="95.361328" xlink:href="#DejaVuSans-32"/>
       <use x="127.148438" xlink:href="#DejaVuSans-112"/>
       <use x="190.625" xlink:href="#DejaVuSans-114"/>
       <use x="231.738281" xlink:href="#DejaVuSans-105"/>
       <use x="259.521484" xlink:href="#DejaVuSans-111"/>
      </g>
     </g>
    </g>
    <g id="xtick_9">
     <g id="text_17">
      <!--   kmeans -->
      <g style="fill:#262626;" transform="translate(312.34853 407.61175)rotate(-90)scale(0.088 -0.088)">
       <use xlink:href="#DejaVuSans-32"/>
       <use x="31.787109" xlink:href="#DejaVuSans-32"/>
       <use x="63.574219" xlink:href="#DejaVuSans-107"/>
       <use x="121.484375" xlink:href="#DejaVuSans-109"/>
       <use x="218.896484" xlink:href="#DejaVuSans-101"/>
       <use x="280.419922" xlink:href="#DejaVuSans-97"/>
       <use x="341.699219" xlink:href="#DejaVuSans-110"/>
       <use x="405.078125" xlink:href="#DejaVuSans-115"/>
      </g>
     </g>
    </g>
    <g id="xtick_10">
     <g id="text_18">
      <!--     base -->
      <g style="fill:#262626;" transform="translate(340.87021 399.547375)rotate(-90)scale(0.088 -0.088)">
       <use xlink:href="#DejaVuSans-32"/>
       <use x="31.787109" xlink:href="#DejaVuSans-32"/>
       <use x="63.574219" xlink:href="#DejaVuSans-32"/>
       <use x="95.361328" xlink:href="#DejaVuSans-32"/>
       <use x="127.148438" xlink:href="#DejaVuSans-98"/>
       <use x="190.625" xlink:href="#DejaVuSans-97"/>
       <use x="251.904297" xlink:href="#DejaVuSans-115"/>
       <use x="304.003906" xlink:href="#DejaVuSans-101"/>
      </g>
     </g>
    </g>
    <g id="text_19">
     <!-- method  -->
     <g style="fill:#262626;" transform="translate(261.3361 418.90625)scale(0.096 -0.096)">
      <use xlink:href="#DejaVuSans-109"/>
      <use x="97.412109" xlink:href="#DejaVuSans-101"/>
      <use x="158.935547" xlink:href="#DejaVuSans-116"/>
      <use x="198.144531" xlink:href="#DejaVuSans-104"/>
      <use x="261.523438" xlink:href="#DejaVuSans-111"/>
      <use x="322.705078" xlink:href="#DejaVuSans-100"/>
      <use x="386.181641" xlink:href="#DejaVuSans-32"/>
     </g>
    </g>
   </g>
   <g id="matplotlib.axis_4">
    <g id="ytick_6">
     <g id="line2d_7">
      <path clip-path="url(#p2ed7b9ffb9)" d="M 210.0944 308.480475 
L 352.7028 308.480475 
" style="fill:none;stroke:#ffffff;stroke-linecap:round;"/>
     </g>
    </g>
    <g id="ytick_7">
     <g id="line2d_8">
      <path clip-path="url(#p2ed7b9ffb9)" d="M 210.0944 245.296798 
L 352.7028 245.296798 
" style="fill:none;stroke:#ffffff;stroke-linecap:round;"/>
     </g>
    </g>
    <g id="ytick_8">
     <g id="line2d_9">
      <path clip-path="url(#p2ed7b9ffb9)" d="M 210.0944 182.113121 
L 352.7028 182.113121 
" style="fill:none;stroke:#ffffff;stroke-linecap:round;"/>
     </g>
    </g>
    <g id="ytick_9">
     <g id="line2d_10">
      <path clip-path="url(#p2ed7b9ffb9)" d="M 210.0944 118.929444 
L 352.7028 118.929444 
" style="fill:none;stroke:#ffffff;stroke-linecap:round;"/>
     </g>
    </g>
    <g id="ytick_10">
     <g id="line2d_11">
      <path clip-path="url(#p2ed7b9ffb9)" d="M 210.0944 55.745768 
L 352.7028 55.745768 
" style="fill:none;stroke:#ffffff;stroke-linecap:round;"/>
     </g>
    </g>
   </g>
   <g id="PathCollection_2">
    <defs>
     <path d="M -0 4.242641 
L 2.545584 0 
L 0 -4.242641 
L -2.545584 -0 
z
" id="m80c505bec6" style="stroke:#176d9c;"/>
    </defs>
    <g clip-path="url(#p2ed7b9ffb9)">
     <use style="fill:#176d9c;stroke:#176d9c;" x="224.35524" xlink:href="#m80c505bec6" y="333.753946"/>
     <use style="fill:#176d9c;stroke:#176d9c;" x="224.35524" xlink:href="#m80c505bec6" y="333.753946"/>
     <use style="fill:#176d9c;stroke:#176d9c;" x="224.35524" xlink:href="#m80c505bec6" y="333.753946"/>
     <use style="fill:#176d9c;stroke:#176d9c;" x="224.35524" xlink:href="#m80c505bec6" y="163.158018"/>
     <use style="fill:#176d9c;stroke:#176d9c;" x="224.35524" xlink:href="#m80c505bec6" y="150.521283"/>
     <use style="fill:#176d9c;stroke:#176d9c;" x="224.35524" xlink:href="#m80c505bec6" y="163.158018"/>
    </g>
   </g>
   <g id="PatchCollection_2">
    <path clip-path="url(#p2ed7b9ffb9)" d="M 224.310675 327.435578 
L 224.399805 327.435578 
L 224.399805 169.476386 
L 224.310675 169.476386 
z
" style="fill:#ffffff;stroke:#ffffff;"/>
    <path clip-path="url(#p2ed7b9ffb9)" d="M 224.26611 320.316837 
L 224.44437 320.316837 
L 224.44437 172.277693 
L 224.26611 172.277693 
z
" style="fill:#e2edf3;stroke:#ffffff;"/>
    <path clip-path="url(#p2ed7b9ffb9)" d="M 224.17698 314.798843 
L 224.533501 314.798843 
L 224.533501 181.70412 
L 224.17698 181.70412 
z
" style="fill:#c5dae6;stroke:#ffffff;"/>
    <path clip-path="url(#p2ed7b9ffb9)" d="M 223.998719 308.480475 
L 224.711761 308.480475 
L 224.711761 188.431489 
L 223.998719 188.431489 
z
" style="fill:#a8c8da;stroke:#ffffff;"/>
    <path clip-path="url(#p2ed7b9ffb9)" d="M 223.642198 295.84374 
L 225.068282 295.84374 
L 225.068282 194.749857 
L 223.642198 194.749857 
z
" style="fill:#8bb6cd;stroke:#ffffff;"/>
    <path clip-path="url(#p2ed7b9ffb9)" d="M 222.929156 289.525372 
L 225.781324 289.525372 
L 225.781324 203.776096 
L 222.929156 203.776096 
z
" style="fill:#6ea3c1;stroke:#ffffff;"/>
    <path clip-path="url(#p2ed7b9ffb9)" d="M 221.503072 279.596508 
L 227.207408 279.596508 
L 227.207408 213.70496 
L 221.503072 213.70496 
z
" style="fill:#5091b4;stroke:#ffffff;"/>
    <path clip-path="url(#p2ed7b9ffb9)" d="M 218.650904 270.570269 
L 230.059576 270.570269 
L 230.059576 225.920471 
L 218.650904 225.920471 
z
" style="fill:#337ea8;stroke:#ffffff;"/>
    <path clip-path="url(#p2ed7b9ffb9)" d="M 212.946568 260.460881 
L 235.763912 260.460881 
L 235.763912 236.029859 
L 212.946568 236.029859 
z
" style="fill:#176d9c;stroke:#ffffff;"/>
   </g>
   <g id="PathCollection_3">
    <defs>
     <path d="M -0 4.242641 
L 2.545584 0 
L 0 -4.242641 
L -2.545584 -0 
z
" id="mae205b6ab4" style="stroke:#c38820;"/>
    </defs>
    <g clip-path="url(#p2ed7b9ffb9)">
     <use style="fill:#c38820;stroke:#c38820;" x="252.87692" xlink:href="#mae205b6ab4" y="327.435578"/>
     <use style="fill:#c38820;stroke:#c38820;" x="252.87692" xlink:href="#mae205b6ab4" y="327.435578"/>
     <use style="fill:#c38820;stroke:#c38820;" x="252.87692" xlink:href="#mae205b6ab4" y="163.158018"/>
     <use style="fill:#c38820;stroke:#c38820;" x="252.87692" xlink:href="#mae205b6ab4" y="144.202915"/>
     <use style="fill:#c38820;stroke:#c38820;" x="252.87692" xlink:href="#mae205b6ab4" y="163.158018"/>
     <use style="fill:#c38820;stroke:#c38820;" x="252.87692" xlink:href="#mae205b6ab4" y="150.521283"/>
    </g>
   </g>
   <g id="PatchCollection_3">
    <path clip-path="url(#p2ed7b9ffb9)" d="M 252.832355 321.11721 
L 252.921485 321.11721 
L 252.921485 164.558672 
L 252.832355 164.558672 
z
" style="fill:#ffffff;stroke:#ffffff;"/>
    <path clip-path="url(#p2ed7b9ffb9)" d="M 252.78779 314.798843 
L 252.96605 314.798843 
L 252.96605 175.794754 
L 252.78779 175.794754 
z
" style="fill:#f7f0e3;stroke:#ffffff;"/>
    <path clip-path="url(#p2ed7b9ffb9)" d="M 252.698659 314.798843 
L 253.055181 314.798843 
L 253.055181 178.195874 
L 252.698659 178.195874 
z
" style="fill:#f0e1c7;stroke:#ffffff;"/>
    <path clip-path="url(#p2ed7b9ffb9)" d="M 252.520399 305.687982 
L 253.233441 305.687982 
L 253.233441 188.431489 
L 252.520399 188.431489 
z
" style="fill:#e8d2ab;stroke:#ffffff;"/>
    <path clip-path="url(#p2ed7b9ffb9)" d="M 252.163878 295.84374 
L 253.589962 295.84374 
L 253.589962 194.749857 
L 252.163878 194.749857 
z
" style="fill:#e1c38f;stroke:#ffffff;"/>
    <path clip-path="url(#p2ed7b9ffb9)" d="M 251.450836 289.525372 
L 254.303004 289.525372 
L 254.303004 207.386592 
L 251.450836 207.386592 
z
" style="fill:#d9b473;stroke:#ffffff;"/>
    <path clip-path="url(#p2ed7b9ffb9)" d="M 250.024752 279.596508 
L 255.729088 279.596508 
L 255.729088 213.70496 
L 250.024752 213.70496 
z
" style="fill:#d2a557;stroke:#ffffff;"/>
    <path clip-path="url(#p2ed7b9ffb9)" d="M 247.172584 270.570269 
L 258.581256 270.570269 
L 258.581256 225.439071 
L 247.172584 225.439071 
z
" style="fill:#ca963b;stroke:#ffffff;"/>
    <path clip-path="url(#p2ed7b9ffb9)" d="M 241.468248 260.460881 
L 264.285592 260.460881 
L 264.285592 235.18741 
L 241.468248 235.18741 
z
" style="fill:#c38820;stroke:#ffffff;"/>
   </g>
   <g id="PathCollection_4">
    <defs>
     <path d="M -0 4.242641 
L 2.545584 0 
L 0 -4.242641 
L -2.545584 -0 
z
" id="m4b83c4ae51" style="stroke:#158b6a;"/>
    </defs>
    <g clip-path="url(#p2ed7b9ffb9)">
     <use style="fill:#158b6a;stroke:#158b6a;" x="281.3986" xlink:href="#m4b83c4ae51" y="327.435578"/>
     <use style="fill:#158b6a;stroke:#158b6a;" x="281.3986" xlink:href="#m4b83c4ae51" y="333.753946"/>
     <use style="fill:#158b6a;stroke:#158b6a;" x="281.3986" xlink:href="#m4b83c4ae51" y="333.753946"/>
     <use style="fill:#158b6a;stroke:#158b6a;" x="281.3986" xlink:href="#m4b83c4ae51" y="340.072313"/>
     <use style="fill:#158b6a;stroke:#158b6a;" x="281.3986" xlink:href="#m4b83c4ae51" y="125.247812"/>
     <use style="fill:#158b6a;stroke:#158b6a;" x="281.3986" xlink:href="#m4b83c4ae51" y="144.202915"/>
     <use style="fill:#158b6a;stroke:#158b6a;" x="281.3986" xlink:href="#m4b83c4ae51" y="144.202915"/>
     <use style="fill:#158b6a;stroke:#158b6a;" x="281.3986" xlink:href="#m4b83c4ae51" y="144.202915"/>
    </g>
   </g>
   <g id="PatchCollection_4">
    <path clip-path="url(#p2ed7b9ffb9)" d="M 281.354035 322.949784 
L 281.443165 322.949784 
L 281.443165 148.688709 
L 281.354035 148.688709 
z
" style="fill:#ffffff;stroke:#ffffff;"/>
    <path clip-path="url(#p2ed7b9ffb9)" d="M 281.30947 314.798843 
L 281.48773 314.798843 
L 281.48773 163.158018 
L 281.30947 163.158018 
z
" style="fill:#e2f0ec;stroke:#ffffff;"/>
    <path clip-path="url(#p2ed7b9ffb9)" d="M 281.220339 308.480475 
L 281.57686 308.480475 
L 281.57686 175.794754 
L 281.220339 175.794754 
z
" style="fill:#c4e2da;stroke:#ffffff;"/>
    <path clip-path="url(#p2ed7b9ffb9)" d="M 281.042079 302.162107 
L 281.755121 302.162107 
L 281.755121 182.113121 
L 281.042079 182.113121 
z
" style="fill:#a7d3c7;stroke:#ffffff;"/>
    <path clip-path="url(#p2ed7b9ffb9)" d="M 280.685558 295.84374 
L 282.111642 295.84374 
L 282.111642 194.749857 
L 280.685558 194.749857 
z
" style="fill:#8ac5b4;stroke:#ffffff;"/>
    <path clip-path="url(#p2ed7b9ffb9)" d="M 279.972516 283.207004 
L 282.824684 283.207004 
L 282.824684 201.068224 
L 279.972516 201.068224 
z
" style="fill:#6cb6a2;stroke:#ffffff;"/>
    <path clip-path="url(#p2ed7b9ffb9)" d="M 278.546432 275.624963 
L 284.250768 275.624963 
L 284.250768 210.997088 
L 278.546432 210.997088 
z
" style="fill:#4fa78f;stroke:#ffffff;"/>
    <path clip-path="url(#p2ed7b9ffb9)" d="M 275.694264 264.251901 
L 287.102936 264.251901 
L 287.102936 220.655164 
L 275.694264 220.655164 
z
" style="fill:#32997c;stroke:#ffffff;"/>
    <path clip-path="url(#p2ed7b9ffb9)" d="M 269.989928 254.563737 
L 292.807272 254.563737 
L 292.807272 232.660063 
L 269.989928 232.660063 
z
" style="fill:#158b6a;stroke:#ffffff;"/>
   </g>
   <g id="PathCollection_5">
    <defs>
     <path d="M -0 4.242641 
L 2.545584 0 
L 0 -4.242641 
L -2.545584 -0 
z
" id="mdccf4658fa" style="stroke:#ba611b;"/>
    </defs>
    <g clip-path="url(#p2ed7b9ffb9)">
     <use style="fill:#ba611b;stroke:#ba611b;" x="309.92028" xlink:href="#mdccf4658fa" y="333.753946"/>
     <use style="fill:#ba611b;stroke:#ba611b;" x="309.92028" xlink:href="#mdccf4658fa" y="333.753946"/>
     <use style="fill:#ba611b;stroke:#ba611b;" x="309.92028" xlink:href="#mdccf4658fa" y="175.794754"/>
     <use style="fill:#ba611b;stroke:#ba611b;" x="309.92028" xlink:href="#mdccf4658fa" y="156.839651"/>
    </g>
   </g>
   <g id="PatchCollection_5">
    <path clip-path="url(#p2ed7b9ffb9)" d="M 309.875715 327.435578 
L 309.964845 327.435578 
L 309.964845 182.113121 
L 309.875715 182.113121 
z
" style="fill:#ffffff;stroke:#ffffff;"/>
    <path clip-path="url(#p2ed7b9ffb9)" d="M 309.83115 324.634271 
L 310.00941 324.634271 
L 310.00941 188.431489 
L 309.83115 188.431489 
z
" style="fill:#f6ebe2;stroke:#ffffff;"/>
    <path clip-path="url(#p2ed7b9ffb9)" d="M 309.742019 321.11721 
L 310.09854 321.11721 
L 310.09854 188.431489 
L 309.742019 188.431489 
z
" style="fill:#eed7c6;stroke:#ffffff;"/>
    <path clip-path="url(#p2ed7b9ffb9)" d="M 309.563759 314.798843 
L 310.276801 314.798843 
L 310.276801 194.749857 
L 309.563759 194.749857 
z
" style="fill:#e5c4a9;stroke:#ffffff;"/>
    <path clip-path="url(#p2ed7b9ffb9)" d="M 309.207238 302.162107 
L 310.633322 302.162107 
L 310.633322 207.386592 
L 309.207238 207.386592 
z
" style="fill:#ddb08c;stroke:#ffffff;"/>
    <path clip-path="url(#p2ed7b9ffb9)" d="M 308.494196 295.001291 
L 311.346364 295.001291 
L 311.346364 213.70496 
L 308.494196 213.70496 
z
" style="fill:#d49c70;stroke:#ffffff;"/>
    <path clip-path="url(#p2ed7b9ffb9)" d="M 307.068112 284.891902 
L 312.772448 284.891902 
L 312.772448 225.078022 
L 307.068112 225.078022 
z
" style="fill:#cb8853;stroke:#ffffff;"/>
    <path clip-path="url(#p2ed7b9ffb9)" d="M 304.215944 276.888637 
L 315.624616 276.888637 
L 315.624616 232.660063 
L 304.215944 232.660063 
z
" style="fill:#c37436;stroke:#ffffff;"/>
    <path clip-path="url(#p2ed7b9ffb9)" d="M 298.511608 266.358024 
L 321.328952 266.358024 
L 321.328952 242.769451 
L 298.511608 242.769451 
z
" style="fill:#ba611b;stroke:#ffffff;"/>
   </g>
   <g id="line2d_12">
    <path clip-path="url(#p2ed7b9ffb9)" d="M 212.946568 247.824145 
L 235.763912 247.824145 
" style="fill:none;stroke:#262626;stroke-linecap:round;stroke-opacity:0.45;stroke-width:1.5;"/>
   </g>
   <g id="line2d_13">
    <path clip-path="url(#p2ed7b9ffb9)" d="M 241.468248 247.824145 
L 264.285592 247.824145 
" style="fill:none;stroke:#262626;stroke-linecap:round;stroke-opacity:0.45;stroke-width:1.5;"/>
   </g>
   <g id="line2d_14">
    <path clip-path="url(#p2ed7b9ffb9)" d="M 269.989928 243.49155 
L 292.807272 243.49155 
" style="fill:none;stroke:#262626;stroke-linecap:round;stroke-opacity:0.45;stroke-width:1.5;"/>
   </g>
   <g id="line2d_15">
    <path clip-path="url(#p2ed7b9ffb9)" d="M 298.511608 255.033254 
L 321.328952 255.033254 
" style="fill:none;stroke:#262626;stroke-linecap:round;stroke-opacity:0.45;stroke-width:1.5;"/>
   </g>
   <g id="patch_6">
    <path d="M 210.0944 357.882 
L 210.0944 24.368 
" style="fill:none;stroke:#ffffff;stroke-linecap:square;stroke-linejoin:miter;stroke-width:1.25;"/>
   </g>
   <g id="patch_7">
    <path d="M 210.0944 357.882 
L 352.7028 357.882 
" style="fill:none;stroke:#ffffff;stroke-linecap:square;stroke-linejoin:miter;stroke-width:1.25;"/>
   </g>
   <g id="text_20">
    <!-- clusters = 4 -->
    <g style="fill:#262626;" transform="translate(252.4471 18.368)scale(0.096 -0.096)">
     <use xlink:href="#DejaVuSans-99"/>
     <use x="54.980469" xlink:href="#DejaVuSans-108"/>
     <use x="82.763672" xlink:href="#DejaVuSans-117"/>
     <use x="146.142578" xlink:href="#DejaVuSans-115"/>
     <use x="198.242188" xlink:href="#DejaVuSans-116"/>
     <use x="237.451172" xlink:href="#DejaVuSans-101"/>
     <use x="298.974609" xlink:href="#DejaVuSans-114"/>
     <use x="340.087891" xlink:href="#DejaVuSans-115"/>
     <use x="392.1875" xlink:href="#DejaVuSans-32"/>
     <use x="423.974609" xlink:href="#DejaVuSans-61"/>
     <use x="507.763672" xlink:href="#DejaVuSans-32"/>
     <use x="539.550781" xlink:href="#DejaVuSans-52"/>
    </g>
   </g>
  </g>
  <g id="axes_3">
   <g id="patch_8">
    <path d="M 375.0708 357.882 
L 517.6792 357.882 
L 517.6792 24.368 
L 375.0708 24.368 
z
" style="fill:#eaeaf2;"/>
   </g>
   <g id="matplotlib.axis_5">
    <g id="xtick_11">
     <g id="text_21">
      <!--    metis -->
      <g style="fill:#262626;" transform="translate(391.75989 400.237625)rotate(-90)scale(0.088 -0.088)">
       <use xlink:href="#DejaVuSans-32"/>
       <use x="31.787109" xlink:href="#DejaVuSans-32"/>
       <use x="63.574219" xlink:href="#DejaVuSans-32"/>
       <use x="95.361328" xlink:href="#DejaVuSans-109"/>
       <use x="192.773438" xlink:href="#DejaVuSans-101"/>
       <use x="254.296875" xlink:href="#DejaVuSans-116"/>
       <use x="293.505859" xlink:href="#DejaVuSans-105"/>
       <use x="321.289062" xlink:href="#DejaVuSans-115"/>
      </g>
     </g>
    </g>
    <g id="xtick_12">
     <g id="text_22">
      <!--   merged -->
      <g style="fill:#262626;" transform="translate(420.28157 407.16625)rotate(-90)scale(0.088 -0.088)">
       <use xlink:href="#DejaVuSans-32"/>
       <use x="31.787109" xlink:href="#DejaVuSans-32"/>
       <use x="63.574219" xlink:href="#DejaVuSans-109"/>
       <use x="160.986328" xlink:href="#DejaVuSans-101"/>
       <use x="222.509766" xlink:href="#DejaVuSans-114"/>
       <use x="263.607422" xlink:href="#DejaVuSans-103"/>
       <use x="327.083984" xlink:href="#DejaVuSans-101"/>
       <use x="388.607422" xlink:href="#DejaVuSans-100"/>
      </g>
     </g>
    </g>
    <g id="xtick_13">
     <g id="text_23">
      <!--     prio -->
      <g style="fill:#262626;" transform="translate(448.80325 395.6025)rotate(-90)scale(0.088 -0.088)">
       <use xlink:href="#DejaVuSans-32"/>
       <use x="31.787109" xlink:href="#DejaVuSans-32"/>
       <use x="63.574219" xlink:href="#DejaVuSans-32"/>
       <use x="95.361328" xlink:href="#DejaVuSans-32"/>
       <use x="127.148438" xlink:href="#DejaVuSans-112"/>
       <use x="190.625" xlink:href="#DejaVuSans-114"/>
       <use x="231.738281" xlink:href="#DejaVuSans-105"/>
       <use x="259.521484" xlink:href="#DejaVuSans-111"/>
      </g>
     </g>
    </g>
    <g id="xtick_14">
     <g id="text_24">
      <!--   kmeans -->
      <g style="fill:#262626;" transform="translate(477.32493 407.61175)rotate(-90)scale(0.088 -0.088)">
       <use xlink:href="#DejaVuSans-32"/>
       <use x="31.787109" xlink:href="#DejaVuSans-32"/>
       <use x="63.574219" xlink:href="#DejaVuSans-107"/>
       <use x="121.484375" xlink:href="#DejaVuSans-109"/>
       <use x="218.896484" xlink:href="#DejaVuSans-101"/>
       <use x="280.419922" xlink:href="#DejaVuSans-97"/>
       <use x="341.699219" xlink:href="#DejaVuSans-110"/>
       <use x="405.078125" xlink:href="#DejaVuSans-115"/>
      </g>
     </g>
    </g>
    <g id="xtick_15">
     <g id="text_25">
      <!--     base -->
      <g style="fill:#262626;" transform="translate(505.84661 399.547375)rotate(-90)scale(0.088 -0.088)">
       <use xlink:href="#DejaVuSans-32"/>
       <use x="31.787109" xlink:href="#DejaVuSans-32"/>
       <use x="63.574219" xlink:href="#DejaVuSans-32"/>
       <use x="95.361328" xlink:href="#DejaVuSans-32"/>
       <use x="127.148438" xlink:href="#DejaVuSans-98"/>
       <use x="190.625" xlink:href="#DejaVuSans-97"/>
       <use x="251.904297" xlink:href="#DejaVuSans-115"/>
       <use x="304.003906" xlink:href="#DejaVuSans-101"/>
      </g>
     </g>
    </g>
    <g id="text_26">
     <!-- method  -->
     <g style="fill:#262626;" transform="translate(426.3125 418.90625)scale(0.096 -0.096)">
      <use xlink:href="#DejaVuSans-109"/>
      <use x="97.412109" xlink:href="#DejaVuSans-101"/>
      <use x="158.935547" xlink:href="#DejaVuSans-116"/>
      <use x="198.144531" xlink:href="#DejaVuSans-104"/>
      <use x="261.523438" xlink:href="#DejaVuSans-111"/>
      <use x="322.705078" xlink:href="#DejaVuSans-100"/>
      <use x="386.181641" xlink:href="#DejaVuSans-32"/>
     </g>
    </g>
   </g>
   <g id="matplotlib.axis_6">
    <g id="ytick_11">
     <g id="line2d_16">
      <path clip-path="url(#p44ed98338b)" d="M 375.0708 308.480475 
L 517.6792 308.480475 
" style="fill:none;stroke:#ffffff;stroke-linecap:round;"/>
     </g>
    </g>
    <g id="ytick_12">
     <g id="line2d_17">
      <path clip-path="url(#p44ed98338b)" d="M 375.0708 245.296798 
L 517.6792 245.296798 
" style="fill:none;stroke:#ffffff;stroke-linecap:round;"/>
     </g>
    </g>
    <g id="ytick_13">
     <g id="line2d_18">
      <path clip-path="url(#p44ed98338b)" d="M 375.0708 182.113121 
L 517.6792 182.113121 
" style="fill:none;stroke:#ffffff;stroke-linecap:round;"/>
     </g>
    </g>
    <g id="ytick_14">
     <g id="line2d_19">
      <path clip-path="url(#p44ed98338b)" d="M 375.0708 118.929444 
L 517.6792 118.929444 
" style="fill:none;stroke:#ffffff;stroke-linecap:round;"/>
     </g>
    </g>
    <g id="ytick_15">
     <g id="line2d_20">
      <path clip-path="url(#p44ed98338b)" d="M 375.0708 55.745768 
L 517.6792 55.745768 
" style="fill:none;stroke:#ffffff;stroke-linecap:round;"/>
     </g>
    </g>
   </g>
   <g id="PathCollection_6">
    <g clip-path="url(#p44ed98338b)">
     <use style="fill:#176d9c;stroke:#176d9c;" x="389.33164" xlink:href="#m80c505bec6" y="314.798843"/>
     <use style="fill:#176d9c;stroke:#176d9c;" x="389.33164" xlink:href="#m80c505bec6" y="327.435578"/>
     <use style="fill:#176d9c;stroke:#176d9c;" x="389.33164" xlink:href="#m80c505bec6" y="321.11721"/>
     <use style="fill:#176d9c;stroke:#176d9c;" x="389.33164" xlink:href="#m80c505bec6" y="321.11721"/>
     <use style="fill:#176d9c;stroke:#176d9c;" x="389.33164" xlink:href="#m80c505bec6" y="137.884547"/>
     <use style="fill:#176d9c;stroke:#176d9c;" x="389.33164" xlink:href="#m80c505bec6" y="137.884547"/>
    </g>
   </g>
   <g id="PatchCollection_6">
    <path clip-path="url(#p44ed98338b)" d="M 389.287075 313.398189 
L 389.376205 313.398189 
L 389.376205 144.202915 
L 389.287075 144.202915 
z
" style="fill:#ffffff;stroke:#ffffff;"/>
    <path clip-path="url(#p44ed98338b)" d="M 389.24251 302.162107 
L 389.42077 302.162107 
L 389.42077 150.521283 
L 389.24251 150.521283 
z
" style="fill:#e2edf3;stroke:#ffffff;"/>
    <path clip-path="url(#p44ed98338b)" d="M 389.153379 295.84374 
L 389.509901 295.84374 
L 389.509901 156.839651 
L 389.153379 156.839651 
z
" style="fill:#c5dae6;stroke:#ffffff;"/>
    <path clip-path="url(#p44ed98338b)" d="M 388.975119 290.509796 
L 389.688161 290.509796 
L 389.688161 169.476386 
L 388.975119 169.476386 
z
" style="fill:#a8c8da;stroke:#ffffff;"/>
    <path clip-path="url(#p44ed98338b)" d="M 388.618598 283.207004 
L 390.044682 283.207004 
L 390.044682 175.794754 
L 388.618598 175.794754 
z
" style="fill:#8bb6cd;stroke:#ffffff;"/>
    <path clip-path="url(#p44ed98338b)" d="M 387.905556 275.545983 
L 390.757724 275.545983 
L 390.757724 185.723617 
L 387.905556 185.723617 
z
" style="fill:#6ea3c1;stroke:#ffffff;"/>
    <path clip-path="url(#p44ed98338b)" d="M 386.479472 264.251901 
L 392.183808 264.251901 
L 392.183808 194.749857 
L 386.479472 194.749857 
z
" style="fill:#5091b4;stroke:#ffffff;"/>
    <path clip-path="url(#p44ed98338b)" d="M 383.627304 252.878839 
L 395.035976 252.878839 
L 395.035976 207.386592 
L 383.627304 207.386592 
z
" style="fill:#337ea8;stroke:#ffffff;"/>
    <path clip-path="url(#p44ed98338b)" d="M 377.922968 243.49155 
L 400.740312 243.49155 
L 400.740312 217.594646 
L 377.922968 217.594646 
z
" style="fill:#176d9c;stroke:#ffffff;"/>
   </g>
   <g id="PathCollection_7">
    <g clip-path="url(#p44ed98338b)">
     <use style="fill:#c38820;stroke:#c38820;" x="417.85332" xlink:href="#mae205b6ab4" y="308.480475"/>
     <use style="fill:#c38820;stroke:#c38820;" x="417.85332" xlink:href="#mae205b6ab4" y="308.480475"/>
     <use style="fill:#c38820;stroke:#c38820;" x="417.85332" xlink:href="#mae205b6ab4" y="308.480475"/>
     <use style="fill:#c38820;stroke:#c38820;" x="417.85332" xlink:href="#mae205b6ab4" y="340.072313"/>
     <use style="fill:#c38820;stroke:#c38820;" x="417.85332" xlink:href="#mae205b6ab4" y="118.929444"/>
    </g>
   </g>
   <g id="PatchCollection_7">
    <path clip-path="url(#p44ed98338b)" d="M 417.808755 307.079821 
L 417.897885 307.079821 
L 417.897885 125.247812 
L 417.808755 125.247812 
z
" style="fill:#ffffff;stroke:#ffffff;"/>
    <path clip-path="url(#p44ed98338b)" d="M 417.76419 293.442619 
L 417.94245 293.442619 
L 417.94245 131.56618 
L 417.76419 131.56618 
z
" style="fill:#f7f0e3;stroke:#ffffff;"/>
    <path clip-path="url(#p44ed98338b)" d="M 417.675059 283.207004 
L 418.03158 283.207004 
L 418.03158 137.884547 
L 417.675059 137.884547 
z
" style="fill:#f0e1c7;stroke:#ffffff;"/>
    <path clip-path="url(#p44ed98338b)" d="M 417.496799 279.841909 
L 418.209841 279.841909 
L 418.209841 150.521283 
L 417.496799 150.521283 
z
" style="fill:#e8d2ab;stroke:#ffffff;"/>
    <path clip-path="url(#p44ed98338b)" d="M 417.140278 270.570269 
L 418.566362 270.570269 
L 418.566362 163.158018 
L 417.140278 163.158018 
z
" style="fill:#e1c38f;stroke:#ffffff;"/>
    <path clip-path="url(#p44ed98338b)" d="M 416.427236 261.442484 
L 419.279404 261.442484 
L 419.279404 169.476386 
L 416.427236 169.476386 
z
" style="fill:#d9b473;stroke:#ffffff;"/>
    <path clip-path="url(#p44ed98338b)" d="M 415.001152 251.615166 
L 420.705488 251.615166 
L 420.705488 182.113121 
L 415.001152 182.113121 
z
" style="fill:#d2a557;stroke:#ffffff;"/>
    <path clip-path="url(#p44ed98338b)" d="M 412.148984 239.881054 
L 423.557656 239.881054 
L 423.557656 194.749857 
L 412.148984 194.749857 
z
" style="fill:#ca963b;stroke:#ffffff;"/>
    <path clip-path="url(#p44ed98338b)" d="M 406.444648 231.396389 
L 429.261992 231.396389 
L 429.261992 204.016796 
L 406.444648 204.016796 
z
" style="fill:#c38820;stroke:#ffffff;"/>
   </g>
   <g id="PathCollection_8">
    <g clip-path="url(#p44ed98338b)">
     <use style="fill:#158b6a;stroke:#158b6a;" x="446.375" xlink:href="#m4b83c4ae51" y="327.435578"/>
     <use style="fill:#158b6a;stroke:#158b6a;" x="446.375" xlink:href="#m4b83c4ae51" y="302.162107"/>
     <use style="fill:#158b6a;stroke:#158b6a;" x="446.375" xlink:href="#m4b83c4ae51" y="327.435578"/>
     <use style="fill:#158b6a;stroke:#158b6a;" x="446.375" xlink:href="#m4b83c4ae51" y="308.480475"/>
     <use style="fill:#158b6a;stroke:#158b6a;" x="446.375" xlink:href="#m4b83c4ae51" y="144.202915"/>
     <use style="fill:#158b6a;stroke:#158b6a;" x="446.375" xlink:href="#m4b83c4ae51" y="137.884547"/>
     <use style="fill:#158b6a;stroke:#158b6a;" x="446.375" xlink:href="#m4b83c4ae51" y="125.247812"/>
     <use style="fill:#158b6a;stroke:#158b6a;" x="446.375" xlink:href="#m4b83c4ae51" y="131.56618"/>
    </g>
   </g>
   <g id="PatchCollection_8">
    <path clip-path="url(#p44ed98338b)" d="M 446.330435 301.962014 
L 446.419565 301.962014 
L 446.419565 145.603569 
L 446.330435 145.603569 
z
" style="fill:#ffffff;stroke:#ffffff;"/>
    <path clip-path="url(#p44ed98338b)" d="M 446.28587 295.84374 
L 446.46413 295.84374 
L 446.46413 156.839651 
L 446.28587 156.839651 
z
" style="fill:#e2f0ec;stroke:#ffffff;"/>
    <path clip-path="url(#p44ed98338b)" d="M 446.196739 289.525372 
L 446.55326 289.525372 
L 446.55326 156.839651 
L 446.196739 156.839651 
z
" style="fill:#c4e2da;stroke:#ffffff;"/>
    <path clip-path="url(#p44ed98338b)" d="M 446.018479 283.207004 
L 446.731521 283.207004 
L 446.731521 163.158018 
L 446.018479 163.158018 
z
" style="fill:#a7d3c7;stroke:#ffffff;"/>
    <path clip-path="url(#p44ed98338b)" d="M 445.661958 276.888637 
L 447.088042 276.888637 
L 447.088042 171.676532 
L 445.661958 171.676532 
z
" style="fill:#8ac5b4;stroke:#ffffff;"/>
    <path clip-path="url(#p44ed98338b)" d="M 444.948916 265.154525 
L 447.801084 265.154525 
L 447.801084 182.113121 
L 444.948916 182.113121 
z
" style="fill:#6cb6a2;stroke:#ffffff;"/>
    <path clip-path="url(#p44ed98338b)" d="M 443.522832 257.933534 
L 449.227168 257.933534 
L 449.227168 189.334113 
L 443.522832 189.334113 
z
" style="fill:#4fa78f;stroke:#ffffff;"/>
    <path clip-path="url(#p44ed98338b)" d="M 440.670664 247.824145 
L 452.079336 247.824145 
L 452.079336 200.1656 
L 440.670664 200.1656 
z
" style="fill:#32997c;stroke:#ffffff;"/>
    <path clip-path="url(#p44ed98338b)" d="M 434.966328 237.714757 
L 457.783672 237.714757 
L 457.783672 209.913939 
L 434.966328 209.913939 
z
" style="fill:#158b6a;stroke:#ffffff;"/>
   </g>
   <g id="PathCollection_9">
    <g clip-path="url(#p44ed98338b)">
     <use style="fill:#ba611b;stroke:#ba611b;" x="474.89668" xlink:href="#mdccf4658fa" y="125.247812"/>
     <use style="fill:#ba611b;stroke:#ba611b;" x="474.89668" xlink:href="#mdccf4658fa" y="125.247812"/>
     <use style="fill:#ba611b;stroke:#ba611b;" x="474.89668" xlink:href="#mdccf4658fa" y="131.56618"/>
     <use style="fill:#ba611b;stroke:#ba611b;" x="474.89668" xlink:href="#mdccf4658fa" y="125.247812"/>
    </g>
   </g>
   <g id="PatchCollection_9">
    <path clip-path="url(#p44ed98338b)" d="M 474.852115 308.480475 
L 474.941245 308.480475 
L 474.941245 132.966834 
L 474.852115 132.966834 
z
" style="fill:#ffffff;stroke:#ffffff;"/>
    <path clip-path="url(#p44ed98338b)" d="M 474.80755 295.84374 
L 474.98581 295.84374 
L 474.98581 144.202915 
L 474.80755 144.202915 
z
" style="fill:#f6ebe2;stroke:#ffffff;"/>
    <path clip-path="url(#p44ed98338b)" d="M 474.718419 294.038492 
L 475.07494 294.038492 
L 475.07494 156.839651 
L 474.718419 156.839651 
z
" style="fill:#eed7c6;stroke:#ffffff;"/>
    <path clip-path="url(#p44ed98338b)" d="M 474.540159 283.207004 
L 475.253201 283.207004 
L 475.253201 163.158018 
L 474.540159 163.158018 
z
" style="fill:#e5c4a9;stroke:#ffffff;"/>
    <path clip-path="url(#p44ed98338b)" d="M 474.183638 278.15231 
L 475.609722 278.15231 
L 475.609722 175.794754 
L 474.183638 175.794754 
z
" style="fill:#ddb08c;stroke:#ffffff;"/>
    <path clip-path="url(#p44ed98338b)" d="M 473.470596 270.570269 
L 476.322764 270.570269 
L 476.322764 188.431489 
L 473.470596 188.431489 
z
" style="fill:#d49c70;stroke:#ffffff;"/>
    <path clip-path="url(#p44ed98338b)" d="M 472.044512 262.988228 
L 477.748848 262.988228 
L 477.748848 194.749857 
L 472.044512 194.749857 
z
" style="fill:#cb8853;stroke:#ffffff;"/>
    <path clip-path="url(#p44ed98338b)" d="M 469.192344 251.615166 
L 480.601016 251.615166 
L 480.601016 203.776096 
L 469.192344 203.776096 
z
" style="fill:#c37436;stroke:#ffffff;"/>
    <path clip-path="url(#p44ed98338b)" d="M 463.488008 241.084553 
L 486.305352 241.084553 
L 486.305352 215.811082 
L 463.488008 215.811082 
z
" style="fill:#ba611b;stroke:#ffffff;"/>
   </g>
   <g id="line2d_21">
    <path clip-path="url(#p44ed98338b)" d="M 377.922968 231.396389 
L 400.740312 231.396389 
" style="fill:none;stroke:#262626;stroke-linecap:round;stroke-opacity:0.45;stroke-width:1.5;"/>
   </g>
   <g id="line2d_22">
    <path clip-path="url(#p44ed98338b)" d="M 406.444648 218.218079 
L 429.261992 218.218079 
" style="fill:none;stroke:#262626;stroke-linecap:round;stroke-opacity:0.45;stroke-width:1.5;"/>
   </g>
   <g id="line2d_23">
    <path clip-path="url(#p44ed98338b)" d="M 434.966328 222.550674 
L 457.783672 222.550674 
" style="fill:none;stroke:#262626;stroke-linecap:round;stroke-opacity:0.45;stroke-width:1.5;"/>
   </g>
   <g id="line2d_24">
    <path clip-path="url(#p44ed98338b)" d="M 463.488008 229.049567 
L 486.305352 229.049567 
" style="fill:none;stroke:#262626;stroke-linecap:round;stroke-opacity:0.45;stroke-width:1.5;"/>
   </g>
   <g id="patch_9">
    <path d="M 375.0708 357.882 
L 375.0708 24.368 
" style="fill:none;stroke:#ffffff;stroke-linecap:square;stroke-linejoin:miter;stroke-width:1.25;"/>
   </g>
   <g id="patch_10">
    <path d="M 375.0708 357.882 
L 517.6792 357.882 
" style="fill:none;stroke:#ffffff;stroke-linecap:square;stroke-linejoin:miter;stroke-width:1.25;"/>
   </g>
   <g id="text_27">
    <!-- clusters = 8 -->
    <defs>
     <path d="M 31.78125 34.625 
Q 24.75 34.625 20.71875 30.859375 
Q 16.703125 27.09375 16.703125 20.515625 
Q 16.703125 13.921875 20.71875 10.15625 
Q 24.75 6.390625 31.78125 6.390625 
Q 38.8125 6.390625 42.859375 10.171875 
Q 46.921875 13.96875 46.921875 20.515625 
Q 46.921875 27.09375 42.890625 30.859375 
Q 38.875 34.625 31.78125 34.625 
z
M 21.921875 38.8125 
Q 15.578125 40.375 12.03125 44.71875 
Q 8.5 49.078125 8.5 55.328125 
Q 8.5 64.0625 14.71875 69.140625 
Q 20.953125 74.21875 31.78125 74.21875 
Q 42.671875 74.21875 48.875 69.140625 
Q 55.078125 64.0625 55.078125 55.328125 
Q 55.078125 49.078125 51.53125 44.71875 
Q 48 40.375 41.703125 38.8125 
Q 48.828125 37.15625 52.796875 32.3125 
Q 56.78125 27.484375 56.78125 20.515625 
Q 56.78125 9.90625 50.3125 4.234375 
Q 43.84375 -1.421875 31.78125 -1.421875 
Q 19.734375 -1.421875 13.25 4.234375 
Q 6.78125 9.90625 6.78125 20.515625 
Q 6.78125 27.484375 10.78125 32.3125 
Q 14.796875 37.15625 21.921875 38.8125 
z
M 18.3125 54.390625 
Q 18.3125 48.734375 21.84375 45.5625 
Q 25.390625 42.390625 31.78125 42.390625 
Q 38.140625 42.390625 41.71875 45.5625 
Q 45.3125 48.734375 45.3125 54.390625 
Q 45.3125 60.0625 41.71875 63.234375 
Q 38.140625 66.40625 31.78125 66.40625 
Q 25.390625 66.40625 21.84375 63.234375 
Q 18.3125 60.0625 18.3125 54.390625 
z
" id="DejaVuSans-56"/>
    </defs>
    <g style="fill:#262626;" transform="translate(417.4235 18.368)scale(0.096 -0.096)">
     <use xlink:href="#DejaVuSans-99"/>
     <use x="54.980469" xlink:href="#DejaVuSans-108"/>
     <use x="82.763672" xlink:href="#DejaVuSans-117"/>
     <use x="146.142578" xlink:href="#DejaVuSans-115"/>
     <use x="198.242188" xlink:href="#DejaVuSans-116"/>
     <use x="237.451172" xlink:href="#DejaVuSans-101"/>
     <use x="298.974609" xlink:href="#DejaVuSans-114"/>
     <use x="340.087891" xlink:href="#DejaVuSans-115"/>
     <use x="392.1875" xlink:href="#DejaVuSans-32"/>
     <use x="423.974609" xlink:href="#DejaVuSans-61"/>
     <use x="507.763672" xlink:href="#DejaVuSans-32"/>
     <use x="539.550781" xlink:href="#DejaVuSans-56"/>
    </g>
   </g>
  </g>
  <g id="axes_4">
   <g id="patch_11">
    <path d="M 540.0472 357.882 
L 682.6556 357.882 
L 682.6556 24.368 
L 540.0472 24.368 
z
" style="fill:#eaeaf2;"/>
   </g>
   <g id="matplotlib.axis_7">
    <g id="xtick_16">
     <g id="text_28">
      <!--    metis -->
      <g style="fill:#262626;" transform="translate(556.73629 400.237625)rotate(-90)scale(0.088 -0.088)">
       <use xlink:href="#DejaVuSans-32"/>
       <use x="31.787109" xlink:href="#DejaVuSans-32"/>
       <use x="63.574219" xlink:href="#DejaVuSans-32"/>
       <use x="95.361328" xlink:href="#DejaVuSans-109"/>
       <use x="192.773438" xlink:href="#DejaVuSans-101"/>
       <use x="254.296875" xlink:href="#DejaVuSans-116"/>
       <use x="293.505859" xlink:href="#DejaVuSans-105"/>
       <use x="321.289062" xlink:href="#DejaVuSans-115"/>
      </g>
     </g>
    </g>
    <g id="xtick_17">
     <g id="text_29">
      <!--   merged -->
      <g style="fill:#262626;" transform="translate(585.25797 407.16625)rotate(-90)scale(0.088 -0.088)">
       <use xlink:href="#DejaVuSans-32"/>
       <use x="31.787109" xlink:href="#DejaVuSans-32"/>
       <use x="63.574219" xlink:href="#DejaVuSans-109"/>
       <use x="160.986328" xlink:href="#DejaVuSans-101"/>
       <use x="222.509766" xlink:href="#DejaVuSans-114"/>
       <use x="263.607422" xlink:href="#DejaVuSans-103"/>
       <use x="327.083984" xlink:href="#DejaVuSans-101"/>
       <use x="388.607422" xlink:href="#DejaVuSans-100"/>
      </g>
     </g>
    </g>
    <g id="xtick_18">
     <g id="text_30">
      <!--     prio -->
      <g style="fill:#262626;" transform="translate(613.77965 395.6025)rotate(-90)scale(0.088 -0.088)">
       <use xlink:href="#DejaVuSans-32"/>
       <use x="31.787109" xlink:href="#DejaVuSans-32"/>
       <use x="63.574219" xlink:href="#DejaVuSans-32"/>
       <use x="95.361328" xlink:href="#DejaVuSans-32"/>
       <use x="127.148438" xlink:href="#DejaVuSans-112"/>
       <use x="190.625" xlink:href="#DejaVuSans-114"/>
       <use x="231.738281" xlink:href="#DejaVuSans-105"/>
       <use x="259.521484" xlink:href="#DejaVuSans-111"/>
      </g>
     </g>
    </g>
    <g id="xtick_19">
     <g id="text_31">
      <!--   kmeans -->
      <g style="fill:#262626;" transform="translate(642.30133 407.61175)rotate(-90)scale(0.088 -0.088)">
       <use xlink:href="#DejaVuSans-32"/>
       <use x="31.787109" xlink:href="#DejaVuSans-32"/>
       <use x="63.574219" xlink:href="#DejaVuSans-107"/>
       <use x="121.484375" xlink:href="#DejaVuSans-109"/>
       <use x="218.896484" xlink:href="#DejaVuSans-101"/>
       <use x="280.419922" xlink:href="#DejaVuSans-97"/>
       <use x="341.699219" xlink:href="#DejaVuSans-110"/>
       <use x="405.078125" xlink:href="#DejaVuSans-115"/>
      </g>
     </g>
    </g>
    <g id="xtick_20">
     <g id="text_32">
      <!--     base -->
      <g style="fill:#262626;" transform="translate(670.82301 399.547375)rotate(-90)scale(0.088 -0.088)">
       <use xlink:href="#DejaVuSans-32"/>
       <use x="31.787109" xlink:href="#DejaVuSans-32"/>
       <use x="63.574219" xlink:href="#DejaVuSans-32"/>
       <use x="95.361328" xlink:href="#DejaVuSans-32"/>
       <use x="127.148438" xlink:href="#DejaVuSans-98"/>
       <use x="190.625" xlink:href="#DejaVuSans-97"/>
       <use x="251.904297" xlink:href="#DejaVuSans-115"/>
       <use x="304.003906" xlink:href="#DejaVuSans-101"/>
      </g>
     </g>
    </g>
    <g id="text_33">
     <!-- method  -->
     <g style="fill:#262626;" transform="translate(591.2889 418.90625)scale(0.096 -0.096)">
      <use xlink:href="#DejaVuSans-109"/>
      <use x="97.412109" xlink:href="#DejaVuSans-101"/>
      <use x="158.935547" xlink:href="#DejaVuSans-116"/>
      <use x="198.144531" xlink:href="#DejaVuSans-104"/>
      <use x="261.523438" xlink:href="#DejaVuSans-111"/>
      <use x="322.705078" xlink:href="#DejaVuSans-100"/>
      <use x="386.181641" xlink:href="#DejaVuSans-32"/>
     </g>
    </g>
   </g>
   <g id="matplotlib.axis_8">
    <g id="ytick_16">
     <g id="line2d_25">
      <path clip-path="url(#pa0c6dce999)" d="M 540.0472 308.480475 
L 682.6556 308.480475 
" style="fill:none;stroke:#ffffff;stroke-linecap:round;"/>
     </g>
    </g>
    <g id="ytick_17">
     <g id="line2d_26">
      <path clip-path="url(#pa0c6dce999)" d="M 540.0472 245.296798 
L 682.6556 245.296798 
" style="fill:none;stroke:#ffffff;stroke-linecap:round;"/>
     </g>
    </g>
    <g id="ytick_18">
     <g id="line2d_27">
      <path clip-path="url(#pa0c6dce999)" d="M 540.0472 182.113121 
L 682.6556 182.113121 
" style="fill:none;stroke:#ffffff;stroke-linecap:round;"/>
     </g>
    </g>
    <g id="ytick_19">
     <g id="line2d_28">
      <path clip-path="url(#pa0c6dce999)" d="M 540.0472 118.929444 
L 682.6556 118.929444 
" style="fill:none;stroke:#ffffff;stroke-linecap:round;"/>
     </g>
    </g>
    <g id="ytick_20">
     <g id="line2d_29">
      <path clip-path="url(#pa0c6dce999)" d="M 540.0472 55.745768 
L 682.6556 55.745768 
" style="fill:none;stroke:#ffffff;stroke-linecap:round;"/>
     </g>
    </g>
   </g>
   <g id="PathCollection_10">
    <g clip-path="url(#pa0c6dce999)">
     <use style="fill:#176d9c;stroke:#176d9c;" x="554.30804" xlink:href="#m80c505bec6" y="283.207004"/>
     <use style="fill:#176d9c;stroke:#176d9c;" x="554.30804" xlink:href="#m80c505bec6" y="289.525372"/>
     <use style="fill:#176d9c;stroke:#176d9c;" x="554.30804" xlink:href="#m80c505bec6" y="289.525372"/>
     <use style="fill:#176d9c;stroke:#176d9c;" x="554.30804" xlink:href="#m80c505bec6" y="279.596508"/>
     <use style="fill:#176d9c;stroke:#176d9c;" x="554.30804" xlink:href="#m80c505bec6" y="112.611077"/>
     <use style="fill:#176d9c;stroke:#176d9c;" x="554.30804" xlink:href="#m80c505bec6" y="112.611077"/>
     <use style="fill:#176d9c;stroke:#176d9c;" x="554.30804" xlink:href="#m80c505bec6" y="112.611077"/>
     <use style="fill:#176d9c;stroke:#176d9c;" x="554.30804" xlink:href="#m80c505bec6" y="106.292709"/>
    </g>
   </g>
   <g id="PatchCollection_10">
    <path clip-path="url(#pa0c6dce999)" d="M 554.263475 278.996228 
L 554.352605 278.996228 
L 554.352605 114.011731 
L 554.263475 114.011731 
z
" style="fill:#ffffff;stroke:#ffffff;"/>
    <path clip-path="url(#pa0c6dce999)" d="M 554.21891 270.570269 
L 554.39717 270.570269 
L 554.39717 121.330565 
L 554.21891 121.330565 
z
" style="fill:#e2edf3;stroke:#ffffff;"/>
    <path clip-path="url(#pa0c6dce999)" d="M 554.12978 264.251901 
L 554.4863 264.251901 
L 554.4863 130.850427 
L 554.12978 130.850427 
z
" style="fill:#c5dae6;stroke:#ffffff;"/>
    <path clip-path="url(#pa0c6dce999)" d="M 553.951519 258.506136 
L 554.664561 258.506136 
L 554.664561 137.884547 
L 553.951519 137.884547 
z
" style="fill:#a8c8da;stroke:#ffffff;"/>
    <path clip-path="url(#pa0c6dce999)" d="M 553.594998 251.615166 
L 555.021082 251.615166 
L 555.021082 144.202915 
L 553.594998 144.202915 
z
" style="fill:#8bb6cd;stroke:#ffffff;"/>
    <path clip-path="url(#pa0c6dce999)" d="M 552.881956 245.296798 
L 555.734124 245.296798 
L 555.734124 156.839651 
L 552.881956 156.839651 
z
" style="fill:#6ea3c1;stroke:#ffffff;"/>
    <path clip-path="url(#pa0c6dce999)" d="M 551.455872 232.660063 
L 557.160208 232.660063 
L 557.160208 164.421692 
L 551.455872 164.421692 
z
" style="fill:#5091b4;stroke:#ffffff;"/>
    <path clip-path="url(#pa0c6dce999)" d="M 548.603704 225.439071 
L 560.012376 225.439071 
L 560.012376 175.794754 
L 548.603704 175.794754 
z
" style="fill:#337ea8;stroke:#ffffff;"/>
    <path clip-path="url(#pa0c6dce999)" d="M 542.899368 213.70496 
L 565.716712 213.70496 
L 565.716712 187.167815 
L 542.899368 187.167815 
z
" style="fill:#176d9c;stroke:#ffffff;"/>
   </g>
   <g id="PathCollection_11">
    <g clip-path="url(#pa0c6dce999)">
     <use style="fill:#c38820;stroke:#c38820;" x="582.82972" xlink:href="#mae205b6ab4" y="289.525372"/>
     <use style="fill:#c38820;stroke:#c38820;" x="582.82972" xlink:href="#mae205b6ab4" y="289.525372"/>
     <use style="fill:#c38820;stroke:#c38820;" x="582.82972" xlink:href="#mae205b6ab4" y="289.525372"/>
     <use style="fill:#c38820;stroke:#c38820;" x="582.82972" xlink:href="#mae205b6ab4" y="314.798843"/>
     <use style="fill:#c38820;stroke:#c38820;" x="582.82972" xlink:href="#mae205b6ab4" y="112.611077"/>
     <use style="fill:#c38820;stroke:#c38820;" x="582.82972" xlink:href="#mae205b6ab4" y="99.974341"/>
     <use style="fill:#c38820;stroke:#c38820;" x="582.82972" xlink:href="#mae205b6ab4" y="87.337606"/>
    </g>
   </g>
   <g id="PatchCollection_11">
    <path clip-path="url(#pa0c6dce999)" d="M 582.785155 288.124718 
L 582.874285 288.124718 
L 582.874285 118.929444 
L 582.785155 118.929444 
z
" style="fill:#ffffff;stroke:#ffffff;"/>
    <path clip-path="url(#pa0c6dce999)" d="M 582.74059 282.086481 
L 582.91885 282.086481 
L 582.91885 125.247812 
L 582.74059 125.247812 
z
" style="fill:#f7f0e3;stroke:#ffffff;"/>
    <path clip-path="url(#pa0c6dce999)" d="M 582.651459 270.77477 
L 583.007981 270.77477 
L 583.007981 125.247812 
L 582.651459 125.247812 
z
" style="fill:#f0e1c7;stroke:#ffffff;"/>
    <path clip-path="url(#pa0c6dce999)" d="M 582.473199 264.251901 
L 583.186241 264.251901 
L 583.186241 137.884547 
L 582.473199 137.884547 
z
" style="fill:#e8d2ab;stroke:#ffffff;"/>
    <path clip-path="url(#pa0c6dce999)" d="M 582.116678 257.933534 
L 583.542762 257.933534 
L 583.542762 147.982653 
L 582.116678 147.982653 
z
" style="fill:#e1c38f;stroke:#ffffff;"/>
    <path clip-path="url(#pa0c6dce999)" d="M 581.403636 247.102046 
L 584.255804 247.102046 
L 584.255804 156.839651 
L 581.403636 156.839651 
z
" style="fill:#d9b473;stroke:#ffffff;"/>
    <path clip-path="url(#pa0c6dce999)" d="M 579.977552 237.714757 
L 585.681888 237.714757 
L 585.681888 169.476386 
L 579.977552 169.476386 
z
" style="fill:#d2a557;stroke:#ffffff;"/>
    <path clip-path="url(#pa0c6dce999)" d="M 577.125384 227.605369 
L 588.534056 227.605369 
L 588.534056 182.113121 
L 577.125384 182.113121 
z
" style="fill:#ca963b;stroke:#ffffff;"/>
    <path clip-path="url(#pa0c6dce999)" d="M 571.421048 218.218079 
L 594.238392 218.218079 
L 594.238392 190.958836 
L 571.421048 190.958836 
z
" style="fill:#c38820;stroke:#ffffff;"/>
   </g>
   <g id="PathCollection_12">
    <g clip-path="url(#pa0c6dce999)">
     <use style="fill:#158b6a;stroke:#158b6a;" x="611.3514" xlink:href="#m4b83c4ae51" y="276.888637"/>
     <use style="fill:#158b6a;stroke:#158b6a;" x="611.3514" xlink:href="#m4b83c4ae51" y="276.888637"/>
     <use style="fill:#158b6a;stroke:#158b6a;" x="611.3514" xlink:href="#m4b83c4ae51" y="81.019238"/>
     <use style="fill:#158b6a;stroke:#158b6a;" x="611.3514" xlink:href="#m4b83c4ae51" y="99.974341"/>
     <use style="fill:#158b6a;stroke:#158b6a;" x="611.3514" xlink:href="#m4b83c4ae51" y="99.974341"/>
     <use style="fill:#158b6a;stroke:#158b6a;" x="611.3514" xlink:href="#m4b83c4ae51" y="99.974341"/>
    </g>
   </g>
   <g id="PatchCollection_12">
    <path clip-path="url(#pa0c6dce999)" d="M 611.306835 270.570269 
L 611.395965 270.570269 
L 611.395965 102.775649 
L 611.306835 102.775649 
z
" style="fill:#ffffff;stroke:#ffffff;"/>
    <path clip-path="url(#pa0c6dce999)" d="M 611.26227 264.251901 
L 611.44053 264.251901 
L 611.44053 112.611077 
L 611.26227 112.611077 
z
" style="fill:#e2f0ec;stroke:#ffffff;"/>
    <path clip-path="url(#pa0c6dce999)" d="M 611.173139 258.342535 
L 611.52966 258.342535 
L 611.52966 125.247812 
L 611.173139 125.247812 
z
" style="fill:#c4e2da;stroke:#ffffff;"/>
    <path clip-path="url(#pa0c6dce999)" d="M 610.994879 251.615166 
L 611.707921 251.615166 
L 611.707921 131.56618 
L 610.994879 131.56618 
z
" style="fill:#a7d3c7;stroke:#ffffff;"/>
    <path clip-path="url(#pa0c6dce999)" d="M 610.638358 245.296798 
L 612.064442 245.296798 
L 612.064442 140.366763 
L 610.638358 140.366763 
z
" style="fill:#8ac5b4;stroke:#ffffff;"/>
    <path clip-path="url(#pa0c6dce999)" d="M 609.925316 237.714757 
L 612.777484 237.714757 
L 612.777484 150.521283 
L 609.925316 150.521283 
z
" style="fill:#6cb6a2;stroke:#ffffff;"/>
    <path clip-path="url(#pa0c6dce999)" d="M 608.499232 227.605369 
L 614.203568 227.605369 
L 614.203568 163.158018 
L 608.499232 163.158018 
z
" style="fill:#4fa78f;stroke:#ffffff;"/>
    <path clip-path="url(#pa0c6dce999)" d="M 605.647064 220.023327 
L 617.055736 220.023327 
L 617.055736 171.281634 
L 605.647064 171.281634 
z
" style="fill:#32997c;stroke:#ffffff;"/>
    <path clip-path="url(#pa0c6dce999)" d="M 599.942728 208.018429 
L 622.760072 208.018429 
L 622.760072 182.113121 
L 599.942728 182.113121 
z
" style="fill:#158b6a;stroke:#ffffff;"/>
   </g>
   <g id="PathCollection_13">
    <g clip-path="url(#pa0c6dce999)">
     <use style="fill:#ba611b;stroke:#ba611b;" x="639.87308" xlink:href="#mdccf4658fa" y="308.480475"/>
     <use style="fill:#ba611b;stroke:#ba611b;" x="639.87308" xlink:href="#mdccf4658fa" y="302.162107"/>
     <use style="fill:#ba611b;stroke:#ba611b;" x="639.87308" xlink:href="#mdccf4658fa" y="302.162107"/>
     <use style="fill:#ba611b;stroke:#ba611b;" x="639.87308" xlink:href="#mdccf4658fa" y="93.655974"/>
     <use style="fill:#ba611b;stroke:#ba611b;" x="639.87308" xlink:href="#mdccf4658fa" y="125.247812"/>
     <use style="fill:#ba611b;stroke:#ba611b;" x="639.87308" xlink:href="#mdccf4658fa" y="131.56618"/>
     <use style="fill:#ba611b;stroke:#ba611b;" x="639.87308" xlink:href="#mdccf4658fa" y="131.56618"/>
    </g>
   </g>
   <g id="PatchCollection_13">
    <path clip-path="url(#pa0c6dce999)" d="M 639.828515 295.84374 
L 639.917645 295.84374 
L 639.917645 132.966834 
L 639.828515 132.966834 
z
" style="fill:#ffffff;stroke:#ffffff;"/>
    <path clip-path="url(#pa0c6dce999)" d="M 639.78395 295.84374 
L 639.96221 295.84374 
L 639.96221 140.685855 
L 639.78395 140.685855 
z
" style="fill:#f6ebe2;stroke:#ffffff;"/>
    <path clip-path="url(#pa0c6dce999)" d="M 639.694819 289.525372 
L 640.05134 289.525372 
L 640.05134 150.521283 
L 639.694819 150.521283 
z
" style="fill:#eed7c6;stroke:#ffffff;"/>
    <path clip-path="url(#pa0c6dce999)" d="M 639.516559 276.888637 
L 640.229601 276.888637 
L 640.229601 156.839651 
L 639.516559 156.839651 
z
" style="fill:#e5c4a9;stroke:#ffffff;"/>
    <path clip-path="url(#pa0c6dce999)" d="M 639.160038 270.570269 
L 640.586122 270.570269 
L 640.586122 163.158018 
L 639.160038 163.158018 
z
" style="fill:#ddb08c;stroke:#ffffff;"/>
    <path clip-path="url(#pa0c6dce999)" d="M 638.446996 262.852834 
L 641.299164 262.852834 
L 641.299164 175.794754 
L 638.446996 175.794754 
z
" style="fill:#d49c70;stroke:#ffffff;"/>
    <path clip-path="url(#pa0c6dce999)" d="M 637.020912 251.615166 
L 642.725248 251.615166 
L 642.725248 182.113121 
L 637.020912 182.113121 
z
" style="fill:#cb8853;stroke:#ffffff;"/>
    <path clip-path="url(#pa0c6dce999)" d="M 634.168744 242.769451 
L 645.577416 242.769451 
L 645.577416 194.749857 
L 634.168744 194.749857 
z
" style="fill:#c37436;stroke:#ffffff;"/>
    <path clip-path="url(#pa0c6dce999)" d="M 628.464408 232.660063 
L 651.281752 232.660063 
L 651.281752 207.386592 
L 628.464408 207.386592 
z
" style="fill:#ba611b;stroke:#ffffff;"/>
   </g>
   <g id="line2d_30">
    <path clip-path="url(#pa0c6dce999)" d="M 542.899368 201.068224 
L 565.716712 201.068224 
" style="fill:none;stroke:#262626;stroke-linecap:round;stroke-opacity:0.45;stroke-width:1.5;"/>
   </g>
   <g id="line2d_31">
    <path clip-path="url(#pa0c6dce999)" d="M 571.421048 204.859245 
L 594.238392 204.859245 
" style="fill:none;stroke:#262626;stroke-linecap:round;stroke-opacity:0.45;stroke-width:1.5;"/>
   </g>
   <g id="line2d_32">
    <path clip-path="url(#pa0c6dce999)" d="M 599.942728 195.592306 
L 622.760072 195.592306 
" style="fill:none;stroke:#262626;stroke-linecap:round;stroke-opacity:0.45;stroke-width:1.5;"/>
   </g>
   <g id="line2d_33">
    <path clip-path="url(#pa0c6dce999)" d="M 628.464408 220.023327 
L 651.281752 220.023327 
" style="fill:none;stroke:#262626;stroke-linecap:round;stroke-opacity:0.45;stroke-width:1.5;"/>
   </g>
   <g id="patch_12">
    <path d="M 540.0472 357.882 
L 540.0472 24.368 
" style="fill:none;stroke:#ffffff;stroke-linecap:square;stroke-linejoin:miter;stroke-width:1.25;"/>
   </g>
   <g id="patch_13">
    <path d="M 540.0472 357.882 
L 682.6556 357.882 
" style="fill:none;stroke:#ffffff;stroke-linecap:square;stroke-linejoin:miter;stroke-width:1.25;"/>
   </g>
   <g id="text_34">
    <!-- clusters = 16 -->
    <g style="fill:#262626;" transform="translate(579.3459 18.368)scale(0.096 -0.096)">
     <use xlink:href="#DejaVuSans-99"/>
     <use x="54.980469" xlink:href="#DejaVuSans-108"/>
     <use x="82.763672" xlink:href="#DejaVuSans-117"/>
     <use x="146.142578" xlink:href="#DejaVuSans-115"/>
     <use x="198.242188" xlink:href="#DejaVuSans-116"/>
     <use x="237.451172" xlink:href="#DejaVuSans-101"/>
     <use x="298.974609" xlink:href="#DejaVuSans-114"/>
     <use x="340.087891" xlink:href="#DejaVuSans-115"/>
     <use x="392.1875" xlink:href="#DejaVuSans-32"/>
     <use x="423.974609" xlink:href="#DejaVuSans-61"/>
     <use x="507.763672" xlink:href="#DejaVuSans-32"/>
     <use x="539.550781" xlink:href="#DejaVuSans-49"/>
     <use x="603.173828" xlink:href="#DejaVuSans-54"/>
    </g>
   </g>
  </g>
  <g id="axes_5">
   <g id="patch_14">
    <path d="M 705.0236 357.882 
L 847.632 357.882 
L 847.632 24.368 
L 705.0236 24.368 
z
" style="fill:#eaeaf2;"/>
   </g>
   <g id="matplotlib.axis_9">
    <g id="xtick_21">
     <g id="text_35">
      <!--    metis -->
      <g style="fill:#262626;" transform="translate(721.71269 400.237625)rotate(-90)scale(0.088 -0.088)">
       <use xlink:href="#DejaVuSans-32"/>
       <use x="31.787109" xlink:href="#DejaVuSans-32"/>
       <use x="63.574219" xlink:href="#DejaVuSans-32"/>
       <use x="95.361328" xlink:href="#DejaVuSans-109"/>
       <use x="192.773438" xlink:href="#DejaVuSans-101"/>
       <use x="254.296875" xlink:href="#DejaVuSans-116"/>
       <use x="293.505859" xlink:href="#DejaVuSans-105"/>
       <use x="321.289062" xlink:href="#DejaVuSans-115"/>
      </g>
     </g>
    </g>
    <g id="xtick_22">
     <g id="text_36">
      <!--   merged -->
      <g style="fill:#262626;" transform="translate(750.23437 407.16625)rotate(-90)scale(0.088 -0.088)">
       <use xlink:href="#DejaVuSans-32"/>
       <use x="31.787109" xlink:href="#DejaVuSans-32"/>
       <use x="63.574219" xlink:href="#DejaVuSans-109"/>
       <use x="160.986328" xlink:href="#DejaVuSans-101"/>
       <use x="222.509766" xlink:href="#DejaVuSans-114"/>
       <use x="263.607422" xlink:href="#DejaVuSans-103"/>
       <use x="327.083984" xlink:href="#DejaVuSans-101"/>
       <use x="388.607422" xlink:href="#DejaVuSans-100"/>
      </g>
     </g>
    </g>
    <g id="xtick_23">
     <g id="text_37">
      <!--     prio -->
      <g style="fill:#262626;" transform="translate(778.75605 395.6025)rotate(-90)scale(0.088 -0.088)">
       <use xlink:href="#DejaVuSans-32"/>
       <use x="31.787109" xlink:href="#DejaVuSans-32"/>
       <use x="63.574219" xlink:href="#DejaVuSans-32"/>
       <use x="95.361328" xlink:href="#DejaVuSans-32"/>
       <use x="127.148438" xlink:href="#DejaVuSans-112"/>
       <use x="190.625" xlink:href="#DejaVuSans-114"/>
       <use x="231.738281" xlink:href="#DejaVuSans-105"/>
       <use x="259.521484" xlink:href="#DejaVuSans-111"/>
      </g>
     </g>
    </g>
    <g id="xtick_24">
     <g id="text_38">
      <!--   kmeans -->
      <g style="fill:#262626;" transform="translate(807.27773 407.61175)rotate(-90)scale(0.088 -0.088)">
       <use xlink:href="#DejaVuSans-32"/>
       <use x="31.787109" xlink:href="#DejaVuSans-32"/>
       <use x="63.574219" xlink:href="#DejaVuSans-107"/>
       <use x="121.484375" xlink:href="#DejaVuSans-109"/>
       <use x="218.896484" xlink:href="#DejaVuSans-101"/>
       <use x="280.419922" xlink:href="#DejaVuSans-97"/>
       <use x="341.699219" xlink:href="#DejaVuSans-110"/>
       <use x="405.078125" xlink:href="#DejaVuSans-115"/>
      </g>
     </g>
    </g>
    <g id="xtick_25">
     <g id="text_39">
      <!--     base -->
      <g style="fill:#262626;" transform="translate(835.79941 399.547375)rotate(-90)scale(0.088 -0.088)">
       <use xlink:href="#DejaVuSans-32"/>
       <use x="31.787109" xlink:href="#DejaVuSans-32"/>
       <use x="63.574219" xlink:href="#DejaVuSans-32"/>
       <use x="95.361328" xlink:href="#DejaVuSans-32"/>
       <use x="127.148438" xlink:href="#DejaVuSans-98"/>
       <use x="190.625" xlink:href="#DejaVuSans-97"/>
       <use x="251.904297" xlink:href="#DejaVuSans-115"/>
       <use x="304.003906" xlink:href="#DejaVuSans-101"/>
      </g>
     </g>
    </g>
    <g id="text_40">
     <!-- method  -->
     <g style="fill:#262626;" transform="translate(756.2653 418.90625)scale(0.096 -0.096)">
      <use xlink:href="#DejaVuSans-109"/>
      <use x="97.412109" xlink:href="#DejaVuSans-101"/>
      <use x="158.935547" xlink:href="#DejaVuSans-116"/>
      <use x="198.144531" xlink:href="#DejaVuSans-104"/>
      <use x="261.523438" xlink:href="#DejaVuSans-111"/>
      <use x="322.705078" xlink:href="#DejaVuSans-100"/>
      <use x="386.181641" xlink:href="#DejaVuSans-32"/>
     </g>
    </g>
   </g>
   <g id="matplotlib.axis_10">
    <g id="ytick_21">
     <g id="line2d_34">
      <path clip-path="url(#pef52fcf4f3)" d="M 705.0236 308.480475 
L 847.632 308.480475 
" style="fill:none;stroke:#ffffff;stroke-linecap:round;"/>
     </g>
    </g>
    <g id="ytick_22">
     <g id="line2d_35">
      <path clip-path="url(#pef52fcf4f3)" d="M 705.0236 245.296798 
L 847.632 245.296798 
" style="fill:none;stroke:#ffffff;stroke-linecap:round;"/>
     </g>
    </g>
    <g id="ytick_23">
     <g id="line2d_36">
      <path clip-path="url(#pef52fcf4f3)" d="M 705.0236 182.113121 
L 847.632 182.113121 
" style="fill:none;stroke:#ffffff;stroke-linecap:round;"/>
     </g>
    </g>
    <g id="ytick_24">
     <g id="line2d_37">
      <path clip-path="url(#pef52fcf4f3)" d="M 705.0236 118.929444 
L 847.632 118.929444 
" style="fill:none;stroke:#ffffff;stroke-linecap:round;"/>
     </g>
    </g>
    <g id="ytick_25">
     <g id="line2d_38">
      <path clip-path="url(#pef52fcf4f3)" d="M 705.0236 55.745768 
L 847.632 55.745768 
" style="fill:none;stroke:#ffffff;stroke-linecap:round;"/>
     </g>
    </g>
   </g>
   <g id="PathCollection_14">
    <g clip-path="url(#pef52fcf4f3)">
     <use style="fill:#176d9c;stroke:#176d9c;" x="719.28444" xlink:href="#m80c505bec6" y="276.888637"/>
     <use style="fill:#176d9c;stroke:#176d9c;" x="719.28444" xlink:href="#m80c505bec6" y="264.251901"/>
     <use style="fill:#176d9c;stroke:#176d9c;" x="719.28444" xlink:href="#m80c505bec6" y="270.570269"/>
     <use style="fill:#176d9c;stroke:#176d9c;" x="719.28444" xlink:href="#m80c505bec6" y="93.655974"/>
     <use style="fill:#176d9c;stroke:#176d9c;" x="719.28444" xlink:href="#m80c505bec6" y="55.745768"/>
     <use style="fill:#176d9c;stroke:#176d9c;" x="719.28444" xlink:href="#m80c505bec6" y="93.655974"/>
    </g>
   </g>
   <g id="PatchCollection_14">
    <path clip-path="url(#pef52fcf4f3)" d="M 719.239875 257.933534 
L 719.329005 257.933534 
L 719.329005 99.974341 
L 719.239875 99.974341 
z
" style="fill:#ffffff;stroke:#ffffff;"/>
    <path clip-path="url(#pef52fcf4f3)" d="M 719.19531 257.933534 
L 719.37357 257.933534 
L 719.37357 106.292709 
L 719.19531 106.292709 
z
" style="fill:#e2edf3;stroke:#ffffff;"/>
    <path clip-path="url(#pef52fcf4f3)" d="M 719.10618 250.814792 
L 719.462701 250.814792 
L 719.462701 111.183803 
L 719.10618 111.183803 
z
" style="fill:#c5dae6;stroke:#ffffff;"/>
    <path clip-path="url(#pef52fcf4f3)" d="M 718.927919 238.97843 
L 719.640961 238.97843 
L 719.640961 117.78424 
L 718.927919 117.78424 
z
" style="fill:#a8c8da;stroke:#ffffff;"/>
    <path clip-path="url(#pef52fcf4f3)" d="M 718.571398 232.660063 
L 719.997482 232.660063 
L 719.997482 125.247812 
L 718.571398 125.247812 
z
" style="fill:#8bb6cd;stroke:#ffffff;"/>
    <path clip-path="url(#pef52fcf4f3)" d="M 717.858356 220.023327 
L 720.710524 220.023327 
L 720.710524 131.56618 
L 717.858356 131.56618 
z
" style="fill:#6ea3c1;stroke:#ffffff;"/>
    <path clip-path="url(#pef52fcf4f3)" d="M 716.432272 212.441286 
L 722.136608 212.441286 
L 722.136608 138.854868 
L 716.432272 138.854868 
z
" style="fill:#5091b4;stroke:#ffffff;"/>
    <path clip-path="url(#pef52fcf4f3)" d="M 713.580104 201.068224 
L 724.988776 201.068224 
L 724.988776 150.521283 
L 713.580104 150.521283 
z
" style="fill:#337ea8;stroke:#ffffff;"/>
    <path clip-path="url(#pef52fcf4f3)" d="M 707.875768 188.431489 
L 730.693112 188.431489 
L 730.693112 163.158018 
L 707.875768 163.158018 
z
" style="fill:#176d9c;stroke:#ffffff;"/>
   </g>
   <g id="PathCollection_15">
    <g clip-path="url(#pef52fcf4f3)">
     <use style="fill:#c38820;stroke:#c38820;" x="747.80612" xlink:href="#mae205b6ab4" y="257.933534"/>
     <use style="fill:#c38820;stroke:#c38820;" x="747.80612" xlink:href="#mae205b6ab4" y="264.251901"/>
     <use style="fill:#c38820;stroke:#c38820;" x="747.80612" xlink:href="#mae205b6ab4" y="264.251901"/>
     <use style="fill:#c38820;stroke:#c38820;" x="747.80612" xlink:href="#mae205b6ab4" y="62.064135"/>
     <use style="fill:#c38820;stroke:#c38820;" x="747.80612" xlink:href="#mae205b6ab4" y="49.4274"/>
     <use style="fill:#c38820;stroke:#c38820;" x="747.80612" xlink:href="#mae205b6ab4" y="62.064135"/>
     <use style="fill:#c38820;stroke:#c38820;" x="747.80612" xlink:href="#mae205b6ab4" y="55.745768"/>
    </g>
   </g>
   <g id="PatchCollection_15">
    <path clip-path="url(#pef52fcf4f3)" d="M 747.761555 251.615166 
L 747.850685 251.615166 
L 747.850685 63.464789 
L 747.761555 63.464789 
z
" style="fill:#ffffff;stroke:#ffffff;"/>
    <path clip-path="url(#pef52fcf4f3)" d="M 747.71699 239.480868 
L 747.89525 239.480868 
L 747.89525 77.502178 
L 747.71699 77.502178 
z
" style="fill:#f7f0e3;stroke:#ffffff;"/>
    <path clip-path="url(#pef52fcf4f3)" d="M 747.62786 232.660063 
L 747.984381 232.660063 
L 747.984381 88.13798 
L 747.62786 88.13798 
z
" style="fill:#f0e1c7;stroke:#ffffff;"/>
    <path clip-path="url(#pef52fcf4f3)" d="M 747.449599 226.341695 
L 748.162641 226.341695 
L 748.162641 99.974341 
L 747.449599 99.974341 
z
" style="fill:#e8d2ab;stroke:#ffffff;"/>
    <path clip-path="url(#pef52fcf4f3)" d="M 747.093078 219.036082 
L 748.519162 219.036082 
L 748.519162 109.903205 
L 747.093078 109.903205 
z
" style="fill:#e1c38f;stroke:#ffffff;"/>
    <path clip-path="url(#pef52fcf4f3)" d="M 746.380036 207.386592 
L 749.232204 207.386592 
L 749.232204 118.929444 
L 746.380036 118.929444 
z
" style="fill:#d9b473;stroke:#ffffff;"/>
    <path clip-path="url(#pef52fcf4f3)" d="M 744.953952 197.277204 
L 750.658288 197.277204 
L 750.658288 131.56618 
L 744.953952 131.56618 
z
" style="fill:#d2a557;stroke:#ffffff;"/>
    <path clip-path="url(#pef52fcf4f3)" d="M 742.101784 188.431489 
L 753.510456 188.431489 
L 753.510456 138.787171 
L 742.101784 138.787171 
z
" style="fill:#ca963b;stroke:#ffffff;"/>
    <path clip-path="url(#pef52fcf4f3)" d="M 736.397448 177.058427 
L 759.214792 177.058427 
L 759.214792 150.521283 
L 736.397448 150.521283 
z
" style="fill:#c38820;stroke:#ffffff;"/>
   </g>
   <g id="PathCollection_16">
    <g clip-path="url(#pef52fcf4f3)">
     <use style="fill:#158b6a;stroke:#158b6a;" x="776.3278" xlink:href="#m4b83c4ae51" y="251.615166"/>
     <use style="fill:#158b6a;stroke:#158b6a;" x="776.3278" xlink:href="#m4b83c4ae51" y="250.712542"/>
     <use style="fill:#158b6a;stroke:#158b6a;" x="776.3278" xlink:href="#m4b83c4ae51" y="261.544029"/>
     <use style="fill:#158b6a;stroke:#158b6a;" x="776.3278" xlink:href="#m4b83c4ae51" y="62.064135"/>
     <use style="fill:#158b6a;stroke:#158b6a;" x="776.3278" xlink:href="#m4b83c4ae51" y="43.109032"/>
    </g>
   </g>
   <g id="PatchCollection_16">
    <path clip-path="url(#pef52fcf4f3)" d="M 776.283235 238.97843 
L 776.372365 238.97843 
L 776.372365 74.700871 
L 776.283235 74.700871 
z
" style="fill:#ffffff;stroke:#ffffff;"/>
    <path clip-path="url(#pef52fcf4f3)" d="M 776.23867 232.660063 
L 776.41693 232.660063 
L 776.41693 81.019238 
L 776.23867 81.019238 
z
" style="fill:#e2f0ec;stroke:#ffffff;"/>
    <path clip-path="url(#pef52fcf4f3)" d="M 776.14954 226.341695 
L 776.506061 226.341695 
L 776.506061 81.019238 
L 776.14954 81.019238 
z
" style="fill:#c4e2da;stroke:#ffffff;"/>
    <path clip-path="url(#pef52fcf4f3)" d="M 775.971279 220.023327 
L 776.684321 220.023327 
L 776.684321 93.655974 
L 775.971279 93.655974 
z
" style="fill:#a7d3c7;stroke:#ffffff;"/>
    <path clip-path="url(#pef52fcf4f3)" d="M 775.614758 213.70496 
L 777.040842 213.70496 
L 777.040842 99.974341 
L 775.614758 99.974341 
z
" style="fill:#8ac5b4;stroke:#ffffff;"/>
    <path clip-path="url(#pef52fcf4f3)" d="M 774.901716 201.068224 
L 777.753884 201.068224 
L 777.753884 112.650567 
L 774.901716 112.650567 
z
" style="fill:#6cb6a2;stroke:#ffffff;"/>
    <path clip-path="url(#pef52fcf4f3)" d="M 773.475632 192.22251 
L 779.179968 192.22251 
L 779.179968 125.247812 
L 773.475632 125.247812 
z
" style="fill:#4fa78f;stroke:#ffffff;"/>
    <path clip-path="url(#pef52fcf4f3)" d="M 770.623464 182.113121 
L 782.032136 182.113121 
L 782.032136 134.935976 
L 770.623464 134.935976 
z
" style="fill:#32997c;stroke:#ffffff;"/>
    <path clip-path="url(#pef52fcf4f3)" d="M 764.919128 171.281634 
L 787.736472 171.281634 
L 787.736472 144.202915 
L 764.919128 144.202915 
z
" style="fill:#158b6a;stroke:#ffffff;"/>
   </g>
   <g id="PathCollection_17">
    <g clip-path="url(#pef52fcf4f3)">
     <use style="fill:#ba611b;stroke:#ba611b;" x="804.84948" xlink:href="#mdccf4658fa" y="295.84374"/>
     <use style="fill:#ba611b;stroke:#ba611b;" x="804.84948" xlink:href="#mdccf4658fa" y="283.207004"/>
     <use style="fill:#ba611b;stroke:#ba611b;" x="804.84948" xlink:href="#mdccf4658fa" y="283.207004"/>
     <use style="fill:#ba611b;stroke:#ba611b;" x="804.84948" xlink:href="#mdccf4658fa" y="283.207004"/>
     <use style="fill:#ba611b;stroke:#ba611b;" x="804.84948" xlink:href="#mdccf4658fa" y="125.247812"/>
     <use style="fill:#ba611b;stroke:#ba611b;" x="804.84948" xlink:href="#mdccf4658fa" y="112.611077"/>
     <use style="fill:#ba611b;stroke:#ba611b;" x="804.84948" xlink:href="#mdccf4658fa" y="99.974341"/>
    </g>
   </g>
   <g id="PatchCollection_17">
    <path clip-path="url(#pef52fcf4f3)" d="M 804.804915 281.80635 
L 804.894045 281.80635 
L 804.894045 131.56618 
L 804.804915 131.56618 
z
" style="fill:#ffffff;stroke:#ffffff;"/>
    <path clip-path="url(#pef52fcf4f3)" d="M 804.76035 276.888637 
L 804.93861 276.888637 
L 804.93861 131.56618 
L 804.76035 131.56618 
z
" style="fill:#f6ebe2;stroke:#ffffff;"/>
    <path clip-path="url(#pef52fcf4f3)" d="M 804.67122 270.570269 
L 805.027741 270.570269 
L 805.027741 136.457273 
L 804.67122 136.457273 
z
" style="fill:#eed7c6;stroke:#ffffff;"/>
    <path clip-path="url(#pef52fcf4f3)" d="M 804.492959 257.933534 
L 805.206001 257.933534 
L 805.206001 137.884547 
L 804.492959 137.884547 
z
" style="fill:#e5c4a9;stroke:#ffffff;"/>
    <path clip-path="url(#pef52fcf4f3)" d="M 804.136438 252.187768 
L 805.562522 252.187768 
L 805.562522 149.618659 
L 804.136438 149.618659 
z
" style="fill:#ddb08c;stroke:#ffffff;"/>
    <path clip-path="url(#pef52fcf4f3)" d="M 803.423396 245.296798 
L 806.275564 245.296798 
L 806.275564 156.839651 
L 803.423396 156.839651 
z
" style="fill:#d49c70;stroke:#ffffff;"/>
    <path clip-path="url(#pef52fcf4f3)" d="M 801.997312 236.270559 
L 807.701648 236.270559 
L 807.701648 169.476386 
L 801.997312 169.476386 
z
" style="fill:#cb8853;stroke:#ffffff;"/>
    <path clip-path="url(#pef52fcf4f3)" d="M 799.145144 226.341695 
L 810.553816 226.341695 
L 810.553816 178.502625 
L 799.145144 178.502625 
z
" style="fill:#c37436;stroke:#ffffff;"/>
    <path clip-path="url(#pef52fcf4f3)" d="M 793.440808 216.232307 
L 816.258152 216.232307 
L 816.258152 189.334113 
L 793.440808 189.334113 
z
" style="fill:#ba611b;stroke:#ffffff;"/>
   </g>
   <g id="line2d_39">
    <path clip-path="url(#pef52fcf4f3)" d="M 707.875768 175.794754 
L 730.693112 175.794754 
" style="fill:none;stroke:#262626;stroke-linecap:round;stroke-opacity:0.45;stroke-width:1.5;"/>
   </g>
   <g id="line2d_40">
    <path clip-path="url(#pef52fcf4f3)" d="M 736.397448 164.060642 
L 759.214792 164.060642 
" style="fill:none;stroke:#262626;stroke-linecap:round;stroke-opacity:0.45;stroke-width:1.5;"/>
   </g>
   <g id="line2d_41">
    <path clip-path="url(#pef52fcf4f3)" d="M 764.919128 158.524549 
L 787.736472 158.524549 
" style="fill:none;stroke:#262626;stroke-linecap:round;stroke-opacity:0.45;stroke-width:1.5;"/>
   </g>
   <g id="line2d_42">
    <path clip-path="url(#pef52fcf4f3)" d="M 793.440808 202.373641 
L 816.258152 202.373641 
" style="fill:none;stroke:#262626;stroke-linecap:round;stroke-opacity:0.45;stroke-width:1.5;"/>
   </g>
   <g id="patch_15">
    <path d="M 705.0236 357.882 
L 705.0236 24.368 
" style="fill:none;stroke:#ffffff;stroke-linecap:square;stroke-linejoin:miter;stroke-width:1.25;"/>
   </g>
   <g id="patch_16">
    <path d="M 705.0236 357.882 
L 847.632 357.882 
" style="fill:none;stroke:#ffffff;stroke-linecap:square;stroke-linejoin:miter;stroke-width:1.25;"/>
   </g>
   <g id="text_41">
    <!-- clusters = 32 -->
    <g style="fill:#262626;" transform="translate(744.3223 18.368)scale(0.096 -0.096)">
     <use xlink:href="#DejaVuSans-99"/>
     <use x="54.980469" xlink:href="#DejaVuSans-108"/>
     <use x="82.763672" xlink:href="#DejaVuSans-117"/>
     <use x="146.142578" xlink:href="#DejaVuSans-115"/>
     <use x="198.242188" xlink:href="#DejaVuSans-116"/>
     <use x="237.451172" xlink:href="#DejaVuSans-101"/>
     <use x="298.974609" xlink:href="#DejaVuSans-114"/>
     <use x="340.087891" xlink:href="#DejaVuSans-115"/>
     <use x="392.1875" xlink:href="#DejaVuSans-32"/>
     <use x="423.974609" xlink:href="#DejaVuSans-61"/>
     <use x="507.763672" xlink:href="#DejaVuSans-32"/>
     <use x="539.550781" xlink:href="#DejaVuSans-51"/>
     <use x="603.173828" xlink:href="#DejaVuSans-50"/>
    </g>
   </g>
  </g>
 </g>
 <defs>
  <clipPath id="p13797338fd">
   <rect height="333.514" width="142.6084" x="45.118" y="24.368"/>
  </clipPath>
  <clipPath id="p2ed7b9ffb9">
   <rect height="333.514" width="142.6084" x="210.0944" y="24.368"/>
  </clipPath>
  <clipPath id="p44ed98338b">
   <rect height="333.514" width="142.6084" x="375.0708" y="24.368"/>
  </clipPath>
  <clipPath id="pa0c6dce999">
   <rect height="333.514" width="142.6084" x="540.0472" y="24.368"/>
  </clipPath>
  <clipPath id="pef52fcf4f3">
   <rect height="333.514" width="142.6084" x="705.0236" y="24.368"/>
  </clipPath>
 </defs>
</svg>
